G04 #@! TF.GenerationSoftware,KiCad,Pcbnew,5.1.1*
G04 #@! TF.CreationDate,2019-05-21T09:35:37+02:00*
G04 #@! TF.ProjectId,lunchbox-adapter,6c756e63-6862-46f7-982d-616461707465,rev?*
G04 #@! TF.SameCoordinates,PX6d20478PY83c6600*
G04 #@! TF.FileFunction,Copper,L2,Bot*
G04 #@! TF.FilePolarity,Positive*
%FSLAX46Y46*%
G04 Gerber Fmt 4.6, Leading zero omitted, Abs format (unit mm)*
G04 Created by KiCad (PCBNEW 5.1.1) date 2019-05-21 09:35:37*
%MOMM*%
%LPD*%
G04 APERTURE LIST*
%ADD10C,5.600000*%
%ADD11C,10.000000*%
%ADD12C,3.000000*%
%ADD13O,1.700000X1.700000*%
%ADD14R,1.700000X1.700000*%
%ADD15R,2.400000X2.400000*%
%ADD16O,2.400000X2.400000*%
%ADD17C,0.800000*%
%ADD18C,1.000000*%
%ADD19C,0.250000*%
%ADD20C,0.500000*%
%ADD21C,0.254000*%
G04 APERTURE END LIST*
D10*
X16332200Y42324000D03*
X16637000Y62324000D03*
D11*
X16637000Y52324000D03*
D12*
X5637000Y30324000D03*
X27637000Y30324000D03*
X5637000Y34324000D03*
X27637000Y34324000D03*
X5637000Y38324000D03*
X27637000Y38324000D03*
X5637000Y42324000D03*
X27637000Y42324000D03*
X5637000Y46324000D03*
X27637000Y46324000D03*
X5637000Y50324000D03*
X27637000Y50324000D03*
X5637000Y54324000D03*
X27637000Y54324000D03*
X5637000Y58324000D03*
X27637000Y58324000D03*
X5637000Y62324000D03*
X27637000Y62324000D03*
X5637000Y66324000D03*
X27637000Y66324000D03*
X5637000Y70324000D03*
X27637000Y70324000D03*
X5637000Y74324000D03*
X27637000Y74324000D03*
D10*
X57188100Y3479800D03*
X3835400Y3937000D03*
X61328300Y49974500D03*
X62839600Y85242400D03*
D13*
X62357000Y74930000D03*
X62357000Y77470000D03*
D14*
X62357000Y80010000D03*
X39204900Y84175600D03*
D13*
X41744900Y84175600D03*
X44284900Y84175600D03*
X46824900Y84175600D03*
D15*
X18669000Y18415000D03*
D16*
X18669000Y5715000D03*
D13*
X62230000Y5588000D03*
X62230000Y8128000D03*
X62230000Y10668000D03*
D14*
X62230000Y13208000D03*
X62357000Y57658000D03*
D13*
X62357000Y60198000D03*
X62357000Y62738000D03*
X62357000Y65278000D03*
X62357000Y67818000D03*
X62357000Y70358000D03*
X62357000Y30734000D03*
X62357000Y33274000D03*
X62357000Y35814000D03*
X62357000Y38354000D03*
X62357000Y40894000D03*
D14*
X62357000Y43434000D03*
X52298600Y84226400D03*
D13*
X54838600Y84226400D03*
X57378600Y84226400D03*
D14*
X47879000Y40894000D03*
D13*
X50419000Y40894000D03*
X47879000Y38354000D03*
X50419000Y38354000D03*
X47879000Y35814000D03*
X50419000Y35814000D03*
X47879000Y33274000D03*
X50419000Y33274000D03*
X56769000Y21336000D03*
X54229000Y21336000D03*
D14*
X51689000Y21336000D03*
X51689000Y16891000D03*
D13*
X54229000Y16891000D03*
X56769000Y16891000D03*
D17*
X20701000Y24638000D03*
X20688300Y30429200D03*
X37465000Y25527000D03*
X61722000Y25654000D03*
X45085000Y27051000D03*
X42799000Y13589000D03*
X37211000Y9525000D03*
X30353000Y9271000D03*
X22606000Y20955000D03*
X43307000Y9525000D03*
X50546000Y65024000D03*
X51308000Y48133000D03*
X46990000Y43688000D03*
X51054000Y73406000D03*
X36449000Y60921900D03*
X52031900Y8089900D03*
X35814000Y40894000D03*
X35814000Y44323000D03*
X36461700Y67805300D03*
X36461700Y71107300D03*
X38963600Y53251100D03*
X36474400Y53251100D03*
X49809400Y67932300D03*
X49809400Y76073000D03*
X47091600Y78790800D03*
X9537700Y76098400D03*
X12331700Y73304400D03*
X9525000Y79756000D03*
X23888700Y74536300D03*
X27952700Y80518000D03*
X31470600Y27076400D03*
X35598100Y30873700D03*
X10121900Y85267800D03*
X33413700Y38430200D03*
X33312100Y45415200D03*
X34556700Y39446200D03*
X34493200Y43497500D03*
X31648400Y70637400D03*
X31877000Y66763900D03*
X59867800Y32766000D03*
X33489900Y71882000D03*
X33514200Y67119500D03*
X32740600Y71043800D03*
X32753300Y67894200D03*
X31927800Y73901300D03*
X34239200Y67983100D03*
X7239000Y25336500D03*
X46799500Y4000500D03*
X10909300Y28028900D03*
X49568098Y8661400D03*
X46799500Y2768600D03*
X7391400Y26619200D03*
X9918700Y28854400D03*
X52451000Y6489700D03*
X51308000Y3846990D03*
X53428900Y3797300D03*
X42799000Y20320000D03*
X35687000Y19939000D03*
D18*
X20701000Y30416500D02*
X20688300Y30429200D01*
X20701000Y24638000D02*
X20701000Y30416500D01*
X35814000Y40894000D02*
X35814000Y44323000D01*
X36461700Y67805300D02*
X36461700Y71107300D01*
X38963600Y53251100D02*
X36474400Y53251100D01*
X49809400Y67932300D02*
X49809400Y76073000D01*
X49809400Y76073000D02*
X47091600Y78790800D01*
X9537700Y76098400D02*
X12331700Y73304400D01*
X9537700Y76098400D02*
X9525000Y79756000D01*
X23888700Y74536300D02*
X23888700Y76454000D01*
X23888700Y76454000D02*
X27952700Y80518000D01*
D19*
X31800800Y27076400D02*
X31470600Y27076400D01*
D18*
X35598100Y30873700D02*
X31800800Y27076400D01*
D19*
X62357000Y80010000D02*
X61257000Y80010000D01*
D20*
X5637000Y79944700D02*
X5637000Y74324000D01*
X5637000Y79944700D02*
X5637000Y80782900D01*
X5637000Y80782900D02*
X10121900Y85267800D01*
D19*
X33426400Y38442900D02*
X33413700Y38430200D01*
X33312100Y45415200D02*
X33426400Y45300900D01*
X33426400Y45300900D02*
X33426400Y38442900D01*
X34556700Y39446200D02*
X34556700Y43434000D01*
X34556700Y43434000D02*
X34493200Y43497500D01*
X31648400Y70637400D02*
X31648400Y66992500D01*
X31648400Y66992500D02*
X31877000Y66763900D01*
X61899800Y30734000D02*
X62357000Y30734000D01*
X59867800Y32766000D02*
X61899800Y30734000D01*
X33489900Y71882000D02*
X33489900Y67143800D01*
X33489900Y67143800D02*
X33514200Y67119500D01*
X32740600Y71043800D02*
X32740600Y67906900D01*
X32740600Y67906900D02*
X32753300Y67894200D01*
X33756600Y73329800D02*
X34239200Y72847200D01*
X34239200Y72847200D02*
X34239200Y67983100D01*
X31927800Y73901300D02*
X32499300Y73329800D01*
X32499300Y73329800D02*
X33756600Y73329800D01*
X46697900Y4000500D02*
X46799500Y4000500D01*
X7239000Y25349200D02*
X7239000Y25336500D01*
X9931400Y28028900D02*
X7239000Y25336500D01*
X10909300Y28028900D02*
X9931400Y28028900D01*
X49530000Y6731000D02*
X49530000Y8623302D01*
X49530000Y8623302D02*
X49568098Y8661400D01*
X46799500Y4000500D02*
X49530000Y6731000D01*
X7391400Y26657300D02*
X7391400Y26619200D01*
X9918700Y28854400D02*
X9906000Y28867100D01*
X9639300Y28867100D02*
X7391400Y26619200D01*
X9906000Y28867100D02*
X9639300Y28867100D01*
X48653700Y4622800D02*
X46799500Y2768600D01*
X52451000Y6489700D02*
X50584100Y4622800D01*
X50584100Y4622800D02*
X48653700Y4622800D01*
X51308000Y3846990D02*
X53379210Y3846990D01*
X53379210Y3846990D02*
X53428900Y3797300D01*
X42799000Y20320000D02*
X36068000Y20320000D01*
X36068000Y20320000D02*
X35687000Y19939000D01*
D21*
G36*
X67031001Y533000D02*
G01*
X58718117Y533000D01*
X58755026Y548288D01*
X59296827Y910309D01*
X59757591Y1371073D01*
X60119612Y1912874D01*
X60368975Y2514892D01*
X60496100Y3153990D01*
X60496100Y3805610D01*
X60368975Y4444708D01*
X60119612Y5046726D01*
X59996411Y5231110D01*
X60788524Y5231110D01*
X60833175Y5083901D01*
X60958359Y4821080D01*
X61132412Y4587731D01*
X61348645Y4392822D01*
X61598748Y4243843D01*
X61873109Y4146519D01*
X62103000Y4267186D01*
X62103000Y5461000D01*
X62357000Y5461000D01*
X62357000Y4267186D01*
X62586891Y4146519D01*
X62861252Y4243843D01*
X63111355Y4392822D01*
X63327588Y4587731D01*
X63501641Y4821080D01*
X63626825Y5083901D01*
X63671476Y5231110D01*
X63550155Y5461000D01*
X62357000Y5461000D01*
X62103000Y5461000D01*
X60909845Y5461000D01*
X60788524Y5231110D01*
X59996411Y5231110D01*
X59757591Y5588527D01*
X59401228Y5944890D01*
X60788524Y5944890D01*
X60909845Y5715000D01*
X62103000Y5715000D01*
X62103000Y5735000D01*
X62357000Y5735000D01*
X62357000Y5715000D01*
X63550155Y5715000D01*
X63671476Y5944890D01*
X63626825Y6092099D01*
X63501641Y6354920D01*
X63327588Y6588269D01*
X63111355Y6783178D01*
X62867060Y6928697D01*
X62988114Y6993402D01*
X63194897Y7163103D01*
X63364598Y7369886D01*
X63490698Y7605802D01*
X63568350Y7861786D01*
X63594570Y8128000D01*
X63568350Y8394214D01*
X63490698Y8650198D01*
X63364598Y8886114D01*
X63194897Y9092897D01*
X62988114Y9262598D01*
X62752198Y9388698D01*
X62721533Y9398000D01*
X62752198Y9407302D01*
X62988114Y9533402D01*
X63194897Y9703103D01*
X63364598Y9909886D01*
X63490698Y10145802D01*
X63568350Y10401786D01*
X63594570Y10668000D01*
X63568350Y10934214D01*
X63490698Y11190198D01*
X63364598Y11426114D01*
X63194897Y11632897D01*
X62988114Y11802598D01*
X62904028Y11847543D01*
X63080000Y11847543D01*
X63179585Y11857351D01*
X63275343Y11886399D01*
X63363595Y11933571D01*
X63440948Y11997052D01*
X63504429Y12074405D01*
X63551601Y12162657D01*
X63580649Y12258415D01*
X63590457Y12358000D01*
X63590457Y14058000D01*
X63580649Y14157585D01*
X63551601Y14253343D01*
X63504429Y14341595D01*
X63440948Y14418948D01*
X63363595Y14482429D01*
X63275343Y14529601D01*
X63179585Y14558649D01*
X63080000Y14568457D01*
X61380000Y14568457D01*
X61280415Y14558649D01*
X61184657Y14529601D01*
X61096405Y14482429D01*
X61019052Y14418948D01*
X60955571Y14341595D01*
X60908399Y14253343D01*
X60879351Y14157585D01*
X60869543Y14058000D01*
X60869543Y12358000D01*
X60879351Y12258415D01*
X60908399Y12162657D01*
X60955571Y12074405D01*
X61019052Y11997052D01*
X61096405Y11933571D01*
X61184657Y11886399D01*
X61280415Y11857351D01*
X61380000Y11847543D01*
X61555972Y11847543D01*
X61471886Y11802598D01*
X61265103Y11632897D01*
X61095402Y11426114D01*
X60969302Y11190198D01*
X60891650Y10934214D01*
X60865430Y10668000D01*
X60891650Y10401786D01*
X60969302Y10145802D01*
X61095402Y9909886D01*
X61265103Y9703103D01*
X61471886Y9533402D01*
X61707802Y9407302D01*
X61738467Y9398000D01*
X61707802Y9388698D01*
X61471886Y9262598D01*
X61265103Y9092897D01*
X61095402Y8886114D01*
X60969302Y8650198D01*
X60891650Y8394214D01*
X60865430Y8128000D01*
X60891650Y7861786D01*
X60969302Y7605802D01*
X61095402Y7369886D01*
X61265103Y7163103D01*
X61471886Y6993402D01*
X61592940Y6928697D01*
X61348645Y6783178D01*
X61132412Y6588269D01*
X60958359Y6354920D01*
X60833175Y6092099D01*
X60788524Y5944890D01*
X59401228Y5944890D01*
X59296827Y6049291D01*
X58755026Y6411312D01*
X58153008Y6660675D01*
X57513910Y6787800D01*
X56862290Y6787800D01*
X56223192Y6660675D01*
X55621174Y6411312D01*
X55079373Y6049291D01*
X54618609Y5588527D01*
X54256588Y5046726D01*
X54024322Y4485983D01*
X54007716Y4502589D01*
X53858999Y4601959D01*
X53693754Y4670406D01*
X53518330Y4705300D01*
X53339470Y4705300D01*
X53164046Y4670406D01*
X52998801Y4601959D01*
X52850084Y4502589D01*
X52827485Y4479990D01*
X51959105Y4479990D01*
X51886816Y4552279D01*
X51738099Y4651649D01*
X51575498Y4719001D01*
X52438197Y5581700D01*
X52540430Y5581700D01*
X52715854Y5616594D01*
X52881099Y5685041D01*
X53029816Y5784411D01*
X53156289Y5910884D01*
X53255659Y6059601D01*
X53324106Y6224846D01*
X53359000Y6400270D01*
X53359000Y6579130D01*
X53324106Y6754554D01*
X53255659Y6919799D01*
X53156289Y7068516D01*
X53029816Y7194989D01*
X52881099Y7294359D01*
X52715854Y7362806D01*
X52540430Y7397700D01*
X52361570Y7397700D01*
X52186146Y7362806D01*
X52020901Y7294359D01*
X51872184Y7194989D01*
X51745711Y7068516D01*
X51646341Y6919799D01*
X51577894Y6754554D01*
X51543000Y6579130D01*
X51543000Y6476897D01*
X50321903Y5255800D01*
X48949998Y5255800D01*
X49955620Y6261422D01*
X49979764Y6281236D01*
X50058866Y6377623D01*
X50117645Y6487590D01*
X50153840Y6606910D01*
X50163000Y6699912D01*
X50163000Y6699913D01*
X50166062Y6730999D01*
X50163000Y6762085D01*
X50163000Y7972197D01*
X50273387Y8082584D01*
X50372757Y8231301D01*
X50441204Y8396546D01*
X50476098Y8571970D01*
X50476098Y8750830D01*
X50441204Y8926254D01*
X50372757Y9091499D01*
X50273387Y9240216D01*
X50146914Y9366689D01*
X49998197Y9466059D01*
X49832952Y9534506D01*
X49657528Y9569400D01*
X49478668Y9569400D01*
X49303244Y9534506D01*
X49137999Y9466059D01*
X48989282Y9366689D01*
X48862809Y9240216D01*
X48763439Y9091499D01*
X48694992Y8926254D01*
X48660098Y8750830D01*
X48660098Y8571970D01*
X48694992Y8396546D01*
X48763439Y8231301D01*
X48862809Y8082584D01*
X48897001Y8048392D01*
X48897000Y6993198D01*
X46812303Y4908500D01*
X46710070Y4908500D01*
X46534646Y4873606D01*
X46369401Y4805159D01*
X46220684Y4705789D01*
X46094211Y4579316D01*
X45994841Y4430599D01*
X45926394Y4265354D01*
X45891500Y4089930D01*
X45891500Y3911070D01*
X45926394Y3735646D01*
X45994841Y3570401D01*
X46094211Y3421684D01*
X46131345Y3384550D01*
X46094211Y3347416D01*
X45994841Y3198699D01*
X45926394Y3033454D01*
X45891500Y2858030D01*
X45891500Y2679170D01*
X45926394Y2503746D01*
X45994841Y2338501D01*
X46094211Y2189784D01*
X46220684Y2063311D01*
X46369401Y1963941D01*
X46534646Y1895494D01*
X46710070Y1860600D01*
X46888930Y1860600D01*
X47064354Y1895494D01*
X47229599Y1963941D01*
X47378316Y2063311D01*
X47504789Y2189784D01*
X47604159Y2338501D01*
X47672606Y2503746D01*
X47707500Y2679170D01*
X47707500Y2781403D01*
X48915897Y3989800D01*
X50410618Y3989800D01*
X50400000Y3936420D01*
X50400000Y3757560D01*
X50434894Y3582136D01*
X50503341Y3416891D01*
X50602711Y3268174D01*
X50729184Y3141701D01*
X50877901Y3042331D01*
X51043146Y2973884D01*
X51218570Y2938990D01*
X51397430Y2938990D01*
X51572854Y2973884D01*
X51738099Y3042331D01*
X51886816Y3141701D01*
X51959105Y3213990D01*
X52728105Y3213990D01*
X52850084Y3092011D01*
X52998801Y2992641D01*
X53164046Y2924194D01*
X53339470Y2889300D01*
X53518330Y2889300D01*
X53693754Y2924194D01*
X53858999Y2992641D01*
X53905954Y3024015D01*
X54007225Y2514892D01*
X54256588Y1912874D01*
X54618609Y1371073D01*
X55079373Y910309D01*
X55621174Y548288D01*
X55658083Y533000D01*
X533000Y533000D01*
X533000Y3583037D01*
X654525Y2972092D01*
X903888Y2370074D01*
X1265909Y1828273D01*
X1726673Y1367509D01*
X2268474Y1005488D01*
X2870492Y756125D01*
X3509590Y629000D01*
X4161210Y629000D01*
X4800308Y756125D01*
X5402326Y1005488D01*
X5944127Y1367509D01*
X6404891Y1828273D01*
X6766912Y2370074D01*
X7016275Y2972092D01*
X7143400Y3611190D01*
X7143400Y4262810D01*
X7016275Y4901908D01*
X6850058Y5303194D01*
X16880801Y5303194D01*
X16995500Y4962246D01*
X17174511Y4650226D01*
X17410954Y4379125D01*
X17695743Y4159361D01*
X18017934Y3999379D01*
X18257195Y3926805D01*
X18542000Y4043568D01*
X18542000Y5588000D01*
X18796000Y5588000D01*
X18796000Y4043568D01*
X19080805Y3926805D01*
X19320066Y3999379D01*
X19642257Y4159361D01*
X19927046Y4379125D01*
X20163489Y4650226D01*
X20342500Y4962246D01*
X20457199Y5303194D01*
X20340854Y5588000D01*
X18796000Y5588000D01*
X18542000Y5588000D01*
X16997146Y5588000D01*
X16880801Y5303194D01*
X6850058Y5303194D01*
X6766912Y5503926D01*
X6404891Y6045727D01*
X6323812Y6126806D01*
X16880801Y6126806D01*
X16997146Y5842000D01*
X18542000Y5842000D01*
X18542000Y7386432D01*
X18796000Y7386432D01*
X18796000Y5842000D01*
X20340854Y5842000D01*
X20457199Y6126806D01*
X20342500Y6467754D01*
X20163489Y6779774D01*
X19927046Y7050875D01*
X19642257Y7270639D01*
X19320066Y7430621D01*
X19080805Y7503195D01*
X18796000Y7386432D01*
X18542000Y7386432D01*
X18257195Y7503195D01*
X18017934Y7430621D01*
X17695743Y7270639D01*
X17410954Y7050875D01*
X17174511Y6779774D01*
X16995500Y6467754D01*
X16880801Y6126806D01*
X6323812Y6126806D01*
X5944127Y6506491D01*
X5402326Y6868512D01*
X4800308Y7117875D01*
X4161210Y7245000D01*
X3509590Y7245000D01*
X2870492Y7117875D01*
X2268474Y6868512D01*
X1726673Y6506491D01*
X1265909Y6045727D01*
X903888Y5503926D01*
X654525Y4901908D01*
X533000Y4290963D01*
X533000Y19615000D01*
X16958543Y19615000D01*
X16958543Y17215000D01*
X16968351Y17115415D01*
X16997399Y17019657D01*
X17044571Y16931405D01*
X17108052Y16854052D01*
X17185405Y16790571D01*
X17273657Y16743399D01*
X17369415Y16714351D01*
X17469000Y16704543D01*
X19869000Y16704543D01*
X19968585Y16714351D01*
X20064343Y16743399D01*
X20152595Y16790571D01*
X20229948Y16854052D01*
X20293429Y16931405D01*
X20340601Y17019657D01*
X20369649Y17115415D01*
X20379457Y17215000D01*
X20379457Y17741000D01*
X50328543Y17741000D01*
X50328543Y16041000D01*
X50338351Y15941415D01*
X50367399Y15845657D01*
X50414571Y15757405D01*
X50478052Y15680052D01*
X50555405Y15616571D01*
X50643657Y15569399D01*
X50739415Y15540351D01*
X50839000Y15530543D01*
X52539000Y15530543D01*
X52638585Y15540351D01*
X52734343Y15569399D01*
X52822595Y15616571D01*
X52899948Y15680052D01*
X52963429Y15757405D01*
X53010601Y15845657D01*
X53039649Y15941415D01*
X53049457Y16041000D01*
X53049457Y16216972D01*
X53094402Y16132886D01*
X53264103Y15926103D01*
X53470886Y15756402D01*
X53706802Y15630302D01*
X53962786Y15552650D01*
X54162294Y15533000D01*
X54295706Y15533000D01*
X54495214Y15552650D01*
X54751198Y15630302D01*
X54987114Y15756402D01*
X55193897Y15926103D01*
X55363598Y16132886D01*
X55489698Y16368802D01*
X55499000Y16399467D01*
X55508302Y16368802D01*
X55634402Y16132886D01*
X55804103Y15926103D01*
X56010886Y15756402D01*
X56246802Y15630302D01*
X56502786Y15552650D01*
X56702294Y15533000D01*
X56835706Y15533000D01*
X57035214Y15552650D01*
X57291198Y15630302D01*
X57527114Y15756402D01*
X57733897Y15926103D01*
X57903598Y16132886D01*
X58029698Y16368802D01*
X58107350Y16624786D01*
X58133570Y16891000D01*
X58107350Y17157214D01*
X58029698Y17413198D01*
X57903598Y17649114D01*
X57733897Y17855897D01*
X57527114Y18025598D01*
X57291198Y18151698D01*
X57035214Y18229350D01*
X56835706Y18249000D01*
X56702294Y18249000D01*
X56502786Y18229350D01*
X56246802Y18151698D01*
X56010886Y18025598D01*
X55804103Y17855897D01*
X55634402Y17649114D01*
X55508302Y17413198D01*
X55499000Y17382533D01*
X55489698Y17413198D01*
X55363598Y17649114D01*
X55193897Y17855897D01*
X54987114Y18025598D01*
X54751198Y18151698D01*
X54495214Y18229350D01*
X54295706Y18249000D01*
X54162294Y18249000D01*
X53962786Y18229350D01*
X53706802Y18151698D01*
X53470886Y18025598D01*
X53264103Y17855897D01*
X53094402Y17649114D01*
X53049457Y17565028D01*
X53049457Y17741000D01*
X53039649Y17840585D01*
X53010601Y17936343D01*
X52963429Y18024595D01*
X52899948Y18101948D01*
X52822595Y18165429D01*
X52734343Y18212601D01*
X52638585Y18241649D01*
X52539000Y18251457D01*
X50839000Y18251457D01*
X50739415Y18241649D01*
X50643657Y18212601D01*
X50555405Y18165429D01*
X50478052Y18101948D01*
X50414571Y18024595D01*
X50367399Y17936343D01*
X50338351Y17840585D01*
X50328543Y17741000D01*
X20379457Y17741000D01*
X20379457Y19615000D01*
X20369649Y19714585D01*
X20340601Y19810343D01*
X20293429Y19898595D01*
X20229948Y19975948D01*
X20165998Y20028430D01*
X34779000Y20028430D01*
X34779000Y19849570D01*
X34813894Y19674146D01*
X34882341Y19508901D01*
X34981711Y19360184D01*
X35108184Y19233711D01*
X35256901Y19134341D01*
X35422146Y19065894D01*
X35597570Y19031000D01*
X35776430Y19031000D01*
X35951854Y19065894D01*
X36117099Y19134341D01*
X36265816Y19233711D01*
X36392289Y19360184D01*
X36491659Y19508901D01*
X36560106Y19674146D01*
X36562663Y19687000D01*
X42147895Y19687000D01*
X42220184Y19614711D01*
X42368901Y19515341D01*
X42534146Y19446894D01*
X42709570Y19412000D01*
X42888430Y19412000D01*
X43063854Y19446894D01*
X43229099Y19515341D01*
X43377816Y19614711D01*
X43504289Y19741184D01*
X43603659Y19889901D01*
X43672106Y20055146D01*
X43707000Y20230570D01*
X43707000Y20409430D01*
X43672106Y20584854D01*
X43603659Y20750099D01*
X43504289Y20898816D01*
X43377816Y21025289D01*
X43229099Y21124659D01*
X43063854Y21193106D01*
X42888430Y21228000D01*
X42709570Y21228000D01*
X42534146Y21193106D01*
X42368901Y21124659D01*
X42220184Y21025289D01*
X42147895Y20953000D01*
X36099085Y20953000D01*
X36067999Y20956062D01*
X36036913Y20953000D01*
X36036912Y20953000D01*
X35943910Y20943840D01*
X35824590Y20907645D01*
X35714623Y20848866D01*
X35712349Y20847000D01*
X35597570Y20847000D01*
X35422146Y20812106D01*
X35256901Y20743659D01*
X35108184Y20644289D01*
X34981711Y20517816D01*
X34882341Y20369099D01*
X34813894Y20203854D01*
X34779000Y20028430D01*
X20165998Y20028430D01*
X20152595Y20039429D01*
X20064343Y20086601D01*
X19968585Y20115649D01*
X19869000Y20125457D01*
X17469000Y20125457D01*
X17369415Y20115649D01*
X17273657Y20086601D01*
X17185405Y20039429D01*
X17108052Y19975948D01*
X17044571Y19898595D01*
X16997399Y19810343D01*
X16968351Y19714585D01*
X16958543Y19615000D01*
X533000Y19615000D01*
X533000Y22186000D01*
X50328543Y22186000D01*
X50328543Y20486000D01*
X50338351Y20386415D01*
X50367399Y20290657D01*
X50414571Y20202405D01*
X50478052Y20125052D01*
X50555405Y20061571D01*
X50643657Y20014399D01*
X50739415Y19985351D01*
X50839000Y19975543D01*
X52539000Y19975543D01*
X52638585Y19985351D01*
X52734343Y20014399D01*
X52822595Y20061571D01*
X52899948Y20125052D01*
X52963429Y20202405D01*
X53010601Y20290657D01*
X53039649Y20386415D01*
X53049457Y20486000D01*
X53049457Y20661972D01*
X53094402Y20577886D01*
X53264103Y20371103D01*
X53470886Y20201402D01*
X53706802Y20075302D01*
X53962786Y19997650D01*
X54162294Y19978000D01*
X54295706Y19978000D01*
X54495214Y19997650D01*
X54751198Y20075302D01*
X54987114Y20201402D01*
X55193897Y20371103D01*
X55363598Y20577886D01*
X55489698Y20813802D01*
X55499000Y20844467D01*
X55508302Y20813802D01*
X55634402Y20577886D01*
X55804103Y20371103D01*
X56010886Y20201402D01*
X56246802Y20075302D01*
X56502786Y19997650D01*
X56702294Y19978000D01*
X56835706Y19978000D01*
X57035214Y19997650D01*
X57291198Y20075302D01*
X57527114Y20201402D01*
X57733897Y20371103D01*
X57903598Y20577886D01*
X58029698Y20813802D01*
X58107350Y21069786D01*
X58133570Y21336000D01*
X58107350Y21602214D01*
X58029698Y21858198D01*
X57903598Y22094114D01*
X57733897Y22300897D01*
X57527114Y22470598D01*
X57291198Y22596698D01*
X57035214Y22674350D01*
X56835706Y22694000D01*
X56702294Y22694000D01*
X56502786Y22674350D01*
X56246802Y22596698D01*
X56010886Y22470598D01*
X55804103Y22300897D01*
X55634402Y22094114D01*
X55508302Y21858198D01*
X55499000Y21827533D01*
X55489698Y21858198D01*
X55363598Y22094114D01*
X55193897Y22300897D01*
X54987114Y22470598D01*
X54751198Y22596698D01*
X54495214Y22674350D01*
X54295706Y22694000D01*
X54162294Y22694000D01*
X53962786Y22674350D01*
X53706802Y22596698D01*
X53470886Y22470598D01*
X53264103Y22300897D01*
X53094402Y22094114D01*
X53049457Y22010028D01*
X53049457Y22186000D01*
X53039649Y22285585D01*
X53010601Y22381343D01*
X52963429Y22469595D01*
X52899948Y22546948D01*
X52822595Y22610429D01*
X52734343Y22657601D01*
X52638585Y22686649D01*
X52539000Y22696457D01*
X50839000Y22696457D01*
X50739415Y22686649D01*
X50643657Y22657601D01*
X50555405Y22610429D01*
X50478052Y22546948D01*
X50414571Y22469595D01*
X50367399Y22381343D01*
X50338351Y22285585D01*
X50328543Y22186000D01*
X533000Y22186000D01*
X533000Y25425930D01*
X6331000Y25425930D01*
X6331000Y25247070D01*
X6365894Y25071646D01*
X6434341Y24906401D01*
X6533711Y24757684D01*
X6660184Y24631211D01*
X6808901Y24531841D01*
X6974146Y24463394D01*
X7149570Y24428500D01*
X7328430Y24428500D01*
X7503854Y24463394D01*
X7669099Y24531841D01*
X7817816Y24631211D01*
X7944289Y24757684D01*
X8043659Y24906401D01*
X8112106Y25071646D01*
X8147000Y25247070D01*
X8147000Y25349303D01*
X10193597Y27395900D01*
X10258195Y27395900D01*
X10330484Y27323611D01*
X10479201Y27224241D01*
X10644446Y27155794D01*
X10819870Y27120900D01*
X10998730Y27120900D01*
X11174154Y27155794D01*
X11339399Y27224241D01*
X11488116Y27323611D01*
X11614589Y27450084D01*
X11713959Y27598801D01*
X11782406Y27764046D01*
X11817300Y27939470D01*
X11817300Y28118330D01*
X11782406Y28293754D01*
X11713959Y28458999D01*
X11614589Y28607716D01*
X11488116Y28734189D01*
X11339399Y28833559D01*
X11174154Y28902006D01*
X10998730Y28936900D01*
X10826700Y28936900D01*
X10826700Y28943830D01*
X10791806Y29119254D01*
X10723359Y29284499D01*
X10623989Y29433216D01*
X10497516Y29559689D01*
X10348799Y29659059D01*
X10183554Y29727506D01*
X10008130Y29762400D01*
X9829270Y29762400D01*
X9653846Y29727506D01*
X9488601Y29659059D01*
X9339884Y29559689D01*
X9213411Y29433216D01*
X9114041Y29284499D01*
X9080481Y29203478D01*
X7404203Y27527200D01*
X7301970Y27527200D01*
X7126546Y27492306D01*
X6961301Y27423859D01*
X6812584Y27324489D01*
X6686111Y27198016D01*
X6586741Y27049299D01*
X6518294Y26884054D01*
X6483400Y26708630D01*
X6483400Y26529770D01*
X6518294Y26354346D01*
X6586741Y26189101D01*
X6677459Y26053332D01*
X6660184Y26041789D01*
X6533711Y25915316D01*
X6434341Y25766599D01*
X6365894Y25601354D01*
X6331000Y25425930D01*
X533000Y25425930D01*
X533000Y74521771D01*
X3629000Y74521771D01*
X3629000Y74126229D01*
X3706166Y73738288D01*
X3857533Y73372855D01*
X4077284Y73043975D01*
X4356975Y72764284D01*
X4685855Y72544533D01*
X5051288Y72393166D01*
X5399010Y72324000D01*
X5051288Y72254834D01*
X4685855Y72103467D01*
X4356975Y71883716D01*
X4077284Y71604025D01*
X3857533Y71275145D01*
X3706166Y70909712D01*
X3629000Y70521771D01*
X3629000Y70126229D01*
X3706166Y69738288D01*
X3857533Y69372855D01*
X4077284Y69043975D01*
X4356975Y68764284D01*
X4685855Y68544533D01*
X5051288Y68393166D01*
X5399010Y68324000D01*
X5051288Y68254834D01*
X4685855Y68103467D01*
X4356975Y67883716D01*
X4077284Y67604025D01*
X3857533Y67275145D01*
X3706166Y66909712D01*
X3629000Y66521771D01*
X3629000Y66126229D01*
X3706166Y65738288D01*
X3857533Y65372855D01*
X4077284Y65043975D01*
X4356975Y64764284D01*
X4685855Y64544533D01*
X5051288Y64393166D01*
X5399010Y64324000D01*
X5051288Y64254834D01*
X4685855Y64103467D01*
X4356975Y63883716D01*
X4077284Y63604025D01*
X3857533Y63275145D01*
X3706166Y62909712D01*
X3629000Y62521771D01*
X3629000Y62126229D01*
X3706166Y61738288D01*
X3857533Y61372855D01*
X4077284Y61043975D01*
X4356975Y60764284D01*
X4685855Y60544533D01*
X5051288Y60393166D01*
X5399010Y60324000D01*
X5051288Y60254834D01*
X4685855Y60103467D01*
X4356975Y59883716D01*
X4077284Y59604025D01*
X3857533Y59275145D01*
X3706166Y58909712D01*
X3629000Y58521771D01*
X3629000Y58126229D01*
X3706166Y57738288D01*
X3857533Y57372855D01*
X4077284Y57043975D01*
X4356975Y56764284D01*
X4685855Y56544533D01*
X5051288Y56393166D01*
X5399010Y56324000D01*
X5051288Y56254834D01*
X4685855Y56103467D01*
X4356975Y55883716D01*
X4077284Y55604025D01*
X3857533Y55275145D01*
X3706166Y54909712D01*
X3629000Y54521771D01*
X3629000Y54126229D01*
X3706166Y53738288D01*
X3857533Y53372855D01*
X4077284Y53043975D01*
X4356975Y52764284D01*
X4685855Y52544533D01*
X5051288Y52393166D01*
X5399010Y52324000D01*
X5051288Y52254834D01*
X4685855Y52103467D01*
X4356975Y51883716D01*
X4077284Y51604025D01*
X3857533Y51275145D01*
X3706166Y50909712D01*
X3629000Y50521771D01*
X3629000Y50126229D01*
X3706166Y49738288D01*
X3857533Y49372855D01*
X4077284Y49043975D01*
X4356975Y48764284D01*
X4685855Y48544533D01*
X5051288Y48393166D01*
X5399010Y48324000D01*
X5051288Y48254834D01*
X4685855Y48103467D01*
X4356975Y47883716D01*
X4077284Y47604025D01*
X3857533Y47275145D01*
X3706166Y46909712D01*
X3629000Y46521771D01*
X3629000Y46126229D01*
X3706166Y45738288D01*
X3857533Y45372855D01*
X4077284Y45043975D01*
X4356975Y44764284D01*
X4685855Y44544533D01*
X5051288Y44393166D01*
X5399010Y44324000D01*
X5051288Y44254834D01*
X4685855Y44103467D01*
X4356975Y43883716D01*
X4077284Y43604025D01*
X3857533Y43275145D01*
X3706166Y42909712D01*
X3629000Y42521771D01*
X3629000Y42126229D01*
X3706166Y41738288D01*
X3857533Y41372855D01*
X4077284Y41043975D01*
X4356975Y40764284D01*
X4685855Y40544533D01*
X5051288Y40393166D01*
X5399010Y40324000D01*
X5051288Y40254834D01*
X4685855Y40103467D01*
X4356975Y39883716D01*
X4077284Y39604025D01*
X3857533Y39275145D01*
X3706166Y38909712D01*
X3629000Y38521771D01*
X3629000Y38126229D01*
X3706166Y37738288D01*
X3857533Y37372855D01*
X4077284Y37043975D01*
X4356975Y36764284D01*
X4685855Y36544533D01*
X5051288Y36393166D01*
X5399010Y36324000D01*
X5051288Y36254834D01*
X4685855Y36103467D01*
X4356975Y35883716D01*
X4077284Y35604025D01*
X3857533Y35275145D01*
X3706166Y34909712D01*
X3629000Y34521771D01*
X3629000Y34126229D01*
X3706166Y33738288D01*
X3857533Y33372855D01*
X4077284Y33043975D01*
X4356975Y32764284D01*
X4685855Y32544533D01*
X5051288Y32393166D01*
X5399010Y32324000D01*
X5051288Y32254834D01*
X4685855Y32103467D01*
X4356975Y31883716D01*
X4077284Y31604025D01*
X3857533Y31275145D01*
X3706166Y30909712D01*
X3629000Y30521771D01*
X3629000Y30126229D01*
X3706166Y29738288D01*
X3857533Y29372855D01*
X4077284Y29043975D01*
X4356975Y28764284D01*
X4685855Y28544533D01*
X5051288Y28393166D01*
X5439229Y28316000D01*
X5834771Y28316000D01*
X6222712Y28393166D01*
X6588145Y28544533D01*
X6917025Y28764284D01*
X7196716Y29043975D01*
X7416467Y29372855D01*
X7567834Y29738288D01*
X7645000Y30126229D01*
X7645000Y30429200D01*
X19675424Y30429200D01*
X19693001Y30250737D01*
X19693000Y24588483D01*
X19707585Y24440398D01*
X19765224Y24250390D01*
X19858824Y24075276D01*
X19984788Y23921788D01*
X20138276Y23795824D01*
X20313389Y23702224D01*
X20503397Y23644585D01*
X20701000Y23625123D01*
X20898602Y23644585D01*
X21088610Y23702224D01*
X21263724Y23795824D01*
X21417212Y23921788D01*
X21543176Y24075276D01*
X21636776Y24250389D01*
X21694415Y24440397D01*
X21709000Y24588482D01*
X21709000Y27165830D01*
X30562600Y27165830D01*
X30562600Y26986970D01*
X30597494Y26811546D01*
X30665941Y26646301D01*
X30765311Y26497584D01*
X30891784Y26371111D01*
X31040501Y26271741D01*
X31205746Y26203294D01*
X31349404Y26174719D01*
X31413189Y26140625D01*
X31603198Y26082986D01*
X31800800Y26063524D01*
X31998402Y26082986D01*
X32188411Y26140625D01*
X32363524Y26234224D01*
X32478549Y26328622D01*
X36345878Y30195950D01*
X36440276Y30310975D01*
X36533875Y30486088D01*
X36591514Y30676097D01*
X36610976Y30873699D01*
X36591514Y31071302D01*
X36533875Y31261311D01*
X36440276Y31436423D01*
X36314312Y31589912D01*
X36160823Y31715876D01*
X35985711Y31809475D01*
X35795702Y31867114D01*
X35598099Y31886576D01*
X35400497Y31867114D01*
X35210488Y31809475D01*
X35035375Y31715876D01*
X34920350Y31621478D01*
X31258965Y27960092D01*
X31205746Y27949506D01*
X31040501Y27881059D01*
X30891784Y27781689D01*
X30765311Y27655216D01*
X30665941Y27506499D01*
X30597494Y27341254D01*
X30562600Y27165830D01*
X21709000Y27165830D01*
X21709000Y30366985D01*
X21713877Y30416500D01*
X21707023Y30486088D01*
X21703509Y30521771D01*
X25629000Y30521771D01*
X25629000Y30126229D01*
X25706166Y29738288D01*
X25857533Y29372855D01*
X26077284Y29043975D01*
X26356975Y28764284D01*
X26685855Y28544533D01*
X27051288Y28393166D01*
X27439229Y28316000D01*
X27834771Y28316000D01*
X28222712Y28393166D01*
X28588145Y28544533D01*
X28917025Y28764284D01*
X29196716Y29043975D01*
X29416467Y29372855D01*
X29567834Y29738288D01*
X29645000Y30126229D01*
X29645000Y30521771D01*
X29567834Y30909712D01*
X29416467Y31275145D01*
X29196716Y31604025D01*
X28917025Y31883716D01*
X28588145Y32103467D01*
X28222712Y32254834D01*
X28194903Y32260366D01*
X28497383Y32358757D01*
X28793038Y32516786D01*
X28949048Y32832347D01*
X27637000Y34144395D01*
X26324952Y32832347D01*
X26480962Y32516786D01*
X26855745Y32325980D01*
X27084719Y32261484D01*
X27051288Y32254834D01*
X26685855Y32103467D01*
X26356975Y31883716D01*
X26077284Y31604025D01*
X25857533Y31275145D01*
X25706166Y30909712D01*
X25629000Y30521771D01*
X21703509Y30521771D01*
X21694415Y30614103D01*
X21636776Y30804111D01*
X21580331Y30909712D01*
X21543177Y30979223D01*
X21518340Y31009487D01*
X21417212Y31132712D01*
X21378750Y31164277D01*
X21366049Y31176978D01*
X21251024Y31271376D01*
X21075911Y31364975D01*
X20885902Y31422614D01*
X20688300Y31442076D01*
X20490698Y31422614D01*
X20300689Y31364975D01*
X20125576Y31271376D01*
X19972088Y31145412D01*
X19846124Y30991924D01*
X19752525Y30816811D01*
X19694886Y30626802D01*
X19675424Y30429200D01*
X7645000Y30429200D01*
X7645000Y30521771D01*
X7567834Y30909712D01*
X7416467Y31275145D01*
X7196716Y31604025D01*
X6917025Y31883716D01*
X6588145Y32103467D01*
X6222712Y32254834D01*
X5874990Y32324000D01*
X6222712Y32393166D01*
X6588145Y32544533D01*
X6917025Y32764284D01*
X7196716Y33043975D01*
X7416467Y33372855D01*
X7567834Y33738288D01*
X7645000Y34126229D01*
X7645000Y34281176D01*
X25492098Y34281176D01*
X25541666Y33863549D01*
X25671757Y33463617D01*
X25829786Y33167962D01*
X26145347Y33011952D01*
X27457395Y34324000D01*
X27816605Y34324000D01*
X29128653Y33011952D01*
X29444214Y33167962D01*
X29635020Y33542745D01*
X29749044Y33947551D01*
X29781902Y34366824D01*
X29732334Y34784451D01*
X29602243Y35184383D01*
X29444214Y35480038D01*
X29128653Y35636048D01*
X27816605Y34324000D01*
X27457395Y34324000D01*
X26145347Y35636048D01*
X25829786Y35480038D01*
X25638980Y35105255D01*
X25524956Y34700449D01*
X25492098Y34281176D01*
X7645000Y34281176D01*
X7645000Y34521771D01*
X7567834Y34909712D01*
X7416467Y35275145D01*
X7196716Y35604025D01*
X6917025Y35883716D01*
X6588145Y36103467D01*
X6222712Y36254834D01*
X5874990Y36324000D01*
X6222712Y36393166D01*
X6588145Y36544533D01*
X6917025Y36764284D01*
X7196716Y37043975D01*
X7416467Y37372855D01*
X7567834Y37738288D01*
X7645000Y38126229D01*
X7645000Y38521771D01*
X7567834Y38909712D01*
X7416467Y39275145D01*
X7196716Y39604025D01*
X6917025Y39883716D01*
X6588145Y40103467D01*
X6222712Y40254834D01*
X5874990Y40324000D01*
X6222712Y40393166D01*
X6588145Y40544533D01*
X6917025Y40764284D01*
X7196716Y41043975D01*
X7416467Y41372855D01*
X7567834Y41738288D01*
X7645000Y42126229D01*
X7645000Y42521771D01*
X7619532Y42649810D01*
X13024200Y42649810D01*
X13024200Y41998190D01*
X13151325Y41359092D01*
X13400688Y40757074D01*
X13762709Y40215273D01*
X14223473Y39754509D01*
X14765274Y39392488D01*
X15367292Y39143125D01*
X16006390Y39016000D01*
X16658010Y39016000D01*
X17297108Y39143125D01*
X17899126Y39392488D01*
X18440927Y39754509D01*
X18901691Y40215273D01*
X19263712Y40757074D01*
X19513075Y41359092D01*
X19640200Y41998190D01*
X19640200Y42649810D01*
X19513075Y43288908D01*
X19263712Y43890926D01*
X18901691Y44432727D01*
X18440927Y44893491D01*
X17899126Y45255512D01*
X17297108Y45504875D01*
X16658010Y45632000D01*
X16006390Y45632000D01*
X15367292Y45504875D01*
X14765274Y45255512D01*
X14223473Y44893491D01*
X13762709Y44432727D01*
X13400688Y43890926D01*
X13151325Y43288908D01*
X13024200Y42649810D01*
X7619532Y42649810D01*
X7567834Y42909712D01*
X7416467Y43275145D01*
X7196716Y43604025D01*
X6917025Y43883716D01*
X6588145Y44103467D01*
X6222712Y44254834D01*
X5874990Y44324000D01*
X6222712Y44393166D01*
X6588145Y44544533D01*
X6917025Y44764284D01*
X7196716Y45043975D01*
X7416467Y45372855D01*
X7567834Y45738288D01*
X7645000Y46126229D01*
X7645000Y46521771D01*
X7567834Y46909712D01*
X7416467Y47275145D01*
X7196716Y47604025D01*
X6917025Y47883716D01*
X6588145Y48103467D01*
X6222712Y48254834D01*
X5874990Y48324000D01*
X6222712Y48393166D01*
X6588145Y48544533D01*
X6917025Y48764284D01*
X7196716Y49043975D01*
X7416467Y49372855D01*
X7567834Y49738288D01*
X7645000Y50126229D01*
X7645000Y50521771D01*
X7567834Y50909712D01*
X7416467Y51275145D01*
X7196716Y51604025D01*
X6917025Y51883716D01*
X6588145Y52103467D01*
X6222712Y52254834D01*
X5874990Y52324000D01*
X6222712Y52393166D01*
X6588145Y52544533D01*
X6917025Y52764284D01*
X7019232Y52866491D01*
X11129000Y52866491D01*
X11129000Y51781509D01*
X11340669Y50717376D01*
X11755874Y49714984D01*
X12358657Y48812855D01*
X13125855Y48045657D01*
X14027984Y47442874D01*
X15030376Y47027669D01*
X16094509Y46816000D01*
X17179491Y46816000D01*
X18243624Y47027669D01*
X19246016Y47442874D01*
X20148145Y48045657D01*
X20915343Y48812855D01*
X21518126Y49714984D01*
X21852308Y50521771D01*
X25629000Y50521771D01*
X25629000Y50126229D01*
X25706166Y49738288D01*
X25857533Y49372855D01*
X26077284Y49043975D01*
X26356975Y48764284D01*
X26685855Y48544533D01*
X27051288Y48393166D01*
X27399010Y48324000D01*
X27051288Y48254834D01*
X26685855Y48103467D01*
X26356975Y47883716D01*
X26077284Y47604025D01*
X25857533Y47275145D01*
X25706166Y46909712D01*
X25629000Y46521771D01*
X25629000Y46126229D01*
X25706166Y45738288D01*
X25857533Y45372855D01*
X26077284Y45043975D01*
X26356975Y44764284D01*
X26685855Y44544533D01*
X27051288Y44393166D01*
X27399010Y44324000D01*
X27051288Y44254834D01*
X26685855Y44103467D01*
X26356975Y43883716D01*
X26077284Y43604025D01*
X25857533Y43275145D01*
X25706166Y42909712D01*
X25629000Y42521771D01*
X25629000Y42126229D01*
X25706166Y41738288D01*
X25857533Y41372855D01*
X26077284Y41043975D01*
X26356975Y40764284D01*
X26685855Y40544533D01*
X27051288Y40393166D01*
X27399010Y40324000D01*
X27051288Y40254834D01*
X26685855Y40103467D01*
X26356975Y39883716D01*
X26077284Y39604025D01*
X25857533Y39275145D01*
X25706166Y38909712D01*
X25629000Y38521771D01*
X25629000Y38126229D01*
X25706166Y37738288D01*
X25857533Y37372855D01*
X26077284Y37043975D01*
X26356975Y36764284D01*
X26685855Y36544533D01*
X27051288Y36393166D01*
X27079097Y36387634D01*
X26776617Y36289243D01*
X26480962Y36131214D01*
X26324952Y35815653D01*
X27637000Y34503605D01*
X28949048Y35815653D01*
X28793038Y36131214D01*
X28418255Y36322020D01*
X28189281Y36386516D01*
X28222712Y36393166D01*
X28588145Y36544533D01*
X28917025Y36764284D01*
X29196716Y37043975D01*
X29416467Y37372855D01*
X29567834Y37738288D01*
X29645000Y38126229D01*
X29645000Y38521771D01*
X29567834Y38909712D01*
X29416467Y39275145D01*
X29196716Y39604025D01*
X28917025Y39883716D01*
X28588145Y40103467D01*
X28222712Y40254834D01*
X27874990Y40324000D01*
X28222712Y40393166D01*
X28588145Y40544533D01*
X28917025Y40764284D01*
X29196716Y41043975D01*
X29416467Y41372855D01*
X29567834Y41738288D01*
X29645000Y42126229D01*
X29645000Y42521771D01*
X29567834Y42909712D01*
X29416467Y43275145D01*
X29196716Y43604025D01*
X28917025Y43883716D01*
X28588145Y44103467D01*
X28222712Y44254834D01*
X27874990Y44324000D01*
X28222712Y44393166D01*
X28588145Y44544533D01*
X28917025Y44764284D01*
X29196716Y45043975D01*
X29416467Y45372855D01*
X29471049Y45504630D01*
X32404100Y45504630D01*
X32404100Y45325770D01*
X32438994Y45150346D01*
X32507441Y44985101D01*
X32606811Y44836384D01*
X32733284Y44709911D01*
X32793400Y44669743D01*
X32793401Y39094006D01*
X32708411Y39009016D01*
X32609041Y38860299D01*
X32540594Y38695054D01*
X32505700Y38519630D01*
X32505700Y38340770D01*
X32540594Y38165346D01*
X32609041Y38000101D01*
X32708411Y37851384D01*
X32834884Y37724911D01*
X32983601Y37625541D01*
X33148846Y37557094D01*
X33324270Y37522200D01*
X33503130Y37522200D01*
X33678554Y37557094D01*
X33843799Y37625541D01*
X33992516Y37724911D01*
X34118989Y37851384D01*
X34218359Y38000101D01*
X34286806Y38165346D01*
X34321700Y38340770D01*
X34321700Y38354000D01*
X46514430Y38354000D01*
X46540650Y38087786D01*
X46618302Y37831802D01*
X46744402Y37595886D01*
X46914103Y37389103D01*
X47120886Y37219402D01*
X47356802Y37093302D01*
X47387467Y37084000D01*
X47356802Y37074698D01*
X47120886Y36948598D01*
X46914103Y36778897D01*
X46744402Y36572114D01*
X46618302Y36336198D01*
X46540650Y36080214D01*
X46514430Y35814000D01*
X46540650Y35547786D01*
X46618302Y35291802D01*
X46744402Y35055886D01*
X46914103Y34849103D01*
X47120886Y34679402D01*
X47356802Y34553302D01*
X47387467Y34544000D01*
X47356802Y34534698D01*
X47120886Y34408598D01*
X46914103Y34238897D01*
X46744402Y34032114D01*
X46618302Y33796198D01*
X46540650Y33540214D01*
X46514430Y33274000D01*
X46540650Y33007786D01*
X46618302Y32751802D01*
X46744402Y32515886D01*
X46914103Y32309103D01*
X47120886Y32139402D01*
X47356802Y32013302D01*
X47612786Y31935650D01*
X47812294Y31916000D01*
X47945706Y31916000D01*
X48145214Y31935650D01*
X48401198Y32013302D01*
X48637114Y32139402D01*
X48843897Y32309103D01*
X49013598Y32515886D01*
X49139698Y32751802D01*
X49149000Y32782467D01*
X49158302Y32751802D01*
X49284402Y32515886D01*
X49454103Y32309103D01*
X49660886Y32139402D01*
X49896802Y32013302D01*
X50152786Y31935650D01*
X50352294Y31916000D01*
X50485706Y31916000D01*
X50685214Y31935650D01*
X50941198Y32013302D01*
X51177114Y32139402D01*
X51383897Y32309103D01*
X51553598Y32515886D01*
X51679698Y32751802D01*
X51711133Y32855430D01*
X58959800Y32855430D01*
X58959800Y32676570D01*
X58994694Y32501146D01*
X59063141Y32335901D01*
X59162511Y32187184D01*
X59288984Y32060711D01*
X59437701Y31961341D01*
X59602946Y31892894D01*
X59778370Y31858000D01*
X59880603Y31858000D01*
X60993521Y30745081D01*
X60992430Y30734000D01*
X61018650Y30467786D01*
X61096302Y30211802D01*
X61222402Y29975886D01*
X61392103Y29769103D01*
X61598886Y29599402D01*
X61834802Y29473302D01*
X62090786Y29395650D01*
X62290294Y29376000D01*
X62423706Y29376000D01*
X62623214Y29395650D01*
X62879198Y29473302D01*
X63115114Y29599402D01*
X63321897Y29769103D01*
X63491598Y29975886D01*
X63617698Y30211802D01*
X63695350Y30467786D01*
X63721570Y30734000D01*
X63695350Y31000214D01*
X63617698Y31256198D01*
X63491598Y31492114D01*
X63321897Y31698897D01*
X63115114Y31868598D01*
X62879198Y31994698D01*
X62848533Y32004000D01*
X62879198Y32013302D01*
X63115114Y32139402D01*
X63321897Y32309103D01*
X63491598Y32515886D01*
X63617698Y32751802D01*
X63695350Y33007786D01*
X63721570Y33274000D01*
X63695350Y33540214D01*
X63617698Y33796198D01*
X63491598Y34032114D01*
X63321897Y34238897D01*
X63115114Y34408598D01*
X62879198Y34534698D01*
X62848533Y34544000D01*
X62879198Y34553302D01*
X63115114Y34679402D01*
X63321897Y34849103D01*
X63491598Y35055886D01*
X63617698Y35291802D01*
X63695350Y35547786D01*
X63721570Y35814000D01*
X63695350Y36080214D01*
X63617698Y36336198D01*
X63491598Y36572114D01*
X63321897Y36778897D01*
X63115114Y36948598D01*
X62879198Y37074698D01*
X62848533Y37084000D01*
X62879198Y37093302D01*
X63115114Y37219402D01*
X63321897Y37389103D01*
X63491598Y37595886D01*
X63617698Y37831802D01*
X63695350Y38087786D01*
X63721570Y38354000D01*
X63695350Y38620214D01*
X63617698Y38876198D01*
X63491598Y39112114D01*
X63321897Y39318897D01*
X63115114Y39488598D01*
X62879198Y39614698D01*
X62848533Y39624000D01*
X62879198Y39633302D01*
X63115114Y39759402D01*
X63321897Y39929103D01*
X63491598Y40135886D01*
X63617698Y40371802D01*
X63695350Y40627786D01*
X63721570Y40894000D01*
X63695350Y41160214D01*
X63617698Y41416198D01*
X63491598Y41652114D01*
X63321897Y41858897D01*
X63115114Y42028598D01*
X63031028Y42073543D01*
X63207000Y42073543D01*
X63306585Y42083351D01*
X63402343Y42112399D01*
X63490595Y42159571D01*
X63567948Y42223052D01*
X63631429Y42300405D01*
X63678601Y42388657D01*
X63707649Y42484415D01*
X63717457Y42584000D01*
X63717457Y44284000D01*
X63707649Y44383585D01*
X63678601Y44479343D01*
X63631429Y44567595D01*
X63567948Y44644948D01*
X63490595Y44708429D01*
X63402343Y44755601D01*
X63306585Y44784649D01*
X63207000Y44794457D01*
X61507000Y44794457D01*
X61407415Y44784649D01*
X61311657Y44755601D01*
X61223405Y44708429D01*
X61146052Y44644948D01*
X61082571Y44567595D01*
X61035399Y44479343D01*
X61006351Y44383585D01*
X60996543Y44284000D01*
X60996543Y42584000D01*
X61006351Y42484415D01*
X61035399Y42388657D01*
X61082571Y42300405D01*
X61146052Y42223052D01*
X61223405Y42159571D01*
X61311657Y42112399D01*
X61407415Y42083351D01*
X61507000Y42073543D01*
X61682972Y42073543D01*
X61598886Y42028598D01*
X61392103Y41858897D01*
X61222402Y41652114D01*
X61096302Y41416198D01*
X61018650Y41160214D01*
X60992430Y40894000D01*
X61018650Y40627786D01*
X61096302Y40371802D01*
X61222402Y40135886D01*
X61392103Y39929103D01*
X61598886Y39759402D01*
X61834802Y39633302D01*
X61865467Y39624000D01*
X61834802Y39614698D01*
X61598886Y39488598D01*
X61392103Y39318897D01*
X61222402Y39112114D01*
X61096302Y38876198D01*
X61018650Y38620214D01*
X60992430Y38354000D01*
X61018650Y38087786D01*
X61096302Y37831802D01*
X61222402Y37595886D01*
X61392103Y37389103D01*
X61598886Y37219402D01*
X61834802Y37093302D01*
X61865467Y37084000D01*
X61834802Y37074698D01*
X61598886Y36948598D01*
X61392103Y36778897D01*
X61222402Y36572114D01*
X61096302Y36336198D01*
X61018650Y36080214D01*
X60992430Y35814000D01*
X61018650Y35547786D01*
X61096302Y35291802D01*
X61222402Y35055886D01*
X61392103Y34849103D01*
X61598886Y34679402D01*
X61834802Y34553302D01*
X61865467Y34544000D01*
X61834802Y34534698D01*
X61598886Y34408598D01*
X61392103Y34238897D01*
X61222402Y34032114D01*
X61096302Y33796198D01*
X61018650Y33540214D01*
X60992430Y33274000D01*
X61018650Y33007786D01*
X61096302Y32751802D01*
X61222402Y32515886D01*
X61392103Y32309103D01*
X61598886Y32139402D01*
X61834802Y32013302D01*
X61865467Y32004000D01*
X61834802Y31994698D01*
X61638973Y31890025D01*
X60775800Y32753197D01*
X60775800Y32855430D01*
X60740906Y33030854D01*
X60672459Y33196099D01*
X60573089Y33344816D01*
X60446616Y33471289D01*
X60297899Y33570659D01*
X60132654Y33639106D01*
X59957230Y33674000D01*
X59778370Y33674000D01*
X59602946Y33639106D01*
X59437701Y33570659D01*
X59288984Y33471289D01*
X59162511Y33344816D01*
X59063141Y33196099D01*
X58994694Y33030854D01*
X58959800Y32855430D01*
X51711133Y32855430D01*
X51757350Y33007786D01*
X51783570Y33274000D01*
X51757350Y33540214D01*
X51679698Y33796198D01*
X51553598Y34032114D01*
X51383897Y34238897D01*
X51177114Y34408598D01*
X50941198Y34534698D01*
X50910533Y34544000D01*
X50941198Y34553302D01*
X51177114Y34679402D01*
X51383897Y34849103D01*
X51553598Y35055886D01*
X51679698Y35291802D01*
X51757350Y35547786D01*
X51783570Y35814000D01*
X51757350Y36080214D01*
X51679698Y36336198D01*
X51553598Y36572114D01*
X51383897Y36778897D01*
X51177114Y36948598D01*
X50941198Y37074698D01*
X50910533Y37084000D01*
X50941198Y37093302D01*
X51177114Y37219402D01*
X51383897Y37389103D01*
X51553598Y37595886D01*
X51679698Y37831802D01*
X51757350Y38087786D01*
X51783570Y38354000D01*
X51757350Y38620214D01*
X51679698Y38876198D01*
X51553598Y39112114D01*
X51383897Y39318897D01*
X51177114Y39488598D01*
X50941198Y39614698D01*
X50910533Y39624000D01*
X50941198Y39633302D01*
X51177114Y39759402D01*
X51383897Y39929103D01*
X51553598Y40135886D01*
X51679698Y40371802D01*
X51757350Y40627786D01*
X51783570Y40894000D01*
X51757350Y41160214D01*
X51679698Y41416198D01*
X51553598Y41652114D01*
X51383897Y41858897D01*
X51177114Y42028598D01*
X50941198Y42154698D01*
X50685214Y42232350D01*
X50485706Y42252000D01*
X50352294Y42252000D01*
X50152786Y42232350D01*
X49896802Y42154698D01*
X49660886Y42028598D01*
X49454103Y41858897D01*
X49284402Y41652114D01*
X49239457Y41568028D01*
X49239457Y41744000D01*
X49229649Y41843585D01*
X49200601Y41939343D01*
X49153429Y42027595D01*
X49089948Y42104948D01*
X49012595Y42168429D01*
X48924343Y42215601D01*
X48828585Y42244649D01*
X48729000Y42254457D01*
X47029000Y42254457D01*
X46929415Y42244649D01*
X46833657Y42215601D01*
X46745405Y42168429D01*
X46668052Y42104948D01*
X46604571Y42027595D01*
X46557399Y41939343D01*
X46528351Y41843585D01*
X46518543Y41744000D01*
X46518543Y40044000D01*
X46528351Y39944415D01*
X46557399Y39848657D01*
X46604571Y39760405D01*
X46668052Y39683052D01*
X46745405Y39619571D01*
X46833657Y39572399D01*
X46929415Y39543351D01*
X47029000Y39533543D01*
X47204972Y39533543D01*
X47120886Y39488598D01*
X46914103Y39318897D01*
X46744402Y39112114D01*
X46618302Y38876198D01*
X46540650Y38620214D01*
X46514430Y38354000D01*
X34321700Y38354000D01*
X34321700Y38519630D01*
X34311857Y38569114D01*
X34467270Y38538200D01*
X34646130Y38538200D01*
X34821554Y38573094D01*
X34986799Y38641541D01*
X35135516Y38740911D01*
X35261989Y38867384D01*
X35361359Y39016101D01*
X35429806Y39181346D01*
X35464700Y39356770D01*
X35464700Y39535630D01*
X35429806Y39711054D01*
X35361359Y39876299D01*
X35261989Y40025016D01*
X35189700Y40097305D01*
X35189700Y40102358D01*
X35251276Y40051824D01*
X35426389Y39958224D01*
X35616397Y39900585D01*
X35814000Y39881123D01*
X36011602Y39900585D01*
X36201610Y39958224D01*
X36376724Y40051824D01*
X36530212Y40177788D01*
X36656176Y40331276D01*
X36749776Y40506389D01*
X36807415Y40696397D01*
X36822000Y40844482D01*
X36822000Y44372518D01*
X36807415Y44520603D01*
X36749776Y44710611D01*
X36656176Y44885724D01*
X36530212Y45039212D01*
X36376724Y45165176D01*
X36201611Y45258776D01*
X36011603Y45316415D01*
X35814000Y45335877D01*
X35616398Y45316415D01*
X35426390Y45258776D01*
X35251277Y45165176D01*
X35097789Y45039212D01*
X34971825Y44885724D01*
X34878225Y44710611D01*
X34820586Y44520603D01*
X34806001Y44372518D01*
X34806001Y44350746D01*
X34758054Y44370606D01*
X34582630Y44405500D01*
X34403770Y44405500D01*
X34228346Y44370606D01*
X34063101Y44302159D01*
X34059400Y44299686D01*
X34059400Y44899258D01*
X34116759Y44985101D01*
X34185206Y45150346D01*
X34220100Y45325770D01*
X34220100Y45504630D01*
X34185206Y45680054D01*
X34116759Y45845299D01*
X34017389Y45994016D01*
X33890916Y46120489D01*
X33742199Y46219859D01*
X33576954Y46288306D01*
X33401530Y46323200D01*
X33222670Y46323200D01*
X33047246Y46288306D01*
X32882001Y46219859D01*
X32733284Y46120489D01*
X32606811Y45994016D01*
X32507441Y45845299D01*
X32438994Y45680054D01*
X32404100Y45504630D01*
X29471049Y45504630D01*
X29567834Y45738288D01*
X29645000Y46126229D01*
X29645000Y46521771D01*
X29567834Y46909712D01*
X29416467Y47275145D01*
X29196716Y47604025D01*
X28917025Y47883716D01*
X28588145Y48103467D01*
X28222712Y48254834D01*
X27874990Y48324000D01*
X28222712Y48393166D01*
X28588145Y48544533D01*
X28917025Y48764284D01*
X29196716Y49043975D01*
X29416467Y49372855D01*
X29567834Y49738288D01*
X29645000Y50126229D01*
X29645000Y50300310D01*
X58020300Y50300310D01*
X58020300Y49648690D01*
X58147425Y49009592D01*
X58396788Y48407574D01*
X58758809Y47865773D01*
X59219573Y47405009D01*
X59761374Y47042988D01*
X60363392Y46793625D01*
X61002490Y46666500D01*
X61654110Y46666500D01*
X62293208Y46793625D01*
X62895226Y47042988D01*
X63437027Y47405009D01*
X63897791Y47865773D01*
X64259812Y48407574D01*
X64509175Y49009592D01*
X64636300Y49648690D01*
X64636300Y50300310D01*
X64509175Y50939408D01*
X64259812Y51541426D01*
X63897791Y52083227D01*
X63437027Y52543991D01*
X62895226Y52906012D01*
X62293208Y53155375D01*
X61654110Y53282500D01*
X61002490Y53282500D01*
X60363392Y53155375D01*
X59761374Y52906012D01*
X59219573Y52543991D01*
X58758809Y52083227D01*
X58396788Y51541426D01*
X58147425Y50939408D01*
X58020300Y50300310D01*
X29645000Y50300310D01*
X29645000Y50521771D01*
X29567834Y50909712D01*
X29416467Y51275145D01*
X29196716Y51604025D01*
X28917025Y51883716D01*
X28588145Y52103467D01*
X28222712Y52254834D01*
X28194903Y52260366D01*
X28497383Y52358757D01*
X28793038Y52516786D01*
X28949048Y52832347D01*
X27637000Y54144395D01*
X26324952Y52832347D01*
X26480962Y52516786D01*
X26855745Y52325980D01*
X27084719Y52261484D01*
X27051288Y52254834D01*
X26685855Y52103467D01*
X26356975Y51883716D01*
X26077284Y51604025D01*
X25857533Y51275145D01*
X25706166Y50909712D01*
X25629000Y50521771D01*
X21852308Y50521771D01*
X21933331Y50717376D01*
X22145000Y51781509D01*
X22145000Y52866491D01*
X21933331Y53930624D01*
X21788128Y54281176D01*
X25492098Y54281176D01*
X25541666Y53863549D01*
X25671757Y53463617D01*
X25829786Y53167962D01*
X26145347Y53011952D01*
X27457395Y54324000D01*
X27816605Y54324000D01*
X29128653Y53011952D01*
X29444214Y53167962D01*
X29486540Y53251100D01*
X35461523Y53251100D01*
X35480985Y53053497D01*
X35538624Y52863489D01*
X35632224Y52688376D01*
X35758188Y52534888D01*
X35911676Y52408924D01*
X36086789Y52315324D01*
X36276797Y52257685D01*
X36424882Y52243100D01*
X39013118Y52243100D01*
X39161203Y52257685D01*
X39351211Y52315324D01*
X39526324Y52408924D01*
X39679812Y52534888D01*
X39805776Y52688376D01*
X39899376Y52863489D01*
X39957015Y53053497D01*
X39976477Y53251100D01*
X39957015Y53448703D01*
X39899376Y53638711D01*
X39805776Y53813824D01*
X39679812Y53967312D01*
X39526324Y54093276D01*
X39351211Y54186876D01*
X39161203Y54244515D01*
X39013118Y54259100D01*
X36424882Y54259100D01*
X36276797Y54244515D01*
X36086789Y54186876D01*
X35911676Y54093276D01*
X35758188Y53967312D01*
X35632224Y53813824D01*
X35538624Y53638711D01*
X35480985Y53448703D01*
X35461523Y53251100D01*
X29486540Y53251100D01*
X29635020Y53542745D01*
X29749044Y53947551D01*
X29781902Y54366824D01*
X29732334Y54784451D01*
X29602243Y55184383D01*
X29444214Y55480038D01*
X29128653Y55636048D01*
X27816605Y54324000D01*
X27457395Y54324000D01*
X26145347Y55636048D01*
X25829786Y55480038D01*
X25638980Y55105255D01*
X25524956Y54700449D01*
X25492098Y54281176D01*
X21788128Y54281176D01*
X21518126Y54933016D01*
X20915343Y55835145D01*
X20148145Y56602343D01*
X19246016Y57205126D01*
X18243624Y57620331D01*
X17179491Y57832000D01*
X16094509Y57832000D01*
X15030376Y57620331D01*
X14027984Y57205126D01*
X13125855Y56602343D01*
X12358657Y55835145D01*
X11755874Y54933016D01*
X11340669Y53930624D01*
X11129000Y52866491D01*
X7019232Y52866491D01*
X7196716Y53043975D01*
X7416467Y53372855D01*
X7567834Y53738288D01*
X7645000Y54126229D01*
X7645000Y54521771D01*
X7567834Y54909712D01*
X7416467Y55275145D01*
X7196716Y55604025D01*
X6917025Y55883716D01*
X6588145Y56103467D01*
X6222712Y56254834D01*
X5874990Y56324000D01*
X6222712Y56393166D01*
X6588145Y56544533D01*
X6917025Y56764284D01*
X7196716Y57043975D01*
X7416467Y57372855D01*
X7567834Y57738288D01*
X7645000Y58126229D01*
X7645000Y58521771D01*
X7567834Y58909712D01*
X7416467Y59275145D01*
X7196716Y59604025D01*
X6917025Y59883716D01*
X6588145Y60103467D01*
X6222712Y60254834D01*
X5874990Y60324000D01*
X6222712Y60393166D01*
X6588145Y60544533D01*
X6917025Y60764284D01*
X7196716Y61043975D01*
X7416467Y61372855D01*
X7567834Y61738288D01*
X7645000Y62126229D01*
X7645000Y62521771D01*
X7619532Y62649810D01*
X13329000Y62649810D01*
X13329000Y61998190D01*
X13456125Y61359092D01*
X13705488Y60757074D01*
X14067509Y60215273D01*
X14528273Y59754509D01*
X15070074Y59392488D01*
X15672092Y59143125D01*
X16311190Y59016000D01*
X16962810Y59016000D01*
X17601908Y59143125D01*
X18203926Y59392488D01*
X18745727Y59754509D01*
X19206491Y60215273D01*
X19568512Y60757074D01*
X19817875Y61359092D01*
X19945000Y61998190D01*
X19945000Y62649810D01*
X19817875Y63288908D01*
X19568512Y63890926D01*
X19206491Y64432727D01*
X18745727Y64893491D01*
X18203926Y65255512D01*
X17601908Y65504875D01*
X16962810Y65632000D01*
X16311190Y65632000D01*
X15672092Y65504875D01*
X15070074Y65255512D01*
X14528273Y64893491D01*
X14067509Y64432727D01*
X13705488Y63890926D01*
X13456125Y63288908D01*
X13329000Y62649810D01*
X7619532Y62649810D01*
X7567834Y62909712D01*
X7416467Y63275145D01*
X7196716Y63604025D01*
X6917025Y63883716D01*
X6588145Y64103467D01*
X6222712Y64254834D01*
X5874990Y64324000D01*
X6222712Y64393166D01*
X6588145Y64544533D01*
X6917025Y64764284D01*
X7196716Y65043975D01*
X7416467Y65372855D01*
X7567834Y65738288D01*
X7645000Y66126229D01*
X7645000Y66521771D01*
X7567834Y66909712D01*
X7416467Y67275145D01*
X7196716Y67604025D01*
X6917025Y67883716D01*
X6588145Y68103467D01*
X6222712Y68254834D01*
X5874990Y68324000D01*
X6222712Y68393166D01*
X6588145Y68544533D01*
X6917025Y68764284D01*
X7196716Y69043975D01*
X7416467Y69372855D01*
X7567834Y69738288D01*
X7645000Y70126229D01*
X7645000Y70521771D01*
X25629000Y70521771D01*
X25629000Y70126229D01*
X25706166Y69738288D01*
X25857533Y69372855D01*
X26077284Y69043975D01*
X26356975Y68764284D01*
X26685855Y68544533D01*
X27051288Y68393166D01*
X27399010Y68324000D01*
X27051288Y68254834D01*
X26685855Y68103467D01*
X26356975Y67883716D01*
X26077284Y67604025D01*
X25857533Y67275145D01*
X25706166Y66909712D01*
X25629000Y66521771D01*
X25629000Y66126229D01*
X25706166Y65738288D01*
X25857533Y65372855D01*
X26077284Y65043975D01*
X26356975Y64764284D01*
X26685855Y64544533D01*
X27051288Y64393166D01*
X27399010Y64324000D01*
X27051288Y64254834D01*
X26685855Y64103467D01*
X26356975Y63883716D01*
X26077284Y63604025D01*
X25857533Y63275145D01*
X25706166Y62909712D01*
X25629000Y62521771D01*
X25629000Y62126229D01*
X25706166Y61738288D01*
X25857533Y61372855D01*
X26077284Y61043975D01*
X26356975Y60764284D01*
X26685855Y60544533D01*
X27051288Y60393166D01*
X27399010Y60324000D01*
X27051288Y60254834D01*
X26685855Y60103467D01*
X26356975Y59883716D01*
X26077284Y59604025D01*
X25857533Y59275145D01*
X25706166Y58909712D01*
X25629000Y58521771D01*
X25629000Y58126229D01*
X25706166Y57738288D01*
X25857533Y57372855D01*
X26077284Y57043975D01*
X26356975Y56764284D01*
X26685855Y56544533D01*
X27051288Y56393166D01*
X27079097Y56387634D01*
X26776617Y56289243D01*
X26480962Y56131214D01*
X26324952Y55815653D01*
X27637000Y54503605D01*
X28949048Y55815653D01*
X28793038Y56131214D01*
X28418255Y56322020D01*
X28189281Y56386516D01*
X28222712Y56393166D01*
X28588145Y56544533D01*
X28917025Y56764284D01*
X29196716Y57043975D01*
X29416467Y57372855D01*
X29567834Y57738288D01*
X29645000Y58126229D01*
X29645000Y58521771D01*
X29567834Y58909712D01*
X29416467Y59275145D01*
X29196716Y59604025D01*
X28917025Y59883716D01*
X28588145Y60103467D01*
X28222712Y60254834D01*
X27874990Y60324000D01*
X28222712Y60393166D01*
X28588145Y60544533D01*
X28917025Y60764284D01*
X29196716Y61043975D01*
X29416467Y61372855D01*
X29567834Y61738288D01*
X29645000Y62126229D01*
X29645000Y62521771D01*
X29567834Y62909712D01*
X29416467Y63275145D01*
X29196716Y63604025D01*
X28917025Y63883716D01*
X28588145Y64103467D01*
X28222712Y64254834D01*
X27874990Y64324000D01*
X28222712Y64393166D01*
X28588145Y64544533D01*
X28917025Y64764284D01*
X29196716Y65043975D01*
X29416467Y65372855D01*
X29567834Y65738288D01*
X29645000Y66126229D01*
X29645000Y66521771D01*
X29567834Y66909712D01*
X29416467Y67275145D01*
X29196716Y67604025D01*
X28917025Y67883716D01*
X28588145Y68103467D01*
X28222712Y68254834D01*
X27874990Y68324000D01*
X28222712Y68393166D01*
X28588145Y68544533D01*
X28917025Y68764284D01*
X29196716Y69043975D01*
X29416467Y69372855D01*
X29567834Y69738288D01*
X29645000Y70126229D01*
X29645000Y70521771D01*
X29604212Y70726830D01*
X30740400Y70726830D01*
X30740400Y70547970D01*
X30775294Y70372546D01*
X30843741Y70207301D01*
X30943111Y70058584D01*
X31015400Y69986295D01*
X31015401Y67056534D01*
X31003894Y67028754D01*
X30969000Y66853330D01*
X30969000Y66674470D01*
X31003894Y66499046D01*
X31072341Y66333801D01*
X31171711Y66185084D01*
X31298184Y66058611D01*
X31446901Y65959241D01*
X31612146Y65890794D01*
X31787570Y65855900D01*
X31966430Y65855900D01*
X32141854Y65890794D01*
X32307099Y65959241D01*
X32455816Y66058611D01*
X32582289Y66185084D01*
X32681659Y66333801D01*
X32750106Y66499046D01*
X32769978Y66598951D01*
X32808911Y66540684D01*
X32935384Y66414211D01*
X33084101Y66314841D01*
X33249346Y66246394D01*
X33424770Y66211500D01*
X33603630Y66211500D01*
X33779054Y66246394D01*
X33944299Y66314841D01*
X34093016Y66414211D01*
X34219489Y66540684D01*
X34318859Y66689401D01*
X34387306Y66854646D01*
X34422200Y67030070D01*
X34422200Y67093712D01*
X34504054Y67109994D01*
X34669299Y67178441D01*
X34818016Y67277811D01*
X34944489Y67404284D01*
X35043859Y67553001D01*
X35112306Y67718246D01*
X35119772Y67755783D01*
X35453700Y67755783D01*
X35468285Y67607698D01*
X35525924Y67417690D01*
X35619524Y67242576D01*
X35745488Y67089088D01*
X35898976Y66963124D01*
X36074089Y66869524D01*
X36264097Y66811885D01*
X36461700Y66792423D01*
X36659302Y66811885D01*
X36849310Y66869524D01*
X37024424Y66963124D01*
X37177912Y67089088D01*
X37303876Y67242576D01*
X37397476Y67417689D01*
X37455115Y67607697D01*
X37469700Y67755782D01*
X37469700Y71156818D01*
X37455115Y71304903D01*
X37397476Y71494911D01*
X37303876Y71670024D01*
X37177912Y71823512D01*
X37024424Y71949476D01*
X36849311Y72043076D01*
X36659303Y72100715D01*
X36461700Y72120177D01*
X36264098Y72100715D01*
X36074090Y72043076D01*
X35898977Y71949476D01*
X35745489Y71823512D01*
X35619525Y71670024D01*
X35525925Y71494911D01*
X35468286Y71304903D01*
X35453701Y71156818D01*
X35453700Y67755783D01*
X35119772Y67755783D01*
X35147200Y67893670D01*
X35147200Y68072530D01*
X35112306Y68247954D01*
X35043859Y68413199D01*
X34944489Y68561916D01*
X34872200Y68634205D01*
X34872200Y72816115D01*
X34875262Y72847201D01*
X34869649Y72904184D01*
X34863040Y72971290D01*
X34826845Y73090610D01*
X34768066Y73200577D01*
X34688964Y73296964D01*
X34664814Y73316783D01*
X34226184Y73755413D01*
X34206364Y73779564D01*
X34109977Y73858666D01*
X34000010Y73917445D01*
X33880690Y73953640D01*
X33787688Y73962800D01*
X33756600Y73965862D01*
X33725512Y73962800D01*
X32835800Y73962800D01*
X32835800Y73990730D01*
X32800906Y74166154D01*
X32732459Y74331399D01*
X32633089Y74480116D01*
X32506616Y74606589D01*
X32357899Y74705959D01*
X32192654Y74774406D01*
X32017230Y74809300D01*
X31838370Y74809300D01*
X31662946Y74774406D01*
X31497701Y74705959D01*
X31348984Y74606589D01*
X31222511Y74480116D01*
X31123141Y74331399D01*
X31054694Y74166154D01*
X31019800Y73990730D01*
X31019800Y73811870D01*
X31054694Y73636446D01*
X31123141Y73471201D01*
X31222511Y73322484D01*
X31348984Y73196011D01*
X31497701Y73096641D01*
X31662946Y73028194D01*
X31838370Y72993300D01*
X31940602Y72993300D01*
X32029718Y72904184D01*
X32049536Y72880036D01*
X32145923Y72800934D01*
X32255890Y72742155D01*
X32375210Y72705960D01*
X32468212Y72696800D01*
X32468213Y72696800D01*
X32499299Y72693738D01*
X32530385Y72696800D01*
X33084283Y72696800D01*
X33059801Y72686659D01*
X32911084Y72587289D01*
X32784611Y72460816D01*
X32685241Y72312099D01*
X32616794Y72146854D01*
X32581900Y71971430D01*
X32581900Y71938021D01*
X32475746Y71916906D01*
X32310501Y71848459D01*
X32161784Y71749089D01*
X32035311Y71622616D01*
X31950181Y71495210D01*
X31913254Y71510506D01*
X31737830Y71545400D01*
X31558970Y71545400D01*
X31383546Y71510506D01*
X31218301Y71442059D01*
X31069584Y71342689D01*
X30943111Y71216216D01*
X30843741Y71067499D01*
X30775294Y70902254D01*
X30740400Y70726830D01*
X29604212Y70726830D01*
X29567834Y70909712D01*
X29416467Y71275145D01*
X29196716Y71604025D01*
X28917025Y71883716D01*
X28588145Y72103467D01*
X28222712Y72254834D01*
X28194903Y72260366D01*
X28497383Y72358757D01*
X28793038Y72516786D01*
X28949048Y72832347D01*
X27637000Y74144395D01*
X26324952Y72832347D01*
X26480962Y72516786D01*
X26855745Y72325980D01*
X27084719Y72261484D01*
X27051288Y72254834D01*
X26685855Y72103467D01*
X26356975Y71883716D01*
X26077284Y71604025D01*
X25857533Y71275145D01*
X25706166Y70909712D01*
X25629000Y70521771D01*
X7645000Y70521771D01*
X7567834Y70909712D01*
X7416467Y71275145D01*
X7196716Y71604025D01*
X6917025Y71883716D01*
X6588145Y72103467D01*
X6222712Y72254834D01*
X5874990Y72324000D01*
X6222712Y72393166D01*
X6588145Y72544533D01*
X6917025Y72764284D01*
X7196716Y73043975D01*
X7416467Y73372855D01*
X7567834Y73738288D01*
X7645000Y74126229D01*
X7645000Y74521771D01*
X7567834Y74909712D01*
X7416467Y75275145D01*
X7196716Y75604025D01*
X6917025Y75883716D01*
X6588145Y76103467D01*
X6395000Y76183470D01*
X6395000Y79802017D01*
X8516835Y79802017D01*
X8529529Y76146171D01*
X8524824Y76098400D01*
X8529873Y76047137D01*
X8529879Y76045383D01*
X8534729Y75997837D01*
X8544286Y75900798D01*
X8544799Y75899108D01*
X8544978Y75897349D01*
X8573638Y75804037D01*
X8601925Y75710789D01*
X8602757Y75709232D01*
X8603276Y75707543D01*
X8649522Y75621740D01*
X8695524Y75535676D01*
X8696646Y75534309D01*
X8697483Y75532756D01*
X8759446Y75457786D01*
X8789922Y75420651D01*
X8791171Y75419402D01*
X8823980Y75379706D01*
X8861183Y75349390D01*
X11653951Y72556622D01*
X11768976Y72462223D01*
X11944089Y72368624D01*
X12134097Y72310986D01*
X12331700Y72291524D01*
X12529302Y72310986D01*
X12719311Y72368624D01*
X12894424Y72462223D01*
X13047912Y72588188D01*
X13173877Y72741676D01*
X13267476Y72916789D01*
X13325114Y73106798D01*
X13344576Y73304400D01*
X13325114Y73502003D01*
X13267476Y73692011D01*
X13173877Y73867124D01*
X13079478Y73982149D01*
X10607627Y76454000D01*
X22875824Y76454000D01*
X22880701Y76404483D01*
X22880700Y74486783D01*
X22895285Y74338698D01*
X22952924Y74148690D01*
X23046524Y73973576D01*
X23172488Y73820088D01*
X23325976Y73694124D01*
X23501089Y73600524D01*
X23691097Y73542885D01*
X23888700Y73523423D01*
X24086302Y73542885D01*
X24276310Y73600524D01*
X24451424Y73694124D01*
X24604912Y73820088D01*
X24730876Y73973576D01*
X24824476Y74148689D01*
X24864665Y74281176D01*
X25492098Y74281176D01*
X25541666Y73863549D01*
X25671757Y73463617D01*
X25829786Y73167962D01*
X26145347Y73011952D01*
X27457395Y74324000D01*
X27816605Y74324000D01*
X29128653Y73011952D01*
X29444214Y73167962D01*
X29635020Y73542745D01*
X29749044Y73947551D01*
X29781902Y74366824D01*
X29732334Y74784451D01*
X29602243Y75184383D01*
X29444214Y75480038D01*
X29128653Y75636048D01*
X27816605Y74324000D01*
X27457395Y74324000D01*
X26145347Y75636048D01*
X25829786Y75480038D01*
X25638980Y75105255D01*
X25524956Y74700449D01*
X25492098Y74281176D01*
X24864665Y74281176D01*
X24882115Y74338697D01*
X24896700Y74486782D01*
X24896700Y75815653D01*
X26324952Y75815653D01*
X27637000Y74503605D01*
X28949048Y75815653D01*
X28793038Y76131214D01*
X28418255Y76322020D01*
X28013449Y76436044D01*
X27594176Y76468902D01*
X27176549Y76419334D01*
X26776617Y76289243D01*
X26480962Y76131214D01*
X26324952Y75815653D01*
X24896700Y75815653D01*
X24896700Y76036473D01*
X27651027Y78790800D01*
X46078724Y78790800D01*
X46098186Y78593198D01*
X46155825Y78403189D01*
X46249424Y78228076D01*
X46343822Y78113051D01*
X48801401Y75655472D01*
X48801400Y67882783D01*
X48815985Y67734698D01*
X48873624Y67544690D01*
X48967224Y67369576D01*
X49093188Y67216088D01*
X49246676Y67090124D01*
X49421789Y66996524D01*
X49611797Y66938885D01*
X49809400Y66919423D01*
X50007002Y66938885D01*
X50197010Y66996524D01*
X50372124Y67090124D01*
X50525612Y67216088D01*
X50651576Y67369576D01*
X50745176Y67544689D01*
X50802815Y67734697D01*
X50817400Y67882782D01*
X50817400Y70358000D01*
X60992430Y70358000D01*
X61018650Y70091786D01*
X61096302Y69835802D01*
X61222402Y69599886D01*
X61392103Y69393103D01*
X61598886Y69223402D01*
X61834802Y69097302D01*
X61865467Y69088000D01*
X61834802Y69078698D01*
X61598886Y68952598D01*
X61392103Y68782897D01*
X61222402Y68576114D01*
X61096302Y68340198D01*
X61018650Y68084214D01*
X60992430Y67818000D01*
X61018650Y67551786D01*
X61096302Y67295802D01*
X61222402Y67059886D01*
X61392103Y66853103D01*
X61598886Y66683402D01*
X61834802Y66557302D01*
X61865467Y66548000D01*
X61834802Y66538698D01*
X61598886Y66412598D01*
X61392103Y66242897D01*
X61222402Y66036114D01*
X61096302Y65800198D01*
X61018650Y65544214D01*
X60992430Y65278000D01*
X61018650Y65011786D01*
X61096302Y64755802D01*
X61222402Y64519886D01*
X61392103Y64313103D01*
X61598886Y64143402D01*
X61834802Y64017302D01*
X61865467Y64008000D01*
X61834802Y63998698D01*
X61598886Y63872598D01*
X61392103Y63702897D01*
X61222402Y63496114D01*
X61096302Y63260198D01*
X61018650Y63004214D01*
X60992430Y62738000D01*
X61018650Y62471786D01*
X61096302Y62215802D01*
X61222402Y61979886D01*
X61392103Y61773103D01*
X61598886Y61603402D01*
X61834802Y61477302D01*
X61865467Y61468000D01*
X61834802Y61458698D01*
X61598886Y61332598D01*
X61392103Y61162897D01*
X61222402Y60956114D01*
X61096302Y60720198D01*
X61018650Y60464214D01*
X60992430Y60198000D01*
X61018650Y59931786D01*
X61096302Y59675802D01*
X61222402Y59439886D01*
X61392103Y59233103D01*
X61598886Y59063402D01*
X61682972Y59018457D01*
X61507000Y59018457D01*
X61407415Y59008649D01*
X61311657Y58979601D01*
X61223405Y58932429D01*
X61146052Y58868948D01*
X61082571Y58791595D01*
X61035399Y58703343D01*
X61006351Y58607585D01*
X60996543Y58508000D01*
X60996543Y56808000D01*
X61006351Y56708415D01*
X61035399Y56612657D01*
X61082571Y56524405D01*
X61146052Y56447052D01*
X61223405Y56383571D01*
X61311657Y56336399D01*
X61407415Y56307351D01*
X61507000Y56297543D01*
X63207000Y56297543D01*
X63306585Y56307351D01*
X63402343Y56336399D01*
X63490595Y56383571D01*
X63567948Y56447052D01*
X63631429Y56524405D01*
X63678601Y56612657D01*
X63707649Y56708415D01*
X63717457Y56808000D01*
X63717457Y58508000D01*
X63707649Y58607585D01*
X63678601Y58703343D01*
X63631429Y58791595D01*
X63567948Y58868948D01*
X63490595Y58932429D01*
X63402343Y58979601D01*
X63306585Y59008649D01*
X63207000Y59018457D01*
X63031028Y59018457D01*
X63115114Y59063402D01*
X63321897Y59233103D01*
X63491598Y59439886D01*
X63617698Y59675802D01*
X63695350Y59931786D01*
X63721570Y60198000D01*
X63695350Y60464214D01*
X63617698Y60720198D01*
X63491598Y60956114D01*
X63321897Y61162897D01*
X63115114Y61332598D01*
X62879198Y61458698D01*
X62848533Y61468000D01*
X62879198Y61477302D01*
X63115114Y61603402D01*
X63321897Y61773103D01*
X63491598Y61979886D01*
X63617698Y62215802D01*
X63695350Y62471786D01*
X63721570Y62738000D01*
X63695350Y63004214D01*
X63617698Y63260198D01*
X63491598Y63496114D01*
X63321897Y63702897D01*
X63115114Y63872598D01*
X62879198Y63998698D01*
X62848533Y64008000D01*
X62879198Y64017302D01*
X63115114Y64143402D01*
X63321897Y64313103D01*
X63491598Y64519886D01*
X63617698Y64755802D01*
X63695350Y65011786D01*
X63721570Y65278000D01*
X63695350Y65544214D01*
X63617698Y65800198D01*
X63491598Y66036114D01*
X63321897Y66242897D01*
X63115114Y66412598D01*
X62879198Y66538698D01*
X62848533Y66548000D01*
X62879198Y66557302D01*
X63115114Y66683402D01*
X63321897Y66853103D01*
X63491598Y67059886D01*
X63617698Y67295802D01*
X63695350Y67551786D01*
X63721570Y67818000D01*
X63695350Y68084214D01*
X63617698Y68340198D01*
X63491598Y68576114D01*
X63321897Y68782897D01*
X63115114Y68952598D01*
X62879198Y69078698D01*
X62848533Y69088000D01*
X62879198Y69097302D01*
X63115114Y69223402D01*
X63321897Y69393103D01*
X63491598Y69599886D01*
X63617698Y69835802D01*
X63695350Y70091786D01*
X63721570Y70358000D01*
X63695350Y70624214D01*
X63617698Y70880198D01*
X63491598Y71116114D01*
X63321897Y71322897D01*
X63115114Y71492598D01*
X62879198Y71618698D01*
X62623214Y71696350D01*
X62423706Y71716000D01*
X62290294Y71716000D01*
X62090786Y71696350D01*
X61834802Y71618698D01*
X61598886Y71492598D01*
X61392103Y71322897D01*
X61222402Y71116114D01*
X61096302Y70880198D01*
X61018650Y70624214D01*
X60992430Y70358000D01*
X50817400Y70358000D01*
X50817400Y74573110D01*
X60915524Y74573110D01*
X60960175Y74425901D01*
X61085359Y74163080D01*
X61259412Y73929731D01*
X61475645Y73734822D01*
X61725748Y73585843D01*
X62000109Y73488519D01*
X62230000Y73609186D01*
X62230000Y74803000D01*
X62484000Y74803000D01*
X62484000Y73609186D01*
X62713891Y73488519D01*
X62988252Y73585843D01*
X63238355Y73734822D01*
X63454588Y73929731D01*
X63628641Y74163080D01*
X63753825Y74425901D01*
X63798476Y74573110D01*
X63677155Y74803000D01*
X62484000Y74803000D01*
X62230000Y74803000D01*
X61036845Y74803000D01*
X60915524Y74573110D01*
X50817400Y74573110D01*
X50817400Y76023493D01*
X50822276Y76073000D01*
X50817400Y76122507D01*
X50817400Y76122518D01*
X50802815Y76270603D01*
X50745176Y76460611D01*
X50740744Y76468902D01*
X50651577Y76635724D01*
X50557178Y76750749D01*
X50557176Y76750751D01*
X50525612Y76789212D01*
X50487151Y76820776D01*
X47769349Y79538578D01*
X47654324Y79632976D01*
X47479211Y79726575D01*
X47289202Y79784214D01*
X47091600Y79803676D01*
X46893998Y79784214D01*
X46703989Y79726575D01*
X46528876Y79632976D01*
X46375388Y79507012D01*
X46249424Y79353524D01*
X46155825Y79178411D01*
X46098186Y78988402D01*
X46078724Y78790800D01*
X27651027Y78790800D01*
X28700478Y79840250D01*
X28794876Y79955275D01*
X28824126Y80010000D01*
X60620938Y80010000D01*
X60633160Y79885910D01*
X60669355Y79766590D01*
X60728134Y79656623D01*
X60807236Y79560236D01*
X60903623Y79481134D01*
X60996543Y79431467D01*
X60996543Y79160000D01*
X61006351Y79060415D01*
X61035399Y78964657D01*
X61082571Y78876405D01*
X61146052Y78799052D01*
X61223405Y78735571D01*
X61311657Y78688399D01*
X61407415Y78659351D01*
X61507000Y78649543D01*
X61682972Y78649543D01*
X61598886Y78604598D01*
X61392103Y78434897D01*
X61222402Y78228114D01*
X61096302Y77992198D01*
X61018650Y77736214D01*
X60992430Y77470000D01*
X61018650Y77203786D01*
X61096302Y76947802D01*
X61222402Y76711886D01*
X61392103Y76505103D01*
X61598886Y76335402D01*
X61719940Y76270697D01*
X61475645Y76125178D01*
X61259412Y75930269D01*
X61085359Y75696920D01*
X60960175Y75434099D01*
X60915524Y75286890D01*
X61036845Y75057000D01*
X62230000Y75057000D01*
X62230000Y75077000D01*
X62484000Y75077000D01*
X62484000Y75057000D01*
X63677155Y75057000D01*
X63798476Y75286890D01*
X63753825Y75434099D01*
X63628641Y75696920D01*
X63454588Y75930269D01*
X63238355Y76125178D01*
X62994060Y76270697D01*
X63115114Y76335402D01*
X63321897Y76505103D01*
X63491598Y76711886D01*
X63617698Y76947802D01*
X63695350Y77203786D01*
X63721570Y77470000D01*
X63695350Y77736214D01*
X63617698Y77992198D01*
X63491598Y78228114D01*
X63321897Y78434897D01*
X63115114Y78604598D01*
X63031028Y78649543D01*
X63207000Y78649543D01*
X63306585Y78659351D01*
X63402343Y78688399D01*
X63490595Y78735571D01*
X63567948Y78799052D01*
X63631429Y78876405D01*
X63678601Y78964657D01*
X63707649Y79060415D01*
X63717457Y79160000D01*
X63717457Y80860000D01*
X63707649Y80959585D01*
X63678601Y81055343D01*
X63631429Y81143595D01*
X63567948Y81220948D01*
X63490595Y81284429D01*
X63402343Y81331601D01*
X63306585Y81360649D01*
X63207000Y81370457D01*
X61507000Y81370457D01*
X61407415Y81360649D01*
X61311657Y81331601D01*
X61223405Y81284429D01*
X61146052Y81220948D01*
X61082571Y81143595D01*
X61035399Y81055343D01*
X61006351Y80959585D01*
X60996543Y80860000D01*
X60996543Y80588533D01*
X60903623Y80538866D01*
X60807236Y80459764D01*
X60728134Y80363377D01*
X60669355Y80253410D01*
X60633160Y80134090D01*
X60620938Y80010000D01*
X28824126Y80010000D01*
X28888475Y80130388D01*
X28946114Y80320397D01*
X28965576Y80518000D01*
X28946114Y80715602D01*
X28888475Y80905611D01*
X28794876Y81080724D01*
X28668912Y81234212D01*
X28515424Y81360176D01*
X28340311Y81453775D01*
X28150302Y81511414D01*
X27952700Y81530876D01*
X27755097Y81511414D01*
X27565088Y81453775D01*
X27389975Y81360176D01*
X27274950Y81265778D01*
X23210945Y77201772D01*
X23172489Y77170212D01*
X23140929Y77131756D01*
X23140922Y77131749D01*
X23046524Y77016724D01*
X22952925Y76841611D01*
X22895286Y76651602D01*
X22875824Y76454000D01*
X10607627Y76454000D01*
X10544250Y76517377D01*
X10532821Y79809017D01*
X10517722Y79957051D01*
X10459424Y80146857D01*
X10365217Y80321644D01*
X10238720Y80474694D01*
X10084796Y80600124D01*
X9909359Y80693116D01*
X9719152Y80750095D01*
X9521484Y80768870D01*
X9323949Y80748722D01*
X9134143Y80690424D01*
X8959356Y80596217D01*
X8806306Y80469720D01*
X8680876Y80315796D01*
X8587884Y80140359D01*
X8530905Y79950152D01*
X8516835Y79802017D01*
X6395000Y79802017D01*
X6395000Y80468928D01*
X10304383Y84378309D01*
X10386754Y84394694D01*
X10551999Y84463141D01*
X10700716Y84562511D01*
X10827189Y84688984D01*
X10926559Y84837701D01*
X10995006Y85002946D01*
X10999512Y85025600D01*
X37844443Y85025600D01*
X37844443Y83325600D01*
X37854251Y83226015D01*
X37883299Y83130257D01*
X37930471Y83042005D01*
X37993952Y82964652D01*
X38071305Y82901171D01*
X38159557Y82853999D01*
X38255315Y82824951D01*
X38354900Y82815143D01*
X40054900Y82815143D01*
X40154485Y82824951D01*
X40250243Y82853999D01*
X40338495Y82901171D01*
X40415848Y82964652D01*
X40479329Y83042005D01*
X40526501Y83130257D01*
X40555549Y83226015D01*
X40565357Y83325600D01*
X40565357Y83501572D01*
X40610302Y83417486D01*
X40780003Y83210703D01*
X40986786Y83041002D01*
X41222702Y82914902D01*
X41478686Y82837250D01*
X41678194Y82817600D01*
X41811606Y82817600D01*
X42011114Y82837250D01*
X42267098Y82914902D01*
X42503014Y83041002D01*
X42709797Y83210703D01*
X42879498Y83417486D01*
X43005598Y83653402D01*
X43014900Y83684067D01*
X43024202Y83653402D01*
X43150302Y83417486D01*
X43320003Y83210703D01*
X43526786Y83041002D01*
X43762702Y82914902D01*
X44018686Y82837250D01*
X44218194Y82817600D01*
X44351606Y82817600D01*
X44551114Y82837250D01*
X44807098Y82914902D01*
X45043014Y83041002D01*
X45249797Y83210703D01*
X45419498Y83417486D01*
X45545598Y83653402D01*
X45554900Y83684067D01*
X45564202Y83653402D01*
X45690302Y83417486D01*
X45860003Y83210703D01*
X46066786Y83041002D01*
X46302702Y82914902D01*
X46558686Y82837250D01*
X46758194Y82817600D01*
X46891606Y82817600D01*
X47091114Y82837250D01*
X47347098Y82914902D01*
X47583014Y83041002D01*
X47789797Y83210703D01*
X47959498Y83417486D01*
X48085598Y83653402D01*
X48163250Y83909386D01*
X48189470Y84175600D01*
X48163250Y84441814D01*
X48085598Y84697798D01*
X47959498Y84933714D01*
X47842400Y85076400D01*
X50938143Y85076400D01*
X50938143Y83376400D01*
X50947951Y83276815D01*
X50976999Y83181057D01*
X51024171Y83092805D01*
X51087652Y83015452D01*
X51165005Y82951971D01*
X51253257Y82904799D01*
X51349015Y82875751D01*
X51448600Y82865943D01*
X53148600Y82865943D01*
X53248185Y82875751D01*
X53343943Y82904799D01*
X53432195Y82951971D01*
X53509548Y83015452D01*
X53573029Y83092805D01*
X53620201Y83181057D01*
X53649249Y83276815D01*
X53659057Y83376400D01*
X53659057Y83552372D01*
X53704002Y83468286D01*
X53873703Y83261503D01*
X54080486Y83091802D01*
X54316402Y82965702D01*
X54572386Y82888050D01*
X54771894Y82868400D01*
X54905306Y82868400D01*
X55104814Y82888050D01*
X55360798Y82965702D01*
X55596714Y83091802D01*
X55803497Y83261503D01*
X55973198Y83468286D01*
X56099298Y83704202D01*
X56108600Y83734867D01*
X56117902Y83704202D01*
X56244002Y83468286D01*
X56413703Y83261503D01*
X56620486Y83091802D01*
X56856402Y82965702D01*
X57112386Y82888050D01*
X57311894Y82868400D01*
X57445306Y82868400D01*
X57644814Y82888050D01*
X57900798Y82965702D01*
X58136714Y83091802D01*
X58343497Y83261503D01*
X58513198Y83468286D01*
X58639298Y83704202D01*
X58716950Y83960186D01*
X58743170Y84226400D01*
X58716950Y84492614D01*
X58639298Y84748598D01*
X58513198Y84984514D01*
X58343497Y85191297D01*
X58136714Y85360998D01*
X57900798Y85487098D01*
X57644814Y85564750D01*
X57609685Y85568210D01*
X59531600Y85568210D01*
X59531600Y84916590D01*
X59658725Y84277492D01*
X59908088Y83675474D01*
X60270109Y83133673D01*
X60730873Y82672909D01*
X61272674Y82310888D01*
X61874692Y82061525D01*
X62513790Y81934400D01*
X63165410Y81934400D01*
X63804508Y82061525D01*
X64406526Y82310888D01*
X64948327Y82672909D01*
X65409091Y83133673D01*
X65771112Y83675474D01*
X66020475Y84277492D01*
X66147600Y84916590D01*
X66147600Y85568210D01*
X66020475Y86207308D01*
X65771112Y86809326D01*
X65409091Y87351127D01*
X64948327Y87811891D01*
X64406526Y88173912D01*
X63804508Y88423275D01*
X63165410Y88550400D01*
X62513790Y88550400D01*
X61874692Y88423275D01*
X61272674Y88173912D01*
X60730873Y87811891D01*
X60270109Y87351127D01*
X59908088Y86809326D01*
X59658725Y86207308D01*
X59531600Y85568210D01*
X57609685Y85568210D01*
X57445306Y85584400D01*
X57311894Y85584400D01*
X57112386Y85564750D01*
X56856402Y85487098D01*
X56620486Y85360998D01*
X56413703Y85191297D01*
X56244002Y84984514D01*
X56117902Y84748598D01*
X56108600Y84717933D01*
X56099298Y84748598D01*
X55973198Y84984514D01*
X55803497Y85191297D01*
X55596714Y85360998D01*
X55360798Y85487098D01*
X55104814Y85564750D01*
X54905306Y85584400D01*
X54771894Y85584400D01*
X54572386Y85564750D01*
X54316402Y85487098D01*
X54080486Y85360998D01*
X53873703Y85191297D01*
X53704002Y84984514D01*
X53659057Y84900428D01*
X53659057Y85076400D01*
X53649249Y85175985D01*
X53620201Y85271743D01*
X53573029Y85359995D01*
X53509548Y85437348D01*
X53432195Y85500829D01*
X53343943Y85548001D01*
X53248185Y85577049D01*
X53148600Y85586857D01*
X51448600Y85586857D01*
X51349015Y85577049D01*
X51253257Y85548001D01*
X51165005Y85500829D01*
X51087652Y85437348D01*
X51024171Y85359995D01*
X50976999Y85271743D01*
X50947951Y85175985D01*
X50938143Y85076400D01*
X47842400Y85076400D01*
X47789797Y85140497D01*
X47583014Y85310198D01*
X47347098Y85436298D01*
X47091114Y85513950D01*
X46891606Y85533600D01*
X46758194Y85533600D01*
X46558686Y85513950D01*
X46302702Y85436298D01*
X46066786Y85310198D01*
X45860003Y85140497D01*
X45690302Y84933714D01*
X45564202Y84697798D01*
X45554900Y84667133D01*
X45545598Y84697798D01*
X45419498Y84933714D01*
X45249797Y85140497D01*
X45043014Y85310198D01*
X44807098Y85436298D01*
X44551114Y85513950D01*
X44351606Y85533600D01*
X44218194Y85533600D01*
X44018686Y85513950D01*
X43762702Y85436298D01*
X43526786Y85310198D01*
X43320003Y85140497D01*
X43150302Y84933714D01*
X43024202Y84697798D01*
X43014900Y84667133D01*
X43005598Y84697798D01*
X42879498Y84933714D01*
X42709797Y85140497D01*
X42503014Y85310198D01*
X42267098Y85436298D01*
X42011114Y85513950D01*
X41811606Y85533600D01*
X41678194Y85533600D01*
X41478686Y85513950D01*
X41222702Y85436298D01*
X40986786Y85310198D01*
X40780003Y85140497D01*
X40610302Y84933714D01*
X40565357Y84849628D01*
X40565357Y85025600D01*
X40555549Y85125185D01*
X40526501Y85220943D01*
X40479329Y85309195D01*
X40415848Y85386548D01*
X40338495Y85450029D01*
X40250243Y85497201D01*
X40154485Y85526249D01*
X40054900Y85536057D01*
X38354900Y85536057D01*
X38255315Y85526249D01*
X38159557Y85497201D01*
X38071305Y85450029D01*
X37993952Y85386548D01*
X37930471Y85309195D01*
X37883299Y85220943D01*
X37854251Y85125185D01*
X37844443Y85025600D01*
X10999512Y85025600D01*
X11029900Y85178370D01*
X11029900Y85357230D01*
X10995006Y85532654D01*
X10926559Y85697899D01*
X10827189Y85846616D01*
X10700716Y85973089D01*
X10551999Y86072459D01*
X10386754Y86140906D01*
X10211330Y86175800D01*
X10032470Y86175800D01*
X9857046Y86140906D01*
X9691801Y86072459D01*
X9543084Y85973089D01*
X9416611Y85846616D01*
X9317241Y85697899D01*
X9248794Y85532654D01*
X9232409Y85450283D01*
X5127347Y81345219D01*
X5098421Y81321480D01*
X5026802Y81234212D01*
X5003697Y81206059D01*
X4933312Y81074377D01*
X4889968Y80931493D01*
X4875333Y80782900D01*
X4879000Y80745668D01*
X4879000Y79981931D01*
X4879001Y76183470D01*
X4685855Y76103467D01*
X4356975Y75883716D01*
X4077284Y75604025D01*
X3857533Y75275145D01*
X3706166Y74909712D01*
X3629000Y74521771D01*
X533000Y74521771D01*
X533000Y88621000D01*
X67031000Y88621000D01*
X67031001Y533000D01*
X67031001Y533000D01*
G37*
X67031001Y533000D02*
X58718117Y533000D01*
X58755026Y548288D01*
X59296827Y910309D01*
X59757591Y1371073D01*
X60119612Y1912874D01*
X60368975Y2514892D01*
X60496100Y3153990D01*
X60496100Y3805610D01*
X60368975Y4444708D01*
X60119612Y5046726D01*
X59996411Y5231110D01*
X60788524Y5231110D01*
X60833175Y5083901D01*
X60958359Y4821080D01*
X61132412Y4587731D01*
X61348645Y4392822D01*
X61598748Y4243843D01*
X61873109Y4146519D01*
X62103000Y4267186D01*
X62103000Y5461000D01*
X62357000Y5461000D01*
X62357000Y4267186D01*
X62586891Y4146519D01*
X62861252Y4243843D01*
X63111355Y4392822D01*
X63327588Y4587731D01*
X63501641Y4821080D01*
X63626825Y5083901D01*
X63671476Y5231110D01*
X63550155Y5461000D01*
X62357000Y5461000D01*
X62103000Y5461000D01*
X60909845Y5461000D01*
X60788524Y5231110D01*
X59996411Y5231110D01*
X59757591Y5588527D01*
X59401228Y5944890D01*
X60788524Y5944890D01*
X60909845Y5715000D01*
X62103000Y5715000D01*
X62103000Y5735000D01*
X62357000Y5735000D01*
X62357000Y5715000D01*
X63550155Y5715000D01*
X63671476Y5944890D01*
X63626825Y6092099D01*
X63501641Y6354920D01*
X63327588Y6588269D01*
X63111355Y6783178D01*
X62867060Y6928697D01*
X62988114Y6993402D01*
X63194897Y7163103D01*
X63364598Y7369886D01*
X63490698Y7605802D01*
X63568350Y7861786D01*
X63594570Y8128000D01*
X63568350Y8394214D01*
X63490698Y8650198D01*
X63364598Y8886114D01*
X63194897Y9092897D01*
X62988114Y9262598D01*
X62752198Y9388698D01*
X62721533Y9398000D01*
X62752198Y9407302D01*
X62988114Y9533402D01*
X63194897Y9703103D01*
X63364598Y9909886D01*
X63490698Y10145802D01*
X63568350Y10401786D01*
X63594570Y10668000D01*
X63568350Y10934214D01*
X63490698Y11190198D01*
X63364598Y11426114D01*
X63194897Y11632897D01*
X62988114Y11802598D01*
X62904028Y11847543D01*
X63080000Y11847543D01*
X63179585Y11857351D01*
X63275343Y11886399D01*
X63363595Y11933571D01*
X63440948Y11997052D01*
X63504429Y12074405D01*
X63551601Y12162657D01*
X63580649Y12258415D01*
X63590457Y12358000D01*
X63590457Y14058000D01*
X63580649Y14157585D01*
X63551601Y14253343D01*
X63504429Y14341595D01*
X63440948Y14418948D01*
X63363595Y14482429D01*
X63275343Y14529601D01*
X63179585Y14558649D01*
X63080000Y14568457D01*
X61380000Y14568457D01*
X61280415Y14558649D01*
X61184657Y14529601D01*
X61096405Y14482429D01*
X61019052Y14418948D01*
X60955571Y14341595D01*
X60908399Y14253343D01*
X60879351Y14157585D01*
X60869543Y14058000D01*
X60869543Y12358000D01*
X60879351Y12258415D01*
X60908399Y12162657D01*
X60955571Y12074405D01*
X61019052Y11997052D01*
X61096405Y11933571D01*
X61184657Y11886399D01*
X61280415Y11857351D01*
X61380000Y11847543D01*
X61555972Y11847543D01*
X61471886Y11802598D01*
X61265103Y11632897D01*
X61095402Y11426114D01*
X60969302Y11190198D01*
X60891650Y10934214D01*
X60865430Y10668000D01*
X60891650Y10401786D01*
X60969302Y10145802D01*
X61095402Y9909886D01*
X61265103Y9703103D01*
X61471886Y9533402D01*
X61707802Y9407302D01*
X61738467Y9398000D01*
X61707802Y9388698D01*
X61471886Y9262598D01*
X61265103Y9092897D01*
X61095402Y8886114D01*
X60969302Y8650198D01*
X60891650Y8394214D01*
X60865430Y8128000D01*
X60891650Y7861786D01*
X60969302Y7605802D01*
X61095402Y7369886D01*
X61265103Y7163103D01*
X61471886Y6993402D01*
X61592940Y6928697D01*
X61348645Y6783178D01*
X61132412Y6588269D01*
X60958359Y6354920D01*
X60833175Y6092099D01*
X60788524Y5944890D01*
X59401228Y5944890D01*
X59296827Y6049291D01*
X58755026Y6411312D01*
X58153008Y6660675D01*
X57513910Y6787800D01*
X56862290Y6787800D01*
X56223192Y6660675D01*
X55621174Y6411312D01*
X55079373Y6049291D01*
X54618609Y5588527D01*
X54256588Y5046726D01*
X54024322Y4485983D01*
X54007716Y4502589D01*
X53858999Y4601959D01*
X53693754Y4670406D01*
X53518330Y4705300D01*
X53339470Y4705300D01*
X53164046Y4670406D01*
X52998801Y4601959D01*
X52850084Y4502589D01*
X52827485Y4479990D01*
X51959105Y4479990D01*
X51886816Y4552279D01*
X51738099Y4651649D01*
X51575498Y4719001D01*
X52438197Y5581700D01*
X52540430Y5581700D01*
X52715854Y5616594D01*
X52881099Y5685041D01*
X53029816Y5784411D01*
X53156289Y5910884D01*
X53255659Y6059601D01*
X53324106Y6224846D01*
X53359000Y6400270D01*
X53359000Y6579130D01*
X53324106Y6754554D01*
X53255659Y6919799D01*
X53156289Y7068516D01*
X53029816Y7194989D01*
X52881099Y7294359D01*
X52715854Y7362806D01*
X52540430Y7397700D01*
X52361570Y7397700D01*
X52186146Y7362806D01*
X52020901Y7294359D01*
X51872184Y7194989D01*
X51745711Y7068516D01*
X51646341Y6919799D01*
X51577894Y6754554D01*
X51543000Y6579130D01*
X51543000Y6476897D01*
X50321903Y5255800D01*
X48949998Y5255800D01*
X49955620Y6261422D01*
X49979764Y6281236D01*
X50058866Y6377623D01*
X50117645Y6487590D01*
X50153840Y6606910D01*
X50163000Y6699912D01*
X50163000Y6699913D01*
X50166062Y6730999D01*
X50163000Y6762085D01*
X50163000Y7972197D01*
X50273387Y8082584D01*
X50372757Y8231301D01*
X50441204Y8396546D01*
X50476098Y8571970D01*
X50476098Y8750830D01*
X50441204Y8926254D01*
X50372757Y9091499D01*
X50273387Y9240216D01*
X50146914Y9366689D01*
X49998197Y9466059D01*
X49832952Y9534506D01*
X49657528Y9569400D01*
X49478668Y9569400D01*
X49303244Y9534506D01*
X49137999Y9466059D01*
X48989282Y9366689D01*
X48862809Y9240216D01*
X48763439Y9091499D01*
X48694992Y8926254D01*
X48660098Y8750830D01*
X48660098Y8571970D01*
X48694992Y8396546D01*
X48763439Y8231301D01*
X48862809Y8082584D01*
X48897001Y8048392D01*
X48897000Y6993198D01*
X46812303Y4908500D01*
X46710070Y4908500D01*
X46534646Y4873606D01*
X46369401Y4805159D01*
X46220684Y4705789D01*
X46094211Y4579316D01*
X45994841Y4430599D01*
X45926394Y4265354D01*
X45891500Y4089930D01*
X45891500Y3911070D01*
X45926394Y3735646D01*
X45994841Y3570401D01*
X46094211Y3421684D01*
X46131345Y3384550D01*
X46094211Y3347416D01*
X45994841Y3198699D01*
X45926394Y3033454D01*
X45891500Y2858030D01*
X45891500Y2679170D01*
X45926394Y2503746D01*
X45994841Y2338501D01*
X46094211Y2189784D01*
X46220684Y2063311D01*
X46369401Y1963941D01*
X46534646Y1895494D01*
X46710070Y1860600D01*
X46888930Y1860600D01*
X47064354Y1895494D01*
X47229599Y1963941D01*
X47378316Y2063311D01*
X47504789Y2189784D01*
X47604159Y2338501D01*
X47672606Y2503746D01*
X47707500Y2679170D01*
X47707500Y2781403D01*
X48915897Y3989800D01*
X50410618Y3989800D01*
X50400000Y3936420D01*
X50400000Y3757560D01*
X50434894Y3582136D01*
X50503341Y3416891D01*
X50602711Y3268174D01*
X50729184Y3141701D01*
X50877901Y3042331D01*
X51043146Y2973884D01*
X51218570Y2938990D01*
X51397430Y2938990D01*
X51572854Y2973884D01*
X51738099Y3042331D01*
X51886816Y3141701D01*
X51959105Y3213990D01*
X52728105Y3213990D01*
X52850084Y3092011D01*
X52998801Y2992641D01*
X53164046Y2924194D01*
X53339470Y2889300D01*
X53518330Y2889300D01*
X53693754Y2924194D01*
X53858999Y2992641D01*
X53905954Y3024015D01*
X54007225Y2514892D01*
X54256588Y1912874D01*
X54618609Y1371073D01*
X55079373Y910309D01*
X55621174Y548288D01*
X55658083Y533000D01*
X533000Y533000D01*
X533000Y3583037D01*
X654525Y2972092D01*
X903888Y2370074D01*
X1265909Y1828273D01*
X1726673Y1367509D01*
X2268474Y1005488D01*
X2870492Y756125D01*
X3509590Y629000D01*
X4161210Y629000D01*
X4800308Y756125D01*
X5402326Y1005488D01*
X5944127Y1367509D01*
X6404891Y1828273D01*
X6766912Y2370074D01*
X7016275Y2972092D01*
X7143400Y3611190D01*
X7143400Y4262810D01*
X7016275Y4901908D01*
X6850058Y5303194D01*
X16880801Y5303194D01*
X16995500Y4962246D01*
X17174511Y4650226D01*
X17410954Y4379125D01*
X17695743Y4159361D01*
X18017934Y3999379D01*
X18257195Y3926805D01*
X18542000Y4043568D01*
X18542000Y5588000D01*
X18796000Y5588000D01*
X18796000Y4043568D01*
X19080805Y3926805D01*
X19320066Y3999379D01*
X19642257Y4159361D01*
X19927046Y4379125D01*
X20163489Y4650226D01*
X20342500Y4962246D01*
X20457199Y5303194D01*
X20340854Y5588000D01*
X18796000Y5588000D01*
X18542000Y5588000D01*
X16997146Y5588000D01*
X16880801Y5303194D01*
X6850058Y5303194D01*
X6766912Y5503926D01*
X6404891Y6045727D01*
X6323812Y6126806D01*
X16880801Y6126806D01*
X16997146Y5842000D01*
X18542000Y5842000D01*
X18542000Y7386432D01*
X18796000Y7386432D01*
X18796000Y5842000D01*
X20340854Y5842000D01*
X20457199Y6126806D01*
X20342500Y6467754D01*
X20163489Y6779774D01*
X19927046Y7050875D01*
X19642257Y7270639D01*
X19320066Y7430621D01*
X19080805Y7503195D01*
X18796000Y7386432D01*
X18542000Y7386432D01*
X18257195Y7503195D01*
X18017934Y7430621D01*
X17695743Y7270639D01*
X17410954Y7050875D01*
X17174511Y6779774D01*
X16995500Y6467754D01*
X16880801Y6126806D01*
X6323812Y6126806D01*
X5944127Y6506491D01*
X5402326Y6868512D01*
X4800308Y7117875D01*
X4161210Y7245000D01*
X3509590Y7245000D01*
X2870492Y7117875D01*
X2268474Y6868512D01*
X1726673Y6506491D01*
X1265909Y6045727D01*
X903888Y5503926D01*
X654525Y4901908D01*
X533000Y4290963D01*
X533000Y19615000D01*
X16958543Y19615000D01*
X16958543Y17215000D01*
X16968351Y17115415D01*
X16997399Y17019657D01*
X17044571Y16931405D01*
X17108052Y16854052D01*
X17185405Y16790571D01*
X17273657Y16743399D01*
X17369415Y16714351D01*
X17469000Y16704543D01*
X19869000Y16704543D01*
X19968585Y16714351D01*
X20064343Y16743399D01*
X20152595Y16790571D01*
X20229948Y16854052D01*
X20293429Y16931405D01*
X20340601Y17019657D01*
X20369649Y17115415D01*
X20379457Y17215000D01*
X20379457Y17741000D01*
X50328543Y17741000D01*
X50328543Y16041000D01*
X50338351Y15941415D01*
X50367399Y15845657D01*
X50414571Y15757405D01*
X50478052Y15680052D01*
X50555405Y15616571D01*
X50643657Y15569399D01*
X50739415Y15540351D01*
X50839000Y15530543D01*
X52539000Y15530543D01*
X52638585Y15540351D01*
X52734343Y15569399D01*
X52822595Y15616571D01*
X52899948Y15680052D01*
X52963429Y15757405D01*
X53010601Y15845657D01*
X53039649Y15941415D01*
X53049457Y16041000D01*
X53049457Y16216972D01*
X53094402Y16132886D01*
X53264103Y15926103D01*
X53470886Y15756402D01*
X53706802Y15630302D01*
X53962786Y15552650D01*
X54162294Y15533000D01*
X54295706Y15533000D01*
X54495214Y15552650D01*
X54751198Y15630302D01*
X54987114Y15756402D01*
X55193897Y15926103D01*
X55363598Y16132886D01*
X55489698Y16368802D01*
X55499000Y16399467D01*
X55508302Y16368802D01*
X55634402Y16132886D01*
X55804103Y15926103D01*
X56010886Y15756402D01*
X56246802Y15630302D01*
X56502786Y15552650D01*
X56702294Y15533000D01*
X56835706Y15533000D01*
X57035214Y15552650D01*
X57291198Y15630302D01*
X57527114Y15756402D01*
X57733897Y15926103D01*
X57903598Y16132886D01*
X58029698Y16368802D01*
X58107350Y16624786D01*
X58133570Y16891000D01*
X58107350Y17157214D01*
X58029698Y17413198D01*
X57903598Y17649114D01*
X57733897Y17855897D01*
X57527114Y18025598D01*
X57291198Y18151698D01*
X57035214Y18229350D01*
X56835706Y18249000D01*
X56702294Y18249000D01*
X56502786Y18229350D01*
X56246802Y18151698D01*
X56010886Y18025598D01*
X55804103Y17855897D01*
X55634402Y17649114D01*
X55508302Y17413198D01*
X55499000Y17382533D01*
X55489698Y17413198D01*
X55363598Y17649114D01*
X55193897Y17855897D01*
X54987114Y18025598D01*
X54751198Y18151698D01*
X54495214Y18229350D01*
X54295706Y18249000D01*
X54162294Y18249000D01*
X53962786Y18229350D01*
X53706802Y18151698D01*
X53470886Y18025598D01*
X53264103Y17855897D01*
X53094402Y17649114D01*
X53049457Y17565028D01*
X53049457Y17741000D01*
X53039649Y17840585D01*
X53010601Y17936343D01*
X52963429Y18024595D01*
X52899948Y18101948D01*
X52822595Y18165429D01*
X52734343Y18212601D01*
X52638585Y18241649D01*
X52539000Y18251457D01*
X50839000Y18251457D01*
X50739415Y18241649D01*
X50643657Y18212601D01*
X50555405Y18165429D01*
X50478052Y18101948D01*
X50414571Y18024595D01*
X50367399Y17936343D01*
X50338351Y17840585D01*
X50328543Y17741000D01*
X20379457Y17741000D01*
X20379457Y19615000D01*
X20369649Y19714585D01*
X20340601Y19810343D01*
X20293429Y19898595D01*
X20229948Y19975948D01*
X20165998Y20028430D01*
X34779000Y20028430D01*
X34779000Y19849570D01*
X34813894Y19674146D01*
X34882341Y19508901D01*
X34981711Y19360184D01*
X35108184Y19233711D01*
X35256901Y19134341D01*
X35422146Y19065894D01*
X35597570Y19031000D01*
X35776430Y19031000D01*
X35951854Y19065894D01*
X36117099Y19134341D01*
X36265816Y19233711D01*
X36392289Y19360184D01*
X36491659Y19508901D01*
X36560106Y19674146D01*
X36562663Y19687000D01*
X42147895Y19687000D01*
X42220184Y19614711D01*
X42368901Y19515341D01*
X42534146Y19446894D01*
X42709570Y19412000D01*
X42888430Y19412000D01*
X43063854Y19446894D01*
X43229099Y19515341D01*
X43377816Y19614711D01*
X43504289Y19741184D01*
X43603659Y19889901D01*
X43672106Y20055146D01*
X43707000Y20230570D01*
X43707000Y20409430D01*
X43672106Y20584854D01*
X43603659Y20750099D01*
X43504289Y20898816D01*
X43377816Y21025289D01*
X43229099Y21124659D01*
X43063854Y21193106D01*
X42888430Y21228000D01*
X42709570Y21228000D01*
X42534146Y21193106D01*
X42368901Y21124659D01*
X42220184Y21025289D01*
X42147895Y20953000D01*
X36099085Y20953000D01*
X36067999Y20956062D01*
X36036913Y20953000D01*
X36036912Y20953000D01*
X35943910Y20943840D01*
X35824590Y20907645D01*
X35714623Y20848866D01*
X35712349Y20847000D01*
X35597570Y20847000D01*
X35422146Y20812106D01*
X35256901Y20743659D01*
X35108184Y20644289D01*
X34981711Y20517816D01*
X34882341Y20369099D01*
X34813894Y20203854D01*
X34779000Y20028430D01*
X20165998Y20028430D01*
X20152595Y20039429D01*
X20064343Y20086601D01*
X19968585Y20115649D01*
X19869000Y20125457D01*
X17469000Y20125457D01*
X17369415Y20115649D01*
X17273657Y20086601D01*
X17185405Y20039429D01*
X17108052Y19975948D01*
X17044571Y19898595D01*
X16997399Y19810343D01*
X16968351Y19714585D01*
X16958543Y19615000D01*
X533000Y19615000D01*
X533000Y22186000D01*
X50328543Y22186000D01*
X50328543Y20486000D01*
X50338351Y20386415D01*
X50367399Y20290657D01*
X50414571Y20202405D01*
X50478052Y20125052D01*
X50555405Y20061571D01*
X50643657Y20014399D01*
X50739415Y19985351D01*
X50839000Y19975543D01*
X52539000Y19975543D01*
X52638585Y19985351D01*
X52734343Y20014399D01*
X52822595Y20061571D01*
X52899948Y20125052D01*
X52963429Y20202405D01*
X53010601Y20290657D01*
X53039649Y20386415D01*
X53049457Y20486000D01*
X53049457Y20661972D01*
X53094402Y20577886D01*
X53264103Y20371103D01*
X53470886Y20201402D01*
X53706802Y20075302D01*
X53962786Y19997650D01*
X54162294Y19978000D01*
X54295706Y19978000D01*
X54495214Y19997650D01*
X54751198Y20075302D01*
X54987114Y20201402D01*
X55193897Y20371103D01*
X55363598Y20577886D01*
X55489698Y20813802D01*
X55499000Y20844467D01*
X55508302Y20813802D01*
X55634402Y20577886D01*
X55804103Y20371103D01*
X56010886Y20201402D01*
X56246802Y20075302D01*
X56502786Y19997650D01*
X56702294Y19978000D01*
X56835706Y19978000D01*
X57035214Y19997650D01*
X57291198Y20075302D01*
X57527114Y20201402D01*
X57733897Y20371103D01*
X57903598Y20577886D01*
X58029698Y20813802D01*
X58107350Y21069786D01*
X58133570Y21336000D01*
X58107350Y21602214D01*
X58029698Y21858198D01*
X57903598Y22094114D01*
X57733897Y22300897D01*
X57527114Y22470598D01*
X57291198Y22596698D01*
X57035214Y22674350D01*
X56835706Y22694000D01*
X56702294Y22694000D01*
X56502786Y22674350D01*
X56246802Y22596698D01*
X56010886Y22470598D01*
X55804103Y22300897D01*
X55634402Y22094114D01*
X55508302Y21858198D01*
X55499000Y21827533D01*
X55489698Y21858198D01*
X55363598Y22094114D01*
X55193897Y22300897D01*
X54987114Y22470598D01*
X54751198Y22596698D01*
X54495214Y22674350D01*
X54295706Y22694000D01*
X54162294Y22694000D01*
X53962786Y22674350D01*
X53706802Y22596698D01*
X53470886Y22470598D01*
X53264103Y22300897D01*
X53094402Y22094114D01*
X53049457Y22010028D01*
X53049457Y22186000D01*
X53039649Y22285585D01*
X53010601Y22381343D01*
X52963429Y22469595D01*
X52899948Y22546948D01*
X52822595Y22610429D01*
X52734343Y22657601D01*
X52638585Y22686649D01*
X52539000Y22696457D01*
X50839000Y22696457D01*
X50739415Y22686649D01*
X50643657Y22657601D01*
X50555405Y22610429D01*
X50478052Y22546948D01*
X50414571Y22469595D01*
X50367399Y22381343D01*
X50338351Y22285585D01*
X50328543Y22186000D01*
X533000Y22186000D01*
X533000Y25425930D01*
X6331000Y25425930D01*
X6331000Y25247070D01*
X6365894Y25071646D01*
X6434341Y24906401D01*
X6533711Y24757684D01*
X6660184Y24631211D01*
X6808901Y24531841D01*
X6974146Y24463394D01*
X7149570Y24428500D01*
X7328430Y24428500D01*
X7503854Y24463394D01*
X7669099Y24531841D01*
X7817816Y24631211D01*
X7944289Y24757684D01*
X8043659Y24906401D01*
X8112106Y25071646D01*
X8147000Y25247070D01*
X8147000Y25349303D01*
X10193597Y27395900D01*
X10258195Y27395900D01*
X10330484Y27323611D01*
X10479201Y27224241D01*
X10644446Y27155794D01*
X10819870Y27120900D01*
X10998730Y27120900D01*
X11174154Y27155794D01*
X11339399Y27224241D01*
X11488116Y27323611D01*
X11614589Y27450084D01*
X11713959Y27598801D01*
X11782406Y27764046D01*
X11817300Y27939470D01*
X11817300Y28118330D01*
X11782406Y28293754D01*
X11713959Y28458999D01*
X11614589Y28607716D01*
X11488116Y28734189D01*
X11339399Y28833559D01*
X11174154Y28902006D01*
X10998730Y28936900D01*
X10826700Y28936900D01*
X10826700Y28943830D01*
X10791806Y29119254D01*
X10723359Y29284499D01*
X10623989Y29433216D01*
X10497516Y29559689D01*
X10348799Y29659059D01*
X10183554Y29727506D01*
X10008130Y29762400D01*
X9829270Y29762400D01*
X9653846Y29727506D01*
X9488601Y29659059D01*
X9339884Y29559689D01*
X9213411Y29433216D01*
X9114041Y29284499D01*
X9080481Y29203478D01*
X7404203Y27527200D01*
X7301970Y27527200D01*
X7126546Y27492306D01*
X6961301Y27423859D01*
X6812584Y27324489D01*
X6686111Y27198016D01*
X6586741Y27049299D01*
X6518294Y26884054D01*
X6483400Y26708630D01*
X6483400Y26529770D01*
X6518294Y26354346D01*
X6586741Y26189101D01*
X6677459Y26053332D01*
X6660184Y26041789D01*
X6533711Y25915316D01*
X6434341Y25766599D01*
X6365894Y25601354D01*
X6331000Y25425930D01*
X533000Y25425930D01*
X533000Y74521771D01*
X3629000Y74521771D01*
X3629000Y74126229D01*
X3706166Y73738288D01*
X3857533Y73372855D01*
X4077284Y73043975D01*
X4356975Y72764284D01*
X4685855Y72544533D01*
X5051288Y72393166D01*
X5399010Y72324000D01*
X5051288Y72254834D01*
X4685855Y72103467D01*
X4356975Y71883716D01*
X4077284Y71604025D01*
X3857533Y71275145D01*
X3706166Y70909712D01*
X3629000Y70521771D01*
X3629000Y70126229D01*
X3706166Y69738288D01*
X3857533Y69372855D01*
X4077284Y69043975D01*
X4356975Y68764284D01*
X4685855Y68544533D01*
X5051288Y68393166D01*
X5399010Y68324000D01*
X5051288Y68254834D01*
X4685855Y68103467D01*
X4356975Y67883716D01*
X4077284Y67604025D01*
X3857533Y67275145D01*
X3706166Y66909712D01*
X3629000Y66521771D01*
X3629000Y66126229D01*
X3706166Y65738288D01*
X3857533Y65372855D01*
X4077284Y65043975D01*
X4356975Y64764284D01*
X4685855Y64544533D01*
X5051288Y64393166D01*
X5399010Y64324000D01*
X5051288Y64254834D01*
X4685855Y64103467D01*
X4356975Y63883716D01*
X4077284Y63604025D01*
X3857533Y63275145D01*
X3706166Y62909712D01*
X3629000Y62521771D01*
X3629000Y62126229D01*
X3706166Y61738288D01*
X3857533Y61372855D01*
X4077284Y61043975D01*
X4356975Y60764284D01*
X4685855Y60544533D01*
X5051288Y60393166D01*
X5399010Y60324000D01*
X5051288Y60254834D01*
X4685855Y60103467D01*
X4356975Y59883716D01*
X4077284Y59604025D01*
X3857533Y59275145D01*
X3706166Y58909712D01*
X3629000Y58521771D01*
X3629000Y58126229D01*
X3706166Y57738288D01*
X3857533Y57372855D01*
X4077284Y57043975D01*
X4356975Y56764284D01*
X4685855Y56544533D01*
X5051288Y56393166D01*
X5399010Y56324000D01*
X5051288Y56254834D01*
X4685855Y56103467D01*
X4356975Y55883716D01*
X4077284Y55604025D01*
X3857533Y55275145D01*
X3706166Y54909712D01*
X3629000Y54521771D01*
X3629000Y54126229D01*
X3706166Y53738288D01*
X3857533Y53372855D01*
X4077284Y53043975D01*
X4356975Y52764284D01*
X4685855Y52544533D01*
X5051288Y52393166D01*
X5399010Y52324000D01*
X5051288Y52254834D01*
X4685855Y52103467D01*
X4356975Y51883716D01*
X4077284Y51604025D01*
X3857533Y51275145D01*
X3706166Y50909712D01*
X3629000Y50521771D01*
X3629000Y50126229D01*
X3706166Y49738288D01*
X3857533Y49372855D01*
X4077284Y49043975D01*
X4356975Y48764284D01*
X4685855Y48544533D01*
X5051288Y48393166D01*
X5399010Y48324000D01*
X5051288Y48254834D01*
X4685855Y48103467D01*
X4356975Y47883716D01*
X4077284Y47604025D01*
X3857533Y47275145D01*
X3706166Y46909712D01*
X3629000Y46521771D01*
X3629000Y46126229D01*
X3706166Y45738288D01*
X3857533Y45372855D01*
X4077284Y45043975D01*
X4356975Y44764284D01*
X4685855Y44544533D01*
X5051288Y44393166D01*
X5399010Y44324000D01*
X5051288Y44254834D01*
X4685855Y44103467D01*
X4356975Y43883716D01*
X4077284Y43604025D01*
X3857533Y43275145D01*
X3706166Y42909712D01*
X3629000Y42521771D01*
X3629000Y42126229D01*
X3706166Y41738288D01*
X3857533Y41372855D01*
X4077284Y41043975D01*
X4356975Y40764284D01*
X4685855Y40544533D01*
X5051288Y40393166D01*
X5399010Y40324000D01*
X5051288Y40254834D01*
X4685855Y40103467D01*
X4356975Y39883716D01*
X4077284Y39604025D01*
X3857533Y39275145D01*
X3706166Y38909712D01*
X3629000Y38521771D01*
X3629000Y38126229D01*
X3706166Y37738288D01*
X3857533Y37372855D01*
X4077284Y37043975D01*
X4356975Y36764284D01*
X4685855Y36544533D01*
X5051288Y36393166D01*
X5399010Y36324000D01*
X5051288Y36254834D01*
X4685855Y36103467D01*
X4356975Y35883716D01*
X4077284Y35604025D01*
X3857533Y35275145D01*
X3706166Y34909712D01*
X3629000Y34521771D01*
X3629000Y34126229D01*
X3706166Y33738288D01*
X3857533Y33372855D01*
X4077284Y33043975D01*
X4356975Y32764284D01*
X4685855Y32544533D01*
X5051288Y32393166D01*
X5399010Y32324000D01*
X5051288Y32254834D01*
X4685855Y32103467D01*
X4356975Y31883716D01*
X4077284Y31604025D01*
X3857533Y31275145D01*
X3706166Y30909712D01*
X3629000Y30521771D01*
X3629000Y30126229D01*
X3706166Y29738288D01*
X3857533Y29372855D01*
X4077284Y29043975D01*
X4356975Y28764284D01*
X4685855Y28544533D01*
X5051288Y28393166D01*
X5439229Y28316000D01*
X5834771Y28316000D01*
X6222712Y28393166D01*
X6588145Y28544533D01*
X6917025Y28764284D01*
X7196716Y29043975D01*
X7416467Y29372855D01*
X7567834Y29738288D01*
X7645000Y30126229D01*
X7645000Y30429200D01*
X19675424Y30429200D01*
X19693001Y30250737D01*
X19693000Y24588483D01*
X19707585Y24440398D01*
X19765224Y24250390D01*
X19858824Y24075276D01*
X19984788Y23921788D01*
X20138276Y23795824D01*
X20313389Y23702224D01*
X20503397Y23644585D01*
X20701000Y23625123D01*
X20898602Y23644585D01*
X21088610Y23702224D01*
X21263724Y23795824D01*
X21417212Y23921788D01*
X21543176Y24075276D01*
X21636776Y24250389D01*
X21694415Y24440397D01*
X21709000Y24588482D01*
X21709000Y27165830D01*
X30562600Y27165830D01*
X30562600Y26986970D01*
X30597494Y26811546D01*
X30665941Y26646301D01*
X30765311Y26497584D01*
X30891784Y26371111D01*
X31040501Y26271741D01*
X31205746Y26203294D01*
X31349404Y26174719D01*
X31413189Y26140625D01*
X31603198Y26082986D01*
X31800800Y26063524D01*
X31998402Y26082986D01*
X32188411Y26140625D01*
X32363524Y26234224D01*
X32478549Y26328622D01*
X36345878Y30195950D01*
X36440276Y30310975D01*
X36533875Y30486088D01*
X36591514Y30676097D01*
X36610976Y30873699D01*
X36591514Y31071302D01*
X36533875Y31261311D01*
X36440276Y31436423D01*
X36314312Y31589912D01*
X36160823Y31715876D01*
X35985711Y31809475D01*
X35795702Y31867114D01*
X35598099Y31886576D01*
X35400497Y31867114D01*
X35210488Y31809475D01*
X35035375Y31715876D01*
X34920350Y31621478D01*
X31258965Y27960092D01*
X31205746Y27949506D01*
X31040501Y27881059D01*
X30891784Y27781689D01*
X30765311Y27655216D01*
X30665941Y27506499D01*
X30597494Y27341254D01*
X30562600Y27165830D01*
X21709000Y27165830D01*
X21709000Y30366985D01*
X21713877Y30416500D01*
X21707023Y30486088D01*
X21703509Y30521771D01*
X25629000Y30521771D01*
X25629000Y30126229D01*
X25706166Y29738288D01*
X25857533Y29372855D01*
X26077284Y29043975D01*
X26356975Y28764284D01*
X26685855Y28544533D01*
X27051288Y28393166D01*
X27439229Y28316000D01*
X27834771Y28316000D01*
X28222712Y28393166D01*
X28588145Y28544533D01*
X28917025Y28764284D01*
X29196716Y29043975D01*
X29416467Y29372855D01*
X29567834Y29738288D01*
X29645000Y30126229D01*
X29645000Y30521771D01*
X29567834Y30909712D01*
X29416467Y31275145D01*
X29196716Y31604025D01*
X28917025Y31883716D01*
X28588145Y32103467D01*
X28222712Y32254834D01*
X28194903Y32260366D01*
X28497383Y32358757D01*
X28793038Y32516786D01*
X28949048Y32832347D01*
X27637000Y34144395D01*
X26324952Y32832347D01*
X26480962Y32516786D01*
X26855745Y32325980D01*
X27084719Y32261484D01*
X27051288Y32254834D01*
X26685855Y32103467D01*
X26356975Y31883716D01*
X26077284Y31604025D01*
X25857533Y31275145D01*
X25706166Y30909712D01*
X25629000Y30521771D01*
X21703509Y30521771D01*
X21694415Y30614103D01*
X21636776Y30804111D01*
X21580331Y30909712D01*
X21543177Y30979223D01*
X21518340Y31009487D01*
X21417212Y31132712D01*
X21378750Y31164277D01*
X21366049Y31176978D01*
X21251024Y31271376D01*
X21075911Y31364975D01*
X20885902Y31422614D01*
X20688300Y31442076D01*
X20490698Y31422614D01*
X20300689Y31364975D01*
X20125576Y31271376D01*
X19972088Y31145412D01*
X19846124Y30991924D01*
X19752525Y30816811D01*
X19694886Y30626802D01*
X19675424Y30429200D01*
X7645000Y30429200D01*
X7645000Y30521771D01*
X7567834Y30909712D01*
X7416467Y31275145D01*
X7196716Y31604025D01*
X6917025Y31883716D01*
X6588145Y32103467D01*
X6222712Y32254834D01*
X5874990Y32324000D01*
X6222712Y32393166D01*
X6588145Y32544533D01*
X6917025Y32764284D01*
X7196716Y33043975D01*
X7416467Y33372855D01*
X7567834Y33738288D01*
X7645000Y34126229D01*
X7645000Y34281176D01*
X25492098Y34281176D01*
X25541666Y33863549D01*
X25671757Y33463617D01*
X25829786Y33167962D01*
X26145347Y33011952D01*
X27457395Y34324000D01*
X27816605Y34324000D01*
X29128653Y33011952D01*
X29444214Y33167962D01*
X29635020Y33542745D01*
X29749044Y33947551D01*
X29781902Y34366824D01*
X29732334Y34784451D01*
X29602243Y35184383D01*
X29444214Y35480038D01*
X29128653Y35636048D01*
X27816605Y34324000D01*
X27457395Y34324000D01*
X26145347Y35636048D01*
X25829786Y35480038D01*
X25638980Y35105255D01*
X25524956Y34700449D01*
X25492098Y34281176D01*
X7645000Y34281176D01*
X7645000Y34521771D01*
X7567834Y34909712D01*
X7416467Y35275145D01*
X7196716Y35604025D01*
X6917025Y35883716D01*
X6588145Y36103467D01*
X6222712Y36254834D01*
X5874990Y36324000D01*
X6222712Y36393166D01*
X6588145Y36544533D01*
X6917025Y36764284D01*
X7196716Y37043975D01*
X7416467Y37372855D01*
X7567834Y37738288D01*
X7645000Y38126229D01*
X7645000Y38521771D01*
X7567834Y38909712D01*
X7416467Y39275145D01*
X7196716Y39604025D01*
X6917025Y39883716D01*
X6588145Y40103467D01*
X6222712Y40254834D01*
X5874990Y40324000D01*
X6222712Y40393166D01*
X6588145Y40544533D01*
X6917025Y40764284D01*
X7196716Y41043975D01*
X7416467Y41372855D01*
X7567834Y41738288D01*
X7645000Y42126229D01*
X7645000Y42521771D01*
X7619532Y42649810D01*
X13024200Y42649810D01*
X13024200Y41998190D01*
X13151325Y41359092D01*
X13400688Y40757074D01*
X13762709Y40215273D01*
X14223473Y39754509D01*
X14765274Y39392488D01*
X15367292Y39143125D01*
X16006390Y39016000D01*
X16658010Y39016000D01*
X17297108Y39143125D01*
X17899126Y39392488D01*
X18440927Y39754509D01*
X18901691Y40215273D01*
X19263712Y40757074D01*
X19513075Y41359092D01*
X19640200Y41998190D01*
X19640200Y42649810D01*
X19513075Y43288908D01*
X19263712Y43890926D01*
X18901691Y44432727D01*
X18440927Y44893491D01*
X17899126Y45255512D01*
X17297108Y45504875D01*
X16658010Y45632000D01*
X16006390Y45632000D01*
X15367292Y45504875D01*
X14765274Y45255512D01*
X14223473Y44893491D01*
X13762709Y44432727D01*
X13400688Y43890926D01*
X13151325Y43288908D01*
X13024200Y42649810D01*
X7619532Y42649810D01*
X7567834Y42909712D01*
X7416467Y43275145D01*
X7196716Y43604025D01*
X6917025Y43883716D01*
X6588145Y44103467D01*
X6222712Y44254834D01*
X5874990Y44324000D01*
X6222712Y44393166D01*
X6588145Y44544533D01*
X6917025Y44764284D01*
X7196716Y45043975D01*
X7416467Y45372855D01*
X7567834Y45738288D01*
X7645000Y46126229D01*
X7645000Y46521771D01*
X7567834Y46909712D01*
X7416467Y47275145D01*
X7196716Y47604025D01*
X6917025Y47883716D01*
X6588145Y48103467D01*
X6222712Y48254834D01*
X5874990Y48324000D01*
X6222712Y48393166D01*
X6588145Y48544533D01*
X6917025Y48764284D01*
X7196716Y49043975D01*
X7416467Y49372855D01*
X7567834Y49738288D01*
X7645000Y50126229D01*
X7645000Y50521771D01*
X7567834Y50909712D01*
X7416467Y51275145D01*
X7196716Y51604025D01*
X6917025Y51883716D01*
X6588145Y52103467D01*
X6222712Y52254834D01*
X5874990Y52324000D01*
X6222712Y52393166D01*
X6588145Y52544533D01*
X6917025Y52764284D01*
X7019232Y52866491D01*
X11129000Y52866491D01*
X11129000Y51781509D01*
X11340669Y50717376D01*
X11755874Y49714984D01*
X12358657Y48812855D01*
X13125855Y48045657D01*
X14027984Y47442874D01*
X15030376Y47027669D01*
X16094509Y46816000D01*
X17179491Y46816000D01*
X18243624Y47027669D01*
X19246016Y47442874D01*
X20148145Y48045657D01*
X20915343Y48812855D01*
X21518126Y49714984D01*
X21852308Y50521771D01*
X25629000Y50521771D01*
X25629000Y50126229D01*
X25706166Y49738288D01*
X25857533Y49372855D01*
X26077284Y49043975D01*
X26356975Y48764284D01*
X26685855Y48544533D01*
X27051288Y48393166D01*
X27399010Y48324000D01*
X27051288Y48254834D01*
X26685855Y48103467D01*
X26356975Y47883716D01*
X26077284Y47604025D01*
X25857533Y47275145D01*
X25706166Y46909712D01*
X25629000Y46521771D01*
X25629000Y46126229D01*
X25706166Y45738288D01*
X25857533Y45372855D01*
X26077284Y45043975D01*
X26356975Y44764284D01*
X26685855Y44544533D01*
X27051288Y44393166D01*
X27399010Y44324000D01*
X27051288Y44254834D01*
X26685855Y44103467D01*
X26356975Y43883716D01*
X26077284Y43604025D01*
X25857533Y43275145D01*
X25706166Y42909712D01*
X25629000Y42521771D01*
X25629000Y42126229D01*
X25706166Y41738288D01*
X25857533Y41372855D01*
X26077284Y41043975D01*
X26356975Y40764284D01*
X26685855Y40544533D01*
X27051288Y40393166D01*
X27399010Y40324000D01*
X27051288Y40254834D01*
X26685855Y40103467D01*
X26356975Y39883716D01*
X26077284Y39604025D01*
X25857533Y39275145D01*
X25706166Y38909712D01*
X25629000Y38521771D01*
X25629000Y38126229D01*
X25706166Y37738288D01*
X25857533Y37372855D01*
X26077284Y37043975D01*
X26356975Y36764284D01*
X26685855Y36544533D01*
X27051288Y36393166D01*
X27079097Y36387634D01*
X26776617Y36289243D01*
X26480962Y36131214D01*
X26324952Y35815653D01*
X27637000Y34503605D01*
X28949048Y35815653D01*
X28793038Y36131214D01*
X28418255Y36322020D01*
X28189281Y36386516D01*
X28222712Y36393166D01*
X28588145Y36544533D01*
X28917025Y36764284D01*
X29196716Y37043975D01*
X29416467Y37372855D01*
X29567834Y37738288D01*
X29645000Y38126229D01*
X29645000Y38521771D01*
X29567834Y38909712D01*
X29416467Y39275145D01*
X29196716Y39604025D01*
X28917025Y39883716D01*
X28588145Y40103467D01*
X28222712Y40254834D01*
X27874990Y40324000D01*
X28222712Y40393166D01*
X28588145Y40544533D01*
X28917025Y40764284D01*
X29196716Y41043975D01*
X29416467Y41372855D01*
X29567834Y41738288D01*
X29645000Y42126229D01*
X29645000Y42521771D01*
X29567834Y42909712D01*
X29416467Y43275145D01*
X29196716Y43604025D01*
X28917025Y43883716D01*
X28588145Y44103467D01*
X28222712Y44254834D01*
X27874990Y44324000D01*
X28222712Y44393166D01*
X28588145Y44544533D01*
X28917025Y44764284D01*
X29196716Y45043975D01*
X29416467Y45372855D01*
X29471049Y45504630D01*
X32404100Y45504630D01*
X32404100Y45325770D01*
X32438994Y45150346D01*
X32507441Y44985101D01*
X32606811Y44836384D01*
X32733284Y44709911D01*
X32793400Y44669743D01*
X32793401Y39094006D01*
X32708411Y39009016D01*
X32609041Y38860299D01*
X32540594Y38695054D01*
X32505700Y38519630D01*
X32505700Y38340770D01*
X32540594Y38165346D01*
X32609041Y38000101D01*
X32708411Y37851384D01*
X32834884Y37724911D01*
X32983601Y37625541D01*
X33148846Y37557094D01*
X33324270Y37522200D01*
X33503130Y37522200D01*
X33678554Y37557094D01*
X33843799Y37625541D01*
X33992516Y37724911D01*
X34118989Y37851384D01*
X34218359Y38000101D01*
X34286806Y38165346D01*
X34321700Y38340770D01*
X34321700Y38354000D01*
X46514430Y38354000D01*
X46540650Y38087786D01*
X46618302Y37831802D01*
X46744402Y37595886D01*
X46914103Y37389103D01*
X47120886Y37219402D01*
X47356802Y37093302D01*
X47387467Y37084000D01*
X47356802Y37074698D01*
X47120886Y36948598D01*
X46914103Y36778897D01*
X46744402Y36572114D01*
X46618302Y36336198D01*
X46540650Y36080214D01*
X46514430Y35814000D01*
X46540650Y35547786D01*
X46618302Y35291802D01*
X46744402Y35055886D01*
X46914103Y34849103D01*
X47120886Y34679402D01*
X47356802Y34553302D01*
X47387467Y34544000D01*
X47356802Y34534698D01*
X47120886Y34408598D01*
X46914103Y34238897D01*
X46744402Y34032114D01*
X46618302Y33796198D01*
X46540650Y33540214D01*
X46514430Y33274000D01*
X46540650Y33007786D01*
X46618302Y32751802D01*
X46744402Y32515886D01*
X46914103Y32309103D01*
X47120886Y32139402D01*
X47356802Y32013302D01*
X47612786Y31935650D01*
X47812294Y31916000D01*
X47945706Y31916000D01*
X48145214Y31935650D01*
X48401198Y32013302D01*
X48637114Y32139402D01*
X48843897Y32309103D01*
X49013598Y32515886D01*
X49139698Y32751802D01*
X49149000Y32782467D01*
X49158302Y32751802D01*
X49284402Y32515886D01*
X49454103Y32309103D01*
X49660886Y32139402D01*
X49896802Y32013302D01*
X50152786Y31935650D01*
X50352294Y31916000D01*
X50485706Y31916000D01*
X50685214Y31935650D01*
X50941198Y32013302D01*
X51177114Y32139402D01*
X51383897Y32309103D01*
X51553598Y32515886D01*
X51679698Y32751802D01*
X51711133Y32855430D01*
X58959800Y32855430D01*
X58959800Y32676570D01*
X58994694Y32501146D01*
X59063141Y32335901D01*
X59162511Y32187184D01*
X59288984Y32060711D01*
X59437701Y31961341D01*
X59602946Y31892894D01*
X59778370Y31858000D01*
X59880603Y31858000D01*
X60993521Y30745081D01*
X60992430Y30734000D01*
X61018650Y30467786D01*
X61096302Y30211802D01*
X61222402Y29975886D01*
X61392103Y29769103D01*
X61598886Y29599402D01*
X61834802Y29473302D01*
X62090786Y29395650D01*
X62290294Y29376000D01*
X62423706Y29376000D01*
X62623214Y29395650D01*
X62879198Y29473302D01*
X63115114Y29599402D01*
X63321897Y29769103D01*
X63491598Y29975886D01*
X63617698Y30211802D01*
X63695350Y30467786D01*
X63721570Y30734000D01*
X63695350Y31000214D01*
X63617698Y31256198D01*
X63491598Y31492114D01*
X63321897Y31698897D01*
X63115114Y31868598D01*
X62879198Y31994698D01*
X62848533Y32004000D01*
X62879198Y32013302D01*
X63115114Y32139402D01*
X63321897Y32309103D01*
X63491598Y32515886D01*
X63617698Y32751802D01*
X63695350Y33007786D01*
X63721570Y33274000D01*
X63695350Y33540214D01*
X63617698Y33796198D01*
X63491598Y34032114D01*
X63321897Y34238897D01*
X63115114Y34408598D01*
X62879198Y34534698D01*
X62848533Y34544000D01*
X62879198Y34553302D01*
X63115114Y34679402D01*
X63321897Y34849103D01*
X63491598Y35055886D01*
X63617698Y35291802D01*
X63695350Y35547786D01*
X63721570Y35814000D01*
X63695350Y36080214D01*
X63617698Y36336198D01*
X63491598Y36572114D01*
X63321897Y36778897D01*
X63115114Y36948598D01*
X62879198Y37074698D01*
X62848533Y37084000D01*
X62879198Y37093302D01*
X63115114Y37219402D01*
X63321897Y37389103D01*
X63491598Y37595886D01*
X63617698Y37831802D01*
X63695350Y38087786D01*
X63721570Y38354000D01*
X63695350Y38620214D01*
X63617698Y38876198D01*
X63491598Y39112114D01*
X63321897Y39318897D01*
X63115114Y39488598D01*
X62879198Y39614698D01*
X62848533Y39624000D01*
X62879198Y39633302D01*
X63115114Y39759402D01*
X63321897Y39929103D01*
X63491598Y40135886D01*
X63617698Y40371802D01*
X63695350Y40627786D01*
X63721570Y40894000D01*
X63695350Y41160214D01*
X63617698Y41416198D01*
X63491598Y41652114D01*
X63321897Y41858897D01*
X63115114Y42028598D01*
X63031028Y42073543D01*
X63207000Y42073543D01*
X63306585Y42083351D01*
X63402343Y42112399D01*
X63490595Y42159571D01*
X63567948Y42223052D01*
X63631429Y42300405D01*
X63678601Y42388657D01*
X63707649Y42484415D01*
X63717457Y42584000D01*
X63717457Y44284000D01*
X63707649Y44383585D01*
X63678601Y44479343D01*
X63631429Y44567595D01*
X63567948Y44644948D01*
X63490595Y44708429D01*
X63402343Y44755601D01*
X63306585Y44784649D01*
X63207000Y44794457D01*
X61507000Y44794457D01*
X61407415Y44784649D01*
X61311657Y44755601D01*
X61223405Y44708429D01*
X61146052Y44644948D01*
X61082571Y44567595D01*
X61035399Y44479343D01*
X61006351Y44383585D01*
X60996543Y44284000D01*
X60996543Y42584000D01*
X61006351Y42484415D01*
X61035399Y42388657D01*
X61082571Y42300405D01*
X61146052Y42223052D01*
X61223405Y42159571D01*
X61311657Y42112399D01*
X61407415Y42083351D01*
X61507000Y42073543D01*
X61682972Y42073543D01*
X61598886Y42028598D01*
X61392103Y41858897D01*
X61222402Y41652114D01*
X61096302Y41416198D01*
X61018650Y41160214D01*
X60992430Y40894000D01*
X61018650Y40627786D01*
X61096302Y40371802D01*
X61222402Y40135886D01*
X61392103Y39929103D01*
X61598886Y39759402D01*
X61834802Y39633302D01*
X61865467Y39624000D01*
X61834802Y39614698D01*
X61598886Y39488598D01*
X61392103Y39318897D01*
X61222402Y39112114D01*
X61096302Y38876198D01*
X61018650Y38620214D01*
X60992430Y38354000D01*
X61018650Y38087786D01*
X61096302Y37831802D01*
X61222402Y37595886D01*
X61392103Y37389103D01*
X61598886Y37219402D01*
X61834802Y37093302D01*
X61865467Y37084000D01*
X61834802Y37074698D01*
X61598886Y36948598D01*
X61392103Y36778897D01*
X61222402Y36572114D01*
X61096302Y36336198D01*
X61018650Y36080214D01*
X60992430Y35814000D01*
X61018650Y35547786D01*
X61096302Y35291802D01*
X61222402Y35055886D01*
X61392103Y34849103D01*
X61598886Y34679402D01*
X61834802Y34553302D01*
X61865467Y34544000D01*
X61834802Y34534698D01*
X61598886Y34408598D01*
X61392103Y34238897D01*
X61222402Y34032114D01*
X61096302Y33796198D01*
X61018650Y33540214D01*
X60992430Y33274000D01*
X61018650Y33007786D01*
X61096302Y32751802D01*
X61222402Y32515886D01*
X61392103Y32309103D01*
X61598886Y32139402D01*
X61834802Y32013302D01*
X61865467Y32004000D01*
X61834802Y31994698D01*
X61638973Y31890025D01*
X60775800Y32753197D01*
X60775800Y32855430D01*
X60740906Y33030854D01*
X60672459Y33196099D01*
X60573089Y33344816D01*
X60446616Y33471289D01*
X60297899Y33570659D01*
X60132654Y33639106D01*
X59957230Y33674000D01*
X59778370Y33674000D01*
X59602946Y33639106D01*
X59437701Y33570659D01*
X59288984Y33471289D01*
X59162511Y33344816D01*
X59063141Y33196099D01*
X58994694Y33030854D01*
X58959800Y32855430D01*
X51711133Y32855430D01*
X51757350Y33007786D01*
X51783570Y33274000D01*
X51757350Y33540214D01*
X51679698Y33796198D01*
X51553598Y34032114D01*
X51383897Y34238897D01*
X51177114Y34408598D01*
X50941198Y34534698D01*
X50910533Y34544000D01*
X50941198Y34553302D01*
X51177114Y34679402D01*
X51383897Y34849103D01*
X51553598Y35055886D01*
X51679698Y35291802D01*
X51757350Y35547786D01*
X51783570Y35814000D01*
X51757350Y36080214D01*
X51679698Y36336198D01*
X51553598Y36572114D01*
X51383897Y36778897D01*
X51177114Y36948598D01*
X50941198Y37074698D01*
X50910533Y37084000D01*
X50941198Y37093302D01*
X51177114Y37219402D01*
X51383897Y37389103D01*
X51553598Y37595886D01*
X51679698Y37831802D01*
X51757350Y38087786D01*
X51783570Y38354000D01*
X51757350Y38620214D01*
X51679698Y38876198D01*
X51553598Y39112114D01*
X51383897Y39318897D01*
X51177114Y39488598D01*
X50941198Y39614698D01*
X50910533Y39624000D01*
X50941198Y39633302D01*
X51177114Y39759402D01*
X51383897Y39929103D01*
X51553598Y40135886D01*
X51679698Y40371802D01*
X51757350Y40627786D01*
X51783570Y40894000D01*
X51757350Y41160214D01*
X51679698Y41416198D01*
X51553598Y41652114D01*
X51383897Y41858897D01*
X51177114Y42028598D01*
X50941198Y42154698D01*
X50685214Y42232350D01*
X50485706Y42252000D01*
X50352294Y42252000D01*
X50152786Y42232350D01*
X49896802Y42154698D01*
X49660886Y42028598D01*
X49454103Y41858897D01*
X49284402Y41652114D01*
X49239457Y41568028D01*
X49239457Y41744000D01*
X49229649Y41843585D01*
X49200601Y41939343D01*
X49153429Y42027595D01*
X49089948Y42104948D01*
X49012595Y42168429D01*
X48924343Y42215601D01*
X48828585Y42244649D01*
X48729000Y42254457D01*
X47029000Y42254457D01*
X46929415Y42244649D01*
X46833657Y42215601D01*
X46745405Y42168429D01*
X46668052Y42104948D01*
X46604571Y42027595D01*
X46557399Y41939343D01*
X46528351Y41843585D01*
X46518543Y41744000D01*
X46518543Y40044000D01*
X46528351Y39944415D01*
X46557399Y39848657D01*
X46604571Y39760405D01*
X46668052Y39683052D01*
X46745405Y39619571D01*
X46833657Y39572399D01*
X46929415Y39543351D01*
X47029000Y39533543D01*
X47204972Y39533543D01*
X47120886Y39488598D01*
X46914103Y39318897D01*
X46744402Y39112114D01*
X46618302Y38876198D01*
X46540650Y38620214D01*
X46514430Y38354000D01*
X34321700Y38354000D01*
X34321700Y38519630D01*
X34311857Y38569114D01*
X34467270Y38538200D01*
X34646130Y38538200D01*
X34821554Y38573094D01*
X34986799Y38641541D01*
X35135516Y38740911D01*
X35261989Y38867384D01*
X35361359Y39016101D01*
X35429806Y39181346D01*
X35464700Y39356770D01*
X35464700Y39535630D01*
X35429806Y39711054D01*
X35361359Y39876299D01*
X35261989Y40025016D01*
X35189700Y40097305D01*
X35189700Y40102358D01*
X35251276Y40051824D01*
X35426389Y39958224D01*
X35616397Y39900585D01*
X35814000Y39881123D01*
X36011602Y39900585D01*
X36201610Y39958224D01*
X36376724Y40051824D01*
X36530212Y40177788D01*
X36656176Y40331276D01*
X36749776Y40506389D01*
X36807415Y40696397D01*
X36822000Y40844482D01*
X36822000Y44372518D01*
X36807415Y44520603D01*
X36749776Y44710611D01*
X36656176Y44885724D01*
X36530212Y45039212D01*
X36376724Y45165176D01*
X36201611Y45258776D01*
X36011603Y45316415D01*
X35814000Y45335877D01*
X35616398Y45316415D01*
X35426390Y45258776D01*
X35251277Y45165176D01*
X35097789Y45039212D01*
X34971825Y44885724D01*
X34878225Y44710611D01*
X34820586Y44520603D01*
X34806001Y44372518D01*
X34806001Y44350746D01*
X34758054Y44370606D01*
X34582630Y44405500D01*
X34403770Y44405500D01*
X34228346Y44370606D01*
X34063101Y44302159D01*
X34059400Y44299686D01*
X34059400Y44899258D01*
X34116759Y44985101D01*
X34185206Y45150346D01*
X34220100Y45325770D01*
X34220100Y45504630D01*
X34185206Y45680054D01*
X34116759Y45845299D01*
X34017389Y45994016D01*
X33890916Y46120489D01*
X33742199Y46219859D01*
X33576954Y46288306D01*
X33401530Y46323200D01*
X33222670Y46323200D01*
X33047246Y46288306D01*
X32882001Y46219859D01*
X32733284Y46120489D01*
X32606811Y45994016D01*
X32507441Y45845299D01*
X32438994Y45680054D01*
X32404100Y45504630D01*
X29471049Y45504630D01*
X29567834Y45738288D01*
X29645000Y46126229D01*
X29645000Y46521771D01*
X29567834Y46909712D01*
X29416467Y47275145D01*
X29196716Y47604025D01*
X28917025Y47883716D01*
X28588145Y48103467D01*
X28222712Y48254834D01*
X27874990Y48324000D01*
X28222712Y48393166D01*
X28588145Y48544533D01*
X28917025Y48764284D01*
X29196716Y49043975D01*
X29416467Y49372855D01*
X29567834Y49738288D01*
X29645000Y50126229D01*
X29645000Y50300310D01*
X58020300Y50300310D01*
X58020300Y49648690D01*
X58147425Y49009592D01*
X58396788Y48407574D01*
X58758809Y47865773D01*
X59219573Y47405009D01*
X59761374Y47042988D01*
X60363392Y46793625D01*
X61002490Y46666500D01*
X61654110Y46666500D01*
X62293208Y46793625D01*
X62895226Y47042988D01*
X63437027Y47405009D01*
X63897791Y47865773D01*
X64259812Y48407574D01*
X64509175Y49009592D01*
X64636300Y49648690D01*
X64636300Y50300310D01*
X64509175Y50939408D01*
X64259812Y51541426D01*
X63897791Y52083227D01*
X63437027Y52543991D01*
X62895226Y52906012D01*
X62293208Y53155375D01*
X61654110Y53282500D01*
X61002490Y53282500D01*
X60363392Y53155375D01*
X59761374Y52906012D01*
X59219573Y52543991D01*
X58758809Y52083227D01*
X58396788Y51541426D01*
X58147425Y50939408D01*
X58020300Y50300310D01*
X29645000Y50300310D01*
X29645000Y50521771D01*
X29567834Y50909712D01*
X29416467Y51275145D01*
X29196716Y51604025D01*
X28917025Y51883716D01*
X28588145Y52103467D01*
X28222712Y52254834D01*
X28194903Y52260366D01*
X28497383Y52358757D01*
X28793038Y52516786D01*
X28949048Y52832347D01*
X27637000Y54144395D01*
X26324952Y52832347D01*
X26480962Y52516786D01*
X26855745Y52325980D01*
X27084719Y52261484D01*
X27051288Y52254834D01*
X26685855Y52103467D01*
X26356975Y51883716D01*
X26077284Y51604025D01*
X25857533Y51275145D01*
X25706166Y50909712D01*
X25629000Y50521771D01*
X21852308Y50521771D01*
X21933331Y50717376D01*
X22145000Y51781509D01*
X22145000Y52866491D01*
X21933331Y53930624D01*
X21788128Y54281176D01*
X25492098Y54281176D01*
X25541666Y53863549D01*
X25671757Y53463617D01*
X25829786Y53167962D01*
X26145347Y53011952D01*
X27457395Y54324000D01*
X27816605Y54324000D01*
X29128653Y53011952D01*
X29444214Y53167962D01*
X29486540Y53251100D01*
X35461523Y53251100D01*
X35480985Y53053497D01*
X35538624Y52863489D01*
X35632224Y52688376D01*
X35758188Y52534888D01*
X35911676Y52408924D01*
X36086789Y52315324D01*
X36276797Y52257685D01*
X36424882Y52243100D01*
X39013118Y52243100D01*
X39161203Y52257685D01*
X39351211Y52315324D01*
X39526324Y52408924D01*
X39679812Y52534888D01*
X39805776Y52688376D01*
X39899376Y52863489D01*
X39957015Y53053497D01*
X39976477Y53251100D01*
X39957015Y53448703D01*
X39899376Y53638711D01*
X39805776Y53813824D01*
X39679812Y53967312D01*
X39526324Y54093276D01*
X39351211Y54186876D01*
X39161203Y54244515D01*
X39013118Y54259100D01*
X36424882Y54259100D01*
X36276797Y54244515D01*
X36086789Y54186876D01*
X35911676Y54093276D01*
X35758188Y53967312D01*
X35632224Y53813824D01*
X35538624Y53638711D01*
X35480985Y53448703D01*
X35461523Y53251100D01*
X29486540Y53251100D01*
X29635020Y53542745D01*
X29749044Y53947551D01*
X29781902Y54366824D01*
X29732334Y54784451D01*
X29602243Y55184383D01*
X29444214Y55480038D01*
X29128653Y55636048D01*
X27816605Y54324000D01*
X27457395Y54324000D01*
X26145347Y55636048D01*
X25829786Y55480038D01*
X25638980Y55105255D01*
X25524956Y54700449D01*
X25492098Y54281176D01*
X21788128Y54281176D01*
X21518126Y54933016D01*
X20915343Y55835145D01*
X20148145Y56602343D01*
X19246016Y57205126D01*
X18243624Y57620331D01*
X17179491Y57832000D01*
X16094509Y57832000D01*
X15030376Y57620331D01*
X14027984Y57205126D01*
X13125855Y56602343D01*
X12358657Y55835145D01*
X11755874Y54933016D01*
X11340669Y53930624D01*
X11129000Y52866491D01*
X7019232Y52866491D01*
X7196716Y53043975D01*
X7416467Y53372855D01*
X7567834Y53738288D01*
X7645000Y54126229D01*
X7645000Y54521771D01*
X7567834Y54909712D01*
X7416467Y55275145D01*
X7196716Y55604025D01*
X6917025Y55883716D01*
X6588145Y56103467D01*
X6222712Y56254834D01*
X5874990Y56324000D01*
X6222712Y56393166D01*
X6588145Y56544533D01*
X6917025Y56764284D01*
X7196716Y57043975D01*
X7416467Y57372855D01*
X7567834Y57738288D01*
X7645000Y58126229D01*
X7645000Y58521771D01*
X7567834Y58909712D01*
X7416467Y59275145D01*
X7196716Y59604025D01*
X6917025Y59883716D01*
X6588145Y60103467D01*
X6222712Y60254834D01*
X5874990Y60324000D01*
X6222712Y60393166D01*
X6588145Y60544533D01*
X6917025Y60764284D01*
X7196716Y61043975D01*
X7416467Y61372855D01*
X7567834Y61738288D01*
X7645000Y62126229D01*
X7645000Y62521771D01*
X7619532Y62649810D01*
X13329000Y62649810D01*
X13329000Y61998190D01*
X13456125Y61359092D01*
X13705488Y60757074D01*
X14067509Y60215273D01*
X14528273Y59754509D01*
X15070074Y59392488D01*
X15672092Y59143125D01*
X16311190Y59016000D01*
X16962810Y59016000D01*
X17601908Y59143125D01*
X18203926Y59392488D01*
X18745727Y59754509D01*
X19206491Y60215273D01*
X19568512Y60757074D01*
X19817875Y61359092D01*
X19945000Y61998190D01*
X19945000Y62649810D01*
X19817875Y63288908D01*
X19568512Y63890926D01*
X19206491Y64432727D01*
X18745727Y64893491D01*
X18203926Y65255512D01*
X17601908Y65504875D01*
X16962810Y65632000D01*
X16311190Y65632000D01*
X15672092Y65504875D01*
X15070074Y65255512D01*
X14528273Y64893491D01*
X14067509Y64432727D01*
X13705488Y63890926D01*
X13456125Y63288908D01*
X13329000Y62649810D01*
X7619532Y62649810D01*
X7567834Y62909712D01*
X7416467Y63275145D01*
X7196716Y63604025D01*
X6917025Y63883716D01*
X6588145Y64103467D01*
X6222712Y64254834D01*
X5874990Y64324000D01*
X6222712Y64393166D01*
X6588145Y64544533D01*
X6917025Y64764284D01*
X7196716Y65043975D01*
X7416467Y65372855D01*
X7567834Y65738288D01*
X7645000Y66126229D01*
X7645000Y66521771D01*
X7567834Y66909712D01*
X7416467Y67275145D01*
X7196716Y67604025D01*
X6917025Y67883716D01*
X6588145Y68103467D01*
X6222712Y68254834D01*
X5874990Y68324000D01*
X6222712Y68393166D01*
X6588145Y68544533D01*
X6917025Y68764284D01*
X7196716Y69043975D01*
X7416467Y69372855D01*
X7567834Y69738288D01*
X7645000Y70126229D01*
X7645000Y70521771D01*
X25629000Y70521771D01*
X25629000Y70126229D01*
X25706166Y69738288D01*
X25857533Y69372855D01*
X26077284Y69043975D01*
X26356975Y68764284D01*
X26685855Y68544533D01*
X27051288Y68393166D01*
X27399010Y68324000D01*
X27051288Y68254834D01*
X26685855Y68103467D01*
X26356975Y67883716D01*
X26077284Y67604025D01*
X25857533Y67275145D01*
X25706166Y66909712D01*
X25629000Y66521771D01*
X25629000Y66126229D01*
X25706166Y65738288D01*
X25857533Y65372855D01*
X26077284Y65043975D01*
X26356975Y64764284D01*
X26685855Y64544533D01*
X27051288Y64393166D01*
X27399010Y64324000D01*
X27051288Y64254834D01*
X26685855Y64103467D01*
X26356975Y63883716D01*
X26077284Y63604025D01*
X25857533Y63275145D01*
X25706166Y62909712D01*
X25629000Y62521771D01*
X25629000Y62126229D01*
X25706166Y61738288D01*
X25857533Y61372855D01*
X26077284Y61043975D01*
X26356975Y60764284D01*
X26685855Y60544533D01*
X27051288Y60393166D01*
X27399010Y60324000D01*
X27051288Y60254834D01*
X26685855Y60103467D01*
X26356975Y59883716D01*
X26077284Y59604025D01*
X25857533Y59275145D01*
X25706166Y58909712D01*
X25629000Y58521771D01*
X25629000Y58126229D01*
X25706166Y57738288D01*
X25857533Y57372855D01*
X26077284Y57043975D01*
X26356975Y56764284D01*
X26685855Y56544533D01*
X27051288Y56393166D01*
X27079097Y56387634D01*
X26776617Y56289243D01*
X26480962Y56131214D01*
X26324952Y55815653D01*
X27637000Y54503605D01*
X28949048Y55815653D01*
X28793038Y56131214D01*
X28418255Y56322020D01*
X28189281Y56386516D01*
X28222712Y56393166D01*
X28588145Y56544533D01*
X28917025Y56764284D01*
X29196716Y57043975D01*
X29416467Y57372855D01*
X29567834Y57738288D01*
X29645000Y58126229D01*
X29645000Y58521771D01*
X29567834Y58909712D01*
X29416467Y59275145D01*
X29196716Y59604025D01*
X28917025Y59883716D01*
X28588145Y60103467D01*
X28222712Y60254834D01*
X27874990Y60324000D01*
X28222712Y60393166D01*
X28588145Y60544533D01*
X28917025Y60764284D01*
X29196716Y61043975D01*
X29416467Y61372855D01*
X29567834Y61738288D01*
X29645000Y62126229D01*
X29645000Y62521771D01*
X29567834Y62909712D01*
X29416467Y63275145D01*
X29196716Y63604025D01*
X28917025Y63883716D01*
X28588145Y64103467D01*
X28222712Y64254834D01*
X27874990Y64324000D01*
X28222712Y64393166D01*
X28588145Y64544533D01*
X28917025Y64764284D01*
X29196716Y65043975D01*
X29416467Y65372855D01*
X29567834Y65738288D01*
X29645000Y66126229D01*
X29645000Y66521771D01*
X29567834Y66909712D01*
X29416467Y67275145D01*
X29196716Y67604025D01*
X28917025Y67883716D01*
X28588145Y68103467D01*
X28222712Y68254834D01*
X27874990Y68324000D01*
X28222712Y68393166D01*
X28588145Y68544533D01*
X28917025Y68764284D01*
X29196716Y69043975D01*
X29416467Y69372855D01*
X29567834Y69738288D01*
X29645000Y70126229D01*
X29645000Y70521771D01*
X29604212Y70726830D01*
X30740400Y70726830D01*
X30740400Y70547970D01*
X30775294Y70372546D01*
X30843741Y70207301D01*
X30943111Y70058584D01*
X31015400Y69986295D01*
X31015401Y67056534D01*
X31003894Y67028754D01*
X30969000Y66853330D01*
X30969000Y66674470D01*
X31003894Y66499046D01*
X31072341Y66333801D01*
X31171711Y66185084D01*
X31298184Y66058611D01*
X31446901Y65959241D01*
X31612146Y65890794D01*
X31787570Y65855900D01*
X31966430Y65855900D01*
X32141854Y65890794D01*
X32307099Y65959241D01*
X32455816Y66058611D01*
X32582289Y66185084D01*
X32681659Y66333801D01*
X32750106Y66499046D01*
X32769978Y66598951D01*
X32808911Y66540684D01*
X32935384Y66414211D01*
X33084101Y66314841D01*
X33249346Y66246394D01*
X33424770Y66211500D01*
X33603630Y66211500D01*
X33779054Y66246394D01*
X33944299Y66314841D01*
X34093016Y66414211D01*
X34219489Y66540684D01*
X34318859Y66689401D01*
X34387306Y66854646D01*
X34422200Y67030070D01*
X34422200Y67093712D01*
X34504054Y67109994D01*
X34669299Y67178441D01*
X34818016Y67277811D01*
X34944489Y67404284D01*
X35043859Y67553001D01*
X35112306Y67718246D01*
X35119772Y67755783D01*
X35453700Y67755783D01*
X35468285Y67607698D01*
X35525924Y67417690D01*
X35619524Y67242576D01*
X35745488Y67089088D01*
X35898976Y66963124D01*
X36074089Y66869524D01*
X36264097Y66811885D01*
X36461700Y66792423D01*
X36659302Y66811885D01*
X36849310Y66869524D01*
X37024424Y66963124D01*
X37177912Y67089088D01*
X37303876Y67242576D01*
X37397476Y67417689D01*
X37455115Y67607697D01*
X37469700Y67755782D01*
X37469700Y71156818D01*
X37455115Y71304903D01*
X37397476Y71494911D01*
X37303876Y71670024D01*
X37177912Y71823512D01*
X37024424Y71949476D01*
X36849311Y72043076D01*
X36659303Y72100715D01*
X36461700Y72120177D01*
X36264098Y72100715D01*
X36074090Y72043076D01*
X35898977Y71949476D01*
X35745489Y71823512D01*
X35619525Y71670024D01*
X35525925Y71494911D01*
X35468286Y71304903D01*
X35453701Y71156818D01*
X35453700Y67755783D01*
X35119772Y67755783D01*
X35147200Y67893670D01*
X35147200Y68072530D01*
X35112306Y68247954D01*
X35043859Y68413199D01*
X34944489Y68561916D01*
X34872200Y68634205D01*
X34872200Y72816115D01*
X34875262Y72847201D01*
X34869649Y72904184D01*
X34863040Y72971290D01*
X34826845Y73090610D01*
X34768066Y73200577D01*
X34688964Y73296964D01*
X34664814Y73316783D01*
X34226184Y73755413D01*
X34206364Y73779564D01*
X34109977Y73858666D01*
X34000010Y73917445D01*
X33880690Y73953640D01*
X33787688Y73962800D01*
X33756600Y73965862D01*
X33725512Y73962800D01*
X32835800Y73962800D01*
X32835800Y73990730D01*
X32800906Y74166154D01*
X32732459Y74331399D01*
X32633089Y74480116D01*
X32506616Y74606589D01*
X32357899Y74705959D01*
X32192654Y74774406D01*
X32017230Y74809300D01*
X31838370Y74809300D01*
X31662946Y74774406D01*
X31497701Y74705959D01*
X31348984Y74606589D01*
X31222511Y74480116D01*
X31123141Y74331399D01*
X31054694Y74166154D01*
X31019800Y73990730D01*
X31019800Y73811870D01*
X31054694Y73636446D01*
X31123141Y73471201D01*
X31222511Y73322484D01*
X31348984Y73196011D01*
X31497701Y73096641D01*
X31662946Y73028194D01*
X31838370Y72993300D01*
X31940602Y72993300D01*
X32029718Y72904184D01*
X32049536Y72880036D01*
X32145923Y72800934D01*
X32255890Y72742155D01*
X32375210Y72705960D01*
X32468212Y72696800D01*
X32468213Y72696800D01*
X32499299Y72693738D01*
X32530385Y72696800D01*
X33084283Y72696800D01*
X33059801Y72686659D01*
X32911084Y72587289D01*
X32784611Y72460816D01*
X32685241Y72312099D01*
X32616794Y72146854D01*
X32581900Y71971430D01*
X32581900Y71938021D01*
X32475746Y71916906D01*
X32310501Y71848459D01*
X32161784Y71749089D01*
X32035311Y71622616D01*
X31950181Y71495210D01*
X31913254Y71510506D01*
X31737830Y71545400D01*
X31558970Y71545400D01*
X31383546Y71510506D01*
X31218301Y71442059D01*
X31069584Y71342689D01*
X30943111Y71216216D01*
X30843741Y71067499D01*
X30775294Y70902254D01*
X30740400Y70726830D01*
X29604212Y70726830D01*
X29567834Y70909712D01*
X29416467Y71275145D01*
X29196716Y71604025D01*
X28917025Y71883716D01*
X28588145Y72103467D01*
X28222712Y72254834D01*
X28194903Y72260366D01*
X28497383Y72358757D01*
X28793038Y72516786D01*
X28949048Y72832347D01*
X27637000Y74144395D01*
X26324952Y72832347D01*
X26480962Y72516786D01*
X26855745Y72325980D01*
X27084719Y72261484D01*
X27051288Y72254834D01*
X26685855Y72103467D01*
X26356975Y71883716D01*
X26077284Y71604025D01*
X25857533Y71275145D01*
X25706166Y70909712D01*
X25629000Y70521771D01*
X7645000Y70521771D01*
X7567834Y70909712D01*
X7416467Y71275145D01*
X7196716Y71604025D01*
X6917025Y71883716D01*
X6588145Y72103467D01*
X6222712Y72254834D01*
X5874990Y72324000D01*
X6222712Y72393166D01*
X6588145Y72544533D01*
X6917025Y72764284D01*
X7196716Y73043975D01*
X7416467Y73372855D01*
X7567834Y73738288D01*
X7645000Y74126229D01*
X7645000Y74521771D01*
X7567834Y74909712D01*
X7416467Y75275145D01*
X7196716Y75604025D01*
X6917025Y75883716D01*
X6588145Y76103467D01*
X6395000Y76183470D01*
X6395000Y79802017D01*
X8516835Y79802017D01*
X8529529Y76146171D01*
X8524824Y76098400D01*
X8529873Y76047137D01*
X8529879Y76045383D01*
X8534729Y75997837D01*
X8544286Y75900798D01*
X8544799Y75899108D01*
X8544978Y75897349D01*
X8573638Y75804037D01*
X8601925Y75710789D01*
X8602757Y75709232D01*
X8603276Y75707543D01*
X8649522Y75621740D01*
X8695524Y75535676D01*
X8696646Y75534309D01*
X8697483Y75532756D01*
X8759446Y75457786D01*
X8789922Y75420651D01*
X8791171Y75419402D01*
X8823980Y75379706D01*
X8861183Y75349390D01*
X11653951Y72556622D01*
X11768976Y72462223D01*
X11944089Y72368624D01*
X12134097Y72310986D01*
X12331700Y72291524D01*
X12529302Y72310986D01*
X12719311Y72368624D01*
X12894424Y72462223D01*
X13047912Y72588188D01*
X13173877Y72741676D01*
X13267476Y72916789D01*
X13325114Y73106798D01*
X13344576Y73304400D01*
X13325114Y73502003D01*
X13267476Y73692011D01*
X13173877Y73867124D01*
X13079478Y73982149D01*
X10607627Y76454000D01*
X22875824Y76454000D01*
X22880701Y76404483D01*
X22880700Y74486783D01*
X22895285Y74338698D01*
X22952924Y74148690D01*
X23046524Y73973576D01*
X23172488Y73820088D01*
X23325976Y73694124D01*
X23501089Y73600524D01*
X23691097Y73542885D01*
X23888700Y73523423D01*
X24086302Y73542885D01*
X24276310Y73600524D01*
X24451424Y73694124D01*
X24604912Y73820088D01*
X24730876Y73973576D01*
X24824476Y74148689D01*
X24864665Y74281176D01*
X25492098Y74281176D01*
X25541666Y73863549D01*
X25671757Y73463617D01*
X25829786Y73167962D01*
X26145347Y73011952D01*
X27457395Y74324000D01*
X27816605Y74324000D01*
X29128653Y73011952D01*
X29444214Y73167962D01*
X29635020Y73542745D01*
X29749044Y73947551D01*
X29781902Y74366824D01*
X29732334Y74784451D01*
X29602243Y75184383D01*
X29444214Y75480038D01*
X29128653Y75636048D01*
X27816605Y74324000D01*
X27457395Y74324000D01*
X26145347Y75636048D01*
X25829786Y75480038D01*
X25638980Y75105255D01*
X25524956Y74700449D01*
X25492098Y74281176D01*
X24864665Y74281176D01*
X24882115Y74338697D01*
X24896700Y74486782D01*
X24896700Y75815653D01*
X26324952Y75815653D01*
X27637000Y74503605D01*
X28949048Y75815653D01*
X28793038Y76131214D01*
X28418255Y76322020D01*
X28013449Y76436044D01*
X27594176Y76468902D01*
X27176549Y76419334D01*
X26776617Y76289243D01*
X26480962Y76131214D01*
X26324952Y75815653D01*
X24896700Y75815653D01*
X24896700Y76036473D01*
X27651027Y78790800D01*
X46078724Y78790800D01*
X46098186Y78593198D01*
X46155825Y78403189D01*
X46249424Y78228076D01*
X46343822Y78113051D01*
X48801401Y75655472D01*
X48801400Y67882783D01*
X48815985Y67734698D01*
X48873624Y67544690D01*
X48967224Y67369576D01*
X49093188Y67216088D01*
X49246676Y67090124D01*
X49421789Y66996524D01*
X49611797Y66938885D01*
X49809400Y66919423D01*
X50007002Y66938885D01*
X50197010Y66996524D01*
X50372124Y67090124D01*
X50525612Y67216088D01*
X50651576Y67369576D01*
X50745176Y67544689D01*
X50802815Y67734697D01*
X50817400Y67882782D01*
X50817400Y70358000D01*
X60992430Y70358000D01*
X61018650Y70091786D01*
X61096302Y69835802D01*
X61222402Y69599886D01*
X61392103Y69393103D01*
X61598886Y69223402D01*
X61834802Y69097302D01*
X61865467Y69088000D01*
X61834802Y69078698D01*
X61598886Y68952598D01*
X61392103Y68782897D01*
X61222402Y68576114D01*
X61096302Y68340198D01*
X61018650Y68084214D01*
X60992430Y67818000D01*
X61018650Y67551786D01*
X61096302Y67295802D01*
X61222402Y67059886D01*
X61392103Y66853103D01*
X61598886Y66683402D01*
X61834802Y66557302D01*
X61865467Y66548000D01*
X61834802Y66538698D01*
X61598886Y66412598D01*
X61392103Y66242897D01*
X61222402Y66036114D01*
X61096302Y65800198D01*
X61018650Y65544214D01*
X60992430Y65278000D01*
X61018650Y65011786D01*
X61096302Y64755802D01*
X61222402Y64519886D01*
X61392103Y64313103D01*
X61598886Y64143402D01*
X61834802Y64017302D01*
X61865467Y64008000D01*
X61834802Y63998698D01*
X61598886Y63872598D01*
X61392103Y63702897D01*
X61222402Y63496114D01*
X61096302Y63260198D01*
X61018650Y63004214D01*
X60992430Y62738000D01*
X61018650Y62471786D01*
X61096302Y62215802D01*
X61222402Y61979886D01*
X61392103Y61773103D01*
X61598886Y61603402D01*
X61834802Y61477302D01*
X61865467Y61468000D01*
X61834802Y61458698D01*
X61598886Y61332598D01*
X61392103Y61162897D01*
X61222402Y60956114D01*
X61096302Y60720198D01*
X61018650Y60464214D01*
X60992430Y60198000D01*
X61018650Y59931786D01*
X61096302Y59675802D01*
X61222402Y59439886D01*
X61392103Y59233103D01*
X61598886Y59063402D01*
X61682972Y59018457D01*
X61507000Y59018457D01*
X61407415Y59008649D01*
X61311657Y58979601D01*
X61223405Y58932429D01*
X61146052Y58868948D01*
X61082571Y58791595D01*
X61035399Y58703343D01*
X61006351Y58607585D01*
X60996543Y58508000D01*
X60996543Y56808000D01*
X61006351Y56708415D01*
X61035399Y56612657D01*
X61082571Y56524405D01*
X61146052Y56447052D01*
X61223405Y56383571D01*
X61311657Y56336399D01*
X61407415Y56307351D01*
X61507000Y56297543D01*
X63207000Y56297543D01*
X63306585Y56307351D01*
X63402343Y56336399D01*
X63490595Y56383571D01*
X63567948Y56447052D01*
X63631429Y56524405D01*
X63678601Y56612657D01*
X63707649Y56708415D01*
X63717457Y56808000D01*
X63717457Y58508000D01*
X63707649Y58607585D01*
X63678601Y58703343D01*
X63631429Y58791595D01*
X63567948Y58868948D01*
X63490595Y58932429D01*
X63402343Y58979601D01*
X63306585Y59008649D01*
X63207000Y59018457D01*
X63031028Y59018457D01*
X63115114Y59063402D01*
X63321897Y59233103D01*
X63491598Y59439886D01*
X63617698Y59675802D01*
X63695350Y59931786D01*
X63721570Y60198000D01*
X63695350Y60464214D01*
X63617698Y60720198D01*
X63491598Y60956114D01*
X63321897Y61162897D01*
X63115114Y61332598D01*
X62879198Y61458698D01*
X62848533Y61468000D01*
X62879198Y61477302D01*
X63115114Y61603402D01*
X63321897Y61773103D01*
X63491598Y61979886D01*
X63617698Y62215802D01*
X63695350Y62471786D01*
X63721570Y62738000D01*
X63695350Y63004214D01*
X63617698Y63260198D01*
X63491598Y63496114D01*
X63321897Y63702897D01*
X63115114Y63872598D01*
X62879198Y63998698D01*
X62848533Y64008000D01*
X62879198Y64017302D01*
X63115114Y64143402D01*
X63321897Y64313103D01*
X63491598Y64519886D01*
X63617698Y64755802D01*
X63695350Y65011786D01*
X63721570Y65278000D01*
X63695350Y65544214D01*
X63617698Y65800198D01*
X63491598Y66036114D01*
X63321897Y66242897D01*
X63115114Y66412598D01*
X62879198Y66538698D01*
X62848533Y66548000D01*
X62879198Y66557302D01*
X63115114Y66683402D01*
X63321897Y66853103D01*
X63491598Y67059886D01*
X63617698Y67295802D01*
X63695350Y67551786D01*
X63721570Y67818000D01*
X63695350Y68084214D01*
X63617698Y68340198D01*
X63491598Y68576114D01*
X63321897Y68782897D01*
X63115114Y68952598D01*
X62879198Y69078698D01*
X62848533Y69088000D01*
X62879198Y69097302D01*
X63115114Y69223402D01*
X63321897Y69393103D01*
X63491598Y69599886D01*
X63617698Y69835802D01*
X63695350Y70091786D01*
X63721570Y70358000D01*
X63695350Y70624214D01*
X63617698Y70880198D01*
X63491598Y71116114D01*
X63321897Y71322897D01*
X63115114Y71492598D01*
X62879198Y71618698D01*
X62623214Y71696350D01*
X62423706Y71716000D01*
X62290294Y71716000D01*
X62090786Y71696350D01*
X61834802Y71618698D01*
X61598886Y71492598D01*
X61392103Y71322897D01*
X61222402Y71116114D01*
X61096302Y70880198D01*
X61018650Y70624214D01*
X60992430Y70358000D01*
X50817400Y70358000D01*
X50817400Y74573110D01*
X60915524Y74573110D01*
X60960175Y74425901D01*
X61085359Y74163080D01*
X61259412Y73929731D01*
X61475645Y73734822D01*
X61725748Y73585843D01*
X62000109Y73488519D01*
X62230000Y73609186D01*
X62230000Y74803000D01*
X62484000Y74803000D01*
X62484000Y73609186D01*
X62713891Y73488519D01*
X62988252Y73585843D01*
X63238355Y73734822D01*
X63454588Y73929731D01*
X63628641Y74163080D01*
X63753825Y74425901D01*
X63798476Y74573110D01*
X63677155Y74803000D01*
X62484000Y74803000D01*
X62230000Y74803000D01*
X61036845Y74803000D01*
X60915524Y74573110D01*
X50817400Y74573110D01*
X50817400Y76023493D01*
X50822276Y76073000D01*
X50817400Y76122507D01*
X50817400Y76122518D01*
X50802815Y76270603D01*
X50745176Y76460611D01*
X50740744Y76468902D01*
X50651577Y76635724D01*
X50557178Y76750749D01*
X50557176Y76750751D01*
X50525612Y76789212D01*
X50487151Y76820776D01*
X47769349Y79538578D01*
X47654324Y79632976D01*
X47479211Y79726575D01*
X47289202Y79784214D01*
X47091600Y79803676D01*
X46893998Y79784214D01*
X46703989Y79726575D01*
X46528876Y79632976D01*
X46375388Y79507012D01*
X46249424Y79353524D01*
X46155825Y79178411D01*
X46098186Y78988402D01*
X46078724Y78790800D01*
X27651027Y78790800D01*
X28700478Y79840250D01*
X28794876Y79955275D01*
X28824126Y80010000D01*
X60620938Y80010000D01*
X60633160Y79885910D01*
X60669355Y79766590D01*
X60728134Y79656623D01*
X60807236Y79560236D01*
X60903623Y79481134D01*
X60996543Y79431467D01*
X60996543Y79160000D01*
X61006351Y79060415D01*
X61035399Y78964657D01*
X61082571Y78876405D01*
X61146052Y78799052D01*
X61223405Y78735571D01*
X61311657Y78688399D01*
X61407415Y78659351D01*
X61507000Y78649543D01*
X61682972Y78649543D01*
X61598886Y78604598D01*
X61392103Y78434897D01*
X61222402Y78228114D01*
X61096302Y77992198D01*
X61018650Y77736214D01*
X60992430Y77470000D01*
X61018650Y77203786D01*
X61096302Y76947802D01*
X61222402Y76711886D01*
X61392103Y76505103D01*
X61598886Y76335402D01*
X61719940Y76270697D01*
X61475645Y76125178D01*
X61259412Y75930269D01*
X61085359Y75696920D01*
X60960175Y75434099D01*
X60915524Y75286890D01*
X61036845Y75057000D01*
X62230000Y75057000D01*
X62230000Y75077000D01*
X62484000Y75077000D01*
X62484000Y75057000D01*
X63677155Y75057000D01*
X63798476Y75286890D01*
X63753825Y75434099D01*
X63628641Y75696920D01*
X63454588Y75930269D01*
X63238355Y76125178D01*
X62994060Y76270697D01*
X63115114Y76335402D01*
X63321897Y76505103D01*
X63491598Y76711886D01*
X63617698Y76947802D01*
X63695350Y77203786D01*
X63721570Y77470000D01*
X63695350Y77736214D01*
X63617698Y77992198D01*
X63491598Y78228114D01*
X63321897Y78434897D01*
X63115114Y78604598D01*
X63031028Y78649543D01*
X63207000Y78649543D01*
X63306585Y78659351D01*
X63402343Y78688399D01*
X63490595Y78735571D01*
X63567948Y78799052D01*
X63631429Y78876405D01*
X63678601Y78964657D01*
X63707649Y79060415D01*
X63717457Y79160000D01*
X63717457Y80860000D01*
X63707649Y80959585D01*
X63678601Y81055343D01*
X63631429Y81143595D01*
X63567948Y81220948D01*
X63490595Y81284429D01*
X63402343Y81331601D01*
X63306585Y81360649D01*
X63207000Y81370457D01*
X61507000Y81370457D01*
X61407415Y81360649D01*
X61311657Y81331601D01*
X61223405Y81284429D01*
X61146052Y81220948D01*
X61082571Y81143595D01*
X61035399Y81055343D01*
X61006351Y80959585D01*
X60996543Y80860000D01*
X60996543Y80588533D01*
X60903623Y80538866D01*
X60807236Y80459764D01*
X60728134Y80363377D01*
X60669355Y80253410D01*
X60633160Y80134090D01*
X60620938Y80010000D01*
X28824126Y80010000D01*
X28888475Y80130388D01*
X28946114Y80320397D01*
X28965576Y80518000D01*
X28946114Y80715602D01*
X28888475Y80905611D01*
X28794876Y81080724D01*
X28668912Y81234212D01*
X28515424Y81360176D01*
X28340311Y81453775D01*
X28150302Y81511414D01*
X27952700Y81530876D01*
X27755097Y81511414D01*
X27565088Y81453775D01*
X27389975Y81360176D01*
X27274950Y81265778D01*
X23210945Y77201772D01*
X23172489Y77170212D01*
X23140929Y77131756D01*
X23140922Y77131749D01*
X23046524Y77016724D01*
X22952925Y76841611D01*
X22895286Y76651602D01*
X22875824Y76454000D01*
X10607627Y76454000D01*
X10544250Y76517377D01*
X10532821Y79809017D01*
X10517722Y79957051D01*
X10459424Y80146857D01*
X10365217Y80321644D01*
X10238720Y80474694D01*
X10084796Y80600124D01*
X9909359Y80693116D01*
X9719152Y80750095D01*
X9521484Y80768870D01*
X9323949Y80748722D01*
X9134143Y80690424D01*
X8959356Y80596217D01*
X8806306Y80469720D01*
X8680876Y80315796D01*
X8587884Y80140359D01*
X8530905Y79950152D01*
X8516835Y79802017D01*
X6395000Y79802017D01*
X6395000Y80468928D01*
X10304383Y84378309D01*
X10386754Y84394694D01*
X10551999Y84463141D01*
X10700716Y84562511D01*
X10827189Y84688984D01*
X10926559Y84837701D01*
X10995006Y85002946D01*
X10999512Y85025600D01*
X37844443Y85025600D01*
X37844443Y83325600D01*
X37854251Y83226015D01*
X37883299Y83130257D01*
X37930471Y83042005D01*
X37993952Y82964652D01*
X38071305Y82901171D01*
X38159557Y82853999D01*
X38255315Y82824951D01*
X38354900Y82815143D01*
X40054900Y82815143D01*
X40154485Y82824951D01*
X40250243Y82853999D01*
X40338495Y82901171D01*
X40415848Y82964652D01*
X40479329Y83042005D01*
X40526501Y83130257D01*
X40555549Y83226015D01*
X40565357Y83325600D01*
X40565357Y83501572D01*
X40610302Y83417486D01*
X40780003Y83210703D01*
X40986786Y83041002D01*
X41222702Y82914902D01*
X41478686Y82837250D01*
X41678194Y82817600D01*
X41811606Y82817600D01*
X42011114Y82837250D01*
X42267098Y82914902D01*
X42503014Y83041002D01*
X42709797Y83210703D01*
X42879498Y83417486D01*
X43005598Y83653402D01*
X43014900Y83684067D01*
X43024202Y83653402D01*
X43150302Y83417486D01*
X43320003Y83210703D01*
X43526786Y83041002D01*
X43762702Y82914902D01*
X44018686Y82837250D01*
X44218194Y82817600D01*
X44351606Y82817600D01*
X44551114Y82837250D01*
X44807098Y82914902D01*
X45043014Y83041002D01*
X45249797Y83210703D01*
X45419498Y83417486D01*
X45545598Y83653402D01*
X45554900Y83684067D01*
X45564202Y83653402D01*
X45690302Y83417486D01*
X45860003Y83210703D01*
X46066786Y83041002D01*
X46302702Y82914902D01*
X46558686Y82837250D01*
X46758194Y82817600D01*
X46891606Y82817600D01*
X47091114Y82837250D01*
X47347098Y82914902D01*
X47583014Y83041002D01*
X47789797Y83210703D01*
X47959498Y83417486D01*
X48085598Y83653402D01*
X48163250Y83909386D01*
X48189470Y84175600D01*
X48163250Y84441814D01*
X48085598Y84697798D01*
X47959498Y84933714D01*
X47842400Y85076400D01*
X50938143Y85076400D01*
X50938143Y83376400D01*
X50947951Y83276815D01*
X50976999Y83181057D01*
X51024171Y83092805D01*
X51087652Y83015452D01*
X51165005Y82951971D01*
X51253257Y82904799D01*
X51349015Y82875751D01*
X51448600Y82865943D01*
X53148600Y82865943D01*
X53248185Y82875751D01*
X53343943Y82904799D01*
X53432195Y82951971D01*
X53509548Y83015452D01*
X53573029Y83092805D01*
X53620201Y83181057D01*
X53649249Y83276815D01*
X53659057Y83376400D01*
X53659057Y83552372D01*
X53704002Y83468286D01*
X53873703Y83261503D01*
X54080486Y83091802D01*
X54316402Y82965702D01*
X54572386Y82888050D01*
X54771894Y82868400D01*
X54905306Y82868400D01*
X55104814Y82888050D01*
X55360798Y82965702D01*
X55596714Y83091802D01*
X55803497Y83261503D01*
X55973198Y83468286D01*
X56099298Y83704202D01*
X56108600Y83734867D01*
X56117902Y83704202D01*
X56244002Y83468286D01*
X56413703Y83261503D01*
X56620486Y83091802D01*
X56856402Y82965702D01*
X57112386Y82888050D01*
X57311894Y82868400D01*
X57445306Y82868400D01*
X57644814Y82888050D01*
X57900798Y82965702D01*
X58136714Y83091802D01*
X58343497Y83261503D01*
X58513198Y83468286D01*
X58639298Y83704202D01*
X58716950Y83960186D01*
X58743170Y84226400D01*
X58716950Y84492614D01*
X58639298Y84748598D01*
X58513198Y84984514D01*
X58343497Y85191297D01*
X58136714Y85360998D01*
X57900798Y85487098D01*
X57644814Y85564750D01*
X57609685Y85568210D01*
X59531600Y85568210D01*
X59531600Y84916590D01*
X59658725Y84277492D01*
X59908088Y83675474D01*
X60270109Y83133673D01*
X60730873Y82672909D01*
X61272674Y82310888D01*
X61874692Y82061525D01*
X62513790Y81934400D01*
X63165410Y81934400D01*
X63804508Y82061525D01*
X64406526Y82310888D01*
X64948327Y82672909D01*
X65409091Y83133673D01*
X65771112Y83675474D01*
X66020475Y84277492D01*
X66147600Y84916590D01*
X66147600Y85568210D01*
X66020475Y86207308D01*
X65771112Y86809326D01*
X65409091Y87351127D01*
X64948327Y87811891D01*
X64406526Y88173912D01*
X63804508Y88423275D01*
X63165410Y88550400D01*
X62513790Y88550400D01*
X61874692Y88423275D01*
X61272674Y88173912D01*
X60730873Y87811891D01*
X60270109Y87351127D01*
X59908088Y86809326D01*
X59658725Y86207308D01*
X59531600Y85568210D01*
X57609685Y85568210D01*
X57445306Y85584400D01*
X57311894Y85584400D01*
X57112386Y85564750D01*
X56856402Y85487098D01*
X56620486Y85360998D01*
X56413703Y85191297D01*
X56244002Y84984514D01*
X56117902Y84748598D01*
X56108600Y84717933D01*
X56099298Y84748598D01*
X55973198Y84984514D01*
X55803497Y85191297D01*
X55596714Y85360998D01*
X55360798Y85487098D01*
X55104814Y85564750D01*
X54905306Y85584400D01*
X54771894Y85584400D01*
X54572386Y85564750D01*
X54316402Y85487098D01*
X54080486Y85360998D01*
X53873703Y85191297D01*
X53704002Y84984514D01*
X53659057Y84900428D01*
X53659057Y85076400D01*
X53649249Y85175985D01*
X53620201Y85271743D01*
X53573029Y85359995D01*
X53509548Y85437348D01*
X53432195Y85500829D01*
X53343943Y85548001D01*
X53248185Y85577049D01*
X53148600Y85586857D01*
X51448600Y85586857D01*
X51349015Y85577049D01*
X51253257Y85548001D01*
X51165005Y85500829D01*
X51087652Y85437348D01*
X51024171Y85359995D01*
X50976999Y85271743D01*
X50947951Y85175985D01*
X50938143Y85076400D01*
X47842400Y85076400D01*
X47789797Y85140497D01*
X47583014Y85310198D01*
X47347098Y85436298D01*
X47091114Y85513950D01*
X46891606Y85533600D01*
X46758194Y85533600D01*
X46558686Y85513950D01*
X46302702Y85436298D01*
X46066786Y85310198D01*
X45860003Y85140497D01*
X45690302Y84933714D01*
X45564202Y84697798D01*
X45554900Y84667133D01*
X45545598Y84697798D01*
X45419498Y84933714D01*
X45249797Y85140497D01*
X45043014Y85310198D01*
X44807098Y85436298D01*
X44551114Y85513950D01*
X44351606Y85533600D01*
X44218194Y85533600D01*
X44018686Y85513950D01*
X43762702Y85436298D01*
X43526786Y85310198D01*
X43320003Y85140497D01*
X43150302Y84933714D01*
X43024202Y84697798D01*
X43014900Y84667133D01*
X43005598Y84697798D01*
X42879498Y84933714D01*
X42709797Y85140497D01*
X42503014Y85310198D01*
X42267098Y85436298D01*
X42011114Y85513950D01*
X41811606Y85533600D01*
X41678194Y85533600D01*
X41478686Y85513950D01*
X41222702Y85436298D01*
X40986786Y85310198D01*
X40780003Y85140497D01*
X40610302Y84933714D01*
X40565357Y84849628D01*
X40565357Y85025600D01*
X40555549Y85125185D01*
X40526501Y85220943D01*
X40479329Y85309195D01*
X40415848Y85386548D01*
X40338495Y85450029D01*
X40250243Y85497201D01*
X40154485Y85526249D01*
X40054900Y85536057D01*
X38354900Y85536057D01*
X38255315Y85526249D01*
X38159557Y85497201D01*
X38071305Y85450029D01*
X37993952Y85386548D01*
X37930471Y85309195D01*
X37883299Y85220943D01*
X37854251Y85125185D01*
X37844443Y85025600D01*
X10999512Y85025600D01*
X11029900Y85178370D01*
X11029900Y85357230D01*
X10995006Y85532654D01*
X10926559Y85697899D01*
X10827189Y85846616D01*
X10700716Y85973089D01*
X10551999Y86072459D01*
X10386754Y86140906D01*
X10211330Y86175800D01*
X10032470Y86175800D01*
X9857046Y86140906D01*
X9691801Y86072459D01*
X9543084Y85973089D01*
X9416611Y85846616D01*
X9317241Y85697899D01*
X9248794Y85532654D01*
X9232409Y85450283D01*
X5127347Y81345219D01*
X5098421Y81321480D01*
X5026802Y81234212D01*
X5003697Y81206059D01*
X4933312Y81074377D01*
X4889968Y80931493D01*
X4875333Y80782900D01*
X4879000Y80745668D01*
X4879000Y79981931D01*
X4879001Y76183470D01*
X4685855Y76103467D01*
X4356975Y75883716D01*
X4077284Y75604025D01*
X3857533Y75275145D01*
X3706166Y74909712D01*
X3629000Y74521771D01*
X533000Y74521771D01*
X533000Y88621000D01*
X67031000Y88621000D01*
X67031001Y533000D01*
M02*
