G04 #@! TF.GenerationSoftware,KiCad,Pcbnew,5.1.1*
G04 #@! TF.CreationDate,2019-05-21T09:35:37+02:00*
G04 #@! TF.ProjectId,lunchbox-adapter,6c756e63-6862-46f7-982d-616461707465,rev?*
G04 #@! TF.SameCoordinates,PX6d20478PY83c6600*
G04 #@! TF.FileFunction,Soldermask,Bot*
G04 #@! TF.FilePolarity,Negative*
%FSLAX46Y46*%
G04 Gerber Fmt 4.6, Leading zero omitted, Abs format (unit mm)*
G04 Created by KiCad (PCBNEW 5.1.1) date 2019-05-21 09:35:37*
%MOMM*%
%LPD*%
G04 APERTURE LIST*
%ADD10C,0.100000*%
G04 APERTURE END LIST*
D10*
G36*
X58019706Y6221238D02*
G01*
X58538555Y6006324D01*
X58900279Y5764627D01*
X59005506Y5694317D01*
X59402617Y5297206D01*
X59439816Y5241534D01*
X59714624Y4830255D01*
X59929538Y4311406D01*
X59984319Y4036002D01*
X60039100Y3760600D01*
X60039100Y3199000D01*
X59929538Y2648194D01*
X59714624Y2129345D01*
X59402616Y1662393D01*
X59005507Y1265284D01*
X58538555Y953276D01*
X58019706Y738362D01*
X57468900Y628800D01*
X56907300Y628800D01*
X56356494Y738362D01*
X55837645Y953276D01*
X55370693Y1265284D01*
X54973584Y1662393D01*
X54661576Y2129345D01*
X54446662Y2648194D01*
X54337100Y3199000D01*
X54337100Y3760600D01*
X54391881Y4036002D01*
X54446662Y4311406D01*
X54661576Y4830255D01*
X54936384Y5241534D01*
X54973583Y5297206D01*
X55370694Y5694317D01*
X55475921Y5764627D01*
X55837645Y6006324D01*
X56356494Y6221238D01*
X56907300Y6330800D01*
X57468900Y6330800D01*
X58019706Y6221238D01*
X58019706Y6221238D01*
G37*
G36*
X4391602Y6733219D02*
G01*
X4667006Y6678438D01*
X5185855Y6463524D01*
X5652807Y6151516D01*
X6049916Y5754407D01*
X6361924Y5287455D01*
X6553011Y4826129D01*
X6576838Y4768605D01*
X6667781Y4311406D01*
X6686400Y4217799D01*
X6686400Y3656201D01*
X6576838Y3105394D01*
X6361924Y2586545D01*
X6111979Y2212476D01*
X6056434Y2129347D01*
X6049916Y2119593D01*
X5652807Y1722484D01*
X5185855Y1410476D01*
X4667006Y1195562D01*
X4391602Y1140781D01*
X4116200Y1086000D01*
X3554600Y1086000D01*
X3279198Y1140781D01*
X3003794Y1195562D01*
X2484945Y1410476D01*
X2017993Y1722484D01*
X1620884Y2119593D01*
X1614367Y2129347D01*
X1558821Y2212476D01*
X1308876Y2586545D01*
X1093962Y3105394D01*
X984400Y3656201D01*
X984400Y4217799D01*
X1003020Y4311406D01*
X1093962Y4768605D01*
X1117789Y4826129D01*
X1308876Y5287455D01*
X1620884Y5754407D01*
X2017993Y6151516D01*
X2484945Y6463524D01*
X3003794Y6678438D01*
X3279198Y6733219D01*
X3554600Y6788000D01*
X4116200Y6788000D01*
X4391602Y6733219D01*
X4391602Y6733219D01*
G37*
G36*
X18914239Y6947899D02*
G01*
X19150053Y6876366D01*
X19367381Y6760201D01*
X19557871Y6603871D01*
X19714201Y6413381D01*
X19830366Y6196053D01*
X19901899Y5960239D01*
X19926053Y5715000D01*
X19901899Y5469761D01*
X19830366Y5233947D01*
X19714201Y5016619D01*
X19557871Y4826129D01*
X19367381Y4669799D01*
X19150053Y4553634D01*
X18914239Y4482101D01*
X18730457Y4464000D01*
X18607543Y4464000D01*
X18423761Y4482101D01*
X18187947Y4553634D01*
X17970619Y4669799D01*
X17780129Y4826129D01*
X17623799Y5016619D01*
X17507634Y5233947D01*
X17436101Y5469761D01*
X17411947Y5715000D01*
X17436101Y5960239D01*
X17507634Y6196053D01*
X17623799Y6413381D01*
X17780129Y6603871D01*
X17970619Y6760201D01*
X18187947Y6876366D01*
X18423761Y6947899D01*
X18607543Y6966000D01*
X18730457Y6966000D01*
X18914239Y6947899D01*
X18914239Y6947899D01*
G37*
G36*
X62340443Y6482481D02*
G01*
X62406627Y6475963D01*
X62576466Y6424443D01*
X62732991Y6340778D01*
X62745149Y6330800D01*
X62870186Y6228186D01*
X62953448Y6126729D01*
X62982778Y6090991D01*
X63066443Y5934466D01*
X63117963Y5764627D01*
X63135359Y5588000D01*
X63117963Y5411373D01*
X63066443Y5241534D01*
X62982778Y5085009D01*
X62953448Y5049271D01*
X62870186Y4947814D01*
X62768729Y4864552D01*
X62732991Y4835222D01*
X62576466Y4751557D01*
X62406627Y4700037D01*
X62340442Y4693518D01*
X62274260Y4687000D01*
X62185740Y4687000D01*
X62119558Y4693518D01*
X62053373Y4700037D01*
X61883534Y4751557D01*
X61727009Y4835222D01*
X61691271Y4864552D01*
X61589814Y4947814D01*
X61506552Y5049271D01*
X61477222Y5085009D01*
X61393557Y5241534D01*
X61342037Y5411373D01*
X61324641Y5588000D01*
X61342037Y5764627D01*
X61393557Y5934466D01*
X61477222Y6090991D01*
X61506552Y6126729D01*
X61589814Y6228186D01*
X61714851Y6330800D01*
X61727009Y6340778D01*
X61883534Y6424443D01*
X62053373Y6475963D01*
X62119557Y6482481D01*
X62185740Y6489000D01*
X62274260Y6489000D01*
X62340443Y6482481D01*
X62340443Y6482481D01*
G37*
G36*
X62340443Y9022481D02*
G01*
X62406627Y9015963D01*
X62576466Y8964443D01*
X62732991Y8880778D01*
X62768729Y8851448D01*
X62870186Y8768186D01*
X62953448Y8666729D01*
X62982778Y8630991D01*
X63066443Y8474466D01*
X63117963Y8304627D01*
X63135359Y8128000D01*
X63117963Y7951373D01*
X63066443Y7781534D01*
X62982778Y7625009D01*
X62953448Y7589271D01*
X62870186Y7487814D01*
X62768729Y7404552D01*
X62732991Y7375222D01*
X62576466Y7291557D01*
X62406627Y7240037D01*
X62340443Y7233519D01*
X62274260Y7227000D01*
X62185740Y7227000D01*
X62119557Y7233519D01*
X62053373Y7240037D01*
X61883534Y7291557D01*
X61727009Y7375222D01*
X61691271Y7404552D01*
X61589814Y7487814D01*
X61506552Y7589271D01*
X61477222Y7625009D01*
X61393557Y7781534D01*
X61342037Y7951373D01*
X61324641Y8128000D01*
X61342037Y8304627D01*
X61393557Y8474466D01*
X61477222Y8630991D01*
X61506552Y8666729D01*
X61589814Y8768186D01*
X61691271Y8851448D01*
X61727009Y8880778D01*
X61883534Y8964443D01*
X62053373Y9015963D01*
X62119557Y9022481D01*
X62185740Y9029000D01*
X62274260Y9029000D01*
X62340443Y9022481D01*
X62340443Y9022481D01*
G37*
G36*
X62340442Y11562482D02*
G01*
X62406627Y11555963D01*
X62576466Y11504443D01*
X62732991Y11420778D01*
X62768729Y11391448D01*
X62870186Y11308186D01*
X62953448Y11206729D01*
X62982778Y11170991D01*
X63066443Y11014466D01*
X63117963Y10844627D01*
X63135359Y10668000D01*
X63117963Y10491373D01*
X63066443Y10321534D01*
X62982778Y10165009D01*
X62953448Y10129271D01*
X62870186Y10027814D01*
X62768729Y9944552D01*
X62732991Y9915222D01*
X62576466Y9831557D01*
X62406627Y9780037D01*
X62340443Y9773519D01*
X62274260Y9767000D01*
X62185740Y9767000D01*
X62119557Y9773519D01*
X62053373Y9780037D01*
X61883534Y9831557D01*
X61727009Y9915222D01*
X61691271Y9944552D01*
X61589814Y10027814D01*
X61506552Y10129271D01*
X61477222Y10165009D01*
X61393557Y10321534D01*
X61342037Y10491373D01*
X61324641Y10668000D01*
X61342037Y10844627D01*
X61393557Y11014466D01*
X61477222Y11170991D01*
X61506552Y11206729D01*
X61589814Y11308186D01*
X61691271Y11391448D01*
X61727009Y11420778D01*
X61883534Y11504443D01*
X62053373Y11555963D01*
X62119558Y11562482D01*
X62185740Y11569000D01*
X62274260Y11569000D01*
X62340442Y11562482D01*
X62340442Y11562482D01*
G37*
G36*
X63131000Y12307000D02*
G01*
X61329000Y12307000D01*
X61329000Y14109000D01*
X63131000Y14109000D01*
X63131000Y12307000D01*
X63131000Y12307000D01*
G37*
G36*
X54339443Y17785481D02*
G01*
X54405627Y17778963D01*
X54575466Y17727443D01*
X54731991Y17643778D01*
X54767729Y17614448D01*
X54869186Y17531186D01*
X54952448Y17429729D01*
X54981778Y17393991D01*
X55065443Y17237466D01*
X55116963Y17067627D01*
X55134359Y16891000D01*
X55116963Y16714373D01*
X55065443Y16544534D01*
X54981778Y16388009D01*
X54952448Y16352271D01*
X54869186Y16250814D01*
X54767729Y16167552D01*
X54731991Y16138222D01*
X54575466Y16054557D01*
X54405627Y16003037D01*
X54339442Y15996518D01*
X54273260Y15990000D01*
X54184740Y15990000D01*
X54118558Y15996518D01*
X54052373Y16003037D01*
X53882534Y16054557D01*
X53726009Y16138222D01*
X53690271Y16167552D01*
X53588814Y16250814D01*
X53505552Y16352271D01*
X53476222Y16388009D01*
X53392557Y16544534D01*
X53341037Y16714373D01*
X53323641Y16891000D01*
X53341037Y17067627D01*
X53392557Y17237466D01*
X53476222Y17393991D01*
X53505552Y17429729D01*
X53588814Y17531186D01*
X53690271Y17614448D01*
X53726009Y17643778D01*
X53882534Y17727443D01*
X54052373Y17778963D01*
X54118557Y17785481D01*
X54184740Y17792000D01*
X54273260Y17792000D01*
X54339443Y17785481D01*
X54339443Y17785481D01*
G37*
G36*
X52590000Y15990000D02*
G01*
X50788000Y15990000D01*
X50788000Y17792000D01*
X52590000Y17792000D01*
X52590000Y15990000D01*
X52590000Y15990000D01*
G37*
G36*
X56879443Y17785481D02*
G01*
X56945627Y17778963D01*
X57115466Y17727443D01*
X57271991Y17643778D01*
X57307729Y17614448D01*
X57409186Y17531186D01*
X57492448Y17429729D01*
X57521778Y17393991D01*
X57605443Y17237466D01*
X57656963Y17067627D01*
X57674359Y16891000D01*
X57656963Y16714373D01*
X57605443Y16544534D01*
X57521778Y16388009D01*
X57492448Y16352271D01*
X57409186Y16250814D01*
X57307729Y16167552D01*
X57271991Y16138222D01*
X57115466Y16054557D01*
X56945627Y16003037D01*
X56879442Y15996518D01*
X56813260Y15990000D01*
X56724740Y15990000D01*
X56658558Y15996518D01*
X56592373Y16003037D01*
X56422534Y16054557D01*
X56266009Y16138222D01*
X56230271Y16167552D01*
X56128814Y16250814D01*
X56045552Y16352271D01*
X56016222Y16388009D01*
X55932557Y16544534D01*
X55881037Y16714373D01*
X55863641Y16891000D01*
X55881037Y17067627D01*
X55932557Y17237466D01*
X56016222Y17393991D01*
X56045552Y17429729D01*
X56128814Y17531186D01*
X56230271Y17614448D01*
X56266009Y17643778D01*
X56422534Y17727443D01*
X56592373Y17778963D01*
X56658557Y17785481D01*
X56724740Y17792000D01*
X56813260Y17792000D01*
X56879443Y17785481D01*
X56879443Y17785481D01*
G37*
G36*
X19920000Y17164000D02*
G01*
X17418000Y17164000D01*
X17418000Y19666000D01*
X19920000Y19666000D01*
X19920000Y17164000D01*
X19920000Y17164000D01*
G37*
G36*
X52590000Y20435000D02*
G01*
X50788000Y20435000D01*
X50788000Y22237000D01*
X52590000Y22237000D01*
X52590000Y20435000D01*
X52590000Y20435000D01*
G37*
G36*
X54339442Y22230482D02*
G01*
X54405627Y22223963D01*
X54575466Y22172443D01*
X54731991Y22088778D01*
X54767729Y22059448D01*
X54869186Y21976186D01*
X54952448Y21874729D01*
X54981778Y21838991D01*
X55065443Y21682466D01*
X55116963Y21512627D01*
X55134359Y21336000D01*
X55116963Y21159373D01*
X55065443Y20989534D01*
X54981778Y20833009D01*
X54952448Y20797271D01*
X54869186Y20695814D01*
X54767729Y20612552D01*
X54731991Y20583222D01*
X54575466Y20499557D01*
X54405627Y20448037D01*
X54339442Y20441518D01*
X54273260Y20435000D01*
X54184740Y20435000D01*
X54118558Y20441518D01*
X54052373Y20448037D01*
X53882534Y20499557D01*
X53726009Y20583222D01*
X53690271Y20612552D01*
X53588814Y20695814D01*
X53505552Y20797271D01*
X53476222Y20833009D01*
X53392557Y20989534D01*
X53341037Y21159373D01*
X53323641Y21336000D01*
X53341037Y21512627D01*
X53392557Y21682466D01*
X53476222Y21838991D01*
X53505552Y21874729D01*
X53588814Y21976186D01*
X53690271Y22059448D01*
X53726009Y22088778D01*
X53882534Y22172443D01*
X54052373Y22223963D01*
X54118558Y22230482D01*
X54184740Y22237000D01*
X54273260Y22237000D01*
X54339442Y22230482D01*
X54339442Y22230482D01*
G37*
G36*
X56879442Y22230482D02*
G01*
X56945627Y22223963D01*
X57115466Y22172443D01*
X57271991Y22088778D01*
X57307729Y22059448D01*
X57409186Y21976186D01*
X57492448Y21874729D01*
X57521778Y21838991D01*
X57605443Y21682466D01*
X57656963Y21512627D01*
X57674359Y21336000D01*
X57656963Y21159373D01*
X57605443Y20989534D01*
X57521778Y20833009D01*
X57492448Y20797271D01*
X57409186Y20695814D01*
X57307729Y20612552D01*
X57271991Y20583222D01*
X57115466Y20499557D01*
X56945627Y20448037D01*
X56879442Y20441518D01*
X56813260Y20435000D01*
X56724740Y20435000D01*
X56658558Y20441518D01*
X56592373Y20448037D01*
X56422534Y20499557D01*
X56266009Y20583222D01*
X56230271Y20612552D01*
X56128814Y20695814D01*
X56045552Y20797271D01*
X56016222Y20833009D01*
X55932557Y20989534D01*
X55881037Y21159373D01*
X55863641Y21336000D01*
X55881037Y21512627D01*
X55932557Y21682466D01*
X56016222Y21838991D01*
X56045552Y21874729D01*
X56128814Y21976186D01*
X56230271Y22059448D01*
X56266009Y22088778D01*
X56422534Y22172443D01*
X56592373Y22223963D01*
X56658558Y22230482D01*
X56724740Y22237000D01*
X56813260Y22237000D01*
X56879442Y22230482D01*
X56879442Y22230482D01*
G37*
G36*
X5939585Y31845198D02*
G01*
X6089410Y31815396D01*
X6371674Y31698479D01*
X6625705Y31528741D01*
X6841741Y31312705D01*
X7011479Y31058674D01*
X7128396Y30776410D01*
X7188000Y30476760D01*
X7188000Y30171240D01*
X7128396Y29871590D01*
X7011479Y29589326D01*
X6841741Y29335295D01*
X6625705Y29119259D01*
X6371674Y28949521D01*
X6089410Y28832604D01*
X5939585Y28802802D01*
X5789761Y28773000D01*
X5484239Y28773000D01*
X5334415Y28802802D01*
X5184590Y28832604D01*
X4902326Y28949521D01*
X4648295Y29119259D01*
X4432259Y29335295D01*
X4262521Y29589326D01*
X4145604Y29871590D01*
X4086000Y30171240D01*
X4086000Y30476760D01*
X4145604Y30776410D01*
X4262521Y31058674D01*
X4432259Y31312705D01*
X4648295Y31528741D01*
X4902326Y31698479D01*
X5184590Y31815396D01*
X5334415Y31845198D01*
X5484239Y31875000D01*
X5789761Y31875000D01*
X5939585Y31845198D01*
X5939585Y31845198D01*
G37*
G36*
X27939585Y31845198D02*
G01*
X28089410Y31815396D01*
X28371674Y31698479D01*
X28625705Y31528741D01*
X28841741Y31312705D01*
X29011479Y31058674D01*
X29128396Y30776410D01*
X29188000Y30476760D01*
X29188000Y30171240D01*
X29128396Y29871590D01*
X29011479Y29589326D01*
X28841741Y29335295D01*
X28625705Y29119259D01*
X28371674Y28949521D01*
X28089410Y28832604D01*
X27939585Y28802802D01*
X27789761Y28773000D01*
X27484239Y28773000D01*
X27334415Y28802802D01*
X27184590Y28832604D01*
X26902326Y28949521D01*
X26648295Y29119259D01*
X26432259Y29335295D01*
X26262521Y29589326D01*
X26145604Y29871590D01*
X26086000Y30171240D01*
X26086000Y30476760D01*
X26145604Y30776410D01*
X26262521Y31058674D01*
X26432259Y31312705D01*
X26648295Y31528741D01*
X26902326Y31698479D01*
X27184590Y31815396D01*
X27334415Y31845198D01*
X27484239Y31875000D01*
X27789761Y31875000D01*
X27939585Y31845198D01*
X27939585Y31845198D01*
G37*
G36*
X62467443Y31628481D02*
G01*
X62533627Y31621963D01*
X62703466Y31570443D01*
X62859991Y31486778D01*
X62895729Y31457448D01*
X62997186Y31374186D01*
X63047641Y31312705D01*
X63109778Y31236991D01*
X63193443Y31080466D01*
X63244963Y30910627D01*
X63262359Y30734000D01*
X63244963Y30557373D01*
X63193443Y30387534D01*
X63109778Y30231009D01*
X63080448Y30195271D01*
X62997186Y30093814D01*
X62895729Y30010552D01*
X62859991Y29981222D01*
X62703466Y29897557D01*
X62533627Y29846037D01*
X62467442Y29839518D01*
X62401260Y29833000D01*
X62312740Y29833000D01*
X62246558Y29839518D01*
X62180373Y29846037D01*
X62010534Y29897557D01*
X61854009Y29981222D01*
X61818271Y30010552D01*
X61716814Y30093814D01*
X61633552Y30195271D01*
X61604222Y30231009D01*
X61520557Y30387534D01*
X61469037Y30557373D01*
X61451641Y30734000D01*
X61469037Y30910627D01*
X61520557Y31080466D01*
X61604222Y31236991D01*
X61666359Y31312705D01*
X61716814Y31374186D01*
X61818271Y31457448D01*
X61854009Y31486778D01*
X62010534Y31570443D01*
X62180373Y31621963D01*
X62246557Y31628481D01*
X62312740Y31635000D01*
X62401260Y31635000D01*
X62467443Y31628481D01*
X62467443Y31628481D01*
G37*
G36*
X50529443Y34168481D02*
G01*
X50595627Y34161963D01*
X50765466Y34110443D01*
X50921991Y34026778D01*
X50957729Y33997448D01*
X51059186Y33914186D01*
X51142448Y33812729D01*
X51171778Y33776991D01*
X51255443Y33620466D01*
X51306963Y33450627D01*
X51324359Y33274000D01*
X51306963Y33097373D01*
X51255443Y32927534D01*
X51171778Y32771009D01*
X51142448Y32735271D01*
X51059186Y32633814D01*
X50957729Y32550552D01*
X50921991Y32521222D01*
X50765466Y32437557D01*
X50595627Y32386037D01*
X50529442Y32379518D01*
X50463260Y32373000D01*
X50374740Y32373000D01*
X50308558Y32379518D01*
X50242373Y32386037D01*
X50072534Y32437557D01*
X49916009Y32521222D01*
X49880271Y32550552D01*
X49778814Y32633814D01*
X49695552Y32735271D01*
X49666222Y32771009D01*
X49582557Y32927534D01*
X49531037Y33097373D01*
X49513641Y33274000D01*
X49531037Y33450627D01*
X49582557Y33620466D01*
X49666222Y33776991D01*
X49695552Y33812729D01*
X49778814Y33914186D01*
X49880271Y33997448D01*
X49916009Y34026778D01*
X50072534Y34110443D01*
X50242373Y34161963D01*
X50308558Y34168482D01*
X50374740Y34175000D01*
X50463260Y34175000D01*
X50529443Y34168481D01*
X50529443Y34168481D01*
G37*
G36*
X62467443Y34168481D02*
G01*
X62533627Y34161963D01*
X62703466Y34110443D01*
X62859991Y34026778D01*
X62895729Y33997448D01*
X62997186Y33914186D01*
X63080448Y33812729D01*
X63109778Y33776991D01*
X63193443Y33620466D01*
X63244963Y33450627D01*
X63262359Y33274000D01*
X63244963Y33097373D01*
X63193443Y32927534D01*
X63109778Y32771009D01*
X63080448Y32735271D01*
X62997186Y32633814D01*
X62895729Y32550552D01*
X62859991Y32521222D01*
X62703466Y32437557D01*
X62533627Y32386037D01*
X62467442Y32379518D01*
X62401260Y32373000D01*
X62312740Y32373000D01*
X62246558Y32379518D01*
X62180373Y32386037D01*
X62010534Y32437557D01*
X61854009Y32521222D01*
X61818271Y32550552D01*
X61716814Y32633814D01*
X61633552Y32735271D01*
X61604222Y32771009D01*
X61520557Y32927534D01*
X61469037Y33097373D01*
X61451641Y33274000D01*
X61469037Y33450627D01*
X61520557Y33620466D01*
X61604222Y33776991D01*
X61633552Y33812729D01*
X61716814Y33914186D01*
X61818271Y33997448D01*
X61854009Y34026778D01*
X62010534Y34110443D01*
X62180373Y34161963D01*
X62246558Y34168482D01*
X62312740Y34175000D01*
X62401260Y34175000D01*
X62467443Y34168481D01*
X62467443Y34168481D01*
G37*
G36*
X47989443Y34168481D02*
G01*
X48055627Y34161963D01*
X48225466Y34110443D01*
X48381991Y34026778D01*
X48417729Y33997448D01*
X48519186Y33914186D01*
X48602448Y33812729D01*
X48631778Y33776991D01*
X48715443Y33620466D01*
X48766963Y33450627D01*
X48784359Y33274000D01*
X48766963Y33097373D01*
X48715443Y32927534D01*
X48631778Y32771009D01*
X48602448Y32735271D01*
X48519186Y32633814D01*
X48417729Y32550552D01*
X48381991Y32521222D01*
X48225466Y32437557D01*
X48055627Y32386037D01*
X47989442Y32379518D01*
X47923260Y32373000D01*
X47834740Y32373000D01*
X47768558Y32379518D01*
X47702373Y32386037D01*
X47532534Y32437557D01*
X47376009Y32521222D01*
X47340271Y32550552D01*
X47238814Y32633814D01*
X47155552Y32735271D01*
X47126222Y32771009D01*
X47042557Y32927534D01*
X46991037Y33097373D01*
X46973641Y33274000D01*
X46991037Y33450627D01*
X47042557Y33620466D01*
X47126222Y33776991D01*
X47155552Y33812729D01*
X47238814Y33914186D01*
X47340271Y33997448D01*
X47376009Y34026778D01*
X47532534Y34110443D01*
X47702373Y34161963D01*
X47768558Y34168482D01*
X47834740Y34175000D01*
X47923260Y34175000D01*
X47989443Y34168481D01*
X47989443Y34168481D01*
G37*
G36*
X27939585Y35845198D02*
G01*
X28089410Y35815396D01*
X28371674Y35698479D01*
X28625705Y35528741D01*
X28841741Y35312705D01*
X29011479Y35058674D01*
X29128396Y34776410D01*
X29188000Y34476760D01*
X29188000Y34171240D01*
X29128396Y33871590D01*
X29011479Y33589326D01*
X28841741Y33335295D01*
X28625705Y33119259D01*
X28371674Y32949521D01*
X28089410Y32832604D01*
X27939585Y32802802D01*
X27789761Y32773000D01*
X27484239Y32773000D01*
X27334415Y32802802D01*
X27184590Y32832604D01*
X26902326Y32949521D01*
X26648295Y33119259D01*
X26432259Y33335295D01*
X26262521Y33589326D01*
X26145604Y33871590D01*
X26086000Y34171240D01*
X26086000Y34476760D01*
X26145604Y34776410D01*
X26262521Y35058674D01*
X26432259Y35312705D01*
X26648295Y35528741D01*
X26902326Y35698479D01*
X27184590Y35815396D01*
X27334415Y35845198D01*
X27484239Y35875000D01*
X27789761Y35875000D01*
X27939585Y35845198D01*
X27939585Y35845198D01*
G37*
G36*
X5939585Y35845198D02*
G01*
X6089410Y35815396D01*
X6371674Y35698479D01*
X6625705Y35528741D01*
X6841741Y35312705D01*
X7011479Y35058674D01*
X7128396Y34776410D01*
X7188000Y34476760D01*
X7188000Y34171240D01*
X7128396Y33871590D01*
X7011479Y33589326D01*
X6841741Y33335295D01*
X6625705Y33119259D01*
X6371674Y32949521D01*
X6089410Y32832604D01*
X5939585Y32802802D01*
X5789761Y32773000D01*
X5484239Y32773000D01*
X5334415Y32802802D01*
X5184590Y32832604D01*
X4902326Y32949521D01*
X4648295Y33119259D01*
X4432259Y33335295D01*
X4262521Y33589326D01*
X4145604Y33871590D01*
X4086000Y34171240D01*
X4086000Y34476760D01*
X4145604Y34776410D01*
X4262521Y35058674D01*
X4432259Y35312705D01*
X4648295Y35528741D01*
X4902326Y35698479D01*
X5184590Y35815396D01*
X5334415Y35845198D01*
X5484239Y35875000D01*
X5789761Y35875000D01*
X5939585Y35845198D01*
X5939585Y35845198D01*
G37*
G36*
X62467442Y36708482D02*
G01*
X62533627Y36701963D01*
X62703466Y36650443D01*
X62859991Y36566778D01*
X62895729Y36537448D01*
X62997186Y36454186D01*
X63080448Y36352729D01*
X63109778Y36316991D01*
X63193443Y36160466D01*
X63244963Y35990627D01*
X63262359Y35814000D01*
X63244963Y35637373D01*
X63193443Y35467534D01*
X63109778Y35311009D01*
X63080448Y35275271D01*
X62997186Y35173814D01*
X62895729Y35090552D01*
X62859991Y35061222D01*
X62703466Y34977557D01*
X62533627Y34926037D01*
X62467442Y34919518D01*
X62401260Y34913000D01*
X62312740Y34913000D01*
X62246558Y34919518D01*
X62180373Y34926037D01*
X62010534Y34977557D01*
X61854009Y35061222D01*
X61818271Y35090552D01*
X61716814Y35173814D01*
X61633552Y35275271D01*
X61604222Y35311009D01*
X61520557Y35467534D01*
X61469037Y35637373D01*
X61451641Y35814000D01*
X61469037Y35990627D01*
X61520557Y36160466D01*
X61604222Y36316991D01*
X61633552Y36352729D01*
X61716814Y36454186D01*
X61818271Y36537448D01*
X61854009Y36566778D01*
X62010534Y36650443D01*
X62180373Y36701963D01*
X62246558Y36708482D01*
X62312740Y36715000D01*
X62401260Y36715000D01*
X62467442Y36708482D01*
X62467442Y36708482D01*
G37*
G36*
X47989442Y36708482D02*
G01*
X48055627Y36701963D01*
X48225466Y36650443D01*
X48381991Y36566778D01*
X48417729Y36537448D01*
X48519186Y36454186D01*
X48602448Y36352729D01*
X48631778Y36316991D01*
X48715443Y36160466D01*
X48766963Y35990627D01*
X48784359Y35814000D01*
X48766963Y35637373D01*
X48715443Y35467534D01*
X48631778Y35311009D01*
X48602448Y35275271D01*
X48519186Y35173814D01*
X48417729Y35090552D01*
X48381991Y35061222D01*
X48225466Y34977557D01*
X48055627Y34926037D01*
X47989442Y34919518D01*
X47923260Y34913000D01*
X47834740Y34913000D01*
X47768558Y34919518D01*
X47702373Y34926037D01*
X47532534Y34977557D01*
X47376009Y35061222D01*
X47340271Y35090552D01*
X47238814Y35173814D01*
X47155552Y35275271D01*
X47126222Y35311009D01*
X47042557Y35467534D01*
X46991037Y35637373D01*
X46973641Y35814000D01*
X46991037Y35990627D01*
X47042557Y36160466D01*
X47126222Y36316991D01*
X47155552Y36352729D01*
X47238814Y36454186D01*
X47340271Y36537448D01*
X47376009Y36566778D01*
X47532534Y36650443D01*
X47702373Y36701963D01*
X47768558Y36708482D01*
X47834740Y36715000D01*
X47923260Y36715000D01*
X47989442Y36708482D01*
X47989442Y36708482D01*
G37*
G36*
X50529442Y36708482D02*
G01*
X50595627Y36701963D01*
X50765466Y36650443D01*
X50921991Y36566778D01*
X50957729Y36537448D01*
X51059186Y36454186D01*
X51142448Y36352729D01*
X51171778Y36316991D01*
X51255443Y36160466D01*
X51306963Y35990627D01*
X51324359Y35814000D01*
X51306963Y35637373D01*
X51255443Y35467534D01*
X51171778Y35311009D01*
X51142448Y35275271D01*
X51059186Y35173814D01*
X50957729Y35090552D01*
X50921991Y35061222D01*
X50765466Y34977557D01*
X50595627Y34926037D01*
X50529442Y34919518D01*
X50463260Y34913000D01*
X50374740Y34913000D01*
X50308558Y34919518D01*
X50242373Y34926037D01*
X50072534Y34977557D01*
X49916009Y35061222D01*
X49880271Y35090552D01*
X49778814Y35173814D01*
X49695552Y35275271D01*
X49666222Y35311009D01*
X49582557Y35467534D01*
X49531037Y35637373D01*
X49513641Y35814000D01*
X49531037Y35990627D01*
X49582557Y36160466D01*
X49666222Y36316991D01*
X49695552Y36352729D01*
X49778814Y36454186D01*
X49880271Y36537448D01*
X49916009Y36566778D01*
X50072534Y36650443D01*
X50242373Y36701963D01*
X50308558Y36708482D01*
X50374740Y36715000D01*
X50463260Y36715000D01*
X50529442Y36708482D01*
X50529442Y36708482D01*
G37*
G36*
X27939585Y39845198D02*
G01*
X28089410Y39815396D01*
X28371674Y39698479D01*
X28625705Y39528741D01*
X28841741Y39312705D01*
X29011479Y39058674D01*
X29128396Y38776410D01*
X29188000Y38476760D01*
X29188000Y38171240D01*
X29128396Y37871590D01*
X29011479Y37589326D01*
X28841741Y37335295D01*
X28625705Y37119259D01*
X28371674Y36949521D01*
X28089410Y36832604D01*
X27939585Y36802802D01*
X27789761Y36773000D01*
X27484239Y36773000D01*
X27334415Y36802802D01*
X27184590Y36832604D01*
X26902326Y36949521D01*
X26648295Y37119259D01*
X26432259Y37335295D01*
X26262521Y37589326D01*
X26145604Y37871590D01*
X26086000Y38171240D01*
X26086000Y38476760D01*
X26145604Y38776410D01*
X26262521Y39058674D01*
X26432259Y39312705D01*
X26648295Y39528741D01*
X26902326Y39698479D01*
X27184590Y39815396D01*
X27334415Y39845198D01*
X27484239Y39875000D01*
X27789761Y39875000D01*
X27939585Y39845198D01*
X27939585Y39845198D01*
G37*
G36*
X5939585Y39845198D02*
G01*
X6089410Y39815396D01*
X6371674Y39698479D01*
X6625705Y39528741D01*
X6841741Y39312705D01*
X7011479Y39058674D01*
X7128396Y38776410D01*
X7188000Y38476760D01*
X7188000Y38171240D01*
X7128396Y37871590D01*
X7011479Y37589326D01*
X6841741Y37335295D01*
X6625705Y37119259D01*
X6371674Y36949521D01*
X6089410Y36832604D01*
X5939585Y36802802D01*
X5789761Y36773000D01*
X5484239Y36773000D01*
X5334415Y36802802D01*
X5184590Y36832604D01*
X4902326Y36949521D01*
X4648295Y37119259D01*
X4432259Y37335295D01*
X4262521Y37589326D01*
X4145604Y37871590D01*
X4086000Y38171240D01*
X4086000Y38476760D01*
X4145604Y38776410D01*
X4262521Y39058674D01*
X4432259Y39312705D01*
X4648295Y39528741D01*
X4902326Y39698479D01*
X5184590Y39815396D01*
X5334415Y39845198D01*
X5484239Y39875000D01*
X5789761Y39875000D01*
X5939585Y39845198D01*
X5939585Y39845198D01*
G37*
G36*
X47989442Y39248482D02*
G01*
X48055627Y39241963D01*
X48225466Y39190443D01*
X48381991Y39106778D01*
X48417729Y39077448D01*
X48519186Y38994186D01*
X48602448Y38892729D01*
X48631778Y38856991D01*
X48715443Y38700466D01*
X48766963Y38530627D01*
X48784359Y38354000D01*
X48766963Y38177373D01*
X48715443Y38007534D01*
X48631778Y37851009D01*
X48602448Y37815271D01*
X48519186Y37713814D01*
X48417729Y37630552D01*
X48381991Y37601222D01*
X48225466Y37517557D01*
X48055627Y37466037D01*
X47989443Y37459519D01*
X47923260Y37453000D01*
X47834740Y37453000D01*
X47768558Y37459518D01*
X47702373Y37466037D01*
X47532534Y37517557D01*
X47376009Y37601222D01*
X47340271Y37630552D01*
X47238814Y37713814D01*
X47155552Y37815271D01*
X47126222Y37851009D01*
X47042557Y38007534D01*
X46991037Y38177373D01*
X46973641Y38354000D01*
X46991037Y38530627D01*
X47042557Y38700466D01*
X47126222Y38856991D01*
X47155552Y38892729D01*
X47238814Y38994186D01*
X47340271Y39077448D01*
X47376009Y39106778D01*
X47532534Y39190443D01*
X47702373Y39241963D01*
X47768557Y39248481D01*
X47834740Y39255000D01*
X47923260Y39255000D01*
X47989442Y39248482D01*
X47989442Y39248482D01*
G37*
G36*
X62467442Y39248482D02*
G01*
X62533627Y39241963D01*
X62703466Y39190443D01*
X62859991Y39106778D01*
X62895729Y39077448D01*
X62997186Y38994186D01*
X63080448Y38892729D01*
X63109778Y38856991D01*
X63193443Y38700466D01*
X63244963Y38530627D01*
X63262359Y38354000D01*
X63244963Y38177373D01*
X63193443Y38007534D01*
X63109778Y37851009D01*
X63080448Y37815271D01*
X62997186Y37713814D01*
X62895729Y37630552D01*
X62859991Y37601222D01*
X62703466Y37517557D01*
X62533627Y37466037D01*
X62467443Y37459519D01*
X62401260Y37453000D01*
X62312740Y37453000D01*
X62246558Y37459518D01*
X62180373Y37466037D01*
X62010534Y37517557D01*
X61854009Y37601222D01*
X61818271Y37630552D01*
X61716814Y37713814D01*
X61633552Y37815271D01*
X61604222Y37851009D01*
X61520557Y38007534D01*
X61469037Y38177373D01*
X61451641Y38354000D01*
X61469037Y38530627D01*
X61520557Y38700466D01*
X61604222Y38856991D01*
X61633552Y38892729D01*
X61716814Y38994186D01*
X61818271Y39077448D01*
X61854009Y39106778D01*
X62010534Y39190443D01*
X62180373Y39241963D01*
X62246557Y39248481D01*
X62312740Y39255000D01*
X62401260Y39255000D01*
X62467442Y39248482D01*
X62467442Y39248482D01*
G37*
G36*
X50529442Y39248482D02*
G01*
X50595627Y39241963D01*
X50765466Y39190443D01*
X50921991Y39106778D01*
X50957729Y39077448D01*
X51059186Y38994186D01*
X51142448Y38892729D01*
X51171778Y38856991D01*
X51255443Y38700466D01*
X51306963Y38530627D01*
X51324359Y38354000D01*
X51306963Y38177373D01*
X51255443Y38007534D01*
X51171778Y37851009D01*
X51142448Y37815271D01*
X51059186Y37713814D01*
X50957729Y37630552D01*
X50921991Y37601222D01*
X50765466Y37517557D01*
X50595627Y37466037D01*
X50529443Y37459519D01*
X50463260Y37453000D01*
X50374740Y37453000D01*
X50308558Y37459518D01*
X50242373Y37466037D01*
X50072534Y37517557D01*
X49916009Y37601222D01*
X49880271Y37630552D01*
X49778814Y37713814D01*
X49695552Y37815271D01*
X49666222Y37851009D01*
X49582557Y38007534D01*
X49531037Y38177373D01*
X49513641Y38354000D01*
X49531037Y38530627D01*
X49582557Y38700466D01*
X49666222Y38856991D01*
X49695552Y38892729D01*
X49778814Y38994186D01*
X49880271Y39077448D01*
X49916009Y39106778D01*
X50072534Y39190443D01*
X50242373Y39241963D01*
X50308557Y39248481D01*
X50374740Y39255000D01*
X50463260Y39255000D01*
X50529442Y39248482D01*
X50529442Y39248482D01*
G37*
G36*
X17163806Y45065438D02*
G01*
X17682655Y44850524D01*
X18149607Y44538516D01*
X18546716Y44141407D01*
X18858724Y43674455D01*
X19073638Y43155606D01*
X19183200Y42604799D01*
X19183200Y42043201D01*
X19073638Y41492394D01*
X18858724Y40973545D01*
X18546716Y40506593D01*
X18149607Y40109484D01*
X17682655Y39797476D01*
X17163806Y39582562D01*
X16893229Y39528741D01*
X16613000Y39473000D01*
X16051400Y39473000D01*
X15771171Y39528741D01*
X15500594Y39582562D01*
X14981745Y39797476D01*
X14514793Y40109484D01*
X14117684Y40506593D01*
X13805676Y40973545D01*
X13590762Y41492394D01*
X13481200Y42043201D01*
X13481200Y42604799D01*
X13590762Y43155606D01*
X13805676Y43674455D01*
X14117684Y44141407D01*
X14514793Y44538516D01*
X14981745Y44850524D01*
X15500594Y45065438D01*
X15775998Y45120219D01*
X16051400Y45175000D01*
X16613000Y45175000D01*
X17163806Y45065438D01*
X17163806Y45065438D01*
G37*
G36*
X62467442Y41788482D02*
G01*
X62533627Y41781963D01*
X62703466Y41730443D01*
X62859991Y41646778D01*
X62895729Y41617448D01*
X62997186Y41534186D01*
X63080448Y41432729D01*
X63109778Y41396991D01*
X63193443Y41240466D01*
X63244963Y41070627D01*
X63262359Y40894000D01*
X63244963Y40717373D01*
X63193443Y40547534D01*
X63109778Y40391009D01*
X63080448Y40355271D01*
X62997186Y40253814D01*
X62895729Y40170552D01*
X62859991Y40141222D01*
X62703466Y40057557D01*
X62533627Y40006037D01*
X62467442Y39999518D01*
X62401260Y39993000D01*
X62312740Y39993000D01*
X62246557Y39999519D01*
X62180373Y40006037D01*
X62010534Y40057557D01*
X61854009Y40141222D01*
X61818271Y40170552D01*
X61716814Y40253814D01*
X61633552Y40355271D01*
X61604222Y40391009D01*
X61520557Y40547534D01*
X61469037Y40717373D01*
X61451641Y40894000D01*
X61469037Y41070627D01*
X61520557Y41240466D01*
X61604222Y41396991D01*
X61633552Y41432729D01*
X61716814Y41534186D01*
X61818271Y41617448D01*
X61854009Y41646778D01*
X62010534Y41730443D01*
X62180373Y41781963D01*
X62246558Y41788482D01*
X62312740Y41795000D01*
X62401260Y41795000D01*
X62467442Y41788482D01*
X62467442Y41788482D01*
G37*
G36*
X48780000Y39993000D02*
G01*
X46978000Y39993000D01*
X46978000Y41795000D01*
X48780000Y41795000D01*
X48780000Y39993000D01*
X48780000Y39993000D01*
G37*
G36*
X50529442Y41788482D02*
G01*
X50595627Y41781963D01*
X50765466Y41730443D01*
X50921991Y41646778D01*
X50957729Y41617448D01*
X51059186Y41534186D01*
X51142448Y41432729D01*
X51171778Y41396991D01*
X51255443Y41240466D01*
X51306963Y41070627D01*
X51324359Y40894000D01*
X51306963Y40717373D01*
X51255443Y40547534D01*
X51171778Y40391009D01*
X51142448Y40355271D01*
X51059186Y40253814D01*
X50957729Y40170552D01*
X50921991Y40141222D01*
X50765466Y40057557D01*
X50595627Y40006037D01*
X50529442Y39999518D01*
X50463260Y39993000D01*
X50374740Y39993000D01*
X50308557Y39999519D01*
X50242373Y40006037D01*
X50072534Y40057557D01*
X49916009Y40141222D01*
X49880271Y40170552D01*
X49778814Y40253814D01*
X49695552Y40355271D01*
X49666222Y40391009D01*
X49582557Y40547534D01*
X49531037Y40717373D01*
X49513641Y40894000D01*
X49531037Y41070627D01*
X49582557Y41240466D01*
X49666222Y41396991D01*
X49695552Y41432729D01*
X49778814Y41534186D01*
X49880271Y41617448D01*
X49916009Y41646778D01*
X50072534Y41730443D01*
X50242373Y41781963D01*
X50308558Y41788482D01*
X50374740Y41795000D01*
X50463260Y41795000D01*
X50529442Y41788482D01*
X50529442Y41788482D01*
G37*
G36*
X5939585Y43845198D02*
G01*
X6089410Y43815396D01*
X6371674Y43698479D01*
X6625705Y43528741D01*
X6841741Y43312705D01*
X7011479Y43058674D01*
X7128396Y42776410D01*
X7128396Y42776409D01*
X7188000Y42476761D01*
X7188000Y42171239D01*
X7162531Y42043200D01*
X7128396Y41871590D01*
X7011479Y41589326D01*
X6841741Y41335295D01*
X6625705Y41119259D01*
X6371674Y40949521D01*
X6089410Y40832604D01*
X5939585Y40802802D01*
X5789761Y40773000D01*
X5484239Y40773000D01*
X5334415Y40802802D01*
X5184590Y40832604D01*
X4902326Y40949521D01*
X4648295Y41119259D01*
X4432259Y41335295D01*
X4262521Y41589326D01*
X4145604Y41871590D01*
X4111469Y42043200D01*
X4086000Y42171239D01*
X4086000Y42476761D01*
X4145604Y42776409D01*
X4145604Y42776410D01*
X4262521Y43058674D01*
X4432259Y43312705D01*
X4648295Y43528741D01*
X4902326Y43698479D01*
X5184590Y43815396D01*
X5334415Y43845198D01*
X5484239Y43875000D01*
X5789761Y43875000D01*
X5939585Y43845198D01*
X5939585Y43845198D01*
G37*
G36*
X27939585Y43845198D02*
G01*
X28089410Y43815396D01*
X28371674Y43698479D01*
X28625705Y43528741D01*
X28841741Y43312705D01*
X29011479Y43058674D01*
X29128396Y42776410D01*
X29128396Y42776409D01*
X29188000Y42476761D01*
X29188000Y42171239D01*
X29162531Y42043200D01*
X29128396Y41871590D01*
X29011479Y41589326D01*
X28841741Y41335295D01*
X28625705Y41119259D01*
X28371674Y40949521D01*
X28089410Y40832604D01*
X27939585Y40802802D01*
X27789761Y40773000D01*
X27484239Y40773000D01*
X27334415Y40802802D01*
X27184590Y40832604D01*
X26902326Y40949521D01*
X26648295Y41119259D01*
X26432259Y41335295D01*
X26262521Y41589326D01*
X26145604Y41871590D01*
X26111469Y42043200D01*
X26086000Y42171239D01*
X26086000Y42476761D01*
X26145604Y42776409D01*
X26145604Y42776410D01*
X26262521Y43058674D01*
X26432259Y43312705D01*
X26648295Y43528741D01*
X26902326Y43698479D01*
X27184590Y43815396D01*
X27334415Y43845198D01*
X27484239Y43875000D01*
X27789761Y43875000D01*
X27939585Y43845198D01*
X27939585Y43845198D01*
G37*
G36*
X63258000Y42533000D02*
G01*
X61456000Y42533000D01*
X61456000Y44335000D01*
X63258000Y44335000D01*
X63258000Y42533000D01*
X63258000Y42533000D01*
G37*
G36*
X27926192Y47847862D02*
G01*
X28089410Y47815396D01*
X28371674Y47698479D01*
X28625705Y47528741D01*
X28841741Y47312705D01*
X29011479Y47058674D01*
X29128396Y46776410D01*
X29188000Y46476760D01*
X29188000Y46171240D01*
X29128396Y45871590D01*
X29011479Y45589326D01*
X28841741Y45335295D01*
X28625705Y45119259D01*
X28371674Y44949521D01*
X28089410Y44832604D01*
X27939585Y44802802D01*
X27789761Y44773000D01*
X27484239Y44773000D01*
X27334415Y44802802D01*
X27184590Y44832604D01*
X26902326Y44949521D01*
X26648295Y45119259D01*
X26432259Y45335295D01*
X26262521Y45589326D01*
X26145604Y45871590D01*
X26086000Y46171240D01*
X26086000Y46476760D01*
X26145604Y46776410D01*
X26262521Y47058674D01*
X26432259Y47312705D01*
X26648295Y47528741D01*
X26902326Y47698479D01*
X27184590Y47815396D01*
X27347808Y47847862D01*
X27484239Y47875000D01*
X27789761Y47875000D01*
X27926192Y47847862D01*
X27926192Y47847862D01*
G37*
G36*
X5926192Y47847862D02*
G01*
X6089410Y47815396D01*
X6371674Y47698479D01*
X6625705Y47528741D01*
X6841741Y47312705D01*
X7011479Y47058674D01*
X7128396Y46776410D01*
X7188000Y46476760D01*
X7188000Y46171240D01*
X7128396Y45871590D01*
X7011479Y45589326D01*
X6841741Y45335295D01*
X6625705Y45119259D01*
X6371674Y44949521D01*
X6089410Y44832604D01*
X5939585Y44802802D01*
X5789761Y44773000D01*
X5484239Y44773000D01*
X5334415Y44802802D01*
X5184590Y44832604D01*
X4902326Y44949521D01*
X4648295Y45119259D01*
X4432259Y45335295D01*
X4262521Y45589326D01*
X4145604Y45871590D01*
X4086000Y46171240D01*
X4086000Y46476760D01*
X4145604Y46776410D01*
X4262521Y47058674D01*
X4432259Y47312705D01*
X4648295Y47528741D01*
X4902326Y47698479D01*
X5184590Y47815396D01*
X5347808Y47847862D01*
X5484239Y47875000D01*
X5789761Y47875000D01*
X5926192Y47847862D01*
X5926192Y47847862D01*
G37*
G36*
X61873035Y52773000D02*
G01*
X62159906Y52715938D01*
X62678755Y52501024D01*
X63145707Y52189016D01*
X63542816Y51791907D01*
X63854824Y51324955D01*
X64069738Y50806106D01*
X64179300Y50255299D01*
X64179300Y49693701D01*
X64069738Y49142894D01*
X63854824Y48624045D01*
X63542816Y48157093D01*
X63145707Y47759984D01*
X62678755Y47447976D01*
X62159906Y47233062D01*
X61609100Y47123500D01*
X61047500Y47123500D01*
X60496694Y47233062D01*
X59977845Y47447976D01*
X59510893Y47759984D01*
X59113784Y48157093D01*
X58801776Y48624045D01*
X58586862Y49142894D01*
X58477300Y49693701D01*
X58477300Y50255299D01*
X58586862Y50806106D01*
X58801776Y51324955D01*
X59113784Y51791907D01*
X59510893Y52189016D01*
X59977845Y52501024D01*
X60496694Y52715938D01*
X60783565Y52773000D01*
X61047500Y52825500D01*
X61609100Y52825500D01*
X61873035Y52773000D01*
X61873035Y52773000D01*
G37*
G36*
X17334086Y57335296D02*
G01*
X18110322Y57180893D01*
X19029546Y56800138D01*
X19856825Y56247368D01*
X20560368Y55543825D01*
X21113138Y54716546D01*
X21493893Y53797322D01*
X21535266Y53589326D01*
X21687201Y52825500D01*
X21688000Y52821480D01*
X21688000Y51826520D01*
X21493893Y50850678D01*
X21113138Y49931454D01*
X20560368Y49104175D01*
X19856825Y48400632D01*
X19029546Y47847862D01*
X18110322Y47467107D01*
X17622401Y47370053D01*
X17134481Y47273000D01*
X16139519Y47273000D01*
X15651599Y47370054D01*
X15163678Y47467107D01*
X14244454Y47847862D01*
X13417175Y48400632D01*
X12713632Y49104175D01*
X12160862Y49931454D01*
X11780107Y50850678D01*
X11586000Y51826520D01*
X11586000Y52821480D01*
X11586800Y52825500D01*
X11738734Y53589326D01*
X11780107Y53797322D01*
X12160862Y54716546D01*
X12713632Y55543825D01*
X13417175Y56247368D01*
X14244454Y56800138D01*
X15163678Y57180893D01*
X15939914Y57335296D01*
X16139519Y57375000D01*
X17134481Y57375000D01*
X17334086Y57335296D01*
X17334086Y57335296D01*
G37*
G36*
X27939585Y51845198D02*
G01*
X28089410Y51815396D01*
X28371674Y51698479D01*
X28625705Y51528741D01*
X28841741Y51312705D01*
X29011479Y51058674D01*
X29128396Y50776410D01*
X29188000Y50476760D01*
X29188000Y50171240D01*
X29128396Y49871590D01*
X29011479Y49589326D01*
X28841741Y49335295D01*
X28625705Y49119259D01*
X28371674Y48949521D01*
X28089410Y48832604D01*
X27939585Y48802802D01*
X27789761Y48773000D01*
X27484239Y48773000D01*
X27334415Y48802802D01*
X27184590Y48832604D01*
X26902326Y48949521D01*
X26648295Y49119259D01*
X26432259Y49335295D01*
X26262521Y49589326D01*
X26145604Y49871590D01*
X26086000Y50171240D01*
X26086000Y50476760D01*
X26145604Y50776410D01*
X26262521Y51058674D01*
X26432259Y51312705D01*
X26648295Y51528741D01*
X26902326Y51698479D01*
X27184590Y51815396D01*
X27334415Y51845198D01*
X27484239Y51875000D01*
X27789761Y51875000D01*
X27939585Y51845198D01*
X27939585Y51845198D01*
G37*
G36*
X5939585Y51845198D02*
G01*
X6089410Y51815396D01*
X6371674Y51698479D01*
X6625705Y51528741D01*
X6841741Y51312705D01*
X7011479Y51058674D01*
X7128396Y50776410D01*
X7188000Y50476760D01*
X7188000Y50171240D01*
X7128396Y49871590D01*
X7011479Y49589326D01*
X6841741Y49335295D01*
X6625705Y49119259D01*
X6371674Y48949521D01*
X6089410Y48832604D01*
X5939585Y48802802D01*
X5789761Y48773000D01*
X5484239Y48773000D01*
X5334415Y48802802D01*
X5184590Y48832604D01*
X4902326Y48949521D01*
X4648295Y49119259D01*
X4432259Y49335295D01*
X4262521Y49589326D01*
X4145604Y49871590D01*
X4086000Y50171240D01*
X4086000Y50476760D01*
X4145604Y50776410D01*
X4262521Y51058674D01*
X4432259Y51312705D01*
X4648295Y51528741D01*
X4902326Y51698479D01*
X5184590Y51815396D01*
X5334415Y51845198D01*
X5484239Y51875000D01*
X5789761Y51875000D01*
X5939585Y51845198D01*
X5939585Y51845198D01*
G37*
G36*
X27939585Y55845198D02*
G01*
X28089410Y55815396D01*
X28371674Y55698479D01*
X28625705Y55528741D01*
X28841741Y55312705D01*
X29011479Y55058674D01*
X29128396Y54776410D01*
X29188000Y54476760D01*
X29188000Y54171240D01*
X29128396Y53871590D01*
X29011479Y53589326D01*
X28841741Y53335295D01*
X28625705Y53119259D01*
X28371674Y52949521D01*
X28089410Y52832604D01*
X27939585Y52802802D01*
X27789761Y52773000D01*
X27484239Y52773000D01*
X27334415Y52802802D01*
X27184590Y52832604D01*
X26902326Y52949521D01*
X26648295Y53119259D01*
X26432259Y53335295D01*
X26262521Y53589326D01*
X26145604Y53871590D01*
X26086000Y54171240D01*
X26086000Y54476760D01*
X26145604Y54776410D01*
X26262521Y55058674D01*
X26432259Y55312705D01*
X26648295Y55528741D01*
X26902326Y55698479D01*
X27184590Y55815396D01*
X27334415Y55845198D01*
X27484239Y55875000D01*
X27789761Y55875000D01*
X27939585Y55845198D01*
X27939585Y55845198D01*
G37*
G36*
X5939585Y55845198D02*
G01*
X6089410Y55815396D01*
X6371674Y55698479D01*
X6625705Y55528741D01*
X6841741Y55312705D01*
X7011479Y55058674D01*
X7128396Y54776410D01*
X7188000Y54476760D01*
X7188000Y54171240D01*
X7128396Y53871590D01*
X7011479Y53589326D01*
X6841741Y53335295D01*
X6625705Y53119259D01*
X6371674Y52949521D01*
X6089410Y52832604D01*
X5939585Y52802802D01*
X5789761Y52773000D01*
X5484239Y52773000D01*
X5334415Y52802802D01*
X5184590Y52832604D01*
X4902326Y52949521D01*
X4648295Y53119259D01*
X4432259Y53335295D01*
X4262521Y53589326D01*
X4145604Y53871590D01*
X4086000Y54171240D01*
X4086000Y54476760D01*
X4145604Y54776410D01*
X4262521Y55058674D01*
X4432259Y55312705D01*
X4648295Y55528741D01*
X4902326Y55698479D01*
X5184590Y55815396D01*
X5334415Y55845198D01*
X5484239Y55875000D01*
X5789761Y55875000D01*
X5939585Y55845198D01*
X5939585Y55845198D01*
G37*
G36*
X63258000Y56757000D02*
G01*
X61456000Y56757000D01*
X61456000Y58559000D01*
X63258000Y58559000D01*
X63258000Y56757000D01*
X63258000Y56757000D01*
G37*
G36*
X27907732Y59851534D02*
G01*
X28089410Y59815396D01*
X28371674Y59698479D01*
X28625705Y59528741D01*
X28841741Y59312705D01*
X29011479Y59058674D01*
X29128396Y58776410D01*
X29128396Y58776409D01*
X29171642Y58559000D01*
X29188000Y58476760D01*
X29188000Y58171240D01*
X29128396Y57871590D01*
X29011479Y57589326D01*
X28841741Y57335295D01*
X28625705Y57119259D01*
X28371674Y56949521D01*
X28089410Y56832604D01*
X27939585Y56802802D01*
X27789761Y56773000D01*
X27484239Y56773000D01*
X27334415Y56802802D01*
X27184590Y56832604D01*
X26902326Y56949521D01*
X26648295Y57119259D01*
X26432259Y57335295D01*
X26262521Y57589326D01*
X26145604Y57871590D01*
X26086000Y58171240D01*
X26086000Y58476760D01*
X26102359Y58559000D01*
X26145604Y58776409D01*
X26145604Y58776410D01*
X26262521Y59058674D01*
X26432259Y59312705D01*
X26648295Y59528741D01*
X26902326Y59698479D01*
X27184590Y59815396D01*
X27366268Y59851534D01*
X27484239Y59875000D01*
X27789761Y59875000D01*
X27907732Y59851534D01*
X27907732Y59851534D01*
G37*
G36*
X5907732Y59851534D02*
G01*
X6089410Y59815396D01*
X6371674Y59698479D01*
X6625705Y59528741D01*
X6841741Y59312705D01*
X7011479Y59058674D01*
X7128396Y58776410D01*
X7128396Y58776409D01*
X7171642Y58559000D01*
X7188000Y58476760D01*
X7188000Y58171240D01*
X7128396Y57871590D01*
X7011479Y57589326D01*
X6841741Y57335295D01*
X6625705Y57119259D01*
X6371674Y56949521D01*
X6089410Y56832604D01*
X5939585Y56802802D01*
X5789761Y56773000D01*
X5484239Y56773000D01*
X5334415Y56802802D01*
X5184590Y56832604D01*
X4902326Y56949521D01*
X4648295Y57119259D01*
X4432259Y57335295D01*
X4262521Y57589326D01*
X4145604Y57871590D01*
X4086000Y58171240D01*
X4086000Y58476760D01*
X4102359Y58559000D01*
X4145604Y58776409D01*
X4145604Y58776410D01*
X4262521Y59058674D01*
X4432259Y59312705D01*
X4648295Y59528741D01*
X4902326Y59698479D01*
X5184590Y59815396D01*
X5366268Y59851534D01*
X5484239Y59875000D01*
X5789761Y59875000D01*
X5907732Y59851534D01*
X5907732Y59851534D01*
G37*
G36*
X62467442Y61092482D02*
G01*
X62533627Y61085963D01*
X62703466Y61034443D01*
X62859991Y60950778D01*
X62895729Y60921448D01*
X62997186Y60838186D01*
X63080448Y60736729D01*
X63109778Y60700991D01*
X63193443Y60544466D01*
X63244963Y60374627D01*
X63262359Y60198000D01*
X63244963Y60021373D01*
X63193443Y59851534D01*
X63109778Y59695009D01*
X63080448Y59659271D01*
X62997186Y59557814D01*
X62895729Y59474552D01*
X62859991Y59445222D01*
X62703466Y59361557D01*
X62533627Y59310037D01*
X62467443Y59303519D01*
X62401260Y59297000D01*
X62312740Y59297000D01*
X62246557Y59303519D01*
X62180373Y59310037D01*
X62010534Y59361557D01*
X61854009Y59445222D01*
X61818271Y59474552D01*
X61716814Y59557814D01*
X61633552Y59659271D01*
X61604222Y59695009D01*
X61520557Y59851534D01*
X61469037Y60021373D01*
X61451641Y60198000D01*
X61469037Y60374627D01*
X61520557Y60544466D01*
X61604222Y60700991D01*
X61633552Y60736729D01*
X61716814Y60838186D01*
X61818271Y60921448D01*
X61854009Y60950778D01*
X62010534Y61034443D01*
X62180373Y61085963D01*
X62246558Y61092482D01*
X62312740Y61099000D01*
X62401260Y61099000D01*
X62467442Y61092482D01*
X62467442Y61092482D01*
G37*
G36*
X17193202Y65120219D02*
G01*
X17468606Y65065438D01*
X17987455Y64850524D01*
X18454407Y64538516D01*
X18851516Y64141407D01*
X19163524Y63674455D01*
X19378438Y63155606D01*
X19488000Y62604799D01*
X19488000Y62043201D01*
X19378438Y61492394D01*
X19163524Y60973545D01*
X18913579Y60599476D01*
X18876824Y60544468D01*
X18851516Y60506593D01*
X18454407Y60109484D01*
X17987455Y59797476D01*
X17468606Y59582562D01*
X17198029Y59528741D01*
X16917800Y59473000D01*
X16356200Y59473000D01*
X16075971Y59528741D01*
X15805394Y59582562D01*
X15286545Y59797476D01*
X14819593Y60109484D01*
X14422484Y60506593D01*
X14397177Y60544468D01*
X14360421Y60599476D01*
X14110476Y60973545D01*
X13895562Y61492394D01*
X13786000Y62043201D01*
X13786000Y62604799D01*
X13895562Y63155606D01*
X14110476Y63674455D01*
X14422484Y64141407D01*
X14819593Y64538516D01*
X15286545Y64850524D01*
X15805394Y65065438D01*
X16080798Y65120219D01*
X16356200Y65175000D01*
X16917800Y65175000D01*
X17193202Y65120219D01*
X17193202Y65120219D01*
G37*
G36*
X5939585Y63845198D02*
G01*
X6089410Y63815396D01*
X6371674Y63698479D01*
X6625705Y63528741D01*
X6841741Y63312705D01*
X7011479Y63058674D01*
X7128396Y62776410D01*
X7128396Y62776409D01*
X7188000Y62476761D01*
X7188000Y62171239D01*
X7162531Y62043200D01*
X7128396Y61871590D01*
X7011479Y61589326D01*
X6841741Y61335295D01*
X6625705Y61119259D01*
X6371674Y60949521D01*
X6089410Y60832604D01*
X5939585Y60802802D01*
X5789761Y60773000D01*
X5484239Y60773000D01*
X5334415Y60802802D01*
X5184590Y60832604D01*
X4902326Y60949521D01*
X4648295Y61119259D01*
X4432259Y61335295D01*
X4262521Y61589326D01*
X4145604Y61871590D01*
X4111469Y62043200D01*
X4086000Y62171239D01*
X4086000Y62476761D01*
X4145604Y62776409D01*
X4145604Y62776410D01*
X4262521Y63058674D01*
X4432259Y63312705D01*
X4648295Y63528741D01*
X4902326Y63698479D01*
X5184590Y63815396D01*
X5334415Y63845198D01*
X5484239Y63875000D01*
X5789761Y63875000D01*
X5939585Y63845198D01*
X5939585Y63845198D01*
G37*
G36*
X27939585Y63845198D02*
G01*
X28089410Y63815396D01*
X28371674Y63698479D01*
X28625705Y63528741D01*
X28841741Y63312705D01*
X29011479Y63058674D01*
X29128396Y62776410D01*
X29128396Y62776409D01*
X29188000Y62476761D01*
X29188000Y62171239D01*
X29162531Y62043200D01*
X29128396Y61871590D01*
X29011479Y61589326D01*
X28841741Y61335295D01*
X28625705Y61119259D01*
X28371674Y60949521D01*
X28089410Y60832604D01*
X27939585Y60802802D01*
X27789761Y60773000D01*
X27484239Y60773000D01*
X27334415Y60802802D01*
X27184590Y60832604D01*
X26902326Y60949521D01*
X26648295Y61119259D01*
X26432259Y61335295D01*
X26262521Y61589326D01*
X26145604Y61871590D01*
X26111469Y62043200D01*
X26086000Y62171239D01*
X26086000Y62476761D01*
X26145604Y62776409D01*
X26145604Y62776410D01*
X26262521Y63058674D01*
X26432259Y63312705D01*
X26648295Y63528741D01*
X26902326Y63698479D01*
X27184590Y63815396D01*
X27334415Y63845198D01*
X27484239Y63875000D01*
X27789761Y63875000D01*
X27939585Y63845198D01*
X27939585Y63845198D01*
G37*
G36*
X62467443Y63632481D02*
G01*
X62533627Y63625963D01*
X62703466Y63574443D01*
X62859991Y63490778D01*
X62895729Y63461448D01*
X62997186Y63378186D01*
X63080448Y63276729D01*
X63109778Y63240991D01*
X63193443Y63084466D01*
X63244963Y62914627D01*
X63262359Y62738000D01*
X63244963Y62561373D01*
X63193443Y62391534D01*
X63109778Y62235009D01*
X63080448Y62199271D01*
X62997186Y62097814D01*
X62895729Y62014552D01*
X62859991Y61985222D01*
X62703466Y61901557D01*
X62533627Y61850037D01*
X62467442Y61843518D01*
X62401260Y61837000D01*
X62312740Y61837000D01*
X62246558Y61843518D01*
X62180373Y61850037D01*
X62010534Y61901557D01*
X61854009Y61985222D01*
X61818271Y62014552D01*
X61716814Y62097814D01*
X61633552Y62199271D01*
X61604222Y62235009D01*
X61520557Y62391534D01*
X61469037Y62561373D01*
X61451641Y62738000D01*
X61469037Y62914627D01*
X61520557Y63084466D01*
X61604222Y63240991D01*
X61633552Y63276729D01*
X61716814Y63378186D01*
X61818271Y63461448D01*
X61854009Y63490778D01*
X62010534Y63574443D01*
X62180373Y63625963D01*
X62246557Y63632481D01*
X62312740Y63639000D01*
X62401260Y63639000D01*
X62467443Y63632481D01*
X62467443Y63632481D01*
G37*
G36*
X62467443Y66172481D02*
G01*
X62533627Y66165963D01*
X62703466Y66114443D01*
X62859991Y66030778D01*
X62895729Y66001448D01*
X62997186Y65918186D01*
X63080448Y65816729D01*
X63109778Y65780991D01*
X63193443Y65624466D01*
X63244963Y65454627D01*
X63262359Y65278000D01*
X63244963Y65101373D01*
X63193443Y64931534D01*
X63109778Y64775009D01*
X63108129Y64773000D01*
X62997186Y64637814D01*
X62895729Y64554552D01*
X62859991Y64525222D01*
X62703466Y64441557D01*
X62533627Y64390037D01*
X62467443Y64383519D01*
X62401260Y64377000D01*
X62312740Y64377000D01*
X62246557Y64383519D01*
X62180373Y64390037D01*
X62010534Y64441557D01*
X61854009Y64525222D01*
X61818271Y64554552D01*
X61716814Y64637814D01*
X61605871Y64773000D01*
X61604222Y64775009D01*
X61520557Y64931534D01*
X61469037Y65101373D01*
X61451641Y65278000D01*
X61469037Y65454627D01*
X61520557Y65624466D01*
X61604222Y65780991D01*
X61633552Y65816729D01*
X61716814Y65918186D01*
X61818271Y66001448D01*
X61854009Y66030778D01*
X62010534Y66114443D01*
X62180373Y66165963D01*
X62246557Y66172481D01*
X62312740Y66179000D01*
X62401260Y66179000D01*
X62467443Y66172481D01*
X62467443Y66172481D01*
G37*
G36*
X27939585Y67845198D02*
G01*
X28089410Y67815396D01*
X28371674Y67698479D01*
X28625705Y67528741D01*
X28841741Y67312705D01*
X29011479Y67058674D01*
X29128396Y66776410D01*
X29128396Y66776409D01*
X29188000Y66476761D01*
X29188000Y66171239D01*
X29176702Y66114442D01*
X29128396Y65871590D01*
X29011479Y65589326D01*
X28841741Y65335295D01*
X28625705Y65119259D01*
X28371674Y64949521D01*
X28089410Y64832604D01*
X27939585Y64802802D01*
X27789761Y64773000D01*
X27484239Y64773000D01*
X27334415Y64802802D01*
X27184590Y64832604D01*
X26902326Y64949521D01*
X26648295Y65119259D01*
X26432259Y65335295D01*
X26262521Y65589326D01*
X26145604Y65871590D01*
X26097298Y66114442D01*
X26086000Y66171239D01*
X26086000Y66476761D01*
X26145604Y66776409D01*
X26145604Y66776410D01*
X26262521Y67058674D01*
X26432259Y67312705D01*
X26648295Y67528741D01*
X26902326Y67698479D01*
X27184590Y67815396D01*
X27334415Y67845198D01*
X27484239Y67875000D01*
X27789761Y67875000D01*
X27939585Y67845198D01*
X27939585Y67845198D01*
G37*
G36*
X5939585Y67845198D02*
G01*
X6089410Y67815396D01*
X6371674Y67698479D01*
X6625705Y67528741D01*
X6841741Y67312705D01*
X7011479Y67058674D01*
X7128396Y66776410D01*
X7128396Y66776409D01*
X7188000Y66476761D01*
X7188000Y66171239D01*
X7176702Y66114442D01*
X7128396Y65871590D01*
X7011479Y65589326D01*
X6841741Y65335295D01*
X6625705Y65119259D01*
X6371674Y64949521D01*
X6089410Y64832604D01*
X5939585Y64802802D01*
X5789761Y64773000D01*
X5484239Y64773000D01*
X5334415Y64802802D01*
X5184590Y64832604D01*
X4902326Y64949521D01*
X4648295Y65119259D01*
X4432259Y65335295D01*
X4262521Y65589326D01*
X4145604Y65871590D01*
X4097298Y66114442D01*
X4086000Y66171239D01*
X4086000Y66476761D01*
X4145604Y66776409D01*
X4145604Y66776410D01*
X4262521Y67058674D01*
X4432259Y67312705D01*
X4648295Y67528741D01*
X4902326Y67698479D01*
X5184590Y67815396D01*
X5334415Y67845198D01*
X5484239Y67875000D01*
X5789761Y67875000D01*
X5939585Y67845198D01*
X5939585Y67845198D01*
G37*
G36*
X62467442Y68712482D02*
G01*
X62533627Y68705963D01*
X62703466Y68654443D01*
X62859991Y68570778D01*
X62895729Y68541448D01*
X62997186Y68458186D01*
X63080448Y68356729D01*
X63109778Y68320991D01*
X63193443Y68164466D01*
X63244963Y67994627D01*
X63262359Y67818000D01*
X63244963Y67641373D01*
X63193443Y67471534D01*
X63109778Y67315009D01*
X63107887Y67312705D01*
X62997186Y67177814D01*
X62895729Y67094552D01*
X62859991Y67065222D01*
X62703466Y66981557D01*
X62533627Y66930037D01*
X62467442Y66923518D01*
X62401260Y66917000D01*
X62312740Y66917000D01*
X62246558Y66923518D01*
X62180373Y66930037D01*
X62010534Y66981557D01*
X61854009Y67065222D01*
X61818271Y67094552D01*
X61716814Y67177814D01*
X61606113Y67312705D01*
X61604222Y67315009D01*
X61520557Y67471534D01*
X61469037Y67641373D01*
X61451641Y67818000D01*
X61469037Y67994627D01*
X61520557Y68164466D01*
X61604222Y68320991D01*
X61633552Y68356729D01*
X61716814Y68458186D01*
X61818271Y68541448D01*
X61854009Y68570778D01*
X62010534Y68654443D01*
X62180373Y68705963D01*
X62246558Y68712482D01*
X62312740Y68719000D01*
X62401260Y68719000D01*
X62467442Y68712482D01*
X62467442Y68712482D01*
G37*
G36*
X27939585Y71845198D02*
G01*
X28089410Y71815396D01*
X28371674Y71698479D01*
X28625705Y71528741D01*
X28841741Y71312705D01*
X29011479Y71058674D01*
X29128396Y70776410D01*
X29188000Y70476760D01*
X29188000Y70171240D01*
X29128396Y69871590D01*
X29011479Y69589326D01*
X28841741Y69335295D01*
X28625705Y69119259D01*
X28371674Y68949521D01*
X28089410Y68832604D01*
X27939585Y68802802D01*
X27789761Y68773000D01*
X27484239Y68773000D01*
X27334415Y68802802D01*
X27184590Y68832604D01*
X26902326Y68949521D01*
X26648295Y69119259D01*
X26432259Y69335295D01*
X26262521Y69589326D01*
X26145604Y69871590D01*
X26086000Y70171240D01*
X26086000Y70476760D01*
X26145604Y70776410D01*
X26262521Y71058674D01*
X26432259Y71312705D01*
X26648295Y71528741D01*
X26902326Y71698479D01*
X27184590Y71815396D01*
X27334415Y71845198D01*
X27484239Y71875000D01*
X27789761Y71875000D01*
X27939585Y71845198D01*
X27939585Y71845198D01*
G37*
G36*
X5939585Y71845198D02*
G01*
X6089410Y71815396D01*
X6371674Y71698479D01*
X6625705Y71528741D01*
X6841741Y71312705D01*
X7011479Y71058674D01*
X7128396Y70776410D01*
X7188000Y70476760D01*
X7188000Y70171240D01*
X7128396Y69871590D01*
X7011479Y69589326D01*
X6841741Y69335295D01*
X6625705Y69119259D01*
X6371674Y68949521D01*
X6089410Y68832604D01*
X5939585Y68802802D01*
X5789761Y68773000D01*
X5484239Y68773000D01*
X5334415Y68802802D01*
X5184590Y68832604D01*
X4902326Y68949521D01*
X4648295Y69119259D01*
X4432259Y69335295D01*
X4262521Y69589326D01*
X4145604Y69871590D01*
X4086000Y70171240D01*
X4086000Y70476760D01*
X4145604Y70776410D01*
X4262521Y71058674D01*
X4432259Y71312705D01*
X4648295Y71528741D01*
X4902326Y71698479D01*
X5184590Y71815396D01*
X5334415Y71845198D01*
X5484239Y71875000D01*
X5789761Y71875000D01*
X5939585Y71845198D01*
X5939585Y71845198D01*
G37*
G36*
X62467443Y71252481D02*
G01*
X62533627Y71245963D01*
X62703466Y71194443D01*
X62859991Y71110778D01*
X62895729Y71081448D01*
X62997186Y70998186D01*
X63080448Y70896729D01*
X63109778Y70860991D01*
X63193443Y70704466D01*
X63244963Y70534627D01*
X63262359Y70358000D01*
X63244963Y70181373D01*
X63193443Y70011534D01*
X63109778Y69855009D01*
X63080448Y69819271D01*
X62997186Y69717814D01*
X62895729Y69634552D01*
X62859991Y69605222D01*
X62703466Y69521557D01*
X62533627Y69470037D01*
X62467443Y69463519D01*
X62401260Y69457000D01*
X62312740Y69457000D01*
X62246557Y69463519D01*
X62180373Y69470037D01*
X62010534Y69521557D01*
X61854009Y69605222D01*
X61818271Y69634552D01*
X61716814Y69717814D01*
X61633552Y69819271D01*
X61604222Y69855009D01*
X61520557Y70011534D01*
X61469037Y70181373D01*
X61451641Y70358000D01*
X61469037Y70534627D01*
X61520557Y70704466D01*
X61604222Y70860991D01*
X61633552Y70896729D01*
X61716814Y70998186D01*
X61818271Y71081448D01*
X61854009Y71110778D01*
X62010534Y71194443D01*
X62180373Y71245963D01*
X62246557Y71252481D01*
X62312740Y71259000D01*
X62401260Y71259000D01*
X62467443Y71252481D01*
X62467443Y71252481D01*
G37*
G36*
X27939585Y75845198D02*
G01*
X28089410Y75815396D01*
X28371674Y75698479D01*
X28625705Y75528741D01*
X28841741Y75312705D01*
X29011479Y75058674D01*
X29128396Y74776410D01*
X29188000Y74476760D01*
X29188000Y74171240D01*
X29128396Y73871590D01*
X29011479Y73589326D01*
X28841741Y73335295D01*
X28625705Y73119259D01*
X28371674Y72949521D01*
X28089410Y72832604D01*
X27939585Y72802802D01*
X27789761Y72773000D01*
X27484239Y72773000D01*
X27334415Y72802802D01*
X27184590Y72832604D01*
X26902326Y72949521D01*
X26648295Y73119259D01*
X26432259Y73335295D01*
X26262521Y73589326D01*
X26145604Y73871590D01*
X26086000Y74171240D01*
X26086000Y74476760D01*
X26145604Y74776410D01*
X26262521Y75058674D01*
X26432259Y75312705D01*
X26648295Y75528741D01*
X26902326Y75698479D01*
X27184590Y75815396D01*
X27334415Y75845198D01*
X27484239Y75875000D01*
X27789761Y75875000D01*
X27939585Y75845198D01*
X27939585Y75845198D01*
G37*
G36*
X5939585Y75845198D02*
G01*
X6089410Y75815396D01*
X6371674Y75698479D01*
X6625705Y75528741D01*
X6841741Y75312705D01*
X7011479Y75058674D01*
X7128396Y74776410D01*
X7188000Y74476760D01*
X7188000Y74171240D01*
X7128396Y73871590D01*
X7011479Y73589326D01*
X6841741Y73335295D01*
X6625705Y73119259D01*
X6371674Y72949521D01*
X6089410Y72832604D01*
X5939585Y72802802D01*
X5789761Y72773000D01*
X5484239Y72773000D01*
X5334415Y72802802D01*
X5184590Y72832604D01*
X4902326Y72949521D01*
X4648295Y73119259D01*
X4432259Y73335295D01*
X4262521Y73589326D01*
X4145604Y73871590D01*
X4086000Y74171240D01*
X4086000Y74476760D01*
X4145604Y74776410D01*
X4262521Y75058674D01*
X4432259Y75312705D01*
X4648295Y75528741D01*
X4902326Y75698479D01*
X5184590Y75815396D01*
X5334415Y75845198D01*
X5484239Y75875000D01*
X5789761Y75875000D01*
X5939585Y75845198D01*
X5939585Y75845198D01*
G37*
G36*
X62467443Y75824481D02*
G01*
X62533627Y75817963D01*
X62703466Y75766443D01*
X62859991Y75682778D01*
X62895729Y75653448D01*
X62997186Y75570186D01*
X63080448Y75468729D01*
X63109778Y75432991D01*
X63193443Y75276466D01*
X63244963Y75106627D01*
X63262359Y74930000D01*
X63244963Y74753373D01*
X63193443Y74583534D01*
X63109778Y74427009D01*
X63080448Y74391271D01*
X62997186Y74289814D01*
X62895729Y74206552D01*
X62859991Y74177222D01*
X62703466Y74093557D01*
X62533627Y74042037D01*
X62467443Y74035519D01*
X62401260Y74029000D01*
X62312740Y74029000D01*
X62246557Y74035519D01*
X62180373Y74042037D01*
X62010534Y74093557D01*
X61854009Y74177222D01*
X61818271Y74206552D01*
X61716814Y74289814D01*
X61633552Y74391271D01*
X61604222Y74427009D01*
X61520557Y74583534D01*
X61469037Y74753373D01*
X61451641Y74930000D01*
X61469037Y75106627D01*
X61520557Y75276466D01*
X61604222Y75432991D01*
X61633552Y75468729D01*
X61716814Y75570186D01*
X61818271Y75653448D01*
X61854009Y75682778D01*
X62010534Y75766443D01*
X62180373Y75817963D01*
X62246557Y75824481D01*
X62312740Y75831000D01*
X62401260Y75831000D01*
X62467443Y75824481D01*
X62467443Y75824481D01*
G37*
G36*
X62467443Y78364481D02*
G01*
X62533627Y78357963D01*
X62703466Y78306443D01*
X62859991Y78222778D01*
X62895729Y78193448D01*
X62997186Y78110186D01*
X63080448Y78008729D01*
X63109778Y77972991D01*
X63193443Y77816466D01*
X63244963Y77646627D01*
X63262359Y77470000D01*
X63244963Y77293373D01*
X63193443Y77123534D01*
X63109778Y76967009D01*
X63080448Y76931271D01*
X62997186Y76829814D01*
X62895729Y76746552D01*
X62859991Y76717222D01*
X62703466Y76633557D01*
X62533627Y76582037D01*
X62467442Y76575518D01*
X62401260Y76569000D01*
X62312740Y76569000D01*
X62246558Y76575518D01*
X62180373Y76582037D01*
X62010534Y76633557D01*
X61854009Y76717222D01*
X61818271Y76746552D01*
X61716814Y76829814D01*
X61633552Y76931271D01*
X61604222Y76967009D01*
X61520557Y77123534D01*
X61469037Y77293373D01*
X61451641Y77470000D01*
X61469037Y77646627D01*
X61520557Y77816466D01*
X61604222Y77972991D01*
X61633552Y78008729D01*
X61716814Y78110186D01*
X61818271Y78193448D01*
X61854009Y78222778D01*
X62010534Y78306443D01*
X62180373Y78357963D01*
X62246557Y78364481D01*
X62312740Y78371000D01*
X62401260Y78371000D01*
X62467443Y78364481D01*
X62467443Y78364481D01*
G37*
G36*
X63258000Y79109000D02*
G01*
X61456000Y79109000D01*
X61456000Y80911000D01*
X63258000Y80911000D01*
X63258000Y79109000D01*
X63258000Y79109000D01*
G37*
G36*
X63671206Y87983838D02*
G01*
X64190055Y87768924D01*
X64657007Y87456916D01*
X65054116Y87059807D01*
X65366124Y86592855D01*
X65581038Y86074006D01*
X65581038Y86074005D01*
X65690600Y85523200D01*
X65690600Y84961600D01*
X65644411Y84729391D01*
X65581038Y84410794D01*
X65366124Y83891945D01*
X65054116Y83424993D01*
X64657007Y83027884D01*
X64190055Y82715876D01*
X63671206Y82500962D01*
X63120400Y82391400D01*
X62558800Y82391400D01*
X62007994Y82500962D01*
X61489145Y82715876D01*
X61022193Y83027884D01*
X60625084Y83424993D01*
X60313076Y83891945D01*
X60098162Y84410794D01*
X60034789Y84729391D01*
X59988600Y84961600D01*
X59988600Y85523200D01*
X60098162Y86074005D01*
X60098162Y86074006D01*
X60313076Y86592855D01*
X60625084Y87059807D01*
X61022193Y87456916D01*
X61489145Y87768924D01*
X62007994Y87983838D01*
X62558800Y88093400D01*
X63120400Y88093400D01*
X63671206Y87983838D01*
X63671206Y87983838D01*
G37*
G36*
X44395342Y85070082D02*
G01*
X44461527Y85063563D01*
X44631366Y85012043D01*
X44787891Y84928378D01*
X44823629Y84899048D01*
X44925086Y84815786D01*
X44995987Y84729391D01*
X45037678Y84678591D01*
X45121343Y84522066D01*
X45172863Y84352227D01*
X45190259Y84175600D01*
X45172863Y83998973D01*
X45121343Y83829134D01*
X45037678Y83672609D01*
X45008348Y83636871D01*
X44925086Y83535414D01*
X44823629Y83452152D01*
X44787891Y83422822D01*
X44631366Y83339157D01*
X44461527Y83287637D01*
X44395343Y83281119D01*
X44329160Y83274600D01*
X44240640Y83274600D01*
X44174457Y83281119D01*
X44108273Y83287637D01*
X43938434Y83339157D01*
X43781909Y83422822D01*
X43746171Y83452152D01*
X43644714Y83535414D01*
X43561452Y83636871D01*
X43532122Y83672609D01*
X43448457Y83829134D01*
X43396937Y83998973D01*
X43379541Y84175600D01*
X43396937Y84352227D01*
X43448457Y84522066D01*
X43532122Y84678591D01*
X43573813Y84729391D01*
X43644714Y84815786D01*
X43746171Y84899048D01*
X43781909Y84928378D01*
X43938434Y85012043D01*
X44108273Y85063563D01*
X44174458Y85070082D01*
X44240640Y85076600D01*
X44329160Y85076600D01*
X44395342Y85070082D01*
X44395342Y85070082D01*
G37*
G36*
X40105900Y83274600D02*
G01*
X38303900Y83274600D01*
X38303900Y85076600D01*
X40105900Y85076600D01*
X40105900Y83274600D01*
X40105900Y83274600D01*
G37*
G36*
X46935342Y85070082D02*
G01*
X47001527Y85063563D01*
X47171366Y85012043D01*
X47327891Y84928378D01*
X47363629Y84899048D01*
X47465086Y84815786D01*
X47535987Y84729391D01*
X47577678Y84678591D01*
X47661343Y84522066D01*
X47712863Y84352227D01*
X47730259Y84175600D01*
X47712863Y83998973D01*
X47661343Y83829134D01*
X47577678Y83672609D01*
X47548348Y83636871D01*
X47465086Y83535414D01*
X47363629Y83452152D01*
X47327891Y83422822D01*
X47171366Y83339157D01*
X47001527Y83287637D01*
X46935343Y83281119D01*
X46869160Y83274600D01*
X46780640Y83274600D01*
X46714457Y83281119D01*
X46648273Y83287637D01*
X46478434Y83339157D01*
X46321909Y83422822D01*
X46286171Y83452152D01*
X46184714Y83535414D01*
X46101452Y83636871D01*
X46072122Y83672609D01*
X45988457Y83829134D01*
X45936937Y83998973D01*
X45919541Y84175600D01*
X45936937Y84352227D01*
X45988457Y84522066D01*
X46072122Y84678591D01*
X46113813Y84729391D01*
X46184714Y84815786D01*
X46286171Y84899048D01*
X46321909Y84928378D01*
X46478434Y85012043D01*
X46648273Y85063563D01*
X46714458Y85070082D01*
X46780640Y85076600D01*
X46869160Y85076600D01*
X46935342Y85070082D01*
X46935342Y85070082D01*
G37*
G36*
X41855342Y85070082D02*
G01*
X41921527Y85063563D01*
X42091366Y85012043D01*
X42247891Y84928378D01*
X42283629Y84899048D01*
X42385086Y84815786D01*
X42455987Y84729391D01*
X42497678Y84678591D01*
X42581343Y84522066D01*
X42632863Y84352227D01*
X42650259Y84175600D01*
X42632863Y83998973D01*
X42581343Y83829134D01*
X42497678Y83672609D01*
X42468348Y83636871D01*
X42385086Y83535414D01*
X42283629Y83452152D01*
X42247891Y83422822D01*
X42091366Y83339157D01*
X41921527Y83287637D01*
X41855343Y83281119D01*
X41789160Y83274600D01*
X41700640Y83274600D01*
X41634457Y83281119D01*
X41568273Y83287637D01*
X41398434Y83339157D01*
X41241909Y83422822D01*
X41206171Y83452152D01*
X41104714Y83535414D01*
X41021452Y83636871D01*
X40992122Y83672609D01*
X40908457Y83829134D01*
X40856937Y83998973D01*
X40839541Y84175600D01*
X40856937Y84352227D01*
X40908457Y84522066D01*
X40992122Y84678591D01*
X41033813Y84729391D01*
X41104714Y84815786D01*
X41206171Y84899048D01*
X41241909Y84928378D01*
X41398434Y85012043D01*
X41568273Y85063563D01*
X41634458Y85070082D01*
X41700640Y85076600D01*
X41789160Y85076600D01*
X41855342Y85070082D01*
X41855342Y85070082D01*
G37*
G36*
X57489043Y85120881D02*
G01*
X57555227Y85114363D01*
X57725066Y85062843D01*
X57881591Y84979178D01*
X57917329Y84949848D01*
X58018786Y84866586D01*
X58102048Y84765129D01*
X58131378Y84729391D01*
X58215043Y84572866D01*
X58266563Y84403027D01*
X58283959Y84226400D01*
X58266563Y84049773D01*
X58215043Y83879934D01*
X58131378Y83723409D01*
X58102048Y83687671D01*
X58018786Y83586214D01*
X57917329Y83502952D01*
X57881591Y83473622D01*
X57725066Y83389957D01*
X57555227Y83338437D01*
X57489043Y83331919D01*
X57422860Y83325400D01*
X57334340Y83325400D01*
X57268157Y83331919D01*
X57201973Y83338437D01*
X57032134Y83389957D01*
X56875609Y83473622D01*
X56839871Y83502952D01*
X56738414Y83586214D01*
X56655152Y83687671D01*
X56625822Y83723409D01*
X56542157Y83879934D01*
X56490637Y84049773D01*
X56473241Y84226400D01*
X56490637Y84403027D01*
X56542157Y84572866D01*
X56625822Y84729391D01*
X56655152Y84765129D01*
X56738414Y84866586D01*
X56839871Y84949848D01*
X56875609Y84979178D01*
X57032134Y85062843D01*
X57201973Y85114363D01*
X57268157Y85120881D01*
X57334340Y85127400D01*
X57422860Y85127400D01*
X57489043Y85120881D01*
X57489043Y85120881D01*
G37*
G36*
X54949043Y85120881D02*
G01*
X55015227Y85114363D01*
X55185066Y85062843D01*
X55341591Y84979178D01*
X55377329Y84949848D01*
X55478786Y84866586D01*
X55562048Y84765129D01*
X55591378Y84729391D01*
X55675043Y84572866D01*
X55726563Y84403027D01*
X55743959Y84226400D01*
X55726563Y84049773D01*
X55675043Y83879934D01*
X55591378Y83723409D01*
X55562048Y83687671D01*
X55478786Y83586214D01*
X55377329Y83502952D01*
X55341591Y83473622D01*
X55185066Y83389957D01*
X55015227Y83338437D01*
X54949043Y83331919D01*
X54882860Y83325400D01*
X54794340Y83325400D01*
X54728157Y83331919D01*
X54661973Y83338437D01*
X54492134Y83389957D01*
X54335609Y83473622D01*
X54299871Y83502952D01*
X54198414Y83586214D01*
X54115152Y83687671D01*
X54085822Y83723409D01*
X54002157Y83879934D01*
X53950637Y84049773D01*
X53933241Y84226400D01*
X53950637Y84403027D01*
X54002157Y84572866D01*
X54085822Y84729391D01*
X54115152Y84765129D01*
X54198414Y84866586D01*
X54299871Y84949848D01*
X54335609Y84979178D01*
X54492134Y85062843D01*
X54661973Y85114363D01*
X54728157Y85120881D01*
X54794340Y85127400D01*
X54882860Y85127400D01*
X54949043Y85120881D01*
X54949043Y85120881D01*
G37*
G36*
X53199600Y83325400D02*
G01*
X51397600Y83325400D01*
X51397600Y85127400D01*
X53199600Y85127400D01*
X53199600Y83325400D01*
X53199600Y83325400D01*
G37*
M02*
