G04 #@! TF.GenerationSoftware,KiCad,Pcbnew,5.1.1*
G04 #@! TF.CreationDate,2019-05-21T09:35:37+02:00*
G04 #@! TF.ProjectId,lunchbox-adapter,6c756e63-6862-46f7-982d-616461707465,rev?*
G04 #@! TF.SameCoordinates,PX6d20478PY83c6600*
G04 #@! TF.FileFunction,Soldermask,Top*
G04 #@! TF.FilePolarity,Negative*
%FSLAX46Y46*%
G04 Gerber Fmt 4.6, Leading zero omitted, Abs format (unit mm)*
G04 Created by KiCad (PCBNEW 5.1.1) date 2019-05-21 09:35:37*
%MOMM*%
%LPD*%
G04 APERTURE LIST*
%ADD10C,0.100000*%
%ADD11C,0.010000*%
G04 APERTURE END LIST*
D10*
G36*
X3365500Y14770100D02*
G01*
X3365500Y10655300D01*
X7759700Y10731500D01*
X7810500Y14312900D01*
X6616700Y14236700D01*
X6235700Y14846300D01*
X3365500Y14770100D01*
G37*
X3365500Y14770100D02*
X3365500Y10655300D01*
X7759700Y10731500D01*
X7810500Y14312900D01*
X6616700Y14236700D01*
X6235700Y14846300D01*
X3365500Y14770100D01*
D11*
G36*
X7188457Y15432129D02*
G01*
X7284732Y15407891D01*
X7371316Y15365059D01*
X7446127Y15305281D01*
X7507082Y15230206D01*
X7552101Y15141480D01*
X7578364Y15045170D01*
X7584214Y14947905D01*
X7569360Y14854046D01*
X7535660Y14766189D01*
X7484972Y14686930D01*
X7419155Y14618864D01*
X7340066Y14564588D01*
X7249566Y14526698D01*
X7198300Y14514274D01*
X7153802Y14506753D01*
X7119501Y14503781D01*
X7086540Y14505606D01*
X7046066Y14512475D01*
X7012969Y14519450D01*
X6919553Y14550959D01*
X6835881Y14602083D01*
X6763835Y14671271D01*
X6705300Y14756972D01*
X6691352Y14784211D01*
X6674914Y14820578D01*
X6664606Y14851118D01*
X6659040Y14883250D01*
X6656831Y14924393D01*
X6656552Y14970478D01*
X6660639Y15054835D01*
X6674054Y15124114D01*
X6699244Y15184739D01*
X6738654Y15243133D01*
X6777202Y15287398D01*
X6849094Y15353216D01*
X6924187Y15398647D01*
X7006938Y15425850D01*
X7084572Y15436124D01*
X7188457Y15432129D01*
X7188457Y15432129D01*
G37*
X7188457Y15432129D02*
X7284732Y15407891D01*
X7371316Y15365059D01*
X7446127Y15305281D01*
X7507082Y15230206D01*
X7552101Y15141480D01*
X7578364Y15045170D01*
X7584214Y14947905D01*
X7569360Y14854046D01*
X7535660Y14766189D01*
X7484972Y14686930D01*
X7419155Y14618864D01*
X7340066Y14564588D01*
X7249566Y14526698D01*
X7198300Y14514274D01*
X7153802Y14506753D01*
X7119501Y14503781D01*
X7086540Y14505606D01*
X7046066Y14512475D01*
X7012969Y14519450D01*
X6919553Y14550959D01*
X6835881Y14602083D01*
X6763835Y14671271D01*
X6705300Y14756972D01*
X6691352Y14784211D01*
X6674914Y14820578D01*
X6664606Y14851118D01*
X6659040Y14883250D01*
X6656831Y14924393D01*
X6656552Y14970478D01*
X6660639Y15054835D01*
X6674054Y15124114D01*
X6699244Y15184739D01*
X6738654Y15243133D01*
X6777202Y15287398D01*
X6849094Y15353216D01*
X6924187Y15398647D01*
X7006938Y15425850D01*
X7084572Y15436124D01*
X7188457Y15432129D01*
G36*
X-116700043Y141149429D02*
G01*
X-116603768Y141125191D01*
X-116517184Y141082359D01*
X-116442373Y141022581D01*
X-116381418Y140947506D01*
X-116336399Y140858780D01*
X-116310136Y140762470D01*
X-116304286Y140665205D01*
X-116319140Y140571346D01*
X-116352840Y140483489D01*
X-116403528Y140404230D01*
X-116469345Y140336164D01*
X-116548434Y140281888D01*
X-116638934Y140243998D01*
X-116690200Y140231574D01*
X-116734698Y140224053D01*
X-116768999Y140221081D01*
X-116801960Y140222906D01*
X-116842434Y140229775D01*
X-116875531Y140236750D01*
X-116968947Y140268259D01*
X-117052619Y140319383D01*
X-117124665Y140388571D01*
X-117183200Y140474272D01*
X-117197148Y140501511D01*
X-117213586Y140537878D01*
X-117223894Y140568418D01*
X-117229460Y140600550D01*
X-117231669Y140641693D01*
X-117231948Y140687778D01*
X-117227861Y140772135D01*
X-117214446Y140841414D01*
X-117189256Y140902039D01*
X-117149846Y140960433D01*
X-117111298Y141004698D01*
X-117039406Y141070516D01*
X-116964313Y141115947D01*
X-116881562Y141143150D01*
X-116803928Y141153424D01*
X-116700043Y141149429D01*
X-116700043Y141149429D01*
G37*
X-116700043Y141149429D02*
X-116603768Y141125191D01*
X-116517184Y141082359D01*
X-116442373Y141022581D01*
X-116381418Y140947506D01*
X-116336399Y140858780D01*
X-116310136Y140762470D01*
X-116304286Y140665205D01*
X-116319140Y140571346D01*
X-116352840Y140483489D01*
X-116403528Y140404230D01*
X-116469345Y140336164D01*
X-116548434Y140281888D01*
X-116638934Y140243998D01*
X-116690200Y140231574D01*
X-116734698Y140224053D01*
X-116768999Y140221081D01*
X-116801960Y140222906D01*
X-116842434Y140229775D01*
X-116875531Y140236750D01*
X-116968947Y140268259D01*
X-117052619Y140319383D01*
X-117124665Y140388571D01*
X-117183200Y140474272D01*
X-117197148Y140501511D01*
X-117213586Y140537878D01*
X-117223894Y140568418D01*
X-117229460Y140600550D01*
X-117231669Y140641693D01*
X-117231948Y140687778D01*
X-117227861Y140772135D01*
X-117214446Y140841414D01*
X-117189256Y140902039D01*
X-117149846Y140960433D01*
X-117111298Y141004698D01*
X-117039406Y141070516D01*
X-116964313Y141115947D01*
X-116881562Y141143150D01*
X-116803928Y141153424D01*
X-116700043Y141149429D01*
D10*
G36*
X-120523000Y140487400D02*
G01*
X-120523000Y136372600D01*
X-116128800Y136448800D01*
X-116078000Y140030200D01*
X-117271800Y139954000D01*
X-117652800Y140563600D01*
X-120523000Y140487400D01*
G37*
X-120523000Y140487400D02*
X-120523000Y136372600D01*
X-116128800Y136448800D01*
X-116078000Y140030200D01*
X-117271800Y139954000D01*
X-117652800Y140563600D01*
X-120523000Y140487400D01*
G36*
X58019706Y6221238D02*
G01*
X58538555Y6006324D01*
X58900279Y5764627D01*
X59005506Y5694317D01*
X59402617Y5297206D01*
X59415816Y5277452D01*
X59714624Y4830255D01*
X59929538Y4311406D01*
X59984319Y4036002D01*
X60039100Y3760600D01*
X60039100Y3199000D01*
X59929538Y2648194D01*
X59714624Y2129345D01*
X59402616Y1662393D01*
X59005507Y1265284D01*
X58538555Y953276D01*
X58019706Y738362D01*
X57468900Y628800D01*
X56907300Y628800D01*
X56356494Y738362D01*
X55837645Y953276D01*
X55370693Y1265284D01*
X54973584Y1662393D01*
X54661576Y2129345D01*
X54446662Y2648194D01*
X54337100Y3199000D01*
X54337100Y3760600D01*
X54391881Y4036002D01*
X54446662Y4311406D01*
X54661576Y4830255D01*
X54960384Y5277452D01*
X54973583Y5297206D01*
X55370694Y5694317D01*
X55475921Y5764627D01*
X55837645Y6006324D01*
X56356494Y6221238D01*
X56907300Y6330800D01*
X57468900Y6330800D01*
X58019706Y6221238D01*
X58019706Y6221238D01*
G37*
G36*
X4284520Y6754519D02*
G01*
X4667006Y6678438D01*
X5185855Y6463524D01*
X5652807Y6151516D01*
X6049916Y5754407D01*
X6361924Y5287455D01*
X6553011Y4826129D01*
X6576838Y4768605D01*
X6667781Y4311406D01*
X6686400Y4217799D01*
X6686400Y3656201D01*
X6576838Y3105394D01*
X6361924Y2586545D01*
X6111979Y2212476D01*
X6056434Y2129347D01*
X6049916Y2119593D01*
X5652807Y1722484D01*
X5185855Y1410476D01*
X4667006Y1195562D01*
X4391602Y1140781D01*
X4116200Y1086000D01*
X3554600Y1086000D01*
X3279198Y1140781D01*
X3003794Y1195562D01*
X2484945Y1410476D01*
X2017993Y1722484D01*
X1620884Y2119593D01*
X1614367Y2129347D01*
X1558821Y2212476D01*
X1308876Y2586545D01*
X1093962Y3105394D01*
X984400Y3656201D01*
X984400Y4217799D01*
X1003020Y4311406D01*
X1093962Y4768605D01*
X1117789Y4826129D01*
X1308876Y5287455D01*
X1620884Y5754407D01*
X2017993Y6151516D01*
X2484945Y6463524D01*
X3003794Y6678438D01*
X3386280Y6754519D01*
X3554600Y6788000D01*
X4116200Y6788000D01*
X4284520Y6754519D01*
X4284520Y6754519D01*
G37*
G36*
X18914239Y6947899D02*
G01*
X19150053Y6876366D01*
X19367381Y6760201D01*
X19557871Y6603871D01*
X19714201Y6413381D01*
X19830366Y6196053D01*
X19901899Y5960239D01*
X19926053Y5715000D01*
X19901899Y5469761D01*
X19830366Y5233947D01*
X19714201Y5016619D01*
X19557871Y4826129D01*
X19367381Y4669799D01*
X19150053Y4553634D01*
X18914239Y4482101D01*
X18730457Y4464000D01*
X18607543Y4464000D01*
X18423761Y4482101D01*
X18187947Y4553634D01*
X17970619Y4669799D01*
X17780129Y4826129D01*
X17623799Y5016619D01*
X17507634Y5233947D01*
X17436101Y5469761D01*
X17411947Y5715000D01*
X17436101Y5960239D01*
X17507634Y6196053D01*
X17623799Y6413381D01*
X17780129Y6603871D01*
X17970619Y6760201D01*
X18187947Y6876366D01*
X18423761Y6947899D01*
X18607543Y6966000D01*
X18730457Y6966000D01*
X18914239Y6947899D01*
X18914239Y6947899D01*
G37*
G36*
X62340443Y6482481D02*
G01*
X62406627Y6475963D01*
X62576466Y6424443D01*
X62732991Y6340778D01*
X62745149Y6330800D01*
X62870186Y6228186D01*
X62953448Y6126729D01*
X62982778Y6090991D01*
X63066443Y5934466D01*
X63117963Y5764627D01*
X63135359Y5588000D01*
X63117963Y5411373D01*
X63066443Y5241534D01*
X62982778Y5085009D01*
X62953448Y5049271D01*
X62870186Y4947814D01*
X62768729Y4864552D01*
X62732991Y4835222D01*
X62576466Y4751557D01*
X62406627Y4700037D01*
X62340442Y4693518D01*
X62274260Y4687000D01*
X62185740Y4687000D01*
X62119558Y4693518D01*
X62053373Y4700037D01*
X61883534Y4751557D01*
X61727009Y4835222D01*
X61691271Y4864552D01*
X61589814Y4947814D01*
X61506552Y5049271D01*
X61477222Y5085009D01*
X61393557Y5241534D01*
X61342037Y5411373D01*
X61324641Y5588000D01*
X61342037Y5764627D01*
X61393557Y5934466D01*
X61477222Y6090991D01*
X61506552Y6126729D01*
X61589814Y6228186D01*
X61714851Y6330800D01*
X61727009Y6340778D01*
X61883534Y6424443D01*
X62053373Y6475963D01*
X62119557Y6482481D01*
X62185740Y6489000D01*
X62274260Y6489000D01*
X62340443Y6482481D01*
X62340443Y6482481D01*
G37*
G36*
X50510674Y6715535D02*
G01*
X50548367Y6704101D01*
X50583103Y6685534D01*
X50613548Y6660548D01*
X50638534Y6630103D01*
X50657101Y6595367D01*
X50668535Y6557674D01*
X50673000Y6512339D01*
X50673000Y5425661D01*
X50668535Y5380326D01*
X50657101Y5342633D01*
X50638534Y5307897D01*
X50613548Y5277452D01*
X50583103Y5252466D01*
X50548367Y5233899D01*
X50510674Y5222465D01*
X50465339Y5218000D01*
X49628661Y5218000D01*
X49583326Y5222465D01*
X49545633Y5233899D01*
X49510897Y5252466D01*
X49480452Y5277452D01*
X49455466Y5307897D01*
X49436899Y5342633D01*
X49425465Y5380326D01*
X49421000Y5425661D01*
X49421000Y6512339D01*
X49425465Y6557674D01*
X49436899Y6595367D01*
X49455466Y6630103D01*
X49480452Y6660548D01*
X49510897Y6685534D01*
X49545633Y6704101D01*
X49583326Y6715535D01*
X49628661Y6720000D01*
X50465339Y6720000D01*
X50510674Y6715535D01*
X50510674Y6715535D01*
G37*
G36*
X48460674Y6715535D02*
G01*
X48498367Y6704101D01*
X48533103Y6685534D01*
X48563548Y6660548D01*
X48588534Y6630103D01*
X48607101Y6595367D01*
X48618535Y6557674D01*
X48623000Y6512339D01*
X48623000Y5425661D01*
X48618535Y5380326D01*
X48607101Y5342633D01*
X48588534Y5307897D01*
X48563548Y5277452D01*
X48533103Y5252466D01*
X48498367Y5233899D01*
X48460674Y5222465D01*
X48415339Y5218000D01*
X47578661Y5218000D01*
X47533326Y5222465D01*
X47495633Y5233899D01*
X47460897Y5252466D01*
X47430452Y5277452D01*
X47405466Y5307897D01*
X47386899Y5342633D01*
X47375465Y5380326D01*
X47371000Y5425661D01*
X47371000Y6512339D01*
X47375465Y6557674D01*
X47386899Y6595367D01*
X47405466Y6630103D01*
X47430452Y6660548D01*
X47460897Y6685534D01*
X47495633Y6704101D01*
X47533326Y6715535D01*
X47578661Y6720000D01*
X48415339Y6720000D01*
X48460674Y6715535D01*
X48460674Y6715535D01*
G37*
G36*
X39570674Y6842535D02*
G01*
X39608367Y6831101D01*
X39643103Y6812534D01*
X39673548Y6787548D01*
X39698534Y6757103D01*
X39717101Y6722367D01*
X39728535Y6684674D01*
X39733000Y6639339D01*
X39733000Y5552661D01*
X39728535Y5507326D01*
X39717101Y5469633D01*
X39698534Y5434897D01*
X39673548Y5404452D01*
X39643103Y5379466D01*
X39608367Y5360899D01*
X39570674Y5349465D01*
X39525339Y5345000D01*
X38688661Y5345000D01*
X38643326Y5349465D01*
X38605633Y5360899D01*
X38570897Y5379466D01*
X38540452Y5404452D01*
X38515466Y5434897D01*
X38496899Y5469633D01*
X38485465Y5507326D01*
X38481000Y5552661D01*
X38481000Y6639339D01*
X38485465Y6684674D01*
X38496899Y6722367D01*
X38515466Y6757103D01*
X38540452Y6787548D01*
X38570897Y6812534D01*
X38605633Y6831101D01*
X38643326Y6842535D01*
X38688661Y6847000D01*
X39525339Y6847000D01*
X39570674Y6842535D01*
X39570674Y6842535D01*
G37*
G36*
X41620674Y6842535D02*
G01*
X41658367Y6831101D01*
X41693103Y6812534D01*
X41723548Y6787548D01*
X41748534Y6757103D01*
X41767101Y6722367D01*
X41778535Y6684674D01*
X41783000Y6639339D01*
X41783000Y5552661D01*
X41778535Y5507326D01*
X41767101Y5469633D01*
X41748534Y5434897D01*
X41723548Y5404452D01*
X41693103Y5379466D01*
X41658367Y5360899D01*
X41620674Y5349465D01*
X41575339Y5345000D01*
X40738661Y5345000D01*
X40693326Y5349465D01*
X40655633Y5360899D01*
X40620897Y5379466D01*
X40590452Y5404452D01*
X40565466Y5434897D01*
X40546899Y5469633D01*
X40535465Y5507326D01*
X40531000Y5552661D01*
X40531000Y6639339D01*
X40535465Y6684674D01*
X40546899Y6722367D01*
X40565466Y6757103D01*
X40590452Y6787548D01*
X40620897Y6812534D01*
X40655633Y6831101D01*
X40693326Y6842535D01*
X40738661Y6847000D01*
X41575339Y6847000D01*
X41620674Y6842535D01*
X41620674Y6842535D01*
G37*
G36*
X45155000Y5484000D02*
G01*
X44253000Y5484000D01*
X44253000Y6486000D01*
X45155000Y6486000D01*
X45155000Y5484000D01*
X45155000Y5484000D01*
G37*
G36*
X33541562Y8161819D02*
G01*
X33576481Y8151226D01*
X33608663Y8134024D01*
X33636873Y8110873D01*
X33660024Y8082663D01*
X33677226Y8050481D01*
X33687819Y8015562D01*
X33692000Y7973105D01*
X33692000Y6831895D01*
X33687819Y6789438D01*
X33677226Y6754519D01*
X33660024Y6722337D01*
X33636873Y6694127D01*
X33608663Y6670976D01*
X33576481Y6653774D01*
X33541562Y6643181D01*
X33499105Y6639000D01*
X32032895Y6639000D01*
X31990438Y6643181D01*
X31955519Y6653774D01*
X31923337Y6670976D01*
X31895127Y6694127D01*
X31871976Y6722337D01*
X31854774Y6754519D01*
X31844181Y6789438D01*
X31840000Y6831895D01*
X31840000Y7973105D01*
X31844181Y8015562D01*
X31854774Y8050481D01*
X31871976Y8082663D01*
X31895127Y8110873D01*
X31923337Y8134024D01*
X31955519Y8151226D01*
X31990438Y8161819D01*
X32032895Y8166000D01*
X33499105Y8166000D01*
X33541562Y8161819D01*
X33541562Y8161819D01*
G37*
G36*
X36081562Y8161819D02*
G01*
X36116481Y8151226D01*
X36148663Y8134024D01*
X36176873Y8110873D01*
X36200024Y8082663D01*
X36217226Y8050481D01*
X36227819Y8015562D01*
X36232000Y7973105D01*
X36232000Y6831895D01*
X36227819Y6789438D01*
X36217226Y6754519D01*
X36200024Y6722337D01*
X36176873Y6694127D01*
X36148663Y6670976D01*
X36116481Y6653774D01*
X36081562Y6643181D01*
X36039105Y6639000D01*
X34572895Y6639000D01*
X34530438Y6643181D01*
X34495519Y6653774D01*
X34463337Y6670976D01*
X34435127Y6694127D01*
X34411976Y6722337D01*
X34394774Y6754519D01*
X34384181Y6789438D01*
X34380000Y6831895D01*
X34380000Y7973105D01*
X34384181Y8015562D01*
X34394774Y8050481D01*
X34411976Y8082663D01*
X34435127Y8110873D01*
X34463337Y8134024D01*
X34495519Y8151226D01*
X34530438Y8161819D01*
X34572895Y8166000D01*
X36039105Y8166000D01*
X36081562Y8161819D01*
X36081562Y8161819D01*
G37*
G36*
X62340443Y9022481D02*
G01*
X62406627Y9015963D01*
X62576466Y8964443D01*
X62732991Y8880778D01*
X62765831Y8853827D01*
X62870186Y8768186D01*
X62937685Y8685937D01*
X62982778Y8630991D01*
X63066443Y8474466D01*
X63117963Y8304627D01*
X63135359Y8128000D01*
X63117963Y7951373D01*
X63066443Y7781534D01*
X62982778Y7625009D01*
X62953448Y7589271D01*
X62870186Y7487814D01*
X62768729Y7404552D01*
X62732991Y7375222D01*
X62576466Y7291557D01*
X62406627Y7240037D01*
X62340443Y7233519D01*
X62274260Y7227000D01*
X62185740Y7227000D01*
X62119557Y7233519D01*
X62053373Y7240037D01*
X61883534Y7291557D01*
X61727009Y7375222D01*
X61691271Y7404552D01*
X61589814Y7487814D01*
X61506552Y7589271D01*
X61477222Y7625009D01*
X61393557Y7781534D01*
X61342037Y7951373D01*
X61324641Y8128000D01*
X61342037Y8304627D01*
X61393557Y8474466D01*
X61477222Y8630991D01*
X61522315Y8685937D01*
X61589814Y8768186D01*
X61694169Y8853827D01*
X61727009Y8880778D01*
X61883534Y8964443D01*
X62053373Y9015963D01*
X62119557Y9022481D01*
X62185740Y9029000D01*
X62274260Y9029000D01*
X62340443Y9022481D01*
X62340443Y9022481D01*
G37*
G36*
X44205000Y7484000D02*
G01*
X43303000Y7484000D01*
X43303000Y8486000D01*
X44205000Y8486000D01*
X44205000Y7484000D01*
X44205000Y7484000D01*
G37*
G36*
X46105000Y7484000D02*
G01*
X45203000Y7484000D01*
X45203000Y8486000D01*
X46105000Y8486000D01*
X46105000Y7484000D01*
X46105000Y7484000D01*
G37*
G36*
X41990674Y9121535D02*
G01*
X42028367Y9110101D01*
X42063103Y9091534D01*
X42093548Y9066548D01*
X42118534Y9036103D01*
X42137101Y9001367D01*
X42148535Y8963674D01*
X42153000Y8918339D01*
X42153000Y8081661D01*
X42148535Y8036326D01*
X42137101Y7998633D01*
X42118534Y7963897D01*
X42093548Y7933452D01*
X42063103Y7908466D01*
X42028367Y7889899D01*
X41990674Y7878465D01*
X41945339Y7874000D01*
X40858661Y7874000D01*
X40813326Y7878465D01*
X40775633Y7889899D01*
X40740897Y7908466D01*
X40710452Y7933452D01*
X40685466Y7963897D01*
X40666899Y7998633D01*
X40655465Y8036326D01*
X40651000Y8081661D01*
X40651000Y8918339D01*
X40655465Y8963674D01*
X40666899Y9001367D01*
X40685466Y9036103D01*
X40710452Y9066548D01*
X40740897Y9091534D01*
X40775633Y9110101D01*
X40813326Y9121535D01*
X40858661Y9126000D01*
X41945339Y9126000D01*
X41990674Y9121535D01*
X41990674Y9121535D01*
G37*
G36*
X39577674Y9121535D02*
G01*
X39615367Y9110101D01*
X39650103Y9091534D01*
X39680548Y9066548D01*
X39705534Y9036103D01*
X39724101Y9001367D01*
X39735535Y8963674D01*
X39740000Y8918339D01*
X39740000Y8081661D01*
X39735535Y8036326D01*
X39724101Y7998633D01*
X39705534Y7963897D01*
X39680548Y7933452D01*
X39650103Y7908466D01*
X39615367Y7889899D01*
X39577674Y7878465D01*
X39532339Y7874000D01*
X38445661Y7874000D01*
X38400326Y7878465D01*
X38362633Y7889899D01*
X38327897Y7908466D01*
X38297452Y7933452D01*
X38272466Y7963897D01*
X38253899Y7998633D01*
X38242465Y8036326D01*
X38238000Y8081661D01*
X38238000Y8918339D01*
X38242465Y8963674D01*
X38253899Y9001367D01*
X38272466Y9036103D01*
X38297452Y9066548D01*
X38327897Y9091534D01*
X38362633Y9110101D01*
X38400326Y9121535D01*
X38445661Y9126000D01*
X39532339Y9126000D01*
X39577674Y9121535D01*
X39577674Y9121535D01*
G37*
G36*
X25440997Y10117949D02*
G01*
X25474652Y10107739D01*
X25505665Y10091162D01*
X25532851Y10068851D01*
X25555162Y10041665D01*
X25571739Y10010652D01*
X25581949Y9976997D01*
X25586000Y9935862D01*
X25586000Y8606138D01*
X25581949Y8565003D01*
X25571739Y8531348D01*
X25555162Y8500335D01*
X25532851Y8473149D01*
X25505665Y8450838D01*
X25474652Y8434261D01*
X25440997Y8424051D01*
X25399862Y8420000D01*
X23070138Y8420000D01*
X23029003Y8424051D01*
X22995348Y8434261D01*
X22964335Y8450838D01*
X22937149Y8473149D01*
X22914838Y8500335D01*
X22898261Y8531348D01*
X22888051Y8565003D01*
X22884000Y8606138D01*
X22884000Y9935862D01*
X22888051Y9976997D01*
X22898261Y10010652D01*
X22914838Y10041665D01*
X22937149Y10068851D01*
X22964335Y10091162D01*
X22995348Y10107739D01*
X23029003Y10117949D01*
X23070138Y10122000D01*
X25399862Y10122000D01*
X25440997Y10117949D01*
X25440997Y10117949D01*
G37*
G36*
X29040997Y10117949D02*
G01*
X29074652Y10107739D01*
X29105665Y10091162D01*
X29132851Y10068851D01*
X29155162Y10041665D01*
X29171739Y10010652D01*
X29181949Y9976997D01*
X29186000Y9935862D01*
X29186000Y8606138D01*
X29181949Y8565003D01*
X29171739Y8531348D01*
X29155162Y8500335D01*
X29132851Y8473149D01*
X29105665Y8450838D01*
X29074652Y8434261D01*
X29040997Y8424051D01*
X28999862Y8420000D01*
X26670138Y8420000D01*
X26629003Y8424051D01*
X26595348Y8434261D01*
X26564335Y8450838D01*
X26537149Y8473149D01*
X26514838Y8500335D01*
X26498261Y8531348D01*
X26488051Y8565003D01*
X26484000Y8606138D01*
X26484000Y9935862D01*
X26488051Y9976997D01*
X26498261Y10010652D01*
X26514838Y10041665D01*
X26537149Y10068851D01*
X26564335Y10091162D01*
X26595348Y10107739D01*
X26629003Y10117949D01*
X26670138Y10122000D01*
X28999862Y10122000D01*
X29040997Y10117949D01*
X29040997Y10117949D01*
G37*
G36*
X47689362Y10524019D02*
G01*
X47724281Y10513426D01*
X47756463Y10496224D01*
X47784673Y10473073D01*
X47807824Y10444863D01*
X47825026Y10412681D01*
X47835619Y10377762D01*
X47839800Y10335305D01*
X47839800Y9194095D01*
X47835619Y9151638D01*
X47825026Y9116719D01*
X47807824Y9084537D01*
X47784673Y9056327D01*
X47756463Y9033176D01*
X47724281Y9015974D01*
X47689362Y9005381D01*
X47646905Y9001200D01*
X46180695Y9001200D01*
X46138238Y9005381D01*
X46103319Y9015974D01*
X46071137Y9033176D01*
X46042927Y9056327D01*
X46019776Y9084537D01*
X46002574Y9116719D01*
X45991981Y9151638D01*
X45987800Y9194095D01*
X45987800Y10335305D01*
X45991981Y10377762D01*
X46002574Y10412681D01*
X46019776Y10444863D01*
X46042927Y10473073D01*
X46071137Y10496224D01*
X46103319Y10513426D01*
X46138238Y10524019D01*
X46180695Y10528200D01*
X47646905Y10528200D01*
X47689362Y10524019D01*
X47689362Y10524019D01*
G37*
G36*
X52574300Y9317800D02*
G01*
X51572300Y9317800D01*
X51572300Y10219800D01*
X52574300Y10219800D01*
X52574300Y9317800D01*
X52574300Y9317800D01*
G37*
G36*
X36081562Y11136819D02*
G01*
X36116481Y11126226D01*
X36148663Y11109024D01*
X36176873Y11085873D01*
X36200024Y11057663D01*
X36217226Y11025481D01*
X36227819Y10990562D01*
X36232000Y10948105D01*
X36232000Y9806895D01*
X36227819Y9764438D01*
X36217226Y9729519D01*
X36200024Y9697337D01*
X36176873Y9669127D01*
X36148663Y9645976D01*
X36116481Y9628774D01*
X36081562Y9618181D01*
X36039105Y9614000D01*
X34572895Y9614000D01*
X34530438Y9618181D01*
X34495519Y9628774D01*
X34463337Y9645976D01*
X34435127Y9669127D01*
X34411976Y9697337D01*
X34394774Y9729519D01*
X34384181Y9764438D01*
X34380000Y9806895D01*
X34380000Y10948105D01*
X34384181Y10990562D01*
X34394774Y11025481D01*
X34411976Y11057663D01*
X34435127Y11085873D01*
X34463337Y11109024D01*
X34495519Y11126226D01*
X34530438Y11136819D01*
X34572895Y11141000D01*
X36039105Y11141000D01*
X36081562Y11136819D01*
X36081562Y11136819D01*
G37*
G36*
X33541562Y11136819D02*
G01*
X33576481Y11126226D01*
X33608663Y11109024D01*
X33636873Y11085873D01*
X33660024Y11057663D01*
X33677226Y11025481D01*
X33687819Y10990562D01*
X33692000Y10948105D01*
X33692000Y9806895D01*
X33687819Y9764438D01*
X33677226Y9729519D01*
X33660024Y9697337D01*
X33636873Y9669127D01*
X33608663Y9645976D01*
X33576481Y9628774D01*
X33541562Y9618181D01*
X33499105Y9614000D01*
X32032895Y9614000D01*
X31990438Y9618181D01*
X31955519Y9628774D01*
X31923337Y9645976D01*
X31895127Y9669127D01*
X31871976Y9697337D01*
X31854774Y9729519D01*
X31844181Y9764438D01*
X31840000Y9806895D01*
X31840000Y10948105D01*
X31844181Y10990562D01*
X31854774Y11025481D01*
X31871976Y11057663D01*
X31895127Y11085873D01*
X31923337Y11109024D01*
X31955519Y11126226D01*
X31990438Y11136819D01*
X32032895Y11141000D01*
X33499105Y11141000D01*
X33541562Y11136819D01*
X33541562Y11136819D01*
G37*
G36*
X50245674Y10924935D02*
G01*
X50283367Y10913501D01*
X50318103Y10894934D01*
X50348548Y10869948D01*
X50373534Y10839503D01*
X50392101Y10804767D01*
X50403535Y10767074D01*
X50408000Y10721739D01*
X50408000Y9885061D01*
X50403535Y9839726D01*
X50392101Y9802033D01*
X50373534Y9767297D01*
X50348548Y9736852D01*
X50318103Y9711866D01*
X50283367Y9693299D01*
X50245674Y9681865D01*
X50200339Y9677400D01*
X49113661Y9677400D01*
X49068326Y9681865D01*
X49030633Y9693299D01*
X48995897Y9711866D01*
X48965452Y9736852D01*
X48940466Y9767297D01*
X48921899Y9802033D01*
X48910465Y9839726D01*
X48906000Y9885061D01*
X48906000Y10721739D01*
X48910465Y10767074D01*
X48921899Y10804767D01*
X48940466Y10839503D01*
X48965452Y10869948D01*
X48995897Y10894934D01*
X49030633Y10913501D01*
X49068326Y10924935D01*
X49113661Y10929400D01*
X50200339Y10929400D01*
X50245674Y10924935D01*
X50245674Y10924935D01*
G37*
G36*
X62340442Y11562482D02*
G01*
X62406627Y11555963D01*
X62576466Y11504443D01*
X62732991Y11420778D01*
X62768729Y11391448D01*
X62870186Y11308186D01*
X62944363Y11217800D01*
X62982778Y11170991D01*
X63066443Y11014466D01*
X63117963Y10844627D01*
X63135359Y10668000D01*
X63117963Y10491373D01*
X63066443Y10321534D01*
X62982778Y10165009D01*
X62964777Y10143075D01*
X62870186Y10027814D01*
X62774848Y9949573D01*
X62732991Y9915222D01*
X62576466Y9831557D01*
X62406627Y9780037D01*
X62340443Y9773519D01*
X62274260Y9767000D01*
X62185740Y9767000D01*
X62119557Y9773519D01*
X62053373Y9780037D01*
X61883534Y9831557D01*
X61727009Y9915222D01*
X61685152Y9949573D01*
X61589814Y10027814D01*
X61495223Y10143075D01*
X61477222Y10165009D01*
X61393557Y10321534D01*
X61342037Y10491373D01*
X61324641Y10668000D01*
X61342037Y10844627D01*
X61393557Y11014466D01*
X61477222Y11170991D01*
X61515637Y11217800D01*
X61589814Y11308186D01*
X61691271Y11391448D01*
X61727009Y11420778D01*
X61883534Y11504443D01*
X62053373Y11555963D01*
X62119558Y11562482D01*
X62185740Y11569000D01*
X62274260Y11569000D01*
X62340442Y11562482D01*
X62340442Y11562482D01*
G37*
G36*
X39577674Y11171535D02*
G01*
X39615367Y11160101D01*
X39650103Y11141534D01*
X39680548Y11116548D01*
X39705534Y11086103D01*
X39724101Y11051367D01*
X39735535Y11013674D01*
X39740000Y10968339D01*
X39740000Y10131661D01*
X39735535Y10086326D01*
X39724101Y10048633D01*
X39705534Y10013897D01*
X39680548Y9983452D01*
X39650103Y9958466D01*
X39615367Y9939899D01*
X39577674Y9928465D01*
X39532339Y9924000D01*
X38445661Y9924000D01*
X38400326Y9928465D01*
X38362633Y9939899D01*
X38327897Y9958466D01*
X38297452Y9983452D01*
X38272466Y10013897D01*
X38253899Y10048633D01*
X38242465Y10086326D01*
X38238000Y10131661D01*
X38238000Y10968339D01*
X38242465Y11013674D01*
X38253899Y11051367D01*
X38272466Y11086103D01*
X38297452Y11116548D01*
X38327897Y11141534D01*
X38362633Y11160101D01*
X38400326Y11171535D01*
X38445661Y11176000D01*
X39532339Y11176000D01*
X39577674Y11171535D01*
X39577674Y11171535D01*
G37*
G36*
X41990674Y11171535D02*
G01*
X42028367Y11160101D01*
X42063103Y11141534D01*
X42093548Y11116548D01*
X42118534Y11086103D01*
X42137101Y11051367D01*
X42148535Y11013674D01*
X42153000Y10968339D01*
X42153000Y10131661D01*
X42148535Y10086326D01*
X42137101Y10048633D01*
X42118534Y10013897D01*
X42093548Y9983452D01*
X42063103Y9958466D01*
X42028367Y9939899D01*
X41990674Y9928465D01*
X41945339Y9924000D01*
X40858661Y9924000D01*
X40813326Y9928465D01*
X40775633Y9939899D01*
X40740897Y9958466D01*
X40710452Y9983452D01*
X40685466Y10013897D01*
X40666899Y10048633D01*
X40655465Y10086326D01*
X40651000Y10131661D01*
X40651000Y10968339D01*
X40655465Y11013674D01*
X40666899Y11051367D01*
X40685466Y11086103D01*
X40710452Y11116548D01*
X40740897Y11141534D01*
X40775633Y11160101D01*
X40813326Y11171535D01*
X40858661Y11176000D01*
X41945339Y11176000D01*
X41990674Y11171535D01*
X41990674Y11171535D01*
G37*
G36*
X54574300Y10267800D02*
G01*
X53572300Y10267800D01*
X53572300Y11169800D01*
X54574300Y11169800D01*
X54574300Y10267800D01*
X54574300Y10267800D01*
G37*
G36*
X52574300Y11217800D02*
G01*
X51572300Y11217800D01*
X51572300Y12119800D01*
X52574300Y12119800D01*
X52574300Y11217800D01*
X52574300Y11217800D01*
G37*
G36*
X50245674Y12974935D02*
G01*
X50283367Y12963501D01*
X50318103Y12944934D01*
X50348548Y12919948D01*
X50373534Y12889503D01*
X50392101Y12854767D01*
X50403535Y12817074D01*
X50408000Y12771739D01*
X50408000Y11935061D01*
X50403535Y11889726D01*
X50392101Y11852033D01*
X50373534Y11817297D01*
X50348548Y11786852D01*
X50318103Y11761866D01*
X50283367Y11743299D01*
X50245674Y11731865D01*
X50200339Y11727400D01*
X49113661Y11727400D01*
X49068326Y11731865D01*
X49030633Y11743299D01*
X48995897Y11761866D01*
X48965452Y11786852D01*
X48940466Y11817297D01*
X48921899Y11852033D01*
X48910465Y11889726D01*
X48906000Y11935061D01*
X48906000Y12771739D01*
X48910465Y12817074D01*
X48921899Y12854767D01*
X48940466Y12889503D01*
X48965452Y12919948D01*
X48995897Y12944934D01*
X49030633Y12963501D01*
X49068326Y12974935D01*
X49113661Y12979400D01*
X50200339Y12979400D01*
X50245674Y12974935D01*
X50245674Y12974935D01*
G37*
G36*
X47689362Y13499019D02*
G01*
X47724281Y13488426D01*
X47756463Y13471224D01*
X47784673Y13448073D01*
X47807824Y13419863D01*
X47825026Y13387681D01*
X47835619Y13352762D01*
X47839800Y13310305D01*
X47839800Y12169095D01*
X47835619Y12126638D01*
X47825026Y12091719D01*
X47807824Y12059537D01*
X47784673Y12031327D01*
X47756463Y12008176D01*
X47724281Y11990974D01*
X47689362Y11980381D01*
X47646905Y11976200D01*
X46180695Y11976200D01*
X46138238Y11980381D01*
X46103319Y11990974D01*
X46071137Y12008176D01*
X46042927Y12031327D01*
X46019776Y12059537D01*
X46002574Y12091719D01*
X45991981Y12126638D01*
X45987800Y12169095D01*
X45987800Y13310305D01*
X45991981Y13352762D01*
X46002574Y13387681D01*
X46019776Y13419863D01*
X46042927Y13448073D01*
X46071137Y13471224D01*
X46103319Y13488426D01*
X46138238Y13499019D01*
X46180695Y13503200D01*
X47646905Y13503200D01*
X47689362Y13499019D01*
X47689362Y13499019D01*
G37*
G36*
X63131000Y12307000D02*
G01*
X61329000Y12307000D01*
X61329000Y14109000D01*
X63131000Y14109000D01*
X63131000Y12307000D01*
X63131000Y12307000D01*
G37*
G36*
X34497674Y13566535D02*
G01*
X34535367Y13555101D01*
X34570103Y13536534D01*
X34600548Y13511548D01*
X34625534Y13481103D01*
X34644101Y13446367D01*
X34655535Y13408674D01*
X34660000Y13363339D01*
X34660000Y12526661D01*
X34655535Y12481326D01*
X34644101Y12443633D01*
X34625534Y12408897D01*
X34600548Y12378452D01*
X34570103Y12353466D01*
X34535367Y12334899D01*
X34497674Y12323465D01*
X34452339Y12319000D01*
X33365661Y12319000D01*
X33320326Y12323465D01*
X33282633Y12334899D01*
X33247897Y12353466D01*
X33217452Y12378452D01*
X33192466Y12408897D01*
X33173899Y12443633D01*
X33162465Y12481326D01*
X33158000Y12526661D01*
X33158000Y13363339D01*
X33162465Y13408674D01*
X33173899Y13446367D01*
X33192466Y13481103D01*
X33217452Y13511548D01*
X33247897Y13536534D01*
X33282633Y13555101D01*
X33320326Y13566535D01*
X33365661Y13571000D01*
X34452339Y13571000D01*
X34497674Y13566535D01*
X34497674Y13566535D01*
G37*
G36*
X24698000Y12901000D02*
G01*
X22596000Y12901000D01*
X22596000Y14503000D01*
X24698000Y14503000D01*
X24698000Y12901000D01*
X24698000Y12901000D01*
G37*
G36*
X38994928Y14985236D02*
G01*
X39016009Y14978840D01*
X39035445Y14968452D01*
X39052476Y14954476D01*
X39066452Y14937445D01*
X39076840Y14918009D01*
X39083236Y14896928D01*
X39086000Y14868860D01*
X39086000Y13255140D01*
X39083236Y13227072D01*
X39076840Y13205991D01*
X39066452Y13186555D01*
X39052476Y13169524D01*
X39035445Y13155548D01*
X39016009Y13145160D01*
X38994928Y13138764D01*
X38966860Y13136000D01*
X38503140Y13136000D01*
X38475072Y13138764D01*
X38453991Y13145160D01*
X38434555Y13155548D01*
X38417524Y13169524D01*
X38403548Y13186555D01*
X38393160Y13205991D01*
X38386764Y13227072D01*
X38384000Y13255140D01*
X38384000Y14868860D01*
X38386764Y14896928D01*
X38393160Y14918009D01*
X38403548Y14937445D01*
X38417524Y14954476D01*
X38434555Y14968452D01*
X38453991Y14978840D01*
X38475072Y14985236D01*
X38503140Y14988000D01*
X38966860Y14988000D01*
X38994928Y14985236D01*
X38994928Y14985236D01*
G37*
G36*
X41534928Y14985236D02*
G01*
X41556009Y14978840D01*
X41575445Y14968452D01*
X41592476Y14954476D01*
X41606452Y14937445D01*
X41616840Y14918009D01*
X41623236Y14896928D01*
X41626000Y14868860D01*
X41626000Y13255140D01*
X41623236Y13227072D01*
X41616840Y13205991D01*
X41606452Y13186555D01*
X41592476Y13169524D01*
X41575445Y13155548D01*
X41556009Y13145160D01*
X41534928Y13138764D01*
X41506860Y13136000D01*
X41043140Y13136000D01*
X41015072Y13138764D01*
X40993991Y13145160D01*
X40974555Y13155548D01*
X40957524Y13169524D01*
X40943548Y13186555D01*
X40933160Y13205991D01*
X40926764Y13227072D01*
X40924000Y13255140D01*
X40924000Y14868860D01*
X40926764Y14896928D01*
X40933160Y14918009D01*
X40943548Y14937445D01*
X40957524Y14954476D01*
X40974555Y14968452D01*
X40993991Y14978840D01*
X41015072Y14985236D01*
X41043140Y14988000D01*
X41506860Y14988000D01*
X41534928Y14985236D01*
X41534928Y14985236D01*
G37*
G36*
X37724928Y14985236D02*
G01*
X37746009Y14978840D01*
X37765445Y14968452D01*
X37782476Y14954476D01*
X37796452Y14937445D01*
X37806840Y14918009D01*
X37813236Y14896928D01*
X37816000Y14868860D01*
X37816000Y13255140D01*
X37813236Y13227072D01*
X37806840Y13205991D01*
X37796452Y13186555D01*
X37782476Y13169524D01*
X37765445Y13155548D01*
X37746009Y13145160D01*
X37724928Y13138764D01*
X37696860Y13136000D01*
X37233140Y13136000D01*
X37205072Y13138764D01*
X37183991Y13145160D01*
X37164555Y13155548D01*
X37147524Y13169524D01*
X37133548Y13186555D01*
X37123160Y13205991D01*
X37116764Y13227072D01*
X37114000Y13255140D01*
X37114000Y14868860D01*
X37116764Y14896928D01*
X37123160Y14918009D01*
X37133548Y14937445D01*
X37147524Y14954476D01*
X37164555Y14968452D01*
X37183991Y14978840D01*
X37205072Y14985236D01*
X37233140Y14988000D01*
X37696860Y14988000D01*
X37724928Y14985236D01*
X37724928Y14985236D01*
G37*
G36*
X40264928Y14985236D02*
G01*
X40286009Y14978840D01*
X40305445Y14968452D01*
X40322476Y14954476D01*
X40336452Y14937445D01*
X40346840Y14918009D01*
X40353236Y14896928D01*
X40356000Y14868860D01*
X40356000Y13255140D01*
X40353236Y13227072D01*
X40346840Y13205991D01*
X40336452Y13186555D01*
X40322476Y13169524D01*
X40305445Y13155548D01*
X40286009Y13145160D01*
X40264928Y13138764D01*
X40236860Y13136000D01*
X39773140Y13136000D01*
X39745072Y13138764D01*
X39723991Y13145160D01*
X39704555Y13155548D01*
X39687524Y13169524D01*
X39673548Y13186555D01*
X39663160Y13205991D01*
X39656764Y13227072D01*
X39654000Y13255140D01*
X39654000Y14868860D01*
X39656764Y14896928D01*
X39663160Y14918009D01*
X39673548Y14937445D01*
X39687524Y14954476D01*
X39704555Y14968452D01*
X39723991Y14978840D01*
X39745072Y14985236D01*
X39773140Y14988000D01*
X40236860Y14988000D01*
X40264928Y14985236D01*
X40264928Y14985236D01*
G37*
G36*
X52283374Y14843535D02*
G01*
X52321067Y14832101D01*
X52355803Y14813534D01*
X52386248Y14788548D01*
X52411234Y14758103D01*
X52429801Y14723367D01*
X52441235Y14685674D01*
X52445700Y14640339D01*
X52445700Y13553661D01*
X52441235Y13508326D01*
X52429801Y13470633D01*
X52411234Y13435897D01*
X52386248Y13405452D01*
X52355803Y13380466D01*
X52321067Y13361899D01*
X52283374Y13350465D01*
X52238039Y13346000D01*
X51401361Y13346000D01*
X51356026Y13350465D01*
X51318333Y13361899D01*
X51283597Y13380466D01*
X51253152Y13405452D01*
X51228166Y13435897D01*
X51209599Y13470633D01*
X51198165Y13508326D01*
X51193700Y13553661D01*
X51193700Y14640339D01*
X51198165Y14685674D01*
X51209599Y14723367D01*
X51228166Y14758103D01*
X51253152Y14788548D01*
X51283597Y14813534D01*
X51318333Y14832101D01*
X51356026Y14843535D01*
X51401361Y14848000D01*
X52238039Y14848000D01*
X52283374Y14843535D01*
X52283374Y14843535D01*
G37*
G36*
X54333374Y14843535D02*
G01*
X54371067Y14832101D01*
X54405803Y14813534D01*
X54436248Y14788548D01*
X54461234Y14758103D01*
X54479801Y14723367D01*
X54491235Y14685674D01*
X54495700Y14640339D01*
X54495700Y13553661D01*
X54491235Y13508326D01*
X54479801Y13470633D01*
X54461234Y13435897D01*
X54436248Y13405452D01*
X54405803Y13380466D01*
X54371067Y13361899D01*
X54333374Y13350465D01*
X54288039Y13346000D01*
X53451361Y13346000D01*
X53406026Y13350465D01*
X53368333Y13361899D01*
X53333597Y13380466D01*
X53303152Y13405452D01*
X53278166Y13435897D01*
X53259599Y13470633D01*
X53248165Y13508326D01*
X53243700Y13553661D01*
X53243700Y14640339D01*
X53248165Y14685674D01*
X53259599Y14723367D01*
X53278166Y14758103D01*
X53303152Y14788548D01*
X53333597Y14813534D01*
X53368333Y14832101D01*
X53406026Y14843535D01*
X53451361Y14848000D01*
X54288039Y14848000D01*
X54333374Y14843535D01*
X54333374Y14843535D01*
G37*
G36*
X30998000Y14051000D02*
G01*
X28896000Y14051000D01*
X28896000Y17953000D01*
X30998000Y17953000D01*
X30998000Y14051000D01*
X30998000Y14051000D01*
G37*
G36*
X34497674Y15616535D02*
G01*
X34535367Y15605101D01*
X34570103Y15586534D01*
X34600548Y15561548D01*
X34625534Y15531103D01*
X34644101Y15496367D01*
X34655535Y15458674D01*
X34660000Y15413339D01*
X34660000Y14576661D01*
X34655535Y14531326D01*
X34644101Y14493633D01*
X34625534Y14458897D01*
X34600548Y14428452D01*
X34570103Y14403466D01*
X34535367Y14384899D01*
X34497674Y14373465D01*
X34452339Y14369000D01*
X33365661Y14369000D01*
X33320326Y14373465D01*
X33282633Y14384899D01*
X33247897Y14403466D01*
X33217452Y14428452D01*
X33192466Y14458897D01*
X33173899Y14493633D01*
X33162465Y14531326D01*
X33158000Y14576661D01*
X33158000Y15413339D01*
X33162465Y15458674D01*
X33173899Y15496367D01*
X33192466Y15531103D01*
X33217452Y15561548D01*
X33247897Y15586534D01*
X33282633Y15605101D01*
X33320326Y15616535D01*
X33365661Y15621000D01*
X34452339Y15621000D01*
X34497674Y15616535D01*
X34497674Y15616535D01*
G37*
G36*
X46827674Y16240535D02*
G01*
X46865367Y16229101D01*
X46900103Y16210534D01*
X46930548Y16185548D01*
X46955534Y16155103D01*
X46974101Y16120367D01*
X46985535Y16082674D01*
X46990000Y16037339D01*
X46990000Y14950661D01*
X46985535Y14905326D01*
X46974101Y14867633D01*
X46955534Y14832897D01*
X46930548Y14802452D01*
X46900103Y14777466D01*
X46865367Y14758899D01*
X46827674Y14747465D01*
X46782339Y14743000D01*
X45945661Y14743000D01*
X45900326Y14747465D01*
X45862633Y14758899D01*
X45827897Y14777466D01*
X45797452Y14802452D01*
X45772466Y14832897D01*
X45753899Y14867633D01*
X45742465Y14905326D01*
X45738000Y14950661D01*
X45738000Y16037339D01*
X45742465Y16082674D01*
X45753899Y16120367D01*
X45772466Y16155103D01*
X45797452Y16185548D01*
X45827897Y16210534D01*
X45862633Y16229101D01*
X45900326Y16240535D01*
X45945661Y16245000D01*
X46782339Y16245000D01*
X46827674Y16240535D01*
X46827674Y16240535D01*
G37*
G36*
X44777674Y16240535D02*
G01*
X44815367Y16229101D01*
X44850103Y16210534D01*
X44880548Y16185548D01*
X44905534Y16155103D01*
X44924101Y16120367D01*
X44935535Y16082674D01*
X44940000Y16037339D01*
X44940000Y14950661D01*
X44935535Y14905326D01*
X44924101Y14867633D01*
X44905534Y14832897D01*
X44880548Y14802452D01*
X44850103Y14777466D01*
X44815367Y14758899D01*
X44777674Y14747465D01*
X44732339Y14743000D01*
X43895661Y14743000D01*
X43850326Y14747465D01*
X43812633Y14758899D01*
X43777897Y14777466D01*
X43747452Y14802452D01*
X43722466Y14832897D01*
X43703899Y14867633D01*
X43692465Y14905326D01*
X43688000Y14950661D01*
X43688000Y16037339D01*
X43692465Y16082674D01*
X43703899Y16120367D01*
X43722466Y16155103D01*
X43747452Y16185548D01*
X43777897Y16210534D01*
X43812633Y16229101D01*
X43850326Y16240535D01*
X43895661Y16245000D01*
X44732339Y16245000D01*
X44777674Y16240535D01*
X44777674Y16240535D01*
G37*
G36*
X24698000Y15201000D02*
G01*
X22596000Y15201000D01*
X22596000Y16803000D01*
X24698000Y16803000D01*
X24698000Y15201000D01*
X24698000Y15201000D01*
G37*
G36*
X56879443Y17785481D02*
G01*
X56945627Y17778963D01*
X57115466Y17727443D01*
X57271991Y17643778D01*
X57307729Y17614448D01*
X57409186Y17531186D01*
X57492448Y17429729D01*
X57521778Y17393991D01*
X57605443Y17237466D01*
X57656963Y17067627D01*
X57674359Y16891000D01*
X57656963Y16714373D01*
X57605443Y16544534D01*
X57521778Y16388009D01*
X57492448Y16352271D01*
X57409186Y16250814D01*
X57307729Y16167552D01*
X57271991Y16138222D01*
X57115466Y16054557D01*
X56945627Y16003037D01*
X56879442Y15996518D01*
X56813260Y15990000D01*
X56724740Y15990000D01*
X56658558Y15996518D01*
X56592373Y16003037D01*
X56422534Y16054557D01*
X56266009Y16138222D01*
X56230271Y16167552D01*
X56128814Y16250814D01*
X56045552Y16352271D01*
X56016222Y16388009D01*
X55932557Y16544534D01*
X55881037Y16714373D01*
X55863641Y16891000D01*
X55881037Y17067627D01*
X55932557Y17237466D01*
X56016222Y17393991D01*
X56045552Y17429729D01*
X56128814Y17531186D01*
X56230271Y17614448D01*
X56266009Y17643778D01*
X56422534Y17727443D01*
X56592373Y17778963D01*
X56658557Y17785481D01*
X56724740Y17792000D01*
X56813260Y17792000D01*
X56879443Y17785481D01*
X56879443Y17785481D01*
G37*
G36*
X54339443Y17785481D02*
G01*
X54405627Y17778963D01*
X54575466Y17727443D01*
X54731991Y17643778D01*
X54767729Y17614448D01*
X54869186Y17531186D01*
X54952448Y17429729D01*
X54981778Y17393991D01*
X55065443Y17237466D01*
X55116963Y17067627D01*
X55134359Y16891000D01*
X55116963Y16714373D01*
X55065443Y16544534D01*
X54981778Y16388009D01*
X54952448Y16352271D01*
X54869186Y16250814D01*
X54767729Y16167552D01*
X54731991Y16138222D01*
X54575466Y16054557D01*
X54405627Y16003037D01*
X54339442Y15996518D01*
X54273260Y15990000D01*
X54184740Y15990000D01*
X54118558Y15996518D01*
X54052373Y16003037D01*
X53882534Y16054557D01*
X53726009Y16138222D01*
X53690271Y16167552D01*
X53588814Y16250814D01*
X53505552Y16352271D01*
X53476222Y16388009D01*
X53392557Y16544534D01*
X53341037Y16714373D01*
X53323641Y16891000D01*
X53341037Y17067627D01*
X53392557Y17237466D01*
X53476222Y17393991D01*
X53505552Y17429729D01*
X53588814Y17531186D01*
X53690271Y17614448D01*
X53726009Y17643778D01*
X53882534Y17727443D01*
X54052373Y17778963D01*
X54118557Y17785481D01*
X54184740Y17792000D01*
X54273260Y17792000D01*
X54339443Y17785481D01*
X54339443Y17785481D01*
G37*
G36*
X52590000Y15990000D02*
G01*
X50788000Y15990000D01*
X50788000Y17792000D01*
X52590000Y17792000D01*
X52590000Y15990000D01*
X52590000Y15990000D01*
G37*
G36*
X34497674Y17757535D02*
G01*
X34535367Y17746101D01*
X34570103Y17727534D01*
X34600548Y17702548D01*
X34625534Y17672103D01*
X34644101Y17637367D01*
X34655535Y17599674D01*
X34660000Y17554339D01*
X34660000Y16717661D01*
X34655535Y16672326D01*
X34644101Y16634633D01*
X34625534Y16599897D01*
X34600548Y16569452D01*
X34570103Y16544466D01*
X34535367Y16525899D01*
X34497674Y16514465D01*
X34452339Y16510000D01*
X33365661Y16510000D01*
X33320326Y16514465D01*
X33282633Y16525899D01*
X33247897Y16544466D01*
X33217452Y16569452D01*
X33192466Y16599897D01*
X33173899Y16634633D01*
X33162465Y16672326D01*
X33158000Y16717661D01*
X33158000Y17554339D01*
X33162465Y17599674D01*
X33173899Y17637367D01*
X33192466Y17672103D01*
X33217452Y17702548D01*
X33247897Y17727534D01*
X33282633Y17746101D01*
X33320326Y17757535D01*
X33365661Y17762000D01*
X34452339Y17762000D01*
X34497674Y17757535D01*
X34497674Y17757535D01*
G37*
G36*
X19920000Y17164000D02*
G01*
X17418000Y17164000D01*
X17418000Y19666000D01*
X19920000Y19666000D01*
X19920000Y17164000D01*
X19920000Y17164000D01*
G37*
G36*
X24698000Y17501000D02*
G01*
X22596000Y17501000D01*
X22596000Y19103000D01*
X24698000Y19103000D01*
X24698000Y17501000D01*
X24698000Y17501000D01*
G37*
G36*
X44713000Y17776000D02*
G01*
X43711000Y17776000D01*
X43711000Y18678000D01*
X44713000Y18678000D01*
X44713000Y17776000D01*
X44713000Y17776000D01*
G37*
G36*
X38994928Y20135236D02*
G01*
X39016009Y20128840D01*
X39035445Y20118452D01*
X39052476Y20104476D01*
X39066452Y20087445D01*
X39076840Y20068009D01*
X39083236Y20046928D01*
X39086000Y20018860D01*
X39086000Y18405140D01*
X39083236Y18377072D01*
X39076840Y18355991D01*
X39066452Y18336555D01*
X39052476Y18319524D01*
X39035445Y18305548D01*
X39016009Y18295160D01*
X38994928Y18288764D01*
X38966860Y18286000D01*
X38503140Y18286000D01*
X38475072Y18288764D01*
X38453991Y18295160D01*
X38434555Y18305548D01*
X38417524Y18319524D01*
X38403548Y18336555D01*
X38393160Y18355991D01*
X38386764Y18377072D01*
X38384000Y18405140D01*
X38384000Y20018860D01*
X38386764Y20046928D01*
X38393160Y20068009D01*
X38403548Y20087445D01*
X38417524Y20104476D01*
X38434555Y20118452D01*
X38453991Y20128840D01*
X38475072Y20135236D01*
X38503140Y20138000D01*
X38966860Y20138000D01*
X38994928Y20135236D01*
X38994928Y20135236D01*
G37*
G36*
X37724928Y20135236D02*
G01*
X37746009Y20128840D01*
X37765445Y20118452D01*
X37782476Y20104476D01*
X37796452Y20087445D01*
X37806840Y20068009D01*
X37813236Y20046928D01*
X37816000Y20018860D01*
X37816000Y18405140D01*
X37813236Y18377072D01*
X37806840Y18355991D01*
X37796452Y18336555D01*
X37782476Y18319524D01*
X37765445Y18305548D01*
X37746009Y18295160D01*
X37724928Y18288764D01*
X37696860Y18286000D01*
X37233140Y18286000D01*
X37205072Y18288764D01*
X37183991Y18295160D01*
X37164555Y18305548D01*
X37147524Y18319524D01*
X37133548Y18336555D01*
X37123160Y18355991D01*
X37116764Y18377072D01*
X37114000Y18405140D01*
X37114000Y20018860D01*
X37116764Y20046928D01*
X37123160Y20068009D01*
X37133548Y20087445D01*
X37147524Y20104476D01*
X37164555Y20118452D01*
X37183991Y20128840D01*
X37205072Y20135236D01*
X37233140Y20138000D01*
X37696860Y20138000D01*
X37724928Y20135236D01*
X37724928Y20135236D01*
G37*
G36*
X40264928Y20135236D02*
G01*
X40286009Y20128840D01*
X40305445Y20118452D01*
X40322476Y20104476D01*
X40336452Y20087445D01*
X40346840Y20068009D01*
X40353236Y20046928D01*
X40356000Y20018860D01*
X40356000Y18405140D01*
X40353236Y18377072D01*
X40346840Y18355991D01*
X40336452Y18336555D01*
X40322476Y18319524D01*
X40305445Y18305548D01*
X40286009Y18295160D01*
X40264928Y18288764D01*
X40236860Y18286000D01*
X39773140Y18286000D01*
X39745072Y18288764D01*
X39723991Y18295160D01*
X39704555Y18305548D01*
X39687524Y18319524D01*
X39673548Y18336555D01*
X39663160Y18355991D01*
X39656764Y18377072D01*
X39654000Y18405140D01*
X39654000Y20018860D01*
X39656764Y20046928D01*
X39663160Y20068009D01*
X39673548Y20087445D01*
X39687524Y20104476D01*
X39704555Y20118452D01*
X39723991Y20128840D01*
X39745072Y20135236D01*
X39773140Y20138000D01*
X40236860Y20138000D01*
X40264928Y20135236D01*
X40264928Y20135236D01*
G37*
G36*
X41534928Y20135236D02*
G01*
X41556009Y20128840D01*
X41575445Y20118452D01*
X41592476Y20104476D01*
X41606452Y20087445D01*
X41616840Y20068009D01*
X41623236Y20046928D01*
X41626000Y20018860D01*
X41626000Y18405140D01*
X41623236Y18377072D01*
X41616840Y18355991D01*
X41606452Y18336555D01*
X41592476Y18319524D01*
X41575445Y18305548D01*
X41556009Y18295160D01*
X41534928Y18288764D01*
X41506860Y18286000D01*
X41043140Y18286000D01*
X41015072Y18288764D01*
X40993991Y18295160D01*
X40974555Y18305548D01*
X40957524Y18319524D01*
X40943548Y18336555D01*
X40933160Y18355991D01*
X40926764Y18377072D01*
X40924000Y18405140D01*
X40924000Y20018860D01*
X40926764Y20046928D01*
X40933160Y20068009D01*
X40943548Y20087445D01*
X40957524Y20104476D01*
X40974555Y20118452D01*
X40993991Y20128840D01*
X41015072Y20135236D01*
X41043140Y20138000D01*
X41506860Y20138000D01*
X41534928Y20135236D01*
X41534928Y20135236D01*
G37*
G36*
X34497674Y19807535D02*
G01*
X34535367Y19796101D01*
X34570103Y19777534D01*
X34600548Y19752548D01*
X34625534Y19722103D01*
X34644101Y19687367D01*
X34655535Y19649674D01*
X34660000Y19604339D01*
X34660000Y18767661D01*
X34655535Y18722326D01*
X34644101Y18684633D01*
X34625534Y18649897D01*
X34600548Y18619452D01*
X34570103Y18594466D01*
X34535367Y18575899D01*
X34497674Y18564465D01*
X34452339Y18560000D01*
X33365661Y18560000D01*
X33320326Y18564465D01*
X33282633Y18575899D01*
X33247897Y18594466D01*
X33217452Y18619452D01*
X33192466Y18649897D01*
X33173899Y18684633D01*
X33162465Y18722326D01*
X33158000Y18767661D01*
X33158000Y19604339D01*
X33162465Y19649674D01*
X33173899Y19687367D01*
X33192466Y19722103D01*
X33217452Y19752548D01*
X33247897Y19777534D01*
X33282633Y19796101D01*
X33320326Y19807535D01*
X33365661Y19812000D01*
X34452339Y19812000D01*
X34497674Y19807535D01*
X34497674Y19807535D01*
G37*
G36*
X46713000Y18726000D02*
G01*
X45711000Y18726000D01*
X45711000Y19628000D01*
X46713000Y19628000D01*
X46713000Y18726000D01*
X46713000Y18726000D01*
G37*
G36*
X44713000Y19676000D02*
G01*
X43711000Y19676000D01*
X43711000Y20578000D01*
X44713000Y20578000D01*
X44713000Y19676000D01*
X44713000Y19676000D01*
G37*
G36*
X52590000Y20435000D02*
G01*
X50788000Y20435000D01*
X50788000Y22237000D01*
X52590000Y22237000D01*
X52590000Y20435000D01*
X52590000Y20435000D01*
G37*
G36*
X54339442Y22230482D02*
G01*
X54405627Y22223963D01*
X54575466Y22172443D01*
X54575468Y22172442D01*
X54636067Y22140051D01*
X54731991Y22088778D01*
X54756301Y22068827D01*
X54869186Y21976186D01*
X54952448Y21874729D01*
X54981778Y21838991D01*
X55065443Y21682466D01*
X55116963Y21512627D01*
X55134359Y21336000D01*
X55116963Y21159373D01*
X55065443Y20989534D01*
X54981778Y20833009D01*
X54970281Y20819000D01*
X54869186Y20695814D01*
X54770899Y20615153D01*
X54731991Y20583222D01*
X54575466Y20499557D01*
X54405627Y20448037D01*
X54339442Y20441518D01*
X54273260Y20435000D01*
X54184740Y20435000D01*
X54118558Y20441518D01*
X54052373Y20448037D01*
X53882534Y20499557D01*
X53726009Y20583222D01*
X53687101Y20615153D01*
X53588814Y20695814D01*
X53487719Y20819000D01*
X53476222Y20833009D01*
X53392557Y20989534D01*
X53341037Y21159373D01*
X53323641Y21336000D01*
X53341037Y21512627D01*
X53392557Y21682466D01*
X53476222Y21838991D01*
X53505552Y21874729D01*
X53588814Y21976186D01*
X53701699Y22068827D01*
X53726009Y22088778D01*
X53821933Y22140051D01*
X53882532Y22172442D01*
X53882534Y22172443D01*
X54052373Y22223963D01*
X54118558Y22230482D01*
X54184740Y22237000D01*
X54273260Y22237000D01*
X54339442Y22230482D01*
X54339442Y22230482D01*
G37*
G36*
X56879442Y22230482D02*
G01*
X56945627Y22223963D01*
X57115466Y22172443D01*
X57115468Y22172442D01*
X57176067Y22140051D01*
X57271991Y22088778D01*
X57296301Y22068827D01*
X57409186Y21976186D01*
X57492448Y21874729D01*
X57521778Y21838991D01*
X57605443Y21682466D01*
X57656963Y21512627D01*
X57674359Y21336000D01*
X57656963Y21159373D01*
X57605443Y20989534D01*
X57521778Y20833009D01*
X57510281Y20819000D01*
X57409186Y20695814D01*
X57310899Y20615153D01*
X57271991Y20583222D01*
X57115466Y20499557D01*
X56945627Y20448037D01*
X56879442Y20441518D01*
X56813260Y20435000D01*
X56724740Y20435000D01*
X56658558Y20441518D01*
X56592373Y20448037D01*
X56422534Y20499557D01*
X56266009Y20583222D01*
X56227101Y20615153D01*
X56128814Y20695814D01*
X56027719Y20819000D01*
X56016222Y20833009D01*
X55932557Y20989534D01*
X55881037Y21159373D01*
X55863641Y21336000D01*
X55881037Y21512627D01*
X55932557Y21682466D01*
X56016222Y21838991D01*
X56045552Y21874729D01*
X56128814Y21976186D01*
X56241699Y22068827D01*
X56266009Y22088778D01*
X56361933Y22140051D01*
X56422532Y22172442D01*
X56422534Y22172443D01*
X56592373Y22223963D01*
X56658558Y22230482D01*
X56724740Y22237000D01*
X56813260Y22237000D01*
X56879442Y22230482D01*
X56879442Y22230482D01*
G37*
G36*
X19111499Y21603555D02*
G01*
X19148995Y21592180D01*
X19183554Y21573708D01*
X19213847Y21548847D01*
X19238708Y21518554D01*
X19257180Y21483995D01*
X19268555Y21446499D01*
X19273000Y21401362D01*
X19273000Y20762638D01*
X19268555Y20717501D01*
X19257180Y20680005D01*
X19238708Y20645446D01*
X19213847Y20615153D01*
X19183554Y20590292D01*
X19148995Y20571820D01*
X19111499Y20560445D01*
X19066362Y20556000D01*
X18327638Y20556000D01*
X18282501Y20560445D01*
X18245005Y20571820D01*
X18210446Y20590292D01*
X18180153Y20615153D01*
X18155292Y20645446D01*
X18136820Y20680005D01*
X18125445Y20717501D01*
X18121000Y20762638D01*
X18121000Y21401362D01*
X18125445Y21446499D01*
X18136820Y21483995D01*
X18155292Y21518554D01*
X18180153Y21548847D01*
X18210446Y21573708D01*
X18245005Y21592180D01*
X18282501Y21603555D01*
X18327638Y21608000D01*
X19066362Y21608000D01*
X19111499Y21603555D01*
X19111499Y21603555D01*
G37*
G36*
X20861499Y21603555D02*
G01*
X20898995Y21592180D01*
X20933554Y21573708D01*
X20963847Y21548847D01*
X20988708Y21518554D01*
X21007180Y21483995D01*
X21018555Y21446499D01*
X21023000Y21401362D01*
X21023000Y20762638D01*
X21018555Y20717501D01*
X21007180Y20680005D01*
X20988708Y20645446D01*
X20963847Y20615153D01*
X20933554Y20590292D01*
X20898995Y20571820D01*
X20861499Y20560445D01*
X20816362Y20556000D01*
X20077638Y20556000D01*
X20032501Y20560445D01*
X19995005Y20571820D01*
X19960446Y20590292D01*
X19930153Y20615153D01*
X19905292Y20645446D01*
X19886820Y20680005D01*
X19875445Y20717501D01*
X19871000Y20762638D01*
X19871000Y21401362D01*
X19875445Y21446499D01*
X19886820Y21483995D01*
X19905292Y21518554D01*
X19930153Y21548847D01*
X19960446Y21573708D01*
X19995005Y21592180D01*
X20032501Y21603555D01*
X20077638Y21608000D01*
X20816362Y21608000D01*
X20861499Y21603555D01*
X20861499Y21603555D01*
G37*
G36*
X39443674Y22336535D02*
G01*
X39481367Y22325101D01*
X39516103Y22306534D01*
X39546548Y22281548D01*
X39571534Y22251103D01*
X39590101Y22216367D01*
X39601535Y22178674D01*
X39606000Y22133339D01*
X39606000Y21046661D01*
X39601535Y21001326D01*
X39590101Y20963633D01*
X39571534Y20928897D01*
X39546548Y20898452D01*
X39516103Y20873466D01*
X39481367Y20854899D01*
X39443674Y20843465D01*
X39398339Y20839000D01*
X38561661Y20839000D01*
X38516326Y20843465D01*
X38478633Y20854899D01*
X38443897Y20873466D01*
X38413452Y20898452D01*
X38388466Y20928897D01*
X38369899Y20963633D01*
X38358465Y21001326D01*
X38354000Y21046661D01*
X38354000Y22133339D01*
X38358465Y22178674D01*
X38369899Y22216367D01*
X38388466Y22251103D01*
X38413452Y22281548D01*
X38443897Y22306534D01*
X38478633Y22325101D01*
X38516326Y22336535D01*
X38561661Y22341000D01*
X39398339Y22341000D01*
X39443674Y22336535D01*
X39443674Y22336535D01*
G37*
G36*
X41493674Y22336535D02*
G01*
X41531367Y22325101D01*
X41566103Y22306534D01*
X41596548Y22281548D01*
X41621534Y22251103D01*
X41640101Y22216367D01*
X41651535Y22178674D01*
X41656000Y22133339D01*
X41656000Y21046661D01*
X41651535Y21001326D01*
X41640101Y20963633D01*
X41621534Y20928897D01*
X41596548Y20898452D01*
X41566103Y20873466D01*
X41531367Y20854899D01*
X41493674Y20843465D01*
X41448339Y20839000D01*
X40611661Y20839000D01*
X40566326Y20843465D01*
X40528633Y20854899D01*
X40493897Y20873466D01*
X40463452Y20898452D01*
X40438466Y20928897D01*
X40419899Y20963633D01*
X40408465Y21001326D01*
X40404000Y21046661D01*
X40404000Y22133339D01*
X40408465Y22178674D01*
X40419899Y22216367D01*
X40438466Y22251103D01*
X40463452Y22281548D01*
X40493897Y22306534D01*
X40528633Y22325101D01*
X40566326Y22336535D01*
X40611661Y22341000D01*
X41448339Y22341000D01*
X41493674Y22336535D01*
X41493674Y22336535D01*
G37*
G36*
X34363674Y22717535D02*
G01*
X34401367Y22706101D01*
X34436103Y22687534D01*
X34466548Y22662548D01*
X34491534Y22632103D01*
X34510101Y22597367D01*
X34521535Y22559674D01*
X34526000Y22514339D01*
X34526000Y21427661D01*
X34521535Y21382326D01*
X34510101Y21344633D01*
X34491534Y21309897D01*
X34466548Y21279452D01*
X34436103Y21254466D01*
X34401367Y21235899D01*
X34363674Y21224465D01*
X34318339Y21220000D01*
X33481661Y21220000D01*
X33436326Y21224465D01*
X33398633Y21235899D01*
X33363897Y21254466D01*
X33333452Y21279452D01*
X33308466Y21309897D01*
X33289899Y21344633D01*
X33278465Y21382326D01*
X33274000Y21427661D01*
X33274000Y22514339D01*
X33278465Y22559674D01*
X33289899Y22597367D01*
X33308466Y22632103D01*
X33333452Y22662548D01*
X33363897Y22687534D01*
X33398633Y22706101D01*
X33436326Y22717535D01*
X33481661Y22722000D01*
X34318339Y22722000D01*
X34363674Y22717535D01*
X34363674Y22717535D01*
G37*
G36*
X36413674Y22717535D02*
G01*
X36451367Y22706101D01*
X36486103Y22687534D01*
X36516548Y22662548D01*
X36541534Y22632103D01*
X36560101Y22597367D01*
X36571535Y22559674D01*
X36576000Y22514339D01*
X36576000Y21427661D01*
X36571535Y21382326D01*
X36560101Y21344633D01*
X36541534Y21309897D01*
X36516548Y21279452D01*
X36486103Y21254466D01*
X36451367Y21235899D01*
X36413674Y21224465D01*
X36368339Y21220000D01*
X35531661Y21220000D01*
X35486326Y21224465D01*
X35448633Y21235899D01*
X35413897Y21254466D01*
X35383452Y21279452D01*
X35358466Y21309897D01*
X35339899Y21344633D01*
X35328465Y21382326D01*
X35324000Y21427661D01*
X35324000Y22514339D01*
X35328465Y22559674D01*
X35339899Y22597367D01*
X35358466Y22632103D01*
X35383452Y22662548D01*
X35413897Y22687534D01*
X35448633Y22706101D01*
X35486326Y22717535D01*
X35531661Y22722000D01*
X36368339Y22722000D01*
X36413674Y22717535D01*
X36413674Y22717535D01*
G37*
G36*
X26329997Y23833949D02*
G01*
X26363652Y23823739D01*
X26394665Y23807162D01*
X26421851Y23784851D01*
X26444162Y23757665D01*
X26460739Y23726652D01*
X26470949Y23692997D01*
X26475000Y23651862D01*
X26475000Y22322138D01*
X26470949Y22281003D01*
X26460739Y22247348D01*
X26444162Y22216335D01*
X26421851Y22189149D01*
X26394665Y22166838D01*
X26363652Y22150261D01*
X26329997Y22140051D01*
X26288862Y22136000D01*
X23959138Y22136000D01*
X23918003Y22140051D01*
X23884348Y22150261D01*
X23853335Y22166838D01*
X23826149Y22189149D01*
X23803838Y22216335D01*
X23787261Y22247348D01*
X23777051Y22281003D01*
X23773000Y22322138D01*
X23773000Y23651862D01*
X23777051Y23692997D01*
X23787261Y23726652D01*
X23803838Y23757665D01*
X23826149Y23784851D01*
X23853335Y23807162D01*
X23884348Y23823739D01*
X23918003Y23833949D01*
X23959138Y23838000D01*
X26288862Y23838000D01*
X26329997Y23833949D01*
X26329997Y23833949D01*
G37*
G36*
X29929997Y23833949D02*
G01*
X29963652Y23823739D01*
X29994665Y23807162D01*
X30021851Y23784851D01*
X30044162Y23757665D01*
X30060739Y23726652D01*
X30070949Y23692997D01*
X30075000Y23651862D01*
X30075000Y22322138D01*
X30070949Y22281003D01*
X30060739Y22247348D01*
X30044162Y22216335D01*
X30021851Y22189149D01*
X29994665Y22166838D01*
X29963652Y22150261D01*
X29929997Y22140051D01*
X29888862Y22136000D01*
X27559138Y22136000D01*
X27518003Y22140051D01*
X27484348Y22150261D01*
X27453335Y22166838D01*
X27426149Y22189149D01*
X27403838Y22216335D01*
X27387261Y22247348D01*
X27377051Y22281003D01*
X27373000Y22322138D01*
X27373000Y23651862D01*
X27377051Y23692997D01*
X27387261Y23726652D01*
X27403838Y23757665D01*
X27426149Y23784851D01*
X27453335Y23807162D01*
X27484348Y23823739D01*
X27518003Y23833949D01*
X27559138Y23838000D01*
X29888862Y23838000D01*
X29929997Y23833949D01*
X29929997Y23833949D01*
G37*
G36*
X40456000Y23010000D02*
G01*
X39554000Y23010000D01*
X39554000Y24012000D01*
X40456000Y24012000D01*
X40456000Y23010000D01*
X40456000Y23010000D01*
G37*
G36*
X43955562Y24798819D02*
G01*
X43990481Y24788226D01*
X44022663Y24771024D01*
X44050873Y24747873D01*
X44074024Y24719663D01*
X44091226Y24687481D01*
X44101819Y24652562D01*
X44106000Y24610105D01*
X44106000Y23468895D01*
X44101819Y23426438D01*
X44091226Y23391519D01*
X44074024Y23359337D01*
X44050873Y23331127D01*
X44022663Y23307976D01*
X43990481Y23290774D01*
X43955562Y23280181D01*
X43913105Y23276000D01*
X42446895Y23276000D01*
X42404438Y23280181D01*
X42369519Y23290774D01*
X42337337Y23307976D01*
X42309127Y23331127D01*
X42285976Y23359337D01*
X42268774Y23391519D01*
X42258181Y23426438D01*
X42254000Y23468895D01*
X42254000Y24610105D01*
X42258181Y24652562D01*
X42268774Y24687481D01*
X42285976Y24719663D01*
X42309127Y24747873D01*
X42337337Y24771024D01*
X42369519Y24788226D01*
X42404438Y24798819D01*
X42446895Y24803000D01*
X43913105Y24803000D01*
X43955562Y24798819D01*
X43955562Y24798819D01*
G37*
G36*
X36413674Y25130535D02*
G01*
X36451367Y25119101D01*
X36486103Y25100534D01*
X36516548Y25075548D01*
X36541534Y25045103D01*
X36560101Y25010367D01*
X36571535Y24972674D01*
X36576000Y24927339D01*
X36576000Y23840661D01*
X36571535Y23795326D01*
X36560101Y23757633D01*
X36541534Y23722897D01*
X36516548Y23692452D01*
X36486103Y23667466D01*
X36451367Y23648899D01*
X36413674Y23637465D01*
X36368339Y23633000D01*
X35531661Y23633000D01*
X35486326Y23637465D01*
X35448633Y23648899D01*
X35413897Y23667466D01*
X35383452Y23692452D01*
X35358466Y23722897D01*
X35339899Y23757633D01*
X35328465Y23795326D01*
X35324000Y23840661D01*
X35324000Y24927339D01*
X35328465Y24972674D01*
X35339899Y25010367D01*
X35358466Y25045103D01*
X35383452Y25075548D01*
X35413897Y25100534D01*
X35448633Y25119101D01*
X35486326Y25130535D01*
X35531661Y25135000D01*
X36368339Y25135000D01*
X36413674Y25130535D01*
X36413674Y25130535D01*
G37*
G36*
X34363674Y25130535D02*
G01*
X34401367Y25119101D01*
X34436103Y25100534D01*
X34466548Y25075548D01*
X34491534Y25045103D01*
X34510101Y25010367D01*
X34521535Y24972674D01*
X34526000Y24927339D01*
X34526000Y23840661D01*
X34521535Y23795326D01*
X34510101Y23757633D01*
X34491534Y23722897D01*
X34466548Y23692452D01*
X34436103Y23667466D01*
X34401367Y23648899D01*
X34363674Y23637465D01*
X34318339Y23633000D01*
X33481661Y23633000D01*
X33436326Y23637465D01*
X33398633Y23648899D01*
X33363897Y23667466D01*
X33333452Y23692452D01*
X33308466Y23722897D01*
X33289899Y23757633D01*
X33278465Y23795326D01*
X33274000Y23840661D01*
X33274000Y24927339D01*
X33278465Y24972674D01*
X33289899Y25010367D01*
X33308466Y25045103D01*
X33333452Y25075548D01*
X33363897Y25100534D01*
X33398633Y25119101D01*
X33436326Y25130535D01*
X33481661Y25135000D01*
X34318339Y25135000D01*
X34363674Y25130535D01*
X34363674Y25130535D01*
G37*
G36*
X58493674Y26400535D02*
G01*
X58531367Y26389101D01*
X58566103Y26370534D01*
X58596548Y26345548D01*
X58621534Y26315103D01*
X58640101Y26280367D01*
X58651535Y26242674D01*
X58656000Y26197339D01*
X58656000Y25110661D01*
X58651535Y25065326D01*
X58640101Y25027633D01*
X58621534Y24992897D01*
X58596548Y24962452D01*
X58566103Y24937466D01*
X58531367Y24918899D01*
X58493674Y24907465D01*
X58448339Y24903000D01*
X57611661Y24903000D01*
X57566326Y24907465D01*
X57528633Y24918899D01*
X57493897Y24937466D01*
X57463452Y24962452D01*
X57438466Y24992897D01*
X57419899Y25027633D01*
X57408465Y25065326D01*
X57404000Y25110661D01*
X57404000Y26197339D01*
X57408465Y26242674D01*
X57419899Y26280367D01*
X57438466Y26315103D01*
X57463452Y26345548D01*
X57493897Y26370534D01*
X57528633Y26389101D01*
X57566326Y26400535D01*
X57611661Y26405000D01*
X58448339Y26405000D01*
X58493674Y26400535D01*
X58493674Y26400535D01*
G37*
G36*
X60543674Y26400535D02*
G01*
X60581367Y26389101D01*
X60616103Y26370534D01*
X60646548Y26345548D01*
X60671534Y26315103D01*
X60690101Y26280367D01*
X60701535Y26242674D01*
X60706000Y26197339D01*
X60706000Y25110661D01*
X60701535Y25065326D01*
X60690101Y25027633D01*
X60671534Y24992897D01*
X60646548Y24962452D01*
X60616103Y24937466D01*
X60581367Y24918899D01*
X60543674Y24907465D01*
X60498339Y24903000D01*
X59661661Y24903000D01*
X59616326Y24907465D01*
X59578633Y24918899D01*
X59543897Y24937466D01*
X59513452Y24962452D01*
X59488466Y24992897D01*
X59469899Y25027633D01*
X59458465Y25065326D01*
X59454000Y25110661D01*
X59454000Y26197339D01*
X59458465Y26242674D01*
X59469899Y26280367D01*
X59488466Y26315103D01*
X59513452Y26345548D01*
X59543897Y26370534D01*
X59578633Y26389101D01*
X59616326Y26400535D01*
X59661661Y26405000D01*
X60498339Y26405000D01*
X60543674Y26400535D01*
X60543674Y26400535D01*
G37*
G36*
X39506000Y25010000D02*
G01*
X38604000Y25010000D01*
X38604000Y26012000D01*
X39506000Y26012000D01*
X39506000Y25010000D01*
X39506000Y25010000D01*
G37*
G36*
X41406000Y25010000D02*
G01*
X40504000Y25010000D01*
X40504000Y26012000D01*
X41406000Y26012000D01*
X41406000Y25010000D01*
X41406000Y25010000D01*
G37*
G36*
X43955562Y27773819D02*
G01*
X43990481Y27763226D01*
X44022663Y27746024D01*
X44050873Y27722873D01*
X44074024Y27694663D01*
X44091226Y27662481D01*
X44101819Y27627562D01*
X44106000Y27585105D01*
X44106000Y26443895D01*
X44101819Y26401438D01*
X44091226Y26366519D01*
X44074024Y26334337D01*
X44050873Y26306127D01*
X44022663Y26282976D01*
X43990481Y26265774D01*
X43955562Y26255181D01*
X43913105Y26251000D01*
X42446895Y26251000D01*
X42404438Y26255181D01*
X42369519Y26265774D01*
X42337337Y26282976D01*
X42309127Y26306127D01*
X42285976Y26334337D01*
X42268774Y26366519D01*
X42258181Y26401438D01*
X42254000Y26443895D01*
X42254000Y27585105D01*
X42258181Y27627562D01*
X42268774Y27662481D01*
X42285976Y27694663D01*
X42309127Y27722873D01*
X42337337Y27746024D01*
X42369519Y27763226D01*
X42404438Y27773819D01*
X42446895Y27778000D01*
X43913105Y27778000D01*
X43955562Y27773819D01*
X43955562Y27773819D01*
G37*
G36*
X36275674Y27790535D02*
G01*
X36313367Y27779101D01*
X36348103Y27760534D01*
X36378548Y27735548D01*
X36403534Y27705103D01*
X36422101Y27670367D01*
X36433535Y27632674D01*
X36438000Y27587339D01*
X36438000Y26750661D01*
X36433535Y26705326D01*
X36422101Y26667633D01*
X36403534Y26632897D01*
X36378548Y26602452D01*
X36348103Y26577466D01*
X36313367Y26558899D01*
X36275674Y26547465D01*
X36230339Y26543000D01*
X35143661Y26543000D01*
X35098326Y26547465D01*
X35060633Y26558899D01*
X35025897Y26577466D01*
X34995452Y26602452D01*
X34970466Y26632897D01*
X34951899Y26667633D01*
X34940465Y26705326D01*
X34936000Y26750661D01*
X34936000Y27587339D01*
X34940465Y27632674D01*
X34951899Y27670367D01*
X34970466Y27705103D01*
X34995452Y27735548D01*
X35025897Y27760534D01*
X35060633Y27779101D01*
X35098326Y27790535D01*
X35143661Y27795000D01*
X36230339Y27795000D01*
X36275674Y27790535D01*
X36275674Y27790535D01*
G37*
G36*
X33862674Y27790535D02*
G01*
X33900367Y27779101D01*
X33935103Y27760534D01*
X33965548Y27735548D01*
X33990534Y27705103D01*
X34009101Y27670367D01*
X34020535Y27632674D01*
X34025000Y27587339D01*
X34025000Y26750661D01*
X34020535Y26705326D01*
X34009101Y26667633D01*
X33990534Y26632897D01*
X33965548Y26602452D01*
X33935103Y26577466D01*
X33900367Y26558899D01*
X33862674Y26547465D01*
X33817339Y26543000D01*
X32730661Y26543000D01*
X32685326Y26547465D01*
X32647633Y26558899D01*
X32612897Y26577466D01*
X32582452Y26602452D01*
X32557466Y26632897D01*
X32538899Y26667633D01*
X32527465Y26705326D01*
X32523000Y26750661D01*
X32523000Y27587339D01*
X32527465Y27632674D01*
X32538899Y27670367D01*
X32557466Y27705103D01*
X32582452Y27735548D01*
X32612897Y27760534D01*
X32647633Y27779101D01*
X32685326Y27790535D01*
X32730661Y27795000D01*
X33817339Y27795000D01*
X33862674Y27790535D01*
X33862674Y27790535D01*
G37*
G36*
X38210499Y27890555D02*
G01*
X38247995Y27879180D01*
X38282554Y27860708D01*
X38312847Y27835847D01*
X38337708Y27805554D01*
X38356180Y27770995D01*
X38367555Y27733499D01*
X38372000Y27688362D01*
X38372000Y26949638D01*
X38367555Y26904501D01*
X38356180Y26867005D01*
X38337708Y26832446D01*
X38312847Y26802153D01*
X38282554Y26777292D01*
X38247995Y26758820D01*
X38210499Y26747445D01*
X38165362Y26743000D01*
X37526638Y26743000D01*
X37481501Y26747445D01*
X37444005Y26758820D01*
X37409446Y26777292D01*
X37379153Y26802153D01*
X37354292Y26832446D01*
X37335820Y26867005D01*
X37324445Y26904501D01*
X37320000Y26949638D01*
X37320000Y27688362D01*
X37324445Y27733499D01*
X37335820Y27770995D01*
X37354292Y27805554D01*
X37379153Y27835847D01*
X37409446Y27860708D01*
X37444005Y27879180D01*
X37481501Y27890555D01*
X37526638Y27895000D01*
X38165362Y27895000D01*
X38210499Y27890555D01*
X38210499Y27890555D01*
G37*
G36*
X40115499Y27890555D02*
G01*
X40152995Y27879180D01*
X40187554Y27860708D01*
X40217847Y27835847D01*
X40242708Y27805554D01*
X40261180Y27770995D01*
X40272555Y27733499D01*
X40277000Y27688362D01*
X40277000Y26949638D01*
X40272555Y26904501D01*
X40261180Y26867005D01*
X40242708Y26832446D01*
X40217847Y26802153D01*
X40187554Y26777292D01*
X40152995Y26758820D01*
X40115499Y26747445D01*
X40070362Y26743000D01*
X39431638Y26743000D01*
X39386501Y26747445D01*
X39349005Y26758820D01*
X39314446Y26777292D01*
X39284153Y26802153D01*
X39259292Y26832446D01*
X39240820Y26867005D01*
X39229445Y26904501D01*
X39225000Y26949638D01*
X39225000Y27688362D01*
X39229445Y27733499D01*
X39240820Y27770995D01*
X39259292Y27805554D01*
X39284153Y27835847D01*
X39314446Y27860708D01*
X39349005Y27879180D01*
X39386501Y27890555D01*
X39431638Y27895000D01*
X40070362Y27895000D01*
X40115499Y27890555D01*
X40115499Y27890555D01*
G37*
G36*
X56820062Y29369819D02*
G01*
X56854981Y29359226D01*
X56887163Y29342024D01*
X56915373Y29318873D01*
X56938524Y29290663D01*
X56955726Y29258481D01*
X56966319Y29223562D01*
X56970500Y29181105D01*
X56970500Y27714895D01*
X56966319Y27672438D01*
X56955726Y27637519D01*
X56938524Y27605337D01*
X56915373Y27577127D01*
X56887163Y27553976D01*
X56854981Y27536774D01*
X56820062Y27526181D01*
X56777605Y27522000D01*
X55636395Y27522000D01*
X55593938Y27526181D01*
X55559019Y27536774D01*
X55526837Y27553976D01*
X55498627Y27577127D01*
X55475476Y27605337D01*
X55458274Y27637519D01*
X55447681Y27672438D01*
X55443500Y27714895D01*
X55443500Y29181105D01*
X55447681Y29223562D01*
X55458274Y29258481D01*
X55475476Y29290663D01*
X55498627Y29318873D01*
X55526837Y29342024D01*
X55559019Y29359226D01*
X55593938Y29369819D01*
X55636395Y29374000D01*
X56777605Y29374000D01*
X56820062Y29369819D01*
X56820062Y29369819D01*
G37*
G36*
X59795062Y29369819D02*
G01*
X59829981Y29359226D01*
X59862163Y29342024D01*
X59890373Y29318873D01*
X59913524Y29290663D01*
X59930726Y29258481D01*
X59941319Y29223562D01*
X59945500Y29181105D01*
X59945500Y27714895D01*
X59941319Y27672438D01*
X59930726Y27637519D01*
X59913524Y27605337D01*
X59890373Y27577127D01*
X59862163Y27553976D01*
X59829981Y27536774D01*
X59795062Y27526181D01*
X59752605Y27522000D01*
X58611395Y27522000D01*
X58568938Y27526181D01*
X58534019Y27536774D01*
X58501837Y27553976D01*
X58473627Y27577127D01*
X58450476Y27605337D01*
X58433274Y27637519D01*
X58422681Y27672438D01*
X58418500Y27714895D01*
X58418500Y29181105D01*
X58422681Y29223562D01*
X58433274Y29258481D01*
X58450476Y29290663D01*
X58473627Y29318873D01*
X58501837Y29342024D01*
X58534019Y29359226D01*
X58568938Y29369819D01*
X58611395Y29374000D01*
X59752605Y29374000D01*
X59795062Y29369819D01*
X59795062Y29369819D01*
G37*
G36*
X38210499Y29640555D02*
G01*
X38247995Y29629180D01*
X38282554Y29610708D01*
X38312847Y29585847D01*
X38337708Y29555554D01*
X38356180Y29520995D01*
X38367555Y29483499D01*
X38372000Y29438362D01*
X38372000Y28699638D01*
X38367555Y28654501D01*
X38356180Y28617005D01*
X38337708Y28582446D01*
X38312847Y28552153D01*
X38282554Y28527292D01*
X38247995Y28508820D01*
X38210499Y28497445D01*
X38165362Y28493000D01*
X37526638Y28493000D01*
X37481501Y28497445D01*
X37444005Y28508820D01*
X37409446Y28527292D01*
X37379153Y28552153D01*
X37354292Y28582446D01*
X37335820Y28617005D01*
X37324445Y28654501D01*
X37320000Y28699638D01*
X37320000Y29438362D01*
X37324445Y29483499D01*
X37335820Y29520995D01*
X37354292Y29555554D01*
X37379153Y29585847D01*
X37409446Y29610708D01*
X37444005Y29629180D01*
X37481501Y29640555D01*
X37526638Y29645000D01*
X38165362Y29645000D01*
X38210499Y29640555D01*
X38210499Y29640555D01*
G37*
G36*
X40115499Y29640555D02*
G01*
X40152995Y29629180D01*
X40187554Y29610708D01*
X40217847Y29585847D01*
X40242708Y29555554D01*
X40261180Y29520995D01*
X40272555Y29483499D01*
X40277000Y29438362D01*
X40277000Y28699638D01*
X40272555Y28654501D01*
X40261180Y28617005D01*
X40242708Y28582446D01*
X40217847Y28552153D01*
X40187554Y28527292D01*
X40152995Y28508820D01*
X40115499Y28497445D01*
X40070362Y28493000D01*
X39431638Y28493000D01*
X39386501Y28497445D01*
X39349005Y28508820D01*
X39314446Y28527292D01*
X39284153Y28552153D01*
X39259292Y28582446D01*
X39240820Y28617005D01*
X39229445Y28654501D01*
X39225000Y28699638D01*
X39225000Y29438362D01*
X39229445Y29483499D01*
X39240820Y29520995D01*
X39259292Y29555554D01*
X39284153Y29585847D01*
X39314446Y29610708D01*
X39349005Y29629180D01*
X39386501Y29640555D01*
X39431638Y29645000D01*
X40070362Y29645000D01*
X40115499Y29640555D01*
X40115499Y29640555D01*
G37*
G36*
X36275674Y29840535D02*
G01*
X36313367Y29829101D01*
X36348103Y29810534D01*
X36378548Y29785548D01*
X36403534Y29755103D01*
X36422101Y29720367D01*
X36433535Y29682674D01*
X36438000Y29637339D01*
X36438000Y28800661D01*
X36433535Y28755326D01*
X36422101Y28717633D01*
X36403534Y28682897D01*
X36378548Y28652452D01*
X36348103Y28627466D01*
X36313367Y28608899D01*
X36275674Y28597465D01*
X36230339Y28593000D01*
X35143661Y28593000D01*
X35098326Y28597465D01*
X35060633Y28608899D01*
X35025897Y28627466D01*
X34995452Y28652452D01*
X34970466Y28682897D01*
X34951899Y28717633D01*
X34940465Y28755326D01*
X34936000Y28800661D01*
X34936000Y29637339D01*
X34940465Y29682674D01*
X34951899Y29720367D01*
X34970466Y29755103D01*
X34995452Y29785548D01*
X35025897Y29810534D01*
X35060633Y29829101D01*
X35098326Y29840535D01*
X35143661Y29845000D01*
X36230339Y29845000D01*
X36275674Y29840535D01*
X36275674Y29840535D01*
G37*
G36*
X33862674Y29840535D02*
G01*
X33900367Y29829101D01*
X33935103Y29810534D01*
X33965548Y29785548D01*
X33990534Y29755103D01*
X34009101Y29720367D01*
X34020535Y29682674D01*
X34025000Y29637339D01*
X34025000Y28800661D01*
X34020535Y28755326D01*
X34009101Y28717633D01*
X33990534Y28682897D01*
X33965548Y28652452D01*
X33935103Y28627466D01*
X33900367Y28608899D01*
X33862674Y28597465D01*
X33817339Y28593000D01*
X32730661Y28593000D01*
X32685326Y28597465D01*
X32647633Y28608899D01*
X32612897Y28627466D01*
X32582452Y28652452D01*
X32557466Y28682897D01*
X32538899Y28717633D01*
X32527465Y28755326D01*
X32523000Y28800661D01*
X32523000Y29637339D01*
X32527465Y29682674D01*
X32538899Y29720367D01*
X32557466Y29755103D01*
X32582452Y29785548D01*
X32612897Y29810534D01*
X32647633Y29829101D01*
X32685326Y29840535D01*
X32730661Y29845000D01*
X33817339Y29845000D01*
X33862674Y29840535D01*
X33862674Y29840535D01*
G37*
G36*
X27939585Y31845198D02*
G01*
X28089410Y31815396D01*
X28371674Y31698479D01*
X28625705Y31528741D01*
X28841741Y31312705D01*
X29011479Y31058674D01*
X29128396Y30776410D01*
X29188000Y30476760D01*
X29188000Y30171240D01*
X29128396Y29871590D01*
X29011479Y29589326D01*
X28841741Y29335295D01*
X28625705Y29119259D01*
X28371674Y28949521D01*
X28089410Y28832604D01*
X27939585Y28802802D01*
X27789761Y28773000D01*
X27484239Y28773000D01*
X27334415Y28802802D01*
X27184590Y28832604D01*
X26902326Y28949521D01*
X26648295Y29119259D01*
X26432259Y29335295D01*
X26262521Y29589326D01*
X26145604Y29871590D01*
X26086000Y30171240D01*
X26086000Y30476760D01*
X26145604Y30776410D01*
X26262521Y31058674D01*
X26432259Y31312705D01*
X26648295Y31528741D01*
X26902326Y31698479D01*
X27184590Y31815396D01*
X27334415Y31845198D01*
X27484239Y31875000D01*
X27789761Y31875000D01*
X27939585Y31845198D01*
X27939585Y31845198D01*
G37*
G36*
X5939585Y31845198D02*
G01*
X6089410Y31815396D01*
X6371674Y31698479D01*
X6625705Y31528741D01*
X6841741Y31312705D01*
X7011479Y31058674D01*
X7128396Y30776410D01*
X7188000Y30476760D01*
X7188000Y30171240D01*
X7128396Y29871590D01*
X7011479Y29589326D01*
X6841741Y29335295D01*
X6625705Y29119259D01*
X6371674Y28949521D01*
X6089410Y28832604D01*
X5939585Y28802802D01*
X5789761Y28773000D01*
X5484239Y28773000D01*
X5334415Y28802802D01*
X5184590Y28832604D01*
X4902326Y28949521D01*
X4648295Y29119259D01*
X4432259Y29335295D01*
X4262521Y29589326D01*
X4145604Y29871590D01*
X4086000Y30171240D01*
X4086000Y30476760D01*
X4145604Y30776410D01*
X4262521Y31058674D01*
X4432259Y31312705D01*
X4648295Y31528741D01*
X4902326Y31698479D01*
X5184590Y31815396D01*
X5334415Y31845198D01*
X5484239Y31875000D01*
X5789761Y31875000D01*
X5939585Y31845198D01*
X5939585Y31845198D01*
G37*
G36*
X62467443Y31628481D02*
G01*
X62533627Y31621963D01*
X62703466Y31570443D01*
X62859991Y31486778D01*
X62895729Y31457448D01*
X62997186Y31374186D01*
X63047641Y31312705D01*
X63109778Y31236991D01*
X63193443Y31080466D01*
X63244963Y30910627D01*
X63262359Y30734000D01*
X63244963Y30557373D01*
X63193443Y30387534D01*
X63109778Y30231009D01*
X63080448Y30195271D01*
X62997186Y30093814D01*
X62895729Y30010552D01*
X62859991Y29981222D01*
X62703466Y29897557D01*
X62533627Y29846037D01*
X62477763Y29840535D01*
X62401260Y29833000D01*
X62312740Y29833000D01*
X62236237Y29840535D01*
X62180373Y29846037D01*
X62010534Y29897557D01*
X61854009Y29981222D01*
X61818271Y30010552D01*
X61716814Y30093814D01*
X61633552Y30195271D01*
X61604222Y30231009D01*
X61520557Y30387534D01*
X61469037Y30557373D01*
X61451641Y30734000D01*
X61469037Y30910627D01*
X61520557Y31080466D01*
X61604222Y31236991D01*
X61666359Y31312705D01*
X61716814Y31374186D01*
X61818271Y31457448D01*
X61854009Y31486778D01*
X62010534Y31570443D01*
X62180373Y31621963D01*
X62246557Y31628481D01*
X62312740Y31635000D01*
X62401260Y31635000D01*
X62467443Y31628481D01*
X62467443Y31628481D01*
G37*
G36*
X34176562Y32545819D02*
G01*
X34211481Y32535226D01*
X34243663Y32518024D01*
X34271873Y32494873D01*
X34295024Y32466663D01*
X34312226Y32434481D01*
X34322819Y32399562D01*
X34327000Y32357105D01*
X34327000Y31215895D01*
X34322819Y31173438D01*
X34312226Y31138519D01*
X34295024Y31106337D01*
X34271873Y31078127D01*
X34243663Y31054976D01*
X34211481Y31037774D01*
X34176562Y31027181D01*
X34134105Y31023000D01*
X32667895Y31023000D01*
X32625438Y31027181D01*
X32590519Y31037774D01*
X32558337Y31054976D01*
X32530127Y31078127D01*
X32506976Y31106337D01*
X32489774Y31138519D01*
X32479181Y31173438D01*
X32475000Y31215895D01*
X32475000Y32357105D01*
X32479181Y32399562D01*
X32489774Y32434481D01*
X32506976Y32466663D01*
X32530127Y32494873D01*
X32558337Y32518024D01*
X32590519Y32535226D01*
X32625438Y32545819D01*
X32667895Y32550000D01*
X34134105Y32550000D01*
X34176562Y32545819D01*
X34176562Y32545819D01*
G37*
G36*
X44899562Y34195819D02*
G01*
X44934481Y34185226D01*
X44966663Y34168024D01*
X44994873Y34144873D01*
X45018024Y34116663D01*
X45035226Y34084481D01*
X45045819Y34049562D01*
X45050000Y34007105D01*
X45050000Y32540895D01*
X45045819Y32498438D01*
X45035226Y32463519D01*
X45018024Y32431337D01*
X44994873Y32403127D01*
X44966663Y32379976D01*
X44934481Y32362774D01*
X44899562Y32352181D01*
X44857105Y32348000D01*
X43715895Y32348000D01*
X43673438Y32352181D01*
X43638519Y32362774D01*
X43606337Y32379976D01*
X43578127Y32403127D01*
X43554976Y32431337D01*
X43537774Y32463519D01*
X43527181Y32498438D01*
X43523000Y32540895D01*
X43523000Y34007105D01*
X43527181Y34049562D01*
X43537774Y34084481D01*
X43554976Y34116663D01*
X43578127Y34144873D01*
X43606337Y34168024D01*
X43638519Y34185226D01*
X43673438Y34195819D01*
X43715895Y34200000D01*
X44857105Y34200000D01*
X44899562Y34195819D01*
X44899562Y34195819D01*
G37*
G36*
X41924562Y34195819D02*
G01*
X41959481Y34185226D01*
X41991663Y34168024D01*
X42019873Y34144873D01*
X42043024Y34116663D01*
X42060226Y34084481D01*
X42070819Y34049562D01*
X42075000Y34007105D01*
X42075000Y32540895D01*
X42070819Y32498438D01*
X42060226Y32463519D01*
X42043024Y32431337D01*
X42019873Y32403127D01*
X41991663Y32379976D01*
X41959481Y32362774D01*
X41924562Y32352181D01*
X41882105Y32348000D01*
X40740895Y32348000D01*
X40698438Y32352181D01*
X40663519Y32362774D01*
X40631337Y32379976D01*
X40603127Y32403127D01*
X40579976Y32431337D01*
X40562774Y32463519D01*
X40552181Y32498438D01*
X40548000Y32540895D01*
X40548000Y34007105D01*
X40552181Y34049562D01*
X40562774Y34084481D01*
X40579976Y34116663D01*
X40603127Y34144873D01*
X40631337Y34168024D01*
X40663519Y34185226D01*
X40698438Y34195819D01*
X40740895Y34200000D01*
X41882105Y34200000D01*
X41924562Y34195819D01*
X41924562Y34195819D01*
G37*
G36*
X50529443Y34168481D02*
G01*
X50595627Y34161963D01*
X50765466Y34110443D01*
X50921991Y34026778D01*
X50943530Y34009101D01*
X51059186Y33914186D01*
X51138665Y33817339D01*
X51171778Y33776991D01*
X51255443Y33620466D01*
X51306963Y33450627D01*
X51324359Y33274000D01*
X51306963Y33097373D01*
X51255443Y32927534D01*
X51171778Y32771009D01*
X51156543Y32752445D01*
X51059186Y32633814D01*
X50966154Y32557466D01*
X50921991Y32521222D01*
X50765466Y32437557D01*
X50595627Y32386037D01*
X50534088Y32379976D01*
X50463260Y32373000D01*
X50374740Y32373000D01*
X50303912Y32379976D01*
X50242373Y32386037D01*
X50072534Y32437557D01*
X49916009Y32521222D01*
X49871846Y32557466D01*
X49778814Y32633814D01*
X49681457Y32752445D01*
X49666222Y32771009D01*
X49582557Y32927534D01*
X49531037Y33097373D01*
X49513641Y33274000D01*
X49531037Y33450627D01*
X49582557Y33620466D01*
X49666222Y33776991D01*
X49699335Y33817339D01*
X49778814Y33914186D01*
X49894470Y34009101D01*
X49916009Y34026778D01*
X50072534Y34110443D01*
X50242373Y34161963D01*
X50308558Y34168482D01*
X50374740Y34175000D01*
X50463260Y34175000D01*
X50529443Y34168481D01*
X50529443Y34168481D01*
G37*
G36*
X47989443Y34168481D02*
G01*
X48055627Y34161963D01*
X48225466Y34110443D01*
X48381991Y34026778D01*
X48403530Y34009101D01*
X48519186Y33914186D01*
X48598665Y33817339D01*
X48631778Y33776991D01*
X48715443Y33620466D01*
X48766963Y33450627D01*
X48784359Y33274000D01*
X48766963Y33097373D01*
X48715443Y32927534D01*
X48631778Y32771009D01*
X48616543Y32752445D01*
X48519186Y32633814D01*
X48426154Y32557466D01*
X48381991Y32521222D01*
X48225466Y32437557D01*
X48055627Y32386037D01*
X47994088Y32379976D01*
X47923260Y32373000D01*
X47834740Y32373000D01*
X47763912Y32379976D01*
X47702373Y32386037D01*
X47532534Y32437557D01*
X47376009Y32521222D01*
X47331846Y32557466D01*
X47238814Y32633814D01*
X47141457Y32752445D01*
X47126222Y32771009D01*
X47042557Y32927534D01*
X46991037Y33097373D01*
X46973641Y33274000D01*
X46991037Y33450627D01*
X47042557Y33620466D01*
X47126222Y33776991D01*
X47159335Y33817339D01*
X47238814Y33914186D01*
X47354470Y34009101D01*
X47376009Y34026778D01*
X47532534Y34110443D01*
X47702373Y34161963D01*
X47768558Y34168482D01*
X47834740Y34175000D01*
X47923260Y34175000D01*
X47989443Y34168481D01*
X47989443Y34168481D01*
G37*
G36*
X62467443Y34168481D02*
G01*
X62533627Y34161963D01*
X62703466Y34110443D01*
X62859991Y34026778D01*
X62881530Y34009101D01*
X62997186Y33914186D01*
X63076665Y33817339D01*
X63109778Y33776991D01*
X63193443Y33620466D01*
X63244963Y33450627D01*
X63262359Y33274000D01*
X63244963Y33097373D01*
X63193443Y32927534D01*
X63109778Y32771009D01*
X63094543Y32752445D01*
X62997186Y32633814D01*
X62904154Y32557466D01*
X62859991Y32521222D01*
X62703466Y32437557D01*
X62533627Y32386037D01*
X62472088Y32379976D01*
X62401260Y32373000D01*
X62312740Y32373000D01*
X62241912Y32379976D01*
X62180373Y32386037D01*
X62010534Y32437557D01*
X61854009Y32521222D01*
X61809846Y32557466D01*
X61716814Y32633814D01*
X61619457Y32752445D01*
X61604222Y32771009D01*
X61520557Y32927534D01*
X61469037Y33097373D01*
X61451641Y33274000D01*
X61469037Y33450627D01*
X61520557Y33620466D01*
X61604222Y33776991D01*
X61637335Y33817339D01*
X61716814Y33914186D01*
X61832470Y34009101D01*
X61854009Y34026778D01*
X62010534Y34110443D01*
X62180373Y34161963D01*
X62246558Y34168482D01*
X62312740Y34175000D01*
X62401260Y34175000D01*
X62467443Y34168481D01*
X62467443Y34168481D01*
G37*
G36*
X37665674Y34020535D02*
G01*
X37703367Y34009101D01*
X37738103Y33990534D01*
X37768548Y33965548D01*
X37793534Y33935103D01*
X37812101Y33900367D01*
X37823535Y33862674D01*
X37828000Y33817339D01*
X37828000Y32730661D01*
X37823535Y32685326D01*
X37812101Y32647633D01*
X37793534Y32612897D01*
X37768548Y32582452D01*
X37738103Y32557466D01*
X37703367Y32538899D01*
X37665674Y32527465D01*
X37620339Y32523000D01*
X36783661Y32523000D01*
X36738326Y32527465D01*
X36700633Y32538899D01*
X36665897Y32557466D01*
X36635452Y32582452D01*
X36610466Y32612897D01*
X36591899Y32647633D01*
X36580465Y32685326D01*
X36576000Y32730661D01*
X36576000Y33817339D01*
X36580465Y33862674D01*
X36591899Y33900367D01*
X36610466Y33935103D01*
X36635452Y33965548D01*
X36665897Y33990534D01*
X36700633Y34009101D01*
X36738326Y34020535D01*
X36783661Y34025000D01*
X37620339Y34025000D01*
X37665674Y34020535D01*
X37665674Y34020535D01*
G37*
G36*
X39715674Y34020535D02*
G01*
X39753367Y34009101D01*
X39788103Y33990534D01*
X39818548Y33965548D01*
X39843534Y33935103D01*
X39862101Y33900367D01*
X39873535Y33862674D01*
X39878000Y33817339D01*
X39878000Y32730661D01*
X39873535Y32685326D01*
X39862101Y32647633D01*
X39843534Y32612897D01*
X39818548Y32582452D01*
X39788103Y32557466D01*
X39753367Y32538899D01*
X39715674Y32527465D01*
X39670339Y32523000D01*
X38833661Y32523000D01*
X38788326Y32527465D01*
X38750633Y32538899D01*
X38715897Y32557466D01*
X38685452Y32582452D01*
X38660466Y32612897D01*
X38641899Y32647633D01*
X38630465Y32685326D01*
X38626000Y32730661D01*
X38626000Y33817339D01*
X38630465Y33862674D01*
X38641899Y33900367D01*
X38660466Y33935103D01*
X38685452Y33965548D01*
X38715897Y33990534D01*
X38750633Y34009101D01*
X38788326Y34020535D01*
X38833661Y34025000D01*
X39670339Y34025000D01*
X39715674Y34020535D01*
X39715674Y34020535D01*
G37*
G36*
X55518499Y33795555D02*
G01*
X55555995Y33784180D01*
X55590554Y33765708D01*
X55620847Y33740847D01*
X55645708Y33710554D01*
X55664180Y33675995D01*
X55675555Y33638499D01*
X55680000Y33593362D01*
X55680000Y32954638D01*
X55675555Y32909501D01*
X55664180Y32872005D01*
X55645708Y32837446D01*
X55620847Y32807153D01*
X55590554Y32782292D01*
X55555995Y32763820D01*
X55518499Y32752445D01*
X55473362Y32748000D01*
X54734638Y32748000D01*
X54689501Y32752445D01*
X54652005Y32763820D01*
X54617446Y32782292D01*
X54587153Y32807153D01*
X54562292Y32837446D01*
X54543820Y32872005D01*
X54532445Y32909501D01*
X54528000Y32954638D01*
X54528000Y33593362D01*
X54532445Y33638499D01*
X54543820Y33675995D01*
X54562292Y33710554D01*
X54587153Y33740847D01*
X54617446Y33765708D01*
X54652005Y33784180D01*
X54689501Y33795555D01*
X54734638Y33800000D01*
X55473362Y33800000D01*
X55518499Y33795555D01*
X55518499Y33795555D01*
G37*
G36*
X53768499Y33795555D02*
G01*
X53805995Y33784180D01*
X53840554Y33765708D01*
X53870847Y33740847D01*
X53895708Y33710554D01*
X53914180Y33675995D01*
X53925555Y33638499D01*
X53930000Y33593362D01*
X53930000Y32954638D01*
X53925555Y32909501D01*
X53914180Y32872005D01*
X53895708Y32837446D01*
X53870847Y32807153D01*
X53840554Y32782292D01*
X53805995Y32763820D01*
X53768499Y32752445D01*
X53723362Y32748000D01*
X52984638Y32748000D01*
X52939501Y32752445D01*
X52902005Y32763820D01*
X52867446Y32782292D01*
X52837153Y32807153D01*
X52812292Y32837446D01*
X52793820Y32872005D01*
X52782445Y32909501D01*
X52778000Y32954638D01*
X52778000Y33593362D01*
X52782445Y33638499D01*
X52793820Y33675995D01*
X52812292Y33710554D01*
X52837153Y33740847D01*
X52867446Y33765708D01*
X52902005Y33784180D01*
X52939501Y33795555D01*
X52984638Y33800000D01*
X53723362Y33800000D01*
X53768499Y33795555D01*
X53768499Y33795555D01*
G37*
G36*
X27939585Y35845198D02*
G01*
X28089410Y35815396D01*
X28371674Y35698479D01*
X28625705Y35528741D01*
X28841741Y35312705D01*
X29011479Y35058674D01*
X29080442Y34892181D01*
X29128396Y34776409D01*
X29188000Y34476761D01*
X29188000Y34171239D01*
X29182755Y34144873D01*
X29128396Y33871590D01*
X29011479Y33589326D01*
X28841741Y33335295D01*
X28625705Y33119259D01*
X28371674Y32949521D01*
X28089410Y32832604D01*
X27961459Y32807153D01*
X27789761Y32773000D01*
X27484239Y32773000D01*
X27312541Y32807153D01*
X27184590Y32832604D01*
X26902326Y32949521D01*
X26648295Y33119259D01*
X26432259Y33335295D01*
X26262521Y33589326D01*
X26145604Y33871590D01*
X26091245Y34144873D01*
X26086000Y34171239D01*
X26086000Y34476761D01*
X26145604Y34776409D01*
X26193558Y34892181D01*
X26262521Y35058674D01*
X26432259Y35312705D01*
X26648295Y35528741D01*
X26902326Y35698479D01*
X27184590Y35815396D01*
X27334415Y35845198D01*
X27484239Y35875000D01*
X27789761Y35875000D01*
X27939585Y35845198D01*
X27939585Y35845198D01*
G37*
G36*
X5939585Y35845198D02*
G01*
X6089410Y35815396D01*
X6371674Y35698479D01*
X6625705Y35528741D01*
X6841741Y35312705D01*
X7011479Y35058674D01*
X7080442Y34892181D01*
X7128396Y34776409D01*
X7188000Y34476761D01*
X7188000Y34171239D01*
X7182755Y34144873D01*
X7128396Y33871590D01*
X7011479Y33589326D01*
X6841741Y33335295D01*
X6625705Y33119259D01*
X6371674Y32949521D01*
X6089410Y32832604D01*
X5961459Y32807153D01*
X5789761Y32773000D01*
X5484239Y32773000D01*
X5312541Y32807153D01*
X5184590Y32832604D01*
X4902326Y32949521D01*
X4648295Y33119259D01*
X4432259Y33335295D01*
X4262521Y33589326D01*
X4145604Y33871590D01*
X4091245Y34144873D01*
X4086000Y34171239D01*
X4086000Y34476761D01*
X4145604Y34776409D01*
X4193558Y34892181D01*
X4262521Y35058674D01*
X4432259Y35312705D01*
X4648295Y35528741D01*
X4902326Y35698479D01*
X5184590Y35815396D01*
X5334415Y35845198D01*
X5484239Y35875000D01*
X5789761Y35875000D01*
X5939585Y35845198D01*
X5939585Y35845198D01*
G37*
G36*
X34176562Y35520819D02*
G01*
X34211481Y35510226D01*
X34243663Y35493024D01*
X34271873Y35469873D01*
X34295024Y35441663D01*
X34312226Y35409481D01*
X34322819Y35374562D01*
X34327000Y35332105D01*
X34327000Y34190895D01*
X34322819Y34148438D01*
X34312226Y34113519D01*
X34295024Y34081337D01*
X34271873Y34053127D01*
X34243663Y34029976D01*
X34211481Y34012774D01*
X34176562Y34002181D01*
X34134105Y33998000D01*
X32667895Y33998000D01*
X32625438Y34002181D01*
X32590519Y34012774D01*
X32558337Y34029976D01*
X32530127Y34053127D01*
X32506976Y34081337D01*
X32489774Y34113519D01*
X32479181Y34148438D01*
X32475000Y34190895D01*
X32475000Y35332105D01*
X32479181Y35374562D01*
X32489774Y35409481D01*
X32506976Y35441663D01*
X32530127Y35469873D01*
X32558337Y35493024D01*
X32590519Y35510226D01*
X32625438Y35520819D01*
X32667895Y35525000D01*
X34134105Y35525000D01*
X34176562Y35520819D01*
X34176562Y35520819D01*
G37*
G36*
X44899562Y36735819D02*
G01*
X44934481Y36725226D01*
X44966663Y36708024D01*
X44994873Y36684873D01*
X45018024Y36656663D01*
X45035226Y36624481D01*
X45045819Y36589562D01*
X45050000Y36547105D01*
X45050000Y35080895D01*
X45045819Y35038438D01*
X45035226Y35003519D01*
X45018024Y34971337D01*
X44994873Y34943127D01*
X44966663Y34919976D01*
X44934481Y34902774D01*
X44899562Y34892181D01*
X44857105Y34888000D01*
X43715895Y34888000D01*
X43673438Y34892181D01*
X43638519Y34902774D01*
X43606337Y34919976D01*
X43578127Y34943127D01*
X43554976Y34971337D01*
X43537774Y35003519D01*
X43527181Y35038438D01*
X43523000Y35080895D01*
X43523000Y36547105D01*
X43527181Y36589562D01*
X43537774Y36624481D01*
X43554976Y36656663D01*
X43578127Y36684873D01*
X43606337Y36708024D01*
X43638519Y36725226D01*
X43673438Y36735819D01*
X43715895Y36740000D01*
X44857105Y36740000D01*
X44899562Y36735819D01*
X44899562Y36735819D01*
G37*
G36*
X41924562Y36735819D02*
G01*
X41959481Y36725226D01*
X41991663Y36708024D01*
X42019873Y36684873D01*
X42043024Y36656663D01*
X42060226Y36624481D01*
X42070819Y36589562D01*
X42075000Y36547105D01*
X42075000Y35080895D01*
X42070819Y35038438D01*
X42060226Y35003519D01*
X42043024Y34971337D01*
X42019873Y34943127D01*
X41991663Y34919976D01*
X41959481Y34902774D01*
X41924562Y34892181D01*
X41882105Y34888000D01*
X40740895Y34888000D01*
X40698438Y34892181D01*
X40663519Y34902774D01*
X40631337Y34919976D01*
X40603127Y34943127D01*
X40579976Y34971337D01*
X40562774Y35003519D01*
X40552181Y35038438D01*
X40548000Y35080895D01*
X40548000Y36547105D01*
X40552181Y36589562D01*
X40562774Y36624481D01*
X40579976Y36656663D01*
X40603127Y36684873D01*
X40631337Y36708024D01*
X40663519Y36725226D01*
X40698438Y36735819D01*
X40740895Y36740000D01*
X41882105Y36740000D01*
X41924562Y36735819D01*
X41924562Y36735819D01*
G37*
G36*
X62467442Y36708482D02*
G01*
X62533627Y36701963D01*
X62703466Y36650443D01*
X62859991Y36566778D01*
X62868530Y36559770D01*
X62997186Y36454186D01*
X63076665Y36357339D01*
X63109778Y36316991D01*
X63193443Y36160466D01*
X63244963Y35990627D01*
X63262359Y35814000D01*
X63244963Y35637373D01*
X63193443Y35467534D01*
X63109778Y35311009D01*
X63094543Y35292445D01*
X62997186Y35173814D01*
X62904154Y35097466D01*
X62859991Y35061222D01*
X62703466Y34977557D01*
X62533627Y34926037D01*
X62472088Y34919976D01*
X62401260Y34913000D01*
X62312740Y34913000D01*
X62241912Y34919976D01*
X62180373Y34926037D01*
X62010534Y34977557D01*
X61854009Y35061222D01*
X61809846Y35097466D01*
X61716814Y35173814D01*
X61619457Y35292445D01*
X61604222Y35311009D01*
X61520557Y35467534D01*
X61469037Y35637373D01*
X61451641Y35814000D01*
X61469037Y35990627D01*
X61520557Y36160466D01*
X61604222Y36316991D01*
X61637335Y36357339D01*
X61716814Y36454186D01*
X61845470Y36559770D01*
X61854009Y36566778D01*
X62010534Y36650443D01*
X62180373Y36701963D01*
X62246558Y36708482D01*
X62312740Y36715000D01*
X62401260Y36715000D01*
X62467442Y36708482D01*
X62467442Y36708482D01*
G37*
G36*
X47989442Y36708482D02*
G01*
X48055627Y36701963D01*
X48225466Y36650443D01*
X48381991Y36566778D01*
X48390530Y36559770D01*
X48519186Y36454186D01*
X48598665Y36357339D01*
X48631778Y36316991D01*
X48715443Y36160466D01*
X48766963Y35990627D01*
X48784359Y35814000D01*
X48766963Y35637373D01*
X48715443Y35467534D01*
X48631778Y35311009D01*
X48616543Y35292445D01*
X48519186Y35173814D01*
X48426154Y35097466D01*
X48381991Y35061222D01*
X48225466Y34977557D01*
X48055627Y34926037D01*
X47994088Y34919976D01*
X47923260Y34913000D01*
X47834740Y34913000D01*
X47763912Y34919976D01*
X47702373Y34926037D01*
X47532534Y34977557D01*
X47376009Y35061222D01*
X47331846Y35097466D01*
X47238814Y35173814D01*
X47141457Y35292445D01*
X47126222Y35311009D01*
X47042557Y35467534D01*
X46991037Y35637373D01*
X46973641Y35814000D01*
X46991037Y35990627D01*
X47042557Y36160466D01*
X47126222Y36316991D01*
X47159335Y36357339D01*
X47238814Y36454186D01*
X47367470Y36559770D01*
X47376009Y36566778D01*
X47532534Y36650443D01*
X47702373Y36701963D01*
X47768558Y36708482D01*
X47834740Y36715000D01*
X47923260Y36715000D01*
X47989442Y36708482D01*
X47989442Y36708482D01*
G37*
G36*
X50529442Y36708482D02*
G01*
X50595627Y36701963D01*
X50765466Y36650443D01*
X50921991Y36566778D01*
X50930530Y36559770D01*
X51059186Y36454186D01*
X51138665Y36357339D01*
X51171778Y36316991D01*
X51255443Y36160466D01*
X51306963Y35990627D01*
X51324359Y35814000D01*
X51306963Y35637373D01*
X51255443Y35467534D01*
X51171778Y35311009D01*
X51156543Y35292445D01*
X51059186Y35173814D01*
X50966154Y35097466D01*
X50921991Y35061222D01*
X50765466Y34977557D01*
X50595627Y34926037D01*
X50534088Y34919976D01*
X50463260Y34913000D01*
X50374740Y34913000D01*
X50303912Y34919976D01*
X50242373Y34926037D01*
X50072534Y34977557D01*
X49916009Y35061222D01*
X49871846Y35097466D01*
X49778814Y35173814D01*
X49681457Y35292445D01*
X49666222Y35311009D01*
X49582557Y35467534D01*
X49531037Y35637373D01*
X49513641Y35814000D01*
X49531037Y35990627D01*
X49582557Y36160466D01*
X49666222Y36316991D01*
X49699335Y36357339D01*
X49778814Y36454186D01*
X49907470Y36559770D01*
X49916009Y36566778D01*
X50072534Y36650443D01*
X50242373Y36701963D01*
X50308558Y36708482D01*
X50374740Y36715000D01*
X50463260Y36715000D01*
X50529442Y36708482D01*
X50529442Y36708482D01*
G37*
G36*
X37665674Y36560535D02*
G01*
X37703367Y36549101D01*
X37738103Y36530534D01*
X37768548Y36505548D01*
X37793534Y36475103D01*
X37812101Y36440367D01*
X37823535Y36402674D01*
X37828000Y36357339D01*
X37828000Y35270661D01*
X37823535Y35225326D01*
X37812101Y35187633D01*
X37793534Y35152897D01*
X37768548Y35122452D01*
X37738103Y35097466D01*
X37703367Y35078899D01*
X37665674Y35067465D01*
X37620339Y35063000D01*
X36783661Y35063000D01*
X36738326Y35067465D01*
X36700633Y35078899D01*
X36665897Y35097466D01*
X36635452Y35122452D01*
X36610466Y35152897D01*
X36591899Y35187633D01*
X36580465Y35225326D01*
X36576000Y35270661D01*
X36576000Y36357339D01*
X36580465Y36402674D01*
X36591899Y36440367D01*
X36610466Y36475103D01*
X36635452Y36505548D01*
X36665897Y36530534D01*
X36700633Y36549101D01*
X36738326Y36560535D01*
X36783661Y36565000D01*
X37620339Y36565000D01*
X37665674Y36560535D01*
X37665674Y36560535D01*
G37*
G36*
X39715674Y36560535D02*
G01*
X39753367Y36549101D01*
X39788103Y36530534D01*
X39818548Y36505548D01*
X39843534Y36475103D01*
X39862101Y36440367D01*
X39873535Y36402674D01*
X39878000Y36357339D01*
X39878000Y35270661D01*
X39873535Y35225326D01*
X39862101Y35187633D01*
X39843534Y35152897D01*
X39818548Y35122452D01*
X39788103Y35097466D01*
X39753367Y35078899D01*
X39715674Y35067465D01*
X39670339Y35063000D01*
X38833661Y35063000D01*
X38788326Y35067465D01*
X38750633Y35078899D01*
X38715897Y35097466D01*
X38685452Y35122452D01*
X38660466Y35152897D01*
X38641899Y35187633D01*
X38630465Y35225326D01*
X38626000Y35270661D01*
X38626000Y36357339D01*
X38630465Y36402674D01*
X38641899Y36440367D01*
X38660466Y36475103D01*
X38685452Y36505548D01*
X38715897Y36530534D01*
X38750633Y36549101D01*
X38788326Y36560535D01*
X38833661Y36565000D01*
X39670339Y36565000D01*
X39715674Y36560535D01*
X39715674Y36560535D01*
G37*
G36*
X55518499Y36335555D02*
G01*
X55555995Y36324180D01*
X55590554Y36305708D01*
X55620847Y36280847D01*
X55645708Y36250554D01*
X55664180Y36215995D01*
X55675555Y36178499D01*
X55680000Y36133362D01*
X55680000Y35494638D01*
X55675555Y35449501D01*
X55664180Y35412005D01*
X55645708Y35377446D01*
X55620847Y35347153D01*
X55590554Y35322292D01*
X55555995Y35303820D01*
X55518499Y35292445D01*
X55473362Y35288000D01*
X54734638Y35288000D01*
X54689501Y35292445D01*
X54652005Y35303820D01*
X54617446Y35322292D01*
X54587153Y35347153D01*
X54562292Y35377446D01*
X54543820Y35412005D01*
X54532445Y35449501D01*
X54528000Y35494638D01*
X54528000Y36133362D01*
X54532445Y36178499D01*
X54543820Y36215995D01*
X54562292Y36250554D01*
X54587153Y36280847D01*
X54617446Y36305708D01*
X54652005Y36324180D01*
X54689501Y36335555D01*
X54734638Y36340000D01*
X55473362Y36340000D01*
X55518499Y36335555D01*
X55518499Y36335555D01*
G37*
G36*
X53768499Y36335555D02*
G01*
X53805995Y36324180D01*
X53840554Y36305708D01*
X53870847Y36280847D01*
X53895708Y36250554D01*
X53914180Y36215995D01*
X53925555Y36178499D01*
X53930000Y36133362D01*
X53930000Y35494638D01*
X53925555Y35449501D01*
X53914180Y35412005D01*
X53895708Y35377446D01*
X53870847Y35347153D01*
X53840554Y35322292D01*
X53805995Y35303820D01*
X53768499Y35292445D01*
X53723362Y35288000D01*
X52984638Y35288000D01*
X52939501Y35292445D01*
X52902005Y35303820D01*
X52867446Y35322292D01*
X52837153Y35347153D01*
X52812292Y35377446D01*
X52793820Y35412005D01*
X52782445Y35449501D01*
X52778000Y35494638D01*
X52778000Y36133362D01*
X52782445Y36178499D01*
X52793820Y36215995D01*
X52812292Y36250554D01*
X52837153Y36280847D01*
X52867446Y36305708D01*
X52902005Y36324180D01*
X52939501Y36335555D01*
X52984638Y36340000D01*
X53723362Y36340000D01*
X53768499Y36335555D01*
X53768499Y36335555D01*
G37*
G36*
X5939585Y39845198D02*
G01*
X6089410Y39815396D01*
X6371674Y39698479D01*
X6625705Y39528741D01*
X6841741Y39312705D01*
X7011479Y39058674D01*
X7128396Y38776410D01*
X7188000Y38476760D01*
X7188000Y38171240D01*
X7128396Y37871590D01*
X7011479Y37589326D01*
X6841741Y37335295D01*
X6625705Y37119259D01*
X6371674Y36949521D01*
X6089410Y36832604D01*
X5939585Y36802802D01*
X5789761Y36773000D01*
X5484239Y36773000D01*
X5334415Y36802802D01*
X5184590Y36832604D01*
X4902326Y36949521D01*
X4648295Y37119259D01*
X4432259Y37335295D01*
X4262521Y37589326D01*
X4145604Y37871590D01*
X4086000Y38171240D01*
X4086000Y38476760D01*
X4145604Y38776410D01*
X4262521Y39058674D01*
X4432259Y39312705D01*
X4648295Y39528741D01*
X4902326Y39698479D01*
X5184590Y39815396D01*
X5334415Y39845198D01*
X5484239Y39875000D01*
X5789761Y39875000D01*
X5939585Y39845198D01*
X5939585Y39845198D01*
G37*
G36*
X27939585Y39845198D02*
G01*
X28089410Y39815396D01*
X28371674Y39698479D01*
X28625705Y39528741D01*
X28841741Y39312705D01*
X29011479Y39058674D01*
X29128396Y38776410D01*
X29188000Y38476760D01*
X29188000Y38171240D01*
X29128396Y37871590D01*
X29011479Y37589326D01*
X28841741Y37335295D01*
X28625705Y37119259D01*
X28371674Y36949521D01*
X28089410Y36832604D01*
X27939585Y36802802D01*
X27789761Y36773000D01*
X27484239Y36773000D01*
X27334415Y36802802D01*
X27184590Y36832604D01*
X26902326Y36949521D01*
X26648295Y37119259D01*
X26432259Y37335295D01*
X26262521Y37589326D01*
X26145604Y37871590D01*
X26086000Y38171240D01*
X26086000Y38476760D01*
X26145604Y38776410D01*
X26262521Y39058674D01*
X26432259Y39312705D01*
X26648295Y39528741D01*
X26902326Y39698479D01*
X27184590Y39815396D01*
X27334415Y39845198D01*
X27484239Y39875000D01*
X27789761Y39875000D01*
X27939585Y39845198D01*
X27939585Y39845198D01*
G37*
G36*
X44899562Y39275819D02*
G01*
X44934481Y39265226D01*
X44966663Y39248024D01*
X44994873Y39224873D01*
X45018024Y39196663D01*
X45035226Y39164481D01*
X45045819Y39129562D01*
X45050000Y39087105D01*
X45050000Y37620895D01*
X45045819Y37578438D01*
X45035226Y37543519D01*
X45018024Y37511337D01*
X44994873Y37483127D01*
X44966663Y37459976D01*
X44934481Y37442774D01*
X44899562Y37432181D01*
X44857105Y37428000D01*
X43715895Y37428000D01*
X43673438Y37432181D01*
X43638519Y37442774D01*
X43606337Y37459976D01*
X43578127Y37483127D01*
X43554976Y37511337D01*
X43537774Y37543519D01*
X43527181Y37578438D01*
X43523000Y37620895D01*
X43523000Y39087105D01*
X43527181Y39129562D01*
X43537774Y39164481D01*
X43554976Y39196663D01*
X43578127Y39224873D01*
X43606337Y39248024D01*
X43638519Y39265226D01*
X43673438Y39275819D01*
X43715895Y39280000D01*
X44857105Y39280000D01*
X44899562Y39275819D01*
X44899562Y39275819D01*
G37*
G36*
X41924562Y39275819D02*
G01*
X41959481Y39265226D01*
X41991663Y39248024D01*
X42019873Y39224873D01*
X42043024Y39196663D01*
X42060226Y39164481D01*
X42070819Y39129562D01*
X42075000Y39087105D01*
X42075000Y37620895D01*
X42070819Y37578438D01*
X42060226Y37543519D01*
X42043024Y37511337D01*
X42019873Y37483127D01*
X41991663Y37459976D01*
X41959481Y37442774D01*
X41924562Y37432181D01*
X41882105Y37428000D01*
X40740895Y37428000D01*
X40698438Y37432181D01*
X40663519Y37442774D01*
X40631337Y37459976D01*
X40603127Y37483127D01*
X40579976Y37511337D01*
X40562774Y37543519D01*
X40552181Y37578438D01*
X40548000Y37620895D01*
X40548000Y39087105D01*
X40552181Y39129562D01*
X40562774Y39164481D01*
X40579976Y39196663D01*
X40603127Y39224873D01*
X40631337Y39248024D01*
X40663519Y39265226D01*
X40698438Y39275819D01*
X40740895Y39280000D01*
X41882105Y39280000D01*
X41924562Y39275819D01*
X41924562Y39275819D01*
G37*
G36*
X62467442Y39248482D02*
G01*
X62533627Y39241963D01*
X62703466Y39190443D01*
X62859991Y39106778D01*
X62868530Y39099770D01*
X62997186Y38994186D01*
X63076665Y38897339D01*
X63109778Y38856991D01*
X63193443Y38700466D01*
X63244963Y38530627D01*
X63262359Y38354000D01*
X63244963Y38177373D01*
X63193443Y38007534D01*
X63109778Y37851009D01*
X63094543Y37832445D01*
X62997186Y37713814D01*
X62904154Y37637466D01*
X62859991Y37601222D01*
X62703466Y37517557D01*
X62533627Y37466037D01*
X62472088Y37459976D01*
X62401260Y37453000D01*
X62312740Y37453000D01*
X62241912Y37459976D01*
X62180373Y37466037D01*
X62010534Y37517557D01*
X61854009Y37601222D01*
X61809846Y37637466D01*
X61716814Y37713814D01*
X61619457Y37832445D01*
X61604222Y37851009D01*
X61520557Y38007534D01*
X61469037Y38177373D01*
X61451641Y38354000D01*
X61469037Y38530627D01*
X61520557Y38700466D01*
X61604222Y38856991D01*
X61637335Y38897339D01*
X61716814Y38994186D01*
X61845470Y39099770D01*
X61854009Y39106778D01*
X62010534Y39190443D01*
X62180373Y39241963D01*
X62246557Y39248481D01*
X62312740Y39255000D01*
X62401260Y39255000D01*
X62467442Y39248482D01*
X62467442Y39248482D01*
G37*
G36*
X50529442Y39248482D02*
G01*
X50595627Y39241963D01*
X50765466Y39190443D01*
X50921991Y39106778D01*
X50930530Y39099770D01*
X51059186Y38994186D01*
X51138665Y38897339D01*
X51171778Y38856991D01*
X51255443Y38700466D01*
X51306963Y38530627D01*
X51324359Y38354000D01*
X51306963Y38177373D01*
X51255443Y38007534D01*
X51171778Y37851009D01*
X51156543Y37832445D01*
X51059186Y37713814D01*
X50966154Y37637466D01*
X50921991Y37601222D01*
X50765466Y37517557D01*
X50595627Y37466037D01*
X50534088Y37459976D01*
X50463260Y37453000D01*
X50374740Y37453000D01*
X50303912Y37459976D01*
X50242373Y37466037D01*
X50072534Y37517557D01*
X49916009Y37601222D01*
X49871846Y37637466D01*
X49778814Y37713814D01*
X49681457Y37832445D01*
X49666222Y37851009D01*
X49582557Y38007534D01*
X49531037Y38177373D01*
X49513641Y38354000D01*
X49531037Y38530627D01*
X49582557Y38700466D01*
X49666222Y38856991D01*
X49699335Y38897339D01*
X49778814Y38994186D01*
X49907470Y39099770D01*
X49916009Y39106778D01*
X50072534Y39190443D01*
X50242373Y39241963D01*
X50308557Y39248481D01*
X50374740Y39255000D01*
X50463260Y39255000D01*
X50529442Y39248482D01*
X50529442Y39248482D01*
G37*
G36*
X47989442Y39248482D02*
G01*
X48055627Y39241963D01*
X48225466Y39190443D01*
X48381991Y39106778D01*
X48390530Y39099770D01*
X48519186Y38994186D01*
X48598665Y38897339D01*
X48631778Y38856991D01*
X48715443Y38700466D01*
X48766963Y38530627D01*
X48784359Y38354000D01*
X48766963Y38177373D01*
X48715443Y38007534D01*
X48631778Y37851009D01*
X48616543Y37832445D01*
X48519186Y37713814D01*
X48426154Y37637466D01*
X48381991Y37601222D01*
X48225466Y37517557D01*
X48055627Y37466037D01*
X47994088Y37459976D01*
X47923260Y37453000D01*
X47834740Y37453000D01*
X47763912Y37459976D01*
X47702373Y37466037D01*
X47532534Y37517557D01*
X47376009Y37601222D01*
X47331846Y37637466D01*
X47238814Y37713814D01*
X47141457Y37832445D01*
X47126222Y37851009D01*
X47042557Y38007534D01*
X46991037Y38177373D01*
X46973641Y38354000D01*
X46991037Y38530627D01*
X47042557Y38700466D01*
X47126222Y38856991D01*
X47159335Y38897339D01*
X47238814Y38994186D01*
X47367470Y39099770D01*
X47376009Y39106778D01*
X47532534Y39190443D01*
X47702373Y39241963D01*
X47768557Y39248481D01*
X47834740Y39255000D01*
X47923260Y39255000D01*
X47989442Y39248482D01*
X47989442Y39248482D01*
G37*
G36*
X39715674Y39100535D02*
G01*
X39753367Y39089101D01*
X39788103Y39070534D01*
X39818548Y39045548D01*
X39843534Y39015103D01*
X39862101Y38980367D01*
X39873535Y38942674D01*
X39878000Y38897339D01*
X39878000Y37810661D01*
X39873535Y37765326D01*
X39862101Y37727633D01*
X39843534Y37692897D01*
X39818548Y37662452D01*
X39788103Y37637466D01*
X39753367Y37618899D01*
X39715674Y37607465D01*
X39670339Y37603000D01*
X38833661Y37603000D01*
X38788326Y37607465D01*
X38750633Y37618899D01*
X38715897Y37637466D01*
X38685452Y37662452D01*
X38660466Y37692897D01*
X38641899Y37727633D01*
X38630465Y37765326D01*
X38626000Y37810661D01*
X38626000Y38897339D01*
X38630465Y38942674D01*
X38641899Y38980367D01*
X38660466Y39015103D01*
X38685452Y39045548D01*
X38715897Y39070534D01*
X38750633Y39089101D01*
X38788326Y39100535D01*
X38833661Y39105000D01*
X39670339Y39105000D01*
X39715674Y39100535D01*
X39715674Y39100535D01*
G37*
G36*
X37665674Y39100535D02*
G01*
X37703367Y39089101D01*
X37738103Y39070534D01*
X37768548Y39045548D01*
X37793534Y39015103D01*
X37812101Y38980367D01*
X37823535Y38942674D01*
X37828000Y38897339D01*
X37828000Y37810661D01*
X37823535Y37765326D01*
X37812101Y37727633D01*
X37793534Y37692897D01*
X37768548Y37662452D01*
X37738103Y37637466D01*
X37703367Y37618899D01*
X37665674Y37607465D01*
X37620339Y37603000D01*
X36783661Y37603000D01*
X36738326Y37607465D01*
X36700633Y37618899D01*
X36665897Y37637466D01*
X36635452Y37662452D01*
X36610466Y37692897D01*
X36591899Y37727633D01*
X36580465Y37765326D01*
X36576000Y37810661D01*
X36576000Y38897339D01*
X36580465Y38942674D01*
X36591899Y38980367D01*
X36610466Y39015103D01*
X36635452Y39045548D01*
X36665897Y39070534D01*
X36700633Y39089101D01*
X36738326Y39100535D01*
X36783661Y39105000D01*
X37620339Y39105000D01*
X37665674Y39100535D01*
X37665674Y39100535D01*
G37*
G36*
X53768499Y38875555D02*
G01*
X53805995Y38864180D01*
X53840554Y38845708D01*
X53870847Y38820847D01*
X53895708Y38790554D01*
X53914180Y38755995D01*
X53925555Y38718499D01*
X53930000Y38673362D01*
X53930000Y38034638D01*
X53925555Y37989501D01*
X53914180Y37952005D01*
X53895708Y37917446D01*
X53870847Y37887153D01*
X53840554Y37862292D01*
X53805995Y37843820D01*
X53768499Y37832445D01*
X53723362Y37828000D01*
X52984638Y37828000D01*
X52939501Y37832445D01*
X52902005Y37843820D01*
X52867446Y37862292D01*
X52837153Y37887153D01*
X52812292Y37917446D01*
X52793820Y37952005D01*
X52782445Y37989501D01*
X52778000Y38034638D01*
X52778000Y38673362D01*
X52782445Y38718499D01*
X52793820Y38755995D01*
X52812292Y38790554D01*
X52837153Y38820847D01*
X52867446Y38845708D01*
X52902005Y38864180D01*
X52939501Y38875555D01*
X52984638Y38880000D01*
X53723362Y38880000D01*
X53768499Y38875555D01*
X53768499Y38875555D01*
G37*
G36*
X55518499Y38875555D02*
G01*
X55555995Y38864180D01*
X55590554Y38845708D01*
X55620847Y38820847D01*
X55645708Y38790554D01*
X55664180Y38755995D01*
X55675555Y38718499D01*
X55680000Y38673362D01*
X55680000Y38034638D01*
X55675555Y37989501D01*
X55664180Y37952005D01*
X55645708Y37917446D01*
X55620847Y37887153D01*
X55590554Y37862292D01*
X55555995Y37843820D01*
X55518499Y37832445D01*
X55473362Y37828000D01*
X54734638Y37828000D01*
X54689501Y37832445D01*
X54652005Y37843820D01*
X54617446Y37862292D01*
X54587153Y37887153D01*
X54562292Y37917446D01*
X54543820Y37952005D01*
X54532445Y37989501D01*
X54528000Y38034638D01*
X54528000Y38673362D01*
X54532445Y38718499D01*
X54543820Y38755995D01*
X54562292Y38790554D01*
X54587153Y38820847D01*
X54617446Y38845708D01*
X54652005Y38864180D01*
X54689501Y38875555D01*
X54734638Y38880000D01*
X55473362Y38880000D01*
X55518499Y38875555D01*
X55518499Y38875555D01*
G37*
G36*
X16887261Y45120446D02*
G01*
X17163806Y45065438D01*
X17682655Y44850524D01*
X18149607Y44538516D01*
X18546716Y44141407D01*
X18858724Y43674455D01*
X19073638Y43155606D01*
X19073638Y43155605D01*
X19183200Y42604800D01*
X19183200Y42043200D01*
X19133830Y41795000D01*
X19073638Y41492394D01*
X18858724Y40973545D01*
X18546716Y40506593D01*
X18149607Y40109484D01*
X17682655Y39797476D01*
X17163806Y39582562D01*
X16893229Y39528741D01*
X16613000Y39473000D01*
X16051400Y39473000D01*
X15771171Y39528741D01*
X15500594Y39582562D01*
X14981745Y39797476D01*
X14514793Y40109484D01*
X14117684Y40506593D01*
X13805676Y40973545D01*
X13590762Y41492394D01*
X13530570Y41795000D01*
X13481200Y42043200D01*
X13481200Y42604800D01*
X13590762Y43155605D01*
X13590762Y43155606D01*
X13805676Y43674455D01*
X14117684Y44141407D01*
X14514793Y44538516D01*
X14981745Y44850524D01*
X15500594Y45065438D01*
X15777139Y45120446D01*
X16051400Y45175000D01*
X16613000Y45175000D01*
X16887261Y45120446D01*
X16887261Y45120446D01*
G37*
G36*
X41924562Y41815819D02*
G01*
X41959481Y41805226D01*
X41991663Y41788024D01*
X42019873Y41764873D01*
X42043024Y41736663D01*
X42060226Y41704481D01*
X42070819Y41669562D01*
X42075000Y41627105D01*
X42075000Y40160895D01*
X42070819Y40118438D01*
X42060226Y40083519D01*
X42043024Y40051337D01*
X42019873Y40023127D01*
X41991663Y39999976D01*
X41959481Y39982774D01*
X41924562Y39972181D01*
X41882105Y39968000D01*
X40740895Y39968000D01*
X40698438Y39972181D01*
X40663519Y39982774D01*
X40631337Y39999976D01*
X40603127Y40023127D01*
X40579976Y40051337D01*
X40562774Y40083519D01*
X40552181Y40118438D01*
X40548000Y40160895D01*
X40548000Y41627105D01*
X40552181Y41669562D01*
X40562774Y41704481D01*
X40579976Y41736663D01*
X40603127Y41764873D01*
X40631337Y41788024D01*
X40663519Y41805226D01*
X40698438Y41815819D01*
X40740895Y41820000D01*
X41882105Y41820000D01*
X41924562Y41815819D01*
X41924562Y41815819D01*
G37*
G36*
X44899562Y41815819D02*
G01*
X44934481Y41805226D01*
X44966663Y41788024D01*
X44994873Y41764873D01*
X45018024Y41736663D01*
X45035226Y41704481D01*
X45045819Y41669562D01*
X45050000Y41627105D01*
X45050000Y40160895D01*
X45045819Y40118438D01*
X45035226Y40083519D01*
X45018024Y40051337D01*
X44994873Y40023127D01*
X44966663Y39999976D01*
X44934481Y39982774D01*
X44899562Y39972181D01*
X44857105Y39968000D01*
X43715895Y39968000D01*
X43673438Y39972181D01*
X43638519Y39982774D01*
X43606337Y39999976D01*
X43578127Y40023127D01*
X43554976Y40051337D01*
X43537774Y40083519D01*
X43527181Y40118438D01*
X43523000Y40160895D01*
X43523000Y41627105D01*
X43527181Y41669562D01*
X43537774Y41704481D01*
X43554976Y41736663D01*
X43578127Y41764873D01*
X43606337Y41788024D01*
X43638519Y41805226D01*
X43673438Y41815819D01*
X43715895Y41820000D01*
X44857105Y41820000D01*
X44899562Y41815819D01*
X44899562Y41815819D01*
G37*
G36*
X50529442Y41788482D02*
G01*
X50595627Y41781963D01*
X50765466Y41730443D01*
X50921991Y41646778D01*
X50930530Y41639770D01*
X51059186Y41534186D01*
X51138665Y41437339D01*
X51171778Y41396991D01*
X51255443Y41240466D01*
X51306963Y41070627D01*
X51324359Y40894000D01*
X51306963Y40717373D01*
X51255443Y40547534D01*
X51171778Y40391009D01*
X51156543Y40372445D01*
X51059186Y40253814D01*
X50966154Y40177466D01*
X50921991Y40141222D01*
X50765466Y40057557D01*
X50595627Y40006037D01*
X50534088Y39999976D01*
X50463260Y39993000D01*
X50374740Y39993000D01*
X50303912Y39999976D01*
X50242373Y40006037D01*
X50072534Y40057557D01*
X49916009Y40141222D01*
X49871846Y40177466D01*
X49778814Y40253814D01*
X49681457Y40372445D01*
X49666222Y40391009D01*
X49582557Y40547534D01*
X49531037Y40717373D01*
X49513641Y40894000D01*
X49531037Y41070627D01*
X49582557Y41240466D01*
X49666222Y41396991D01*
X49699335Y41437339D01*
X49778814Y41534186D01*
X49907470Y41639770D01*
X49916009Y41646778D01*
X50072534Y41730443D01*
X50242373Y41781963D01*
X50308558Y41788482D01*
X50374740Y41795000D01*
X50463260Y41795000D01*
X50529442Y41788482D01*
X50529442Y41788482D01*
G37*
G36*
X48780000Y39993000D02*
G01*
X46978000Y39993000D01*
X46978000Y41795000D01*
X48780000Y41795000D01*
X48780000Y39993000D01*
X48780000Y39993000D01*
G37*
G36*
X62467442Y41788482D02*
G01*
X62533627Y41781963D01*
X62703466Y41730443D01*
X62859991Y41646778D01*
X62868530Y41639770D01*
X62997186Y41534186D01*
X63076665Y41437339D01*
X63109778Y41396991D01*
X63193443Y41240466D01*
X63244963Y41070627D01*
X63262359Y40894000D01*
X63244963Y40717373D01*
X63193443Y40547534D01*
X63109778Y40391009D01*
X63094543Y40372445D01*
X62997186Y40253814D01*
X62904154Y40177466D01*
X62859991Y40141222D01*
X62703466Y40057557D01*
X62533627Y40006037D01*
X62472088Y39999976D01*
X62401260Y39993000D01*
X62312740Y39993000D01*
X62241912Y39999976D01*
X62180373Y40006037D01*
X62010534Y40057557D01*
X61854009Y40141222D01*
X61809846Y40177466D01*
X61716814Y40253814D01*
X61619457Y40372445D01*
X61604222Y40391009D01*
X61520557Y40547534D01*
X61469037Y40717373D01*
X61451641Y40894000D01*
X61469037Y41070627D01*
X61520557Y41240466D01*
X61604222Y41396991D01*
X61637335Y41437339D01*
X61716814Y41534186D01*
X61845470Y41639770D01*
X61854009Y41646778D01*
X62010534Y41730443D01*
X62180373Y41781963D01*
X62246558Y41788482D01*
X62312740Y41795000D01*
X62401260Y41795000D01*
X62467442Y41788482D01*
X62467442Y41788482D01*
G37*
G36*
X37656674Y41640535D02*
G01*
X37694367Y41629101D01*
X37729103Y41610534D01*
X37759548Y41585548D01*
X37784534Y41555103D01*
X37803101Y41520367D01*
X37814535Y41482674D01*
X37819000Y41437339D01*
X37819000Y40350661D01*
X37814535Y40305326D01*
X37803101Y40267633D01*
X37784534Y40232897D01*
X37759548Y40202452D01*
X37729103Y40177466D01*
X37694367Y40158899D01*
X37656674Y40147465D01*
X37611339Y40143000D01*
X36774661Y40143000D01*
X36729326Y40147465D01*
X36691633Y40158899D01*
X36656897Y40177466D01*
X36626452Y40202452D01*
X36601466Y40232897D01*
X36582899Y40267633D01*
X36571465Y40305326D01*
X36567000Y40350661D01*
X36567000Y41437339D01*
X36571465Y41482674D01*
X36582899Y41520367D01*
X36601466Y41555103D01*
X36626452Y41585548D01*
X36656897Y41610534D01*
X36691633Y41629101D01*
X36729326Y41640535D01*
X36774661Y41645000D01*
X37611339Y41645000D01*
X37656674Y41640535D01*
X37656674Y41640535D01*
G37*
G36*
X39706674Y41640535D02*
G01*
X39744367Y41629101D01*
X39779103Y41610534D01*
X39809548Y41585548D01*
X39834534Y41555103D01*
X39853101Y41520367D01*
X39864535Y41482674D01*
X39869000Y41437339D01*
X39869000Y40350661D01*
X39864535Y40305326D01*
X39853101Y40267633D01*
X39834534Y40232897D01*
X39809548Y40202452D01*
X39779103Y40177466D01*
X39744367Y40158899D01*
X39706674Y40147465D01*
X39661339Y40143000D01*
X38824661Y40143000D01*
X38779326Y40147465D01*
X38741633Y40158899D01*
X38706897Y40177466D01*
X38676452Y40202452D01*
X38651466Y40232897D01*
X38632899Y40267633D01*
X38621465Y40305326D01*
X38617000Y40350661D01*
X38617000Y41437339D01*
X38621465Y41482674D01*
X38632899Y41520367D01*
X38651466Y41555103D01*
X38676452Y41585548D01*
X38706897Y41610534D01*
X38741633Y41629101D01*
X38779326Y41640535D01*
X38824661Y41645000D01*
X39661339Y41645000D01*
X39706674Y41640535D01*
X39706674Y41640535D01*
G37*
G36*
X55518499Y41415555D02*
G01*
X55555995Y41404180D01*
X55590554Y41385708D01*
X55620847Y41360847D01*
X55645708Y41330554D01*
X55664180Y41295995D01*
X55675555Y41258499D01*
X55680000Y41213362D01*
X55680000Y40574638D01*
X55675555Y40529501D01*
X55664180Y40492005D01*
X55645708Y40457446D01*
X55620847Y40427153D01*
X55590554Y40402292D01*
X55555995Y40383820D01*
X55518499Y40372445D01*
X55473362Y40368000D01*
X54734638Y40368000D01*
X54689501Y40372445D01*
X54652005Y40383820D01*
X54617446Y40402292D01*
X54587153Y40427153D01*
X54562292Y40457446D01*
X54543820Y40492005D01*
X54532445Y40529501D01*
X54528000Y40574638D01*
X54528000Y41213362D01*
X54532445Y41258499D01*
X54543820Y41295995D01*
X54562292Y41330554D01*
X54587153Y41360847D01*
X54617446Y41385708D01*
X54652005Y41404180D01*
X54689501Y41415555D01*
X54734638Y41420000D01*
X55473362Y41420000D01*
X55518499Y41415555D01*
X55518499Y41415555D01*
G37*
G36*
X53768499Y41415555D02*
G01*
X53805995Y41404180D01*
X53840554Y41385708D01*
X53870847Y41360847D01*
X53895708Y41330554D01*
X53914180Y41295995D01*
X53925555Y41258499D01*
X53930000Y41213362D01*
X53930000Y40574638D01*
X53925555Y40529501D01*
X53914180Y40492005D01*
X53895708Y40457446D01*
X53870847Y40427153D01*
X53840554Y40402292D01*
X53805995Y40383820D01*
X53768499Y40372445D01*
X53723362Y40368000D01*
X52984638Y40368000D01*
X52939501Y40372445D01*
X52902005Y40383820D01*
X52867446Y40402292D01*
X52837153Y40427153D01*
X52812292Y40457446D01*
X52793820Y40492005D01*
X52782445Y40529501D01*
X52778000Y40574638D01*
X52778000Y41213362D01*
X52782445Y41258499D01*
X52793820Y41295995D01*
X52812292Y41330554D01*
X52837153Y41360847D01*
X52867446Y41385708D01*
X52902005Y41404180D01*
X52939501Y41415555D01*
X52984638Y41420000D01*
X53723362Y41420000D01*
X53768499Y41415555D01*
X53768499Y41415555D01*
G37*
G36*
X5939585Y43845198D02*
G01*
X6089410Y43815396D01*
X6371674Y43698479D01*
X6625705Y43528741D01*
X6841741Y43312705D01*
X7011479Y43058674D01*
X7128396Y42776410D01*
X7128396Y42776409D01*
X7188000Y42476761D01*
X7188000Y42171239D01*
X7162531Y42043200D01*
X7128396Y41871590D01*
X7011479Y41589326D01*
X6841741Y41335295D01*
X6625705Y41119259D01*
X6371674Y40949521D01*
X6089410Y40832604D01*
X5939585Y40802802D01*
X5789761Y40773000D01*
X5484239Y40773000D01*
X5334415Y40802802D01*
X5184590Y40832604D01*
X4902326Y40949521D01*
X4648295Y41119259D01*
X4432259Y41335295D01*
X4262521Y41589326D01*
X4145604Y41871590D01*
X4111469Y42043200D01*
X4086000Y42171239D01*
X4086000Y42476761D01*
X4145604Y42776409D01*
X4145604Y42776410D01*
X4262521Y43058674D01*
X4432259Y43312705D01*
X4648295Y43528741D01*
X4902326Y43698479D01*
X5184590Y43815396D01*
X5334415Y43845198D01*
X5484239Y43875000D01*
X5789761Y43875000D01*
X5939585Y43845198D01*
X5939585Y43845198D01*
G37*
G36*
X27939585Y43845198D02*
G01*
X28089410Y43815396D01*
X28371674Y43698479D01*
X28625705Y43528741D01*
X28841741Y43312705D01*
X29011479Y43058674D01*
X29128396Y42776410D01*
X29128396Y42776409D01*
X29188000Y42476761D01*
X29188000Y42171239D01*
X29162531Y42043200D01*
X29128396Y41871590D01*
X29011479Y41589326D01*
X28841741Y41335295D01*
X28625705Y41119259D01*
X28371674Y40949521D01*
X28089410Y40832604D01*
X27939585Y40802802D01*
X27789761Y40773000D01*
X27484239Y40773000D01*
X27334415Y40802802D01*
X27184590Y40832604D01*
X26902326Y40949521D01*
X26648295Y41119259D01*
X26432259Y41335295D01*
X26262521Y41589326D01*
X26145604Y41871590D01*
X26111469Y42043200D01*
X26086000Y42171239D01*
X26086000Y42476761D01*
X26145604Y42776409D01*
X26145604Y42776410D01*
X26262521Y43058674D01*
X26432259Y43312705D01*
X26648295Y43528741D01*
X26902326Y43698479D01*
X27184590Y43815396D01*
X27334415Y43845198D01*
X27484239Y43875000D01*
X27789761Y43875000D01*
X27939585Y43845198D01*
X27939585Y43845198D01*
G37*
G36*
X63258000Y42533000D02*
G01*
X61456000Y42533000D01*
X61456000Y44335000D01*
X63258000Y44335000D01*
X63258000Y42533000D01*
X63258000Y42533000D01*
G37*
G36*
X43988000Y43805000D02*
G01*
X40086000Y43805000D01*
X40086000Y45907000D01*
X43988000Y45907000D01*
X43988000Y43805000D01*
X43988000Y43805000D01*
G37*
G36*
X5926192Y47847862D02*
G01*
X6089410Y47815396D01*
X6371674Y47698479D01*
X6625705Y47528741D01*
X6841741Y47312705D01*
X7011479Y47058674D01*
X7128396Y46776410D01*
X7128396Y46776409D01*
X7188000Y46476761D01*
X7188000Y46171239D01*
X7186357Y46162980D01*
X7128396Y45871590D01*
X7011479Y45589326D01*
X6841741Y45335295D01*
X6625705Y45119259D01*
X6371674Y44949521D01*
X6089410Y44832604D01*
X5939585Y44802802D01*
X5789761Y44773000D01*
X5484239Y44773000D01*
X5334415Y44802802D01*
X5184590Y44832604D01*
X4902326Y44949521D01*
X4648295Y45119259D01*
X4432259Y45335295D01*
X4262521Y45589326D01*
X4145604Y45871590D01*
X4087643Y46162980D01*
X4086000Y46171239D01*
X4086000Y46476761D01*
X4145604Y46776409D01*
X4145604Y46776410D01*
X4262521Y47058674D01*
X4432259Y47312705D01*
X4648295Y47528741D01*
X4902326Y47698479D01*
X5184590Y47815396D01*
X5347808Y47847862D01*
X5484239Y47875000D01*
X5789761Y47875000D01*
X5926192Y47847862D01*
X5926192Y47847862D01*
G37*
G36*
X27926192Y47847862D02*
G01*
X28089410Y47815396D01*
X28371674Y47698479D01*
X28625705Y47528741D01*
X28841741Y47312705D01*
X29011479Y47058674D01*
X29128396Y46776410D01*
X29128396Y46776409D01*
X29188000Y46476761D01*
X29188000Y46171239D01*
X29186357Y46162980D01*
X29128396Y45871590D01*
X29011479Y45589326D01*
X28841741Y45335295D01*
X28625705Y45119259D01*
X28371674Y44949521D01*
X28089410Y44832604D01*
X27939585Y44802802D01*
X27789761Y44773000D01*
X27484239Y44773000D01*
X27334415Y44802802D01*
X27184590Y44832604D01*
X26902326Y44949521D01*
X26648295Y45119259D01*
X26432259Y45335295D01*
X26262521Y45589326D01*
X26145604Y45871590D01*
X26087643Y46162980D01*
X26086000Y46171239D01*
X26086000Y46476761D01*
X26145604Y46776409D01*
X26145604Y46776410D01*
X26262521Y47058674D01*
X26432259Y47312705D01*
X26648295Y47528741D01*
X26902326Y47698479D01*
X27184590Y47815396D01*
X27347808Y47847862D01*
X27484239Y47875000D01*
X27789761Y47875000D01*
X27926192Y47847862D01*
X27926192Y47847862D01*
G37*
G36*
X50178562Y46515819D02*
G01*
X50213481Y46505226D01*
X50245663Y46488024D01*
X50273873Y46464873D01*
X50297024Y46436663D01*
X50314226Y46404481D01*
X50324819Y46369562D01*
X50329000Y46327105D01*
X50329000Y45185895D01*
X50324819Y45143438D01*
X50314226Y45108519D01*
X50297024Y45076337D01*
X50273873Y45048127D01*
X50245663Y45024976D01*
X50213481Y45007774D01*
X50178562Y44997181D01*
X50136105Y44993000D01*
X48669895Y44993000D01*
X48627438Y44997181D01*
X48592519Y45007774D01*
X48560337Y45024976D01*
X48532127Y45048127D01*
X48508976Y45076337D01*
X48491774Y45108519D01*
X48481181Y45143438D01*
X48477000Y45185895D01*
X48477000Y46327105D01*
X48481181Y46369562D01*
X48491774Y46404481D01*
X48508976Y46436663D01*
X48532127Y46464873D01*
X48560337Y46488024D01*
X48592519Y46505226D01*
X48627438Y46515819D01*
X48669895Y46520000D01*
X50136105Y46520000D01*
X50178562Y46515819D01*
X50178562Y46515819D01*
G37*
G36*
X47354499Y46178555D02*
G01*
X47391995Y46167180D01*
X47426554Y46148708D01*
X47456847Y46123847D01*
X47481708Y46093554D01*
X47500180Y46058995D01*
X47511555Y46021499D01*
X47516000Y45976362D01*
X47516000Y45237638D01*
X47511555Y45192501D01*
X47500180Y45155005D01*
X47481708Y45120446D01*
X47456847Y45090153D01*
X47426554Y45065292D01*
X47391995Y45046820D01*
X47354499Y45035445D01*
X47309362Y45031000D01*
X46670638Y45031000D01*
X46625501Y45035445D01*
X46588005Y45046820D01*
X46553446Y45065292D01*
X46523153Y45090153D01*
X46498292Y45120446D01*
X46479820Y45155005D01*
X46468445Y45192501D01*
X46464000Y45237638D01*
X46464000Y45976362D01*
X46468445Y46021499D01*
X46479820Y46058995D01*
X46498292Y46093554D01*
X46523153Y46123847D01*
X46553446Y46148708D01*
X46588005Y46167180D01*
X46625501Y46178555D01*
X46670638Y46183000D01*
X47309362Y46183000D01*
X47354499Y46178555D01*
X47354499Y46178555D01*
G37*
G36*
X52778674Y47228535D02*
G01*
X52816367Y47217101D01*
X52851103Y47198534D01*
X52881548Y47173548D01*
X52906534Y47143103D01*
X52925101Y47108367D01*
X52936535Y47070674D01*
X52941000Y47025339D01*
X52941000Y45938661D01*
X52936535Y45893326D01*
X52925101Y45855633D01*
X52906534Y45820897D01*
X52881548Y45790452D01*
X52851103Y45765466D01*
X52816367Y45746899D01*
X52778674Y45735465D01*
X52733339Y45731000D01*
X51896661Y45731000D01*
X51851326Y45735465D01*
X51813633Y45746899D01*
X51778897Y45765466D01*
X51748452Y45790452D01*
X51723466Y45820897D01*
X51704899Y45855633D01*
X51693465Y45893326D01*
X51689000Y45938661D01*
X51689000Y47025339D01*
X51693465Y47070674D01*
X51704899Y47108367D01*
X51723466Y47143103D01*
X51748452Y47173548D01*
X51778897Y47198534D01*
X51813633Y47217101D01*
X51851326Y47228535D01*
X51896661Y47233000D01*
X52733339Y47233000D01*
X52778674Y47228535D01*
X52778674Y47228535D01*
G37*
G36*
X54828674Y47228535D02*
G01*
X54866367Y47217101D01*
X54901103Y47198534D01*
X54931548Y47173548D01*
X54956534Y47143103D01*
X54975101Y47108367D01*
X54986535Y47070674D01*
X54991000Y47025339D01*
X54991000Y45938661D01*
X54986535Y45893326D01*
X54975101Y45855633D01*
X54956534Y45820897D01*
X54931548Y45790452D01*
X54901103Y45765466D01*
X54866367Y45746899D01*
X54828674Y45735465D01*
X54783339Y45731000D01*
X53946661Y45731000D01*
X53901326Y45735465D01*
X53863633Y45746899D01*
X53828897Y45765466D01*
X53798452Y45790452D01*
X53773466Y45820897D01*
X53754899Y45855633D01*
X53743465Y45893326D01*
X53739000Y45938661D01*
X53739000Y47025339D01*
X53743465Y47070674D01*
X53754899Y47108367D01*
X53773466Y47143103D01*
X53798452Y47173548D01*
X53828897Y47198534D01*
X53863633Y47217101D01*
X53901326Y47228535D01*
X53946661Y47233000D01*
X54783339Y47233000D01*
X54828674Y47228535D01*
X54828674Y47228535D01*
G37*
G36*
X47354499Y47928555D02*
G01*
X47391995Y47917180D01*
X47426554Y47898708D01*
X47456847Y47873847D01*
X47481708Y47843554D01*
X47500180Y47808995D01*
X47511555Y47771499D01*
X47516000Y47726362D01*
X47516000Y46987638D01*
X47511555Y46942501D01*
X47500180Y46905005D01*
X47481708Y46870446D01*
X47456847Y46840153D01*
X47426554Y46815292D01*
X47391995Y46796820D01*
X47354499Y46785445D01*
X47309362Y46781000D01*
X46670638Y46781000D01*
X46625501Y46785445D01*
X46588005Y46796820D01*
X46553446Y46815292D01*
X46523153Y46840153D01*
X46498292Y46870446D01*
X46479820Y46905005D01*
X46468445Y46942501D01*
X46464000Y46987638D01*
X46464000Y47726362D01*
X46468445Y47771499D01*
X46479820Y47808995D01*
X46498292Y47843554D01*
X46523153Y47873847D01*
X46553446Y47898708D01*
X46588005Y47917180D01*
X46625501Y47928555D01*
X46670638Y47933000D01*
X47309362Y47933000D01*
X47354499Y47928555D01*
X47354499Y47928555D01*
G37*
G36*
X61873035Y52773000D02*
G01*
X62159906Y52715938D01*
X62678755Y52501024D01*
X63145707Y52189016D01*
X63542816Y51791907D01*
X63854824Y51324955D01*
X64069738Y50806106D01*
X64179300Y50255299D01*
X64179300Y49693701D01*
X64069738Y49142894D01*
X63854824Y48624045D01*
X63604879Y48249976D01*
X63545357Y48160895D01*
X63542816Y48157093D01*
X63145707Y47759984D01*
X62678755Y47447976D01*
X62159906Y47233062D01*
X61609100Y47123500D01*
X61047500Y47123500D01*
X60496694Y47233062D01*
X59977845Y47447976D01*
X59510893Y47759984D01*
X59113784Y48157093D01*
X59111244Y48160895D01*
X59051721Y48249976D01*
X58801776Y48624045D01*
X58586862Y49142894D01*
X58477300Y49693701D01*
X58477300Y50255299D01*
X58586862Y50806106D01*
X58801776Y51324955D01*
X59113784Y51791907D01*
X59510893Y52189016D01*
X59977845Y52501024D01*
X60496694Y52715938D01*
X60783565Y52773000D01*
X61047500Y52825500D01*
X61609100Y52825500D01*
X61873035Y52773000D01*
X61873035Y52773000D01*
G37*
G36*
X17334086Y57335296D02*
G01*
X18110322Y57180893D01*
X19029546Y56800138D01*
X19856825Y56247368D01*
X20560368Y55543825D01*
X21113138Y54716546D01*
X21493893Y53797322D01*
X21535266Y53589326D01*
X21687201Y52825500D01*
X21688000Y52821480D01*
X21688000Y51826520D01*
X21493893Y50850678D01*
X21113138Y49931454D01*
X20560368Y49104175D01*
X19856825Y48400632D01*
X19029546Y47847862D01*
X18110322Y47467107D01*
X17622401Y47370053D01*
X17134481Y47273000D01*
X16139519Y47273000D01*
X15651599Y47370054D01*
X15163678Y47467107D01*
X14244454Y47847862D01*
X13417175Y48400632D01*
X12713632Y49104175D01*
X12160862Y49931454D01*
X11780107Y50850678D01*
X11586000Y51826520D01*
X11586000Y52821480D01*
X11586800Y52825500D01*
X11738734Y53589326D01*
X11780107Y53797322D01*
X12160862Y54716546D01*
X12713632Y55543825D01*
X13417175Y56247368D01*
X14244454Y56800138D01*
X15163678Y57180893D01*
X15939914Y57335296D01*
X16139519Y57375000D01*
X17134481Y57375000D01*
X17334086Y57335296D01*
X17334086Y57335296D01*
G37*
G36*
X50178562Y49490819D02*
G01*
X50213481Y49480226D01*
X50245663Y49463024D01*
X50273873Y49439873D01*
X50297024Y49411663D01*
X50314226Y49379481D01*
X50324819Y49344562D01*
X50329000Y49302105D01*
X50329000Y48160895D01*
X50324819Y48118438D01*
X50314226Y48083519D01*
X50297024Y48051337D01*
X50273873Y48023127D01*
X50245663Y47999976D01*
X50213481Y47982774D01*
X50178562Y47972181D01*
X50136105Y47968000D01*
X48669895Y47968000D01*
X48627438Y47972181D01*
X48592519Y47982774D01*
X48560337Y47999976D01*
X48532127Y48023127D01*
X48508976Y48051337D01*
X48491774Y48083519D01*
X48481181Y48118438D01*
X48477000Y48160895D01*
X48477000Y49302105D01*
X48481181Y49344562D01*
X48491774Y49379481D01*
X48508976Y49411663D01*
X48532127Y49439873D01*
X48560337Y49463024D01*
X48592519Y49480226D01*
X48627438Y49490819D01*
X48669895Y49495000D01*
X50136105Y49495000D01*
X50178562Y49490819D01*
X50178562Y49490819D01*
G37*
G36*
X5939585Y51845198D02*
G01*
X6089410Y51815396D01*
X6371674Y51698479D01*
X6625705Y51528741D01*
X6841741Y51312705D01*
X7011479Y51058674D01*
X7128396Y50776410D01*
X7188000Y50476760D01*
X7188000Y50171240D01*
X7128396Y49871590D01*
X7011479Y49589326D01*
X6841741Y49335295D01*
X6625705Y49119259D01*
X6371674Y48949521D01*
X6089410Y48832604D01*
X5939585Y48802802D01*
X5789761Y48773000D01*
X5484239Y48773000D01*
X5334415Y48802802D01*
X5184590Y48832604D01*
X4902326Y48949521D01*
X4648295Y49119259D01*
X4432259Y49335295D01*
X4262521Y49589326D01*
X4145604Y49871590D01*
X4086000Y50171240D01*
X4086000Y50476760D01*
X4145604Y50776410D01*
X4262521Y51058674D01*
X4432259Y51312705D01*
X4648295Y51528741D01*
X4902326Y51698479D01*
X5184590Y51815396D01*
X5334415Y51845198D01*
X5484239Y51875000D01*
X5789761Y51875000D01*
X5939585Y51845198D01*
X5939585Y51845198D01*
G37*
G36*
X27939585Y51845198D02*
G01*
X28089410Y51815396D01*
X28371674Y51698479D01*
X28625705Y51528741D01*
X28841741Y51312705D01*
X29011479Y51058674D01*
X29128396Y50776410D01*
X29188000Y50476760D01*
X29188000Y50171240D01*
X29128396Y49871590D01*
X29011479Y49589326D01*
X28841741Y49335295D01*
X28625705Y49119259D01*
X28371674Y48949521D01*
X28089410Y48832604D01*
X27939585Y48802802D01*
X27789761Y48773000D01*
X27484239Y48773000D01*
X27334415Y48802802D01*
X27184590Y48832604D01*
X26902326Y48949521D01*
X26648295Y49119259D01*
X26432259Y49335295D01*
X26262521Y49589326D01*
X26145604Y49871590D01*
X26086000Y50171240D01*
X26086000Y50476760D01*
X26145604Y50776410D01*
X26262521Y51058674D01*
X26432259Y51312705D01*
X26648295Y51528741D01*
X26902326Y51698479D01*
X27184590Y51815396D01*
X27334415Y51845198D01*
X27484239Y51875000D01*
X27789761Y51875000D01*
X27939585Y51845198D01*
X27939585Y51845198D01*
G37*
G36*
X52460000Y49145000D02*
G01*
X51458000Y49145000D01*
X51458000Y50047000D01*
X52460000Y50047000D01*
X52460000Y49145000D01*
X52460000Y49145000D01*
G37*
G36*
X54460000Y50095000D02*
G01*
X53458000Y50095000D01*
X53458000Y50997000D01*
X54460000Y50997000D01*
X54460000Y50095000D01*
X54460000Y50095000D01*
G37*
G36*
X40538000Y50105000D02*
G01*
X38936000Y50105000D01*
X38936000Y52207000D01*
X40538000Y52207000D01*
X40538000Y50105000D01*
X40538000Y50105000D01*
G37*
G36*
X42838000Y50105000D02*
G01*
X41236000Y50105000D01*
X41236000Y52207000D01*
X42838000Y52207000D01*
X42838000Y50105000D01*
X42838000Y50105000D01*
G37*
G36*
X45138000Y50105000D02*
G01*
X43536000Y50105000D01*
X43536000Y52207000D01*
X45138000Y52207000D01*
X45138000Y50105000D01*
X45138000Y50105000D01*
G37*
G36*
X48070674Y52181535D02*
G01*
X48108367Y52170101D01*
X48143103Y52151534D01*
X48173548Y52126548D01*
X48198534Y52096103D01*
X48217101Y52061367D01*
X48228535Y52023674D01*
X48233000Y51978339D01*
X48233000Y50891661D01*
X48228535Y50846326D01*
X48217101Y50808633D01*
X48198534Y50773897D01*
X48173548Y50743452D01*
X48143103Y50718466D01*
X48108367Y50699899D01*
X48070674Y50688465D01*
X48025339Y50684000D01*
X47188661Y50684000D01*
X47143326Y50688465D01*
X47105633Y50699899D01*
X47070897Y50718466D01*
X47040452Y50743452D01*
X47015466Y50773897D01*
X46996899Y50808633D01*
X46985465Y50846326D01*
X46981000Y50891661D01*
X46981000Y51978339D01*
X46985465Y52023674D01*
X46996899Y52061367D01*
X47015466Y52096103D01*
X47040452Y52126548D01*
X47070897Y52151534D01*
X47105633Y52170101D01*
X47143326Y52181535D01*
X47188661Y52186000D01*
X48025339Y52186000D01*
X48070674Y52181535D01*
X48070674Y52181535D01*
G37*
G36*
X50120674Y52181535D02*
G01*
X50158367Y52170101D01*
X50193103Y52151534D01*
X50223548Y52126548D01*
X50248534Y52096103D01*
X50267101Y52061367D01*
X50278535Y52023674D01*
X50283000Y51978339D01*
X50283000Y50891661D01*
X50278535Y50846326D01*
X50267101Y50808633D01*
X50248534Y50773897D01*
X50223548Y50743452D01*
X50193103Y50718466D01*
X50158367Y50699899D01*
X50120674Y50688465D01*
X50075339Y50684000D01*
X49238661Y50684000D01*
X49193326Y50688465D01*
X49155633Y50699899D01*
X49120897Y50718466D01*
X49090452Y50743452D01*
X49065466Y50773897D01*
X49046899Y50808633D01*
X49035465Y50846326D01*
X49031000Y50891661D01*
X49031000Y51978339D01*
X49035465Y52023674D01*
X49046899Y52061367D01*
X49065466Y52096103D01*
X49090452Y52126548D01*
X49120897Y52151534D01*
X49155633Y52170101D01*
X49193326Y52181535D01*
X49238661Y52186000D01*
X50075339Y52186000D01*
X50120674Y52181535D01*
X50120674Y52181535D01*
G37*
G36*
X52460000Y51045000D02*
G01*
X51458000Y51045000D01*
X51458000Y51947000D01*
X52460000Y51947000D01*
X52460000Y51045000D01*
X52460000Y51045000D01*
G37*
G36*
X5939585Y55845198D02*
G01*
X6089410Y55815396D01*
X6371674Y55698479D01*
X6625705Y55528741D01*
X6841741Y55312705D01*
X7011479Y55058674D01*
X7128396Y54776410D01*
X7188000Y54476760D01*
X7188000Y54171240D01*
X7128396Y53871590D01*
X7011479Y53589326D01*
X6841741Y53335295D01*
X6625705Y53119259D01*
X6371674Y52949521D01*
X6089410Y52832604D01*
X5939585Y52802802D01*
X5789761Y52773000D01*
X5484239Y52773000D01*
X5334415Y52802802D01*
X5184590Y52832604D01*
X4902326Y52949521D01*
X4648295Y53119259D01*
X4432259Y53335295D01*
X4262521Y53589326D01*
X4145604Y53871590D01*
X4086000Y54171240D01*
X4086000Y54476760D01*
X4145604Y54776410D01*
X4262521Y55058674D01*
X4432259Y55312705D01*
X4648295Y55528741D01*
X4902326Y55698479D01*
X5184590Y55815396D01*
X5334415Y55845198D01*
X5484239Y55875000D01*
X5789761Y55875000D01*
X5939585Y55845198D01*
X5939585Y55845198D01*
G37*
G36*
X27939585Y55845198D02*
G01*
X28089410Y55815396D01*
X28371674Y55698479D01*
X28625705Y55528741D01*
X28841741Y55312705D01*
X29011479Y55058674D01*
X29128396Y54776410D01*
X29188000Y54476760D01*
X29188000Y54171240D01*
X29128396Y53871590D01*
X29011479Y53589326D01*
X28841741Y53335295D01*
X28625705Y53119259D01*
X28371674Y52949521D01*
X28089410Y52832604D01*
X27939585Y52802802D01*
X27789761Y52773000D01*
X27484239Y52773000D01*
X27334415Y52802802D01*
X27184590Y52832604D01*
X26902326Y52949521D01*
X26648295Y53119259D01*
X26432259Y53335295D01*
X26262521Y53589326D01*
X26145604Y53871590D01*
X26086000Y54171240D01*
X26086000Y54476760D01*
X26145604Y54776410D01*
X26262521Y55058674D01*
X26432259Y55312705D01*
X26648295Y55528741D01*
X26902326Y55698479D01*
X27184590Y55815396D01*
X27334415Y55845198D01*
X27484239Y55875000D01*
X27789761Y55875000D01*
X27939585Y55845198D01*
X27939585Y55845198D01*
G37*
G36*
X50129674Y54467535D02*
G01*
X50167367Y54456101D01*
X50202103Y54437534D01*
X50232548Y54412548D01*
X50257534Y54382103D01*
X50276101Y54347367D01*
X50287535Y54309674D01*
X50292000Y54264339D01*
X50292000Y53177661D01*
X50287535Y53132326D01*
X50276101Y53094633D01*
X50257534Y53059897D01*
X50232548Y53029452D01*
X50202103Y53004466D01*
X50167367Y52985899D01*
X50129674Y52974465D01*
X50084339Y52970000D01*
X49247661Y52970000D01*
X49202326Y52974465D01*
X49164633Y52985899D01*
X49129897Y53004466D01*
X49099452Y53029452D01*
X49074466Y53059897D01*
X49055899Y53094633D01*
X49044465Y53132326D01*
X49040000Y53177661D01*
X49040000Y54264339D01*
X49044465Y54309674D01*
X49055899Y54347367D01*
X49074466Y54382103D01*
X49099452Y54412548D01*
X49129897Y54437534D01*
X49164633Y54456101D01*
X49202326Y54467535D01*
X49247661Y54472000D01*
X50084339Y54472000D01*
X50129674Y54467535D01*
X50129674Y54467535D01*
G37*
G36*
X48079674Y54467535D02*
G01*
X48117367Y54456101D01*
X48152103Y54437534D01*
X48182548Y54412548D01*
X48207534Y54382103D01*
X48226101Y54347367D01*
X48237535Y54309674D01*
X48242000Y54264339D01*
X48242000Y53177661D01*
X48237535Y53132326D01*
X48226101Y53094633D01*
X48207534Y53059897D01*
X48182548Y53029452D01*
X48152103Y53004466D01*
X48117367Y52985899D01*
X48079674Y52974465D01*
X48034339Y52970000D01*
X47197661Y52970000D01*
X47152326Y52974465D01*
X47114633Y52985899D01*
X47079897Y53004466D01*
X47049452Y53029452D01*
X47024466Y53059897D01*
X47005899Y53094633D01*
X46994465Y53132326D01*
X46990000Y53177661D01*
X46990000Y54264339D01*
X46994465Y54309674D01*
X47005899Y54347367D01*
X47024466Y54382103D01*
X47049452Y54412548D01*
X47079897Y54437534D01*
X47114633Y54456101D01*
X47152326Y54467535D01*
X47197661Y54472000D01*
X48034339Y54472000D01*
X48079674Y54467535D01*
X48079674Y54467535D01*
G37*
G36*
X52460000Y53082000D02*
G01*
X51458000Y53082000D01*
X51458000Y53984000D01*
X52460000Y53984000D01*
X52460000Y53082000D01*
X52460000Y53082000D01*
G37*
G36*
X54460000Y54032000D02*
G01*
X53458000Y54032000D01*
X53458000Y54934000D01*
X54460000Y54934000D01*
X54460000Y54032000D01*
X54460000Y54032000D01*
G37*
G36*
X42558562Y55786819D02*
G01*
X42593481Y55776226D01*
X42625663Y55759024D01*
X42653873Y55735873D01*
X42677024Y55707663D01*
X42694226Y55675481D01*
X42704819Y55640562D01*
X42709000Y55598105D01*
X42709000Y54456895D01*
X42704819Y54414438D01*
X42694226Y54379519D01*
X42677024Y54347337D01*
X42653873Y54319127D01*
X42625663Y54295976D01*
X42593481Y54278774D01*
X42558562Y54268181D01*
X42516105Y54264000D01*
X41049895Y54264000D01*
X41007438Y54268181D01*
X40972519Y54278774D01*
X40940337Y54295976D01*
X40912127Y54319127D01*
X40888976Y54347337D01*
X40871774Y54379519D01*
X40861181Y54414438D01*
X40857000Y54456895D01*
X40857000Y55598105D01*
X40861181Y55640562D01*
X40871774Y55675481D01*
X40888976Y55707663D01*
X40912127Y55735873D01*
X40940337Y55759024D01*
X40972519Y55776226D01*
X41007438Y55786819D01*
X41049895Y55791000D01*
X42516105Y55791000D01*
X42558562Y55786819D01*
X42558562Y55786819D01*
G37*
G36*
X40018562Y55786819D02*
G01*
X40053481Y55776226D01*
X40085663Y55759024D01*
X40113873Y55735873D01*
X40137024Y55707663D01*
X40154226Y55675481D01*
X40164819Y55640562D01*
X40169000Y55598105D01*
X40169000Y54456895D01*
X40164819Y54414438D01*
X40154226Y54379519D01*
X40137024Y54347337D01*
X40113873Y54319127D01*
X40085663Y54295976D01*
X40053481Y54278774D01*
X40018562Y54268181D01*
X39976105Y54264000D01*
X38509895Y54264000D01*
X38467438Y54268181D01*
X38432519Y54278774D01*
X38400337Y54295976D01*
X38372127Y54319127D01*
X38348976Y54347337D01*
X38331774Y54379519D01*
X38321181Y54414438D01*
X38317000Y54456895D01*
X38317000Y55598105D01*
X38321181Y55640562D01*
X38331774Y55675481D01*
X38348976Y55707663D01*
X38372127Y55735873D01*
X38400337Y55759024D01*
X38432519Y55776226D01*
X38467438Y55786819D01*
X38509895Y55791000D01*
X39976105Y55791000D01*
X40018562Y55786819D01*
X40018562Y55786819D01*
G37*
G36*
X45098562Y55786819D02*
G01*
X45133481Y55776226D01*
X45165663Y55759024D01*
X45193873Y55735873D01*
X45217024Y55707663D01*
X45234226Y55675481D01*
X45244819Y55640562D01*
X45249000Y55598105D01*
X45249000Y54456895D01*
X45244819Y54414438D01*
X45234226Y54379519D01*
X45217024Y54347337D01*
X45193873Y54319127D01*
X45165663Y54295976D01*
X45133481Y54278774D01*
X45098562Y54268181D01*
X45056105Y54264000D01*
X43589895Y54264000D01*
X43547438Y54268181D01*
X43512519Y54278774D01*
X43480337Y54295976D01*
X43452127Y54319127D01*
X43428976Y54347337D01*
X43411774Y54379519D01*
X43401181Y54414438D01*
X43397000Y54456895D01*
X43397000Y55598105D01*
X43401181Y55640562D01*
X43411774Y55675481D01*
X43428976Y55707663D01*
X43452127Y55735873D01*
X43480337Y55759024D01*
X43512519Y55776226D01*
X43547438Y55786819D01*
X43589895Y55791000D01*
X45056105Y55791000D01*
X45098562Y55786819D01*
X45098562Y55786819D01*
G37*
G36*
X52460000Y54982000D02*
G01*
X51458000Y54982000D01*
X51458000Y55884000D01*
X52460000Y55884000D01*
X52460000Y54982000D01*
X52460000Y54982000D01*
G37*
G36*
X48079674Y56753535D02*
G01*
X48117367Y56742101D01*
X48152103Y56723534D01*
X48182548Y56698548D01*
X48207534Y56668103D01*
X48226101Y56633367D01*
X48237535Y56595674D01*
X48242000Y56550339D01*
X48242000Y55463661D01*
X48237535Y55418326D01*
X48226101Y55380633D01*
X48207534Y55345897D01*
X48182548Y55315452D01*
X48152103Y55290466D01*
X48117367Y55271899D01*
X48079674Y55260465D01*
X48034339Y55256000D01*
X47197661Y55256000D01*
X47152326Y55260465D01*
X47114633Y55271899D01*
X47079897Y55290466D01*
X47049452Y55315452D01*
X47024466Y55345897D01*
X47005899Y55380633D01*
X46994465Y55418326D01*
X46990000Y55463661D01*
X46990000Y56550339D01*
X46994465Y56595674D01*
X47005899Y56633367D01*
X47024466Y56668103D01*
X47049452Y56698548D01*
X47079897Y56723534D01*
X47114633Y56742101D01*
X47152326Y56753535D01*
X47197661Y56758000D01*
X48034339Y56758000D01*
X48079674Y56753535D01*
X48079674Y56753535D01*
G37*
G36*
X50129674Y56753535D02*
G01*
X50167367Y56742101D01*
X50202103Y56723534D01*
X50232548Y56698548D01*
X50257534Y56668103D01*
X50276101Y56633367D01*
X50287535Y56595674D01*
X50292000Y56550339D01*
X50292000Y55463661D01*
X50287535Y55418326D01*
X50276101Y55380633D01*
X50257534Y55345897D01*
X50232548Y55315452D01*
X50202103Y55290466D01*
X50167367Y55271899D01*
X50129674Y55260465D01*
X50084339Y55256000D01*
X49247661Y55256000D01*
X49202326Y55260465D01*
X49164633Y55271899D01*
X49129897Y55290466D01*
X49099452Y55315452D01*
X49074466Y55345897D01*
X49055899Y55380633D01*
X49044465Y55418326D01*
X49040000Y55463661D01*
X49040000Y56550339D01*
X49044465Y56595674D01*
X49055899Y56633367D01*
X49074466Y56668103D01*
X49099452Y56698548D01*
X49129897Y56723534D01*
X49164633Y56742101D01*
X49202326Y56753535D01*
X49247661Y56758000D01*
X50084339Y56758000D01*
X50129674Y56753535D01*
X50129674Y56753535D01*
G37*
G36*
X63258000Y56757000D02*
G01*
X61456000Y56757000D01*
X61456000Y58559000D01*
X63258000Y58559000D01*
X63258000Y56757000D01*
X63258000Y56757000D01*
G37*
G36*
X27907732Y59851534D02*
G01*
X28089410Y59815396D01*
X28371674Y59698479D01*
X28625705Y59528741D01*
X28841741Y59312705D01*
X29011479Y59058674D01*
X29128396Y58776410D01*
X29133405Y58751226D01*
X29171642Y58559000D01*
X29188000Y58476760D01*
X29188000Y58171240D01*
X29128396Y57871590D01*
X29011479Y57589326D01*
X28841741Y57335295D01*
X28625705Y57119259D01*
X28371674Y56949521D01*
X28089410Y56832604D01*
X27939585Y56802802D01*
X27789761Y56773000D01*
X27484239Y56773000D01*
X27334415Y56802802D01*
X27184590Y56832604D01*
X26902326Y56949521D01*
X26648295Y57119259D01*
X26432259Y57335295D01*
X26262521Y57589326D01*
X26145604Y57871590D01*
X26086000Y58171240D01*
X26086000Y58476760D01*
X26102359Y58559000D01*
X26140595Y58751226D01*
X26145604Y58776410D01*
X26262521Y59058674D01*
X26432259Y59312705D01*
X26648295Y59528741D01*
X26902326Y59698479D01*
X27184590Y59815396D01*
X27366268Y59851534D01*
X27484239Y59875000D01*
X27789761Y59875000D01*
X27907732Y59851534D01*
X27907732Y59851534D01*
G37*
G36*
X5907732Y59851534D02*
G01*
X6089410Y59815396D01*
X6371674Y59698479D01*
X6625705Y59528741D01*
X6841741Y59312705D01*
X7011479Y59058674D01*
X7128396Y58776410D01*
X7133405Y58751226D01*
X7171642Y58559000D01*
X7188000Y58476760D01*
X7188000Y58171240D01*
X7128396Y57871590D01*
X7011479Y57589326D01*
X6841741Y57335295D01*
X6625705Y57119259D01*
X6371674Y56949521D01*
X6089410Y56832604D01*
X5939585Y56802802D01*
X5789761Y56773000D01*
X5484239Y56773000D01*
X5334415Y56802802D01*
X5184590Y56832604D01*
X4902326Y56949521D01*
X4648295Y57119259D01*
X4432259Y57335295D01*
X4262521Y57589326D01*
X4145604Y57871590D01*
X4086000Y58171240D01*
X4086000Y58476760D01*
X4102359Y58559000D01*
X4140595Y58751226D01*
X4145604Y58776410D01*
X4262521Y59058674D01*
X4432259Y59312705D01*
X4648295Y59528741D01*
X4902326Y59698479D01*
X5184590Y59815396D01*
X5366268Y59851534D01*
X5484239Y59875000D01*
X5789761Y59875000D01*
X5907732Y59851534D01*
X5907732Y59851534D01*
G37*
G36*
X52476000Y56892000D02*
G01*
X51474000Y56892000D01*
X51474000Y57794000D01*
X52476000Y57794000D01*
X52476000Y56892000D01*
X52476000Y56892000D01*
G37*
G36*
X42558562Y58761819D02*
G01*
X42593481Y58751226D01*
X42625663Y58734024D01*
X42653873Y58710873D01*
X42677024Y58682663D01*
X42694226Y58650481D01*
X42704819Y58615562D01*
X42709000Y58573105D01*
X42709000Y57431895D01*
X42704819Y57389438D01*
X42694226Y57354519D01*
X42677024Y57322337D01*
X42653873Y57294127D01*
X42625663Y57270976D01*
X42593481Y57253774D01*
X42558562Y57243181D01*
X42516105Y57239000D01*
X41049895Y57239000D01*
X41007438Y57243181D01*
X40972519Y57253774D01*
X40940337Y57270976D01*
X40912127Y57294127D01*
X40888976Y57322337D01*
X40871774Y57354519D01*
X40861181Y57389438D01*
X40857000Y57431895D01*
X40857000Y58573105D01*
X40861181Y58615562D01*
X40871774Y58650481D01*
X40888976Y58682663D01*
X40912127Y58710873D01*
X40940337Y58734024D01*
X40972519Y58751226D01*
X41007438Y58761819D01*
X41049895Y58766000D01*
X42516105Y58766000D01*
X42558562Y58761819D01*
X42558562Y58761819D01*
G37*
G36*
X40018562Y58761819D02*
G01*
X40053481Y58751226D01*
X40085663Y58734024D01*
X40113873Y58710873D01*
X40137024Y58682663D01*
X40154226Y58650481D01*
X40164819Y58615562D01*
X40169000Y58573105D01*
X40169000Y57431895D01*
X40164819Y57389438D01*
X40154226Y57354519D01*
X40137024Y57322337D01*
X40113873Y57294127D01*
X40085663Y57270976D01*
X40053481Y57253774D01*
X40018562Y57243181D01*
X39976105Y57239000D01*
X38509895Y57239000D01*
X38467438Y57243181D01*
X38432519Y57253774D01*
X38400337Y57270976D01*
X38372127Y57294127D01*
X38348976Y57322337D01*
X38331774Y57354519D01*
X38321181Y57389438D01*
X38317000Y57431895D01*
X38317000Y58573105D01*
X38321181Y58615562D01*
X38331774Y58650481D01*
X38348976Y58682663D01*
X38372127Y58710873D01*
X38400337Y58734024D01*
X38432519Y58751226D01*
X38467438Y58761819D01*
X38509895Y58766000D01*
X39976105Y58766000D01*
X40018562Y58761819D01*
X40018562Y58761819D01*
G37*
G36*
X45098562Y58761819D02*
G01*
X45133481Y58751226D01*
X45165663Y58734024D01*
X45193873Y58710873D01*
X45217024Y58682663D01*
X45234226Y58650481D01*
X45244819Y58615562D01*
X45249000Y58573105D01*
X45249000Y57431895D01*
X45244819Y57389438D01*
X45234226Y57354519D01*
X45217024Y57322337D01*
X45193873Y57294127D01*
X45165663Y57270976D01*
X45133481Y57253774D01*
X45098562Y57243181D01*
X45056105Y57239000D01*
X43589895Y57239000D01*
X43547438Y57243181D01*
X43512519Y57253774D01*
X43480337Y57270976D01*
X43452127Y57294127D01*
X43428976Y57322337D01*
X43411774Y57354519D01*
X43401181Y57389438D01*
X43397000Y57431895D01*
X43397000Y58573105D01*
X43401181Y58615562D01*
X43411774Y58650481D01*
X43428976Y58682663D01*
X43452127Y58710873D01*
X43480337Y58734024D01*
X43512519Y58751226D01*
X43547438Y58761819D01*
X43589895Y58766000D01*
X45056105Y58766000D01*
X45098562Y58761819D01*
X45098562Y58761819D01*
G37*
G36*
X50129674Y59039535D02*
G01*
X50167367Y59028101D01*
X50202103Y59009534D01*
X50232548Y58984548D01*
X50257534Y58954103D01*
X50276101Y58919367D01*
X50287535Y58881674D01*
X50292000Y58836339D01*
X50292000Y57749661D01*
X50287535Y57704326D01*
X50276101Y57666633D01*
X50257534Y57631897D01*
X50232548Y57601452D01*
X50202103Y57576466D01*
X50167367Y57557899D01*
X50129674Y57546465D01*
X50084339Y57542000D01*
X49247661Y57542000D01*
X49202326Y57546465D01*
X49164633Y57557899D01*
X49129897Y57576466D01*
X49099452Y57601452D01*
X49074466Y57631897D01*
X49055899Y57666633D01*
X49044465Y57704326D01*
X49040000Y57749661D01*
X49040000Y58836339D01*
X49044465Y58881674D01*
X49055899Y58919367D01*
X49074466Y58954103D01*
X49099452Y58984548D01*
X49129897Y59009534D01*
X49164633Y59028101D01*
X49202326Y59039535D01*
X49247661Y59044000D01*
X50084339Y59044000D01*
X50129674Y59039535D01*
X50129674Y59039535D01*
G37*
G36*
X48079674Y59039535D02*
G01*
X48117367Y59028101D01*
X48152103Y59009534D01*
X48182548Y58984548D01*
X48207534Y58954103D01*
X48226101Y58919367D01*
X48237535Y58881674D01*
X48242000Y58836339D01*
X48242000Y57749661D01*
X48237535Y57704326D01*
X48226101Y57666633D01*
X48207534Y57631897D01*
X48182548Y57601452D01*
X48152103Y57576466D01*
X48117367Y57557899D01*
X48079674Y57546465D01*
X48034339Y57542000D01*
X47197661Y57542000D01*
X47152326Y57546465D01*
X47114633Y57557899D01*
X47079897Y57576466D01*
X47049452Y57601452D01*
X47024466Y57631897D01*
X47005899Y57666633D01*
X46994465Y57704326D01*
X46990000Y57749661D01*
X46990000Y58836339D01*
X46994465Y58881674D01*
X47005899Y58919367D01*
X47024466Y58954103D01*
X47049452Y58984548D01*
X47079897Y59009534D01*
X47114633Y59028101D01*
X47152326Y59039535D01*
X47197661Y59044000D01*
X48034339Y59044000D01*
X48079674Y59039535D01*
X48079674Y59039535D01*
G37*
G36*
X54476000Y57842000D02*
G01*
X53474000Y57842000D01*
X53474000Y58744000D01*
X54476000Y58744000D01*
X54476000Y57842000D01*
X54476000Y57842000D01*
G37*
G36*
X52476000Y58792000D02*
G01*
X51474000Y58792000D01*
X51474000Y59694000D01*
X52476000Y59694000D01*
X52476000Y58792000D01*
X52476000Y58792000D01*
G37*
G36*
X62467442Y61092482D02*
G01*
X62533627Y61085963D01*
X62703466Y61034443D01*
X62859991Y60950778D01*
X62895729Y60921448D01*
X62997186Y60838186D01*
X63080448Y60736729D01*
X63109778Y60700991D01*
X63193443Y60544466D01*
X63244963Y60374627D01*
X63262359Y60198000D01*
X63244963Y60021373D01*
X63193443Y59851534D01*
X63109778Y59695009D01*
X63080448Y59659271D01*
X62997186Y59557814D01*
X62895729Y59474552D01*
X62859991Y59445222D01*
X62703466Y59361557D01*
X62533627Y59310037D01*
X62467443Y59303519D01*
X62401260Y59297000D01*
X62312740Y59297000D01*
X62246557Y59303519D01*
X62180373Y59310037D01*
X62010534Y59361557D01*
X61854009Y59445222D01*
X61818271Y59474552D01*
X61716814Y59557814D01*
X61633552Y59659271D01*
X61604222Y59695009D01*
X61520557Y59851534D01*
X61469037Y60021373D01*
X61451641Y60198000D01*
X61469037Y60374627D01*
X61520557Y60544466D01*
X61604222Y60700991D01*
X61633552Y60736729D01*
X61716814Y60838186D01*
X61818271Y60921448D01*
X61854009Y60950778D01*
X62010534Y61034443D01*
X62180373Y61085963D01*
X62246558Y61092482D01*
X62312740Y61099000D01*
X62401260Y61099000D01*
X62467442Y61092482D01*
X62467442Y61092482D01*
G37*
G36*
X17159640Y65126895D02*
G01*
X17468606Y65065438D01*
X17987455Y64850524D01*
X18454407Y64538516D01*
X18851516Y64141407D01*
X19163524Y63674455D01*
X19378438Y63155606D01*
X19397719Y63058674D01*
X19488000Y62604800D01*
X19488000Y62043200D01*
X19460389Y61904392D01*
X19378438Y61492394D01*
X19163524Y60973545D01*
X18936647Y60634000D01*
X18876824Y60544468D01*
X18851516Y60506593D01*
X18454407Y60109484D01*
X17987455Y59797476D01*
X17468606Y59582562D01*
X17198029Y59528741D01*
X16917800Y59473000D01*
X16356200Y59473000D01*
X16075971Y59528741D01*
X15805394Y59582562D01*
X15286545Y59797476D01*
X14819593Y60109484D01*
X14422484Y60506593D01*
X14397177Y60544468D01*
X14337353Y60634000D01*
X14110476Y60973545D01*
X13895562Y61492394D01*
X13813611Y61904392D01*
X13786000Y62043200D01*
X13786000Y62604800D01*
X13876281Y63058674D01*
X13895562Y63155606D01*
X14110476Y63674455D01*
X14422484Y64141407D01*
X14819593Y64538516D01*
X15286545Y64850524D01*
X15805394Y65065438D01*
X16114360Y65126895D01*
X16356200Y65175000D01*
X16917800Y65175000D01*
X17159640Y65126895D01*
X17159640Y65126895D01*
G37*
G36*
X39594000Y60634000D02*
G01*
X38892000Y60634000D01*
X38892000Y62236000D01*
X39594000Y62236000D01*
X39594000Y60634000D01*
X39594000Y60634000D01*
G37*
G36*
X40864000Y60634000D02*
G01*
X40162000Y60634000D01*
X40162000Y62236000D01*
X40864000Y62236000D01*
X40864000Y60634000D01*
X40864000Y60634000D01*
G37*
G36*
X42134000Y60634000D02*
G01*
X41432000Y60634000D01*
X41432000Y62236000D01*
X42134000Y62236000D01*
X42134000Y60634000D01*
X42134000Y60634000D01*
G37*
G36*
X47214000Y60634000D02*
G01*
X46512000Y60634000D01*
X46512000Y62236000D01*
X47214000Y62236000D01*
X47214000Y60634000D01*
X47214000Y60634000D01*
G37*
G36*
X43404000Y60634000D02*
G01*
X42702000Y60634000D01*
X42702000Y62236000D01*
X43404000Y62236000D01*
X43404000Y60634000D01*
X43404000Y60634000D01*
G37*
G36*
X48484000Y60634000D02*
G01*
X47782000Y60634000D01*
X47782000Y62236000D01*
X48484000Y62236000D01*
X48484000Y60634000D01*
X48484000Y60634000D01*
G37*
G36*
X44674000Y60634000D02*
G01*
X43972000Y60634000D01*
X43972000Y62236000D01*
X44674000Y62236000D01*
X44674000Y60634000D01*
X44674000Y60634000D01*
G37*
G36*
X45944000Y60634000D02*
G01*
X45242000Y60634000D01*
X45242000Y62236000D01*
X45944000Y62236000D01*
X45944000Y60634000D01*
X45944000Y60634000D01*
G37*
G36*
X52460000Y60702000D02*
G01*
X51458000Y60702000D01*
X51458000Y61604000D01*
X52460000Y61604000D01*
X52460000Y60702000D01*
X52460000Y60702000D01*
G37*
G36*
X5939585Y63845198D02*
G01*
X6089410Y63815396D01*
X6371674Y63698479D01*
X6625705Y63528741D01*
X6841741Y63312705D01*
X7011479Y63058674D01*
X7128396Y62776410D01*
X7128396Y62776409D01*
X7188000Y62476761D01*
X7188000Y62171239D01*
X7162531Y62043200D01*
X7128396Y61871590D01*
X7011479Y61589326D01*
X6841741Y61335295D01*
X6625705Y61119259D01*
X6371674Y60949521D01*
X6089410Y60832604D01*
X5939585Y60802802D01*
X5789761Y60773000D01*
X5484239Y60773000D01*
X5334415Y60802802D01*
X5184590Y60832604D01*
X4902326Y60949521D01*
X4648295Y61119259D01*
X4432259Y61335295D01*
X4262521Y61589326D01*
X4145604Y61871590D01*
X4111469Y62043200D01*
X4086000Y62171239D01*
X4086000Y62476761D01*
X4145604Y62776409D01*
X4145604Y62776410D01*
X4262521Y63058674D01*
X4432259Y63312705D01*
X4648295Y63528741D01*
X4902326Y63698479D01*
X5184590Y63815396D01*
X5334415Y63845198D01*
X5484239Y63875000D01*
X5789761Y63875000D01*
X5939585Y63845198D01*
X5939585Y63845198D01*
G37*
G36*
X27939585Y63845198D02*
G01*
X28089410Y63815396D01*
X28371674Y63698479D01*
X28625705Y63528741D01*
X28841741Y63312705D01*
X29011479Y63058674D01*
X29128396Y62776410D01*
X29128396Y62776409D01*
X29188000Y62476761D01*
X29188000Y62171239D01*
X29162531Y62043200D01*
X29128396Y61871590D01*
X29011479Y61589326D01*
X28841741Y61335295D01*
X28625705Y61119259D01*
X28371674Y60949521D01*
X28089410Y60832604D01*
X27939585Y60802802D01*
X27789761Y60773000D01*
X27484239Y60773000D01*
X27334415Y60802802D01*
X27184590Y60832604D01*
X26902326Y60949521D01*
X26648295Y61119259D01*
X26432259Y61335295D01*
X26262521Y61589326D01*
X26145604Y61871590D01*
X26111469Y62043200D01*
X26086000Y62171239D01*
X26086000Y62476761D01*
X26145604Y62776409D01*
X26145604Y62776410D01*
X26262521Y63058674D01*
X26432259Y63312705D01*
X26648295Y63528741D01*
X26902326Y63698479D01*
X27184590Y63815396D01*
X27334415Y63845198D01*
X27484239Y63875000D01*
X27789761Y63875000D01*
X27939585Y63845198D01*
X27939585Y63845198D01*
G37*
G36*
X54460000Y61652000D02*
G01*
X53458000Y61652000D01*
X53458000Y62554000D01*
X54460000Y62554000D01*
X54460000Y61652000D01*
X54460000Y61652000D01*
G37*
G36*
X62467443Y63632481D02*
G01*
X62533627Y63625963D01*
X62703466Y63574443D01*
X62859991Y63490778D01*
X62895729Y63461448D01*
X62997186Y63378186D01*
X63065059Y63295481D01*
X63109778Y63240991D01*
X63193443Y63084466D01*
X63244963Y62914627D01*
X63262359Y62738000D01*
X63244963Y62561373D01*
X63193443Y62391534D01*
X63109778Y62235009D01*
X63080448Y62199271D01*
X62997186Y62097814D01*
X62895729Y62014552D01*
X62859991Y61985222D01*
X62703466Y61901557D01*
X62533627Y61850037D01*
X62467442Y61843518D01*
X62401260Y61837000D01*
X62312740Y61837000D01*
X62246558Y61843518D01*
X62180373Y61850037D01*
X62010534Y61901557D01*
X61854009Y61985222D01*
X61818271Y62014552D01*
X61716814Y62097814D01*
X61633552Y62199271D01*
X61604222Y62235009D01*
X61520557Y62391534D01*
X61469037Y62561373D01*
X61451641Y62738000D01*
X61469037Y62914627D01*
X61520557Y63084466D01*
X61604222Y63240991D01*
X61648941Y63295481D01*
X61716814Y63378186D01*
X61818271Y63461448D01*
X61854009Y63490778D01*
X62010534Y63574443D01*
X62180373Y63625963D01*
X62246557Y63632481D01*
X62312740Y63639000D01*
X62401260Y63639000D01*
X62467443Y63632481D01*
X62467443Y63632481D01*
G37*
G36*
X37224562Y63406819D02*
G01*
X37259481Y63396226D01*
X37291663Y63379024D01*
X37319873Y63355873D01*
X37343024Y63327663D01*
X37360226Y63295481D01*
X37370819Y63260562D01*
X37375000Y63218105D01*
X37375000Y62076895D01*
X37370819Y62034438D01*
X37360226Y61999519D01*
X37343024Y61967337D01*
X37319873Y61939127D01*
X37291663Y61915976D01*
X37259481Y61898774D01*
X37224562Y61888181D01*
X37182105Y61884000D01*
X35715895Y61884000D01*
X35673438Y61888181D01*
X35638519Y61898774D01*
X35606337Y61915976D01*
X35578127Y61939127D01*
X35554976Y61967337D01*
X35537774Y61999519D01*
X35527181Y62034438D01*
X35523000Y62076895D01*
X35523000Y63218105D01*
X35527181Y63260562D01*
X35537774Y63295481D01*
X35554976Y63327663D01*
X35578127Y63355873D01*
X35606337Y63379024D01*
X35638519Y63396226D01*
X35673438Y63406819D01*
X35715895Y63411000D01*
X37182105Y63411000D01*
X37224562Y63406819D01*
X37224562Y63406819D01*
G37*
G36*
X52460000Y62602000D02*
G01*
X51458000Y62602000D01*
X51458000Y63504000D01*
X52460000Y63504000D01*
X52460000Y62602000D01*
X52460000Y62602000D01*
G37*
G36*
X62467443Y66172481D02*
G01*
X62533627Y66165963D01*
X62703466Y66114443D01*
X62859991Y66030778D01*
X62895729Y66001448D01*
X62997186Y65918186D01*
X63080448Y65816729D01*
X63109778Y65780991D01*
X63193443Y65624466D01*
X63244963Y65454627D01*
X63262359Y65278000D01*
X63244963Y65101373D01*
X63193443Y64931534D01*
X63109778Y64775009D01*
X63108129Y64773000D01*
X62997186Y64637814D01*
X62895729Y64554552D01*
X62859991Y64525222D01*
X62703466Y64441557D01*
X62533627Y64390037D01*
X62467443Y64383519D01*
X62401260Y64377000D01*
X62312740Y64377000D01*
X62246557Y64383519D01*
X62180373Y64390037D01*
X62010534Y64441557D01*
X61854009Y64525222D01*
X61818271Y64554552D01*
X61716814Y64637814D01*
X61605871Y64773000D01*
X61604222Y64775009D01*
X61520557Y64931534D01*
X61469037Y65101373D01*
X61451641Y65278000D01*
X61469037Y65454627D01*
X61520557Y65624466D01*
X61604222Y65780991D01*
X61633552Y65816729D01*
X61716814Y65918186D01*
X61818271Y66001448D01*
X61854009Y66030778D01*
X62010534Y66114443D01*
X62180373Y66165963D01*
X62246557Y66172481D01*
X62312740Y66179000D01*
X62401260Y66179000D01*
X62467443Y66172481D01*
X62467443Y66172481D01*
G37*
G36*
X52460000Y64512000D02*
G01*
X51458000Y64512000D01*
X51458000Y65414000D01*
X52460000Y65414000D01*
X52460000Y64512000D01*
X52460000Y64512000D01*
G37*
G36*
X5939585Y67845198D02*
G01*
X6089410Y67815396D01*
X6371674Y67698479D01*
X6625705Y67528741D01*
X6841741Y67312705D01*
X7011479Y67058674D01*
X7128396Y66776410D01*
X7128396Y66776409D01*
X7188000Y66476761D01*
X7188000Y66171239D01*
X7176702Y66114442D01*
X7128396Y65871590D01*
X7011479Y65589326D01*
X6841741Y65335295D01*
X6625705Y65119259D01*
X6371674Y64949521D01*
X6089410Y64832604D01*
X5939585Y64802802D01*
X5789761Y64773000D01*
X5484239Y64773000D01*
X5334415Y64802802D01*
X5184590Y64832604D01*
X4902326Y64949521D01*
X4648295Y65119259D01*
X4432259Y65335295D01*
X4262521Y65589326D01*
X4145604Y65871590D01*
X4097298Y66114442D01*
X4086000Y66171239D01*
X4086000Y66476761D01*
X4145604Y66776409D01*
X4145604Y66776410D01*
X4262521Y67058674D01*
X4432259Y67312705D01*
X4648295Y67528741D01*
X4902326Y67698479D01*
X5184590Y67815396D01*
X5334415Y67845198D01*
X5484239Y67875000D01*
X5789761Y67875000D01*
X5939585Y67845198D01*
X5939585Y67845198D01*
G37*
G36*
X27939585Y67845198D02*
G01*
X28089410Y67815396D01*
X28371674Y67698479D01*
X28625705Y67528741D01*
X28841741Y67312705D01*
X29011479Y67058674D01*
X29128396Y66776410D01*
X29128396Y66776409D01*
X29188000Y66476761D01*
X29188000Y66171239D01*
X29176702Y66114442D01*
X29128396Y65871590D01*
X29011479Y65589326D01*
X28841741Y65335295D01*
X28625705Y65119259D01*
X28371674Y64949521D01*
X28089410Y64832604D01*
X27939585Y64802802D01*
X27789761Y64773000D01*
X27484239Y64773000D01*
X27334415Y64802802D01*
X27184590Y64832604D01*
X26902326Y64949521D01*
X26648295Y65119259D01*
X26432259Y65335295D01*
X26262521Y65589326D01*
X26145604Y65871590D01*
X26097298Y66114442D01*
X26086000Y66171239D01*
X26086000Y66476761D01*
X26145604Y66776409D01*
X26145604Y66776410D01*
X26262521Y67058674D01*
X26432259Y67312705D01*
X26648295Y67528741D01*
X26902326Y67698479D01*
X27184590Y67815396D01*
X27334415Y67845198D01*
X27484239Y67875000D01*
X27789761Y67875000D01*
X27939585Y67845198D01*
X27939585Y67845198D01*
G37*
G36*
X37224562Y66381819D02*
G01*
X37259481Y66371226D01*
X37291663Y66354024D01*
X37319873Y66330873D01*
X37343024Y66302663D01*
X37360226Y66270481D01*
X37370819Y66235562D01*
X37375000Y66193105D01*
X37375000Y65051895D01*
X37370819Y65009438D01*
X37360226Y64974519D01*
X37343024Y64942337D01*
X37319873Y64914127D01*
X37291663Y64890976D01*
X37259481Y64873774D01*
X37224562Y64863181D01*
X37182105Y64859000D01*
X35715895Y64859000D01*
X35673438Y64863181D01*
X35638519Y64873774D01*
X35606337Y64890976D01*
X35578127Y64914127D01*
X35554976Y64942337D01*
X35537774Y64974519D01*
X35527181Y65009438D01*
X35523000Y65051895D01*
X35523000Y66193105D01*
X35527181Y66235562D01*
X35537774Y66270481D01*
X35554976Y66302663D01*
X35578127Y66330873D01*
X35606337Y66354024D01*
X35638519Y66371226D01*
X35673438Y66381819D01*
X35715895Y66386000D01*
X37182105Y66386000D01*
X37224562Y66381819D01*
X37224562Y66381819D01*
G37*
G36*
X54460000Y65462000D02*
G01*
X53458000Y65462000D01*
X53458000Y66364000D01*
X54460000Y66364000D01*
X54460000Y65462000D01*
X54460000Y65462000D01*
G37*
G36*
X47214000Y66034000D02*
G01*
X46512000Y66034000D01*
X46512000Y67636000D01*
X47214000Y67636000D01*
X47214000Y66034000D01*
X47214000Y66034000D01*
G37*
G36*
X48484000Y66034000D02*
G01*
X47782000Y66034000D01*
X47782000Y67636000D01*
X48484000Y67636000D01*
X48484000Y66034000D01*
X48484000Y66034000D01*
G37*
G36*
X45944000Y66034000D02*
G01*
X45242000Y66034000D01*
X45242000Y67636000D01*
X45944000Y67636000D01*
X45944000Y66034000D01*
X45944000Y66034000D01*
G37*
G36*
X43404000Y66034000D02*
G01*
X42702000Y66034000D01*
X42702000Y67636000D01*
X43404000Y67636000D01*
X43404000Y66034000D01*
X43404000Y66034000D01*
G37*
G36*
X42134000Y66034000D02*
G01*
X41432000Y66034000D01*
X41432000Y67636000D01*
X42134000Y67636000D01*
X42134000Y66034000D01*
X42134000Y66034000D01*
G37*
G36*
X40864000Y66034000D02*
G01*
X40162000Y66034000D01*
X40162000Y67636000D01*
X40864000Y67636000D01*
X40864000Y66034000D01*
X40864000Y66034000D01*
G37*
G36*
X39594000Y66034000D02*
G01*
X38892000Y66034000D01*
X38892000Y67636000D01*
X39594000Y67636000D01*
X39594000Y66034000D01*
X39594000Y66034000D01*
G37*
G36*
X44674000Y66034000D02*
G01*
X43972000Y66034000D01*
X43972000Y67636000D01*
X44674000Y67636000D01*
X44674000Y66034000D01*
X44674000Y66034000D01*
G37*
G36*
X52460000Y66412000D02*
G01*
X51458000Y66412000D01*
X51458000Y67314000D01*
X52460000Y67314000D01*
X52460000Y66412000D01*
X52460000Y66412000D01*
G37*
G36*
X62467442Y68712482D02*
G01*
X62533627Y68705963D01*
X62703466Y68654443D01*
X62859991Y68570778D01*
X62895729Y68541448D01*
X62997186Y68458186D01*
X63080448Y68356729D01*
X63109778Y68320991D01*
X63193443Y68164466D01*
X63244963Y67994627D01*
X63262359Y67818000D01*
X63244963Y67641373D01*
X63193443Y67471534D01*
X63109778Y67315009D01*
X63107887Y67312705D01*
X62997186Y67177814D01*
X62895729Y67094552D01*
X62859991Y67065222D01*
X62703466Y66981557D01*
X62533627Y66930037D01*
X62467442Y66923518D01*
X62401260Y66917000D01*
X62312740Y66917000D01*
X62246558Y66923518D01*
X62180373Y66930037D01*
X62010534Y66981557D01*
X61854009Y67065222D01*
X61818271Y67094552D01*
X61716814Y67177814D01*
X61606113Y67312705D01*
X61604222Y67315009D01*
X61520557Y67471534D01*
X61469037Y67641373D01*
X61451641Y67818000D01*
X61469037Y67994627D01*
X61520557Y68164466D01*
X61604222Y68320991D01*
X61633552Y68356729D01*
X61716814Y68458186D01*
X61818271Y68541448D01*
X61854009Y68570778D01*
X62010534Y68654443D01*
X62180373Y68705963D01*
X62246558Y68712482D01*
X62312740Y68719000D01*
X62401260Y68719000D01*
X62467442Y68712482D01*
X62467442Y68712482D01*
G37*
G36*
X52460000Y68322000D02*
G01*
X51458000Y68322000D01*
X51458000Y69224000D01*
X52460000Y69224000D01*
X52460000Y68322000D01*
X52460000Y68322000D01*
G37*
G36*
X27939585Y71845198D02*
G01*
X28089410Y71815396D01*
X28371674Y71698479D01*
X28625705Y71528741D01*
X28841741Y71312705D01*
X29011479Y71058674D01*
X29128396Y70776410D01*
X29188000Y70476760D01*
X29188000Y70171240D01*
X29128396Y69871590D01*
X29011479Y69589326D01*
X28841741Y69335295D01*
X28625705Y69119259D01*
X28371674Y68949521D01*
X28089410Y68832604D01*
X27939585Y68802802D01*
X27789761Y68773000D01*
X27484239Y68773000D01*
X27334415Y68802802D01*
X27184590Y68832604D01*
X26902326Y68949521D01*
X26648295Y69119259D01*
X26432259Y69335295D01*
X26262521Y69589326D01*
X26145604Y69871590D01*
X26086000Y70171240D01*
X26086000Y70476760D01*
X26145604Y70776410D01*
X26262521Y71058674D01*
X26432259Y71312705D01*
X26648295Y71528741D01*
X26902326Y71698479D01*
X27184590Y71815396D01*
X27334415Y71845198D01*
X27484239Y71875000D01*
X27789761Y71875000D01*
X27939585Y71845198D01*
X27939585Y71845198D01*
G37*
G36*
X5939585Y71845198D02*
G01*
X6089410Y71815396D01*
X6371674Y71698479D01*
X6625705Y71528741D01*
X6841741Y71312705D01*
X7011479Y71058674D01*
X7128396Y70776410D01*
X7188000Y70476760D01*
X7188000Y70171240D01*
X7128396Y69871590D01*
X7011479Y69589326D01*
X6841741Y69335295D01*
X6625705Y69119259D01*
X6371674Y68949521D01*
X6089410Y68832604D01*
X5939585Y68802802D01*
X5789761Y68773000D01*
X5484239Y68773000D01*
X5334415Y68802802D01*
X5184590Y68832604D01*
X4902326Y68949521D01*
X4648295Y69119259D01*
X4432259Y69335295D01*
X4262521Y69589326D01*
X4145604Y69871590D01*
X4086000Y70171240D01*
X4086000Y70476760D01*
X4145604Y70776410D01*
X4262521Y71058674D01*
X4432259Y71312705D01*
X4648295Y71528741D01*
X4902326Y71698479D01*
X5184590Y71815396D01*
X5334415Y71845198D01*
X5484239Y71875000D01*
X5789761Y71875000D01*
X5939585Y71845198D01*
X5939585Y71845198D01*
G37*
G36*
X48070674Y70469535D02*
G01*
X48108367Y70458101D01*
X48143103Y70439534D01*
X48173548Y70414548D01*
X48198534Y70384103D01*
X48217101Y70349367D01*
X48228535Y70311674D01*
X48233000Y70266339D01*
X48233000Y69179661D01*
X48228535Y69134326D01*
X48217101Y69096633D01*
X48198534Y69061897D01*
X48173548Y69031452D01*
X48143103Y69006466D01*
X48108367Y68987899D01*
X48070674Y68976465D01*
X48025339Y68972000D01*
X47188661Y68972000D01*
X47143326Y68976465D01*
X47105633Y68987899D01*
X47070897Y69006466D01*
X47040452Y69031452D01*
X47015466Y69061897D01*
X46996899Y69096633D01*
X46985465Y69134326D01*
X46981000Y69179661D01*
X46981000Y70266339D01*
X46985465Y70311674D01*
X46996899Y70349367D01*
X47015466Y70384103D01*
X47040452Y70414548D01*
X47070897Y70439534D01*
X47105633Y70458101D01*
X47143326Y70469535D01*
X47188661Y70474000D01*
X48025339Y70474000D01*
X48070674Y70469535D01*
X48070674Y70469535D01*
G37*
G36*
X50120674Y70469535D02*
G01*
X50158367Y70458101D01*
X50193103Y70439534D01*
X50223548Y70414548D01*
X50248534Y70384103D01*
X50267101Y70349367D01*
X50278535Y70311674D01*
X50283000Y70266339D01*
X50283000Y69179661D01*
X50278535Y69134326D01*
X50267101Y69096633D01*
X50248534Y69061897D01*
X50223548Y69031452D01*
X50193103Y69006466D01*
X50158367Y68987899D01*
X50120674Y68976465D01*
X50075339Y68972000D01*
X49238661Y68972000D01*
X49193326Y68976465D01*
X49155633Y68987899D01*
X49120897Y69006466D01*
X49090452Y69031452D01*
X49065466Y69061897D01*
X49046899Y69096633D01*
X49035465Y69134326D01*
X49031000Y69179661D01*
X49031000Y70266339D01*
X49035465Y70311674D01*
X49046899Y70349367D01*
X49065466Y70384103D01*
X49090452Y70414548D01*
X49120897Y70439534D01*
X49155633Y70458101D01*
X49193326Y70469535D01*
X49238661Y70474000D01*
X50075339Y70474000D01*
X50120674Y70469535D01*
X50120674Y70469535D01*
G37*
G36*
X54460000Y69272000D02*
G01*
X53458000Y69272000D01*
X53458000Y70174000D01*
X54460000Y70174000D01*
X54460000Y69272000D01*
X54460000Y69272000D01*
G37*
G36*
X62467443Y71252481D02*
G01*
X62533627Y71245963D01*
X62703466Y71194443D01*
X62859991Y71110778D01*
X62895729Y71081448D01*
X62997186Y70998186D01*
X63080448Y70896729D01*
X63109778Y70860991D01*
X63193443Y70704466D01*
X63244963Y70534627D01*
X63262359Y70358000D01*
X63244963Y70181373D01*
X63193443Y70011534D01*
X63109778Y69855009D01*
X63080448Y69819271D01*
X62997186Y69717814D01*
X62895729Y69634552D01*
X62859991Y69605222D01*
X62703466Y69521557D01*
X62533627Y69470037D01*
X62467443Y69463519D01*
X62401260Y69457000D01*
X62312740Y69457000D01*
X62246557Y69463519D01*
X62180373Y69470037D01*
X62010534Y69521557D01*
X61854009Y69605222D01*
X61818271Y69634552D01*
X61716814Y69717814D01*
X61633552Y69819271D01*
X61604222Y69855009D01*
X61520557Y70011534D01*
X61469037Y70181373D01*
X61451641Y70358000D01*
X61469037Y70534627D01*
X61520557Y70704466D01*
X61604222Y70860991D01*
X61633552Y70896729D01*
X61716814Y70998186D01*
X61818271Y71081448D01*
X61854009Y71110778D01*
X62010534Y71194443D01*
X62180373Y71245963D01*
X62246557Y71252481D01*
X62312740Y71259000D01*
X62401260Y71259000D01*
X62467443Y71252481D01*
X62467443Y71252481D01*
G37*
G36*
X52460000Y70222000D02*
G01*
X51458000Y70222000D01*
X51458000Y71124000D01*
X52460000Y71124000D01*
X52460000Y70222000D01*
X52460000Y70222000D01*
G37*
G36*
X50129674Y72755535D02*
G01*
X50167367Y72744101D01*
X50202103Y72725534D01*
X50232548Y72700548D01*
X50257534Y72670103D01*
X50276101Y72635367D01*
X50287535Y72597674D01*
X50292000Y72552339D01*
X50292000Y71465661D01*
X50287535Y71420326D01*
X50276101Y71382633D01*
X50257534Y71347897D01*
X50232548Y71317452D01*
X50202103Y71292466D01*
X50167367Y71273899D01*
X50129674Y71262465D01*
X50084339Y71258000D01*
X49247661Y71258000D01*
X49202326Y71262465D01*
X49164633Y71273899D01*
X49129897Y71292466D01*
X49099452Y71317452D01*
X49074466Y71347897D01*
X49055899Y71382633D01*
X49044465Y71420326D01*
X49040000Y71465661D01*
X49040000Y72552339D01*
X49044465Y72597674D01*
X49055899Y72635367D01*
X49074466Y72670103D01*
X49099452Y72700548D01*
X49129897Y72725534D01*
X49164633Y72744101D01*
X49202326Y72755535D01*
X49247661Y72760000D01*
X50084339Y72760000D01*
X50129674Y72755535D01*
X50129674Y72755535D01*
G37*
G36*
X48079674Y72755535D02*
G01*
X48117367Y72744101D01*
X48152103Y72725534D01*
X48182548Y72700548D01*
X48207534Y72670103D01*
X48226101Y72635367D01*
X48237535Y72597674D01*
X48242000Y72552339D01*
X48242000Y71465661D01*
X48237535Y71420326D01*
X48226101Y71382633D01*
X48207534Y71347897D01*
X48182548Y71317452D01*
X48152103Y71292466D01*
X48117367Y71273899D01*
X48079674Y71262465D01*
X48034339Y71258000D01*
X47197661Y71258000D01*
X47152326Y71262465D01*
X47114633Y71273899D01*
X47079897Y71292466D01*
X47049452Y71317452D01*
X47024466Y71347897D01*
X47005899Y71382633D01*
X46994465Y71420326D01*
X46990000Y71465661D01*
X46990000Y72552339D01*
X46994465Y72597674D01*
X47005899Y72635367D01*
X47024466Y72670103D01*
X47049452Y72700548D01*
X47079897Y72725534D01*
X47114633Y72744101D01*
X47152326Y72755535D01*
X47197661Y72760000D01*
X48034339Y72760000D01*
X48079674Y72755535D01*
X48079674Y72755535D01*
G37*
G36*
X52460000Y72132000D02*
G01*
X51458000Y72132000D01*
X51458000Y73034000D01*
X52460000Y73034000D01*
X52460000Y72132000D01*
X52460000Y72132000D01*
G37*
G36*
X5939585Y75845198D02*
G01*
X6089410Y75815396D01*
X6371674Y75698479D01*
X6625705Y75528741D01*
X6841741Y75312705D01*
X7011479Y75058674D01*
X7128396Y74776410D01*
X7188000Y74476760D01*
X7188000Y74171240D01*
X7128396Y73871590D01*
X7011479Y73589326D01*
X6841741Y73335295D01*
X6625705Y73119259D01*
X6371674Y72949521D01*
X6089410Y72832604D01*
X5939585Y72802802D01*
X5789761Y72773000D01*
X5484239Y72773000D01*
X5334415Y72802802D01*
X5184590Y72832604D01*
X4902326Y72949521D01*
X4648295Y73119259D01*
X4432259Y73335295D01*
X4262521Y73589326D01*
X4145604Y73871590D01*
X4086000Y74171240D01*
X4086000Y74476760D01*
X4145604Y74776410D01*
X4262521Y75058674D01*
X4432259Y75312705D01*
X4648295Y75528741D01*
X4902326Y75698479D01*
X5184590Y75815396D01*
X5334415Y75845198D01*
X5484239Y75875000D01*
X5789761Y75875000D01*
X5939585Y75845198D01*
X5939585Y75845198D01*
G37*
G36*
X27939585Y75845198D02*
G01*
X28089410Y75815396D01*
X28371674Y75698479D01*
X28625705Y75528741D01*
X28841741Y75312705D01*
X29011479Y75058674D01*
X29128396Y74776410D01*
X29188000Y74476760D01*
X29188000Y74171240D01*
X29128396Y73871590D01*
X29011479Y73589326D01*
X28841741Y73335295D01*
X28625705Y73119259D01*
X28371674Y72949521D01*
X28089410Y72832604D01*
X27939585Y72802802D01*
X27789761Y72773000D01*
X27484239Y72773000D01*
X27334415Y72802802D01*
X27184590Y72832604D01*
X26902326Y72949521D01*
X26648295Y73119259D01*
X26432259Y73335295D01*
X26262521Y73589326D01*
X26145604Y73871590D01*
X26086000Y74171240D01*
X26086000Y74476760D01*
X26145604Y74776410D01*
X26262521Y75058674D01*
X26432259Y75312705D01*
X26648295Y75528741D01*
X26902326Y75698479D01*
X27184590Y75815396D01*
X27334415Y75845198D01*
X27484239Y75875000D01*
X27789761Y75875000D01*
X27939585Y75845198D01*
X27939585Y75845198D01*
G37*
G36*
X54460000Y73082000D02*
G01*
X53458000Y73082000D01*
X53458000Y73984000D01*
X54460000Y73984000D01*
X54460000Y73082000D01*
X54460000Y73082000D01*
G37*
G36*
X50120674Y75041535D02*
G01*
X50158367Y75030101D01*
X50193103Y75011534D01*
X50223548Y74986548D01*
X50248534Y74956103D01*
X50267101Y74921367D01*
X50278535Y74883674D01*
X50283000Y74838339D01*
X50283000Y73751661D01*
X50278535Y73706326D01*
X50267101Y73668633D01*
X50248534Y73633897D01*
X50223548Y73603452D01*
X50193103Y73578466D01*
X50158367Y73559899D01*
X50120674Y73548465D01*
X50075339Y73544000D01*
X49238661Y73544000D01*
X49193326Y73548465D01*
X49155633Y73559899D01*
X49120897Y73578466D01*
X49090452Y73603452D01*
X49065466Y73633897D01*
X49046899Y73668633D01*
X49035465Y73706326D01*
X49031000Y73751661D01*
X49031000Y74838339D01*
X49035465Y74883674D01*
X49046899Y74921367D01*
X49065466Y74956103D01*
X49090452Y74986548D01*
X49120897Y75011534D01*
X49155633Y75030101D01*
X49193326Y75041535D01*
X49238661Y75046000D01*
X50075339Y75046000D01*
X50120674Y75041535D01*
X50120674Y75041535D01*
G37*
G36*
X48070674Y75041535D02*
G01*
X48108367Y75030101D01*
X48143103Y75011534D01*
X48173548Y74986548D01*
X48198534Y74956103D01*
X48217101Y74921367D01*
X48228535Y74883674D01*
X48233000Y74838339D01*
X48233000Y73751661D01*
X48228535Y73706326D01*
X48217101Y73668633D01*
X48198534Y73633897D01*
X48173548Y73603452D01*
X48143103Y73578466D01*
X48108367Y73559899D01*
X48070674Y73548465D01*
X48025339Y73544000D01*
X47188661Y73544000D01*
X47143326Y73548465D01*
X47105633Y73559899D01*
X47070897Y73578466D01*
X47040452Y73603452D01*
X47015466Y73633897D01*
X46996899Y73668633D01*
X46985465Y73706326D01*
X46981000Y73751661D01*
X46981000Y74838339D01*
X46985465Y74883674D01*
X46996899Y74921367D01*
X47015466Y74956103D01*
X47040452Y74986548D01*
X47070897Y75011534D01*
X47105633Y75030101D01*
X47143326Y75041535D01*
X47188661Y75046000D01*
X48025339Y75046000D01*
X48070674Y75041535D01*
X48070674Y75041535D01*
G37*
G36*
X62467443Y75824481D02*
G01*
X62533627Y75817963D01*
X62703466Y75766443D01*
X62859991Y75682778D01*
X62895729Y75653448D01*
X62997186Y75570186D01*
X63080448Y75468729D01*
X63109778Y75432991D01*
X63193443Y75276466D01*
X63244963Y75106627D01*
X63262359Y74930000D01*
X63244963Y74753373D01*
X63193443Y74583534D01*
X63109778Y74427009D01*
X63080448Y74391271D01*
X62997186Y74289814D01*
X62895729Y74206552D01*
X62859991Y74177222D01*
X62703466Y74093557D01*
X62533627Y74042037D01*
X62467443Y74035519D01*
X62401260Y74029000D01*
X62312740Y74029000D01*
X62246557Y74035519D01*
X62180373Y74042037D01*
X62010534Y74093557D01*
X61854009Y74177222D01*
X61818271Y74206552D01*
X61716814Y74289814D01*
X61633552Y74391271D01*
X61604222Y74427009D01*
X61520557Y74583534D01*
X61469037Y74753373D01*
X61451641Y74930000D01*
X61469037Y75106627D01*
X61520557Y75276466D01*
X61604222Y75432991D01*
X61633552Y75468729D01*
X61716814Y75570186D01*
X61818271Y75653448D01*
X61854009Y75682778D01*
X62010534Y75766443D01*
X62180373Y75817963D01*
X62246557Y75824481D01*
X62312740Y75831000D01*
X62401260Y75831000D01*
X62467443Y75824481D01*
X62467443Y75824481D01*
G37*
G36*
X52460000Y74032000D02*
G01*
X51458000Y74032000D01*
X51458000Y74934000D01*
X52460000Y74934000D01*
X52460000Y74032000D01*
X52460000Y74032000D01*
G37*
G36*
X62467443Y78364481D02*
G01*
X62533627Y78357963D01*
X62703466Y78306443D01*
X62859991Y78222778D01*
X62895729Y78193448D01*
X62997186Y78110186D01*
X63080448Y78008729D01*
X63109778Y77972991D01*
X63193443Y77816466D01*
X63244963Y77646627D01*
X63262359Y77470000D01*
X63244963Y77293373D01*
X63193443Y77123534D01*
X63109778Y76967009D01*
X63080448Y76931271D01*
X62997186Y76829814D01*
X62895729Y76746552D01*
X62859991Y76717222D01*
X62703466Y76633557D01*
X62533627Y76582037D01*
X62467442Y76575518D01*
X62401260Y76569000D01*
X62312740Y76569000D01*
X62246558Y76575518D01*
X62180373Y76582037D01*
X62010534Y76633557D01*
X61854009Y76717222D01*
X61818271Y76746552D01*
X61716814Y76829814D01*
X61633552Y76931271D01*
X61604222Y76967009D01*
X61520557Y77123534D01*
X61469037Y77293373D01*
X61451641Y77470000D01*
X61469037Y77646627D01*
X61520557Y77816466D01*
X61604222Y77972991D01*
X61633552Y78008729D01*
X61716814Y78110186D01*
X61818271Y78193448D01*
X61854009Y78222778D01*
X62010534Y78306443D01*
X62180373Y78357963D01*
X62246557Y78364481D01*
X62312740Y78371000D01*
X62401260Y78371000D01*
X62467443Y78364481D01*
X62467443Y78364481D01*
G37*
G36*
X63258000Y79109000D02*
G01*
X61456000Y79109000D01*
X61456000Y80911000D01*
X63258000Y80911000D01*
X63258000Y79109000D01*
X63258000Y79109000D01*
G37*
G36*
X52092099Y80302955D02*
G01*
X52129595Y80291580D01*
X52164154Y80273108D01*
X52194447Y80248247D01*
X52219308Y80217954D01*
X52237780Y80183395D01*
X52249155Y80145899D01*
X52253600Y80100762D01*
X52253600Y79462038D01*
X52249155Y79416901D01*
X52237780Y79379405D01*
X52219308Y79344846D01*
X52194447Y79314553D01*
X52164154Y79289692D01*
X52129595Y79271220D01*
X52092099Y79259845D01*
X52046962Y79255400D01*
X51308238Y79255400D01*
X51263101Y79259845D01*
X51225605Y79271220D01*
X51191046Y79289692D01*
X51160753Y79314553D01*
X51135892Y79344846D01*
X51117420Y79379405D01*
X51106045Y79416901D01*
X51101600Y79462038D01*
X51101600Y80100762D01*
X51106045Y80145899D01*
X51117420Y80183395D01*
X51135892Y80217954D01*
X51160753Y80248247D01*
X51191046Y80273108D01*
X51225605Y80291580D01*
X51263101Y80302955D01*
X51308238Y80307400D01*
X52046962Y80307400D01*
X52092099Y80302955D01*
X52092099Y80302955D01*
G37*
G36*
X53842099Y80302955D02*
G01*
X53879595Y80291580D01*
X53914154Y80273108D01*
X53944447Y80248247D01*
X53969308Y80217954D01*
X53987780Y80183395D01*
X53999155Y80145899D01*
X54003600Y80100762D01*
X54003600Y79462038D01*
X53999155Y79416901D01*
X53987780Y79379405D01*
X53969308Y79344846D01*
X53944447Y79314553D01*
X53914154Y79289692D01*
X53879595Y79271220D01*
X53842099Y79259845D01*
X53796962Y79255400D01*
X53058238Y79255400D01*
X53013101Y79259845D01*
X52975605Y79271220D01*
X52941046Y79289692D01*
X52910753Y79314553D01*
X52885892Y79344846D01*
X52867420Y79379405D01*
X52856045Y79416901D01*
X52851600Y79462038D01*
X52851600Y80100762D01*
X52856045Y80145899D01*
X52867420Y80183395D01*
X52885892Y80217954D01*
X52910753Y80248247D01*
X52941046Y80273108D01*
X52975605Y80291580D01*
X53013101Y80302955D01*
X53058238Y80307400D01*
X53796962Y80307400D01*
X53842099Y80302955D01*
X53842099Y80302955D01*
G37*
G36*
X58033099Y80302955D02*
G01*
X58070595Y80291580D01*
X58105154Y80273108D01*
X58135447Y80248247D01*
X58160308Y80217954D01*
X58178780Y80183395D01*
X58190155Y80145899D01*
X58194600Y80100762D01*
X58194600Y79462038D01*
X58190155Y79416901D01*
X58178780Y79379405D01*
X58160308Y79344846D01*
X58135447Y79314553D01*
X58105154Y79289692D01*
X58070595Y79271220D01*
X58033099Y79259845D01*
X57987962Y79255400D01*
X57249238Y79255400D01*
X57204101Y79259845D01*
X57166605Y79271220D01*
X57132046Y79289692D01*
X57101753Y79314553D01*
X57076892Y79344846D01*
X57058420Y79379405D01*
X57047045Y79416901D01*
X57042600Y79462038D01*
X57042600Y80100762D01*
X57047045Y80145899D01*
X57058420Y80183395D01*
X57076892Y80217954D01*
X57101753Y80248247D01*
X57132046Y80273108D01*
X57166605Y80291580D01*
X57204101Y80302955D01*
X57249238Y80307400D01*
X57987962Y80307400D01*
X58033099Y80302955D01*
X58033099Y80302955D01*
G37*
G36*
X56283099Y80302955D02*
G01*
X56320595Y80291580D01*
X56355154Y80273108D01*
X56385447Y80248247D01*
X56410308Y80217954D01*
X56428780Y80183395D01*
X56440155Y80145899D01*
X56444600Y80100762D01*
X56444600Y79462038D01*
X56440155Y79416901D01*
X56428780Y79379405D01*
X56410308Y79344846D01*
X56385447Y79314553D01*
X56355154Y79289692D01*
X56320595Y79271220D01*
X56283099Y79259845D01*
X56237962Y79255400D01*
X55499238Y79255400D01*
X55454101Y79259845D01*
X55416605Y79271220D01*
X55382046Y79289692D01*
X55351753Y79314553D01*
X55326892Y79344846D01*
X55308420Y79379405D01*
X55297045Y79416901D01*
X55292600Y79462038D01*
X55292600Y80100762D01*
X55297045Y80145899D01*
X55308420Y80183395D01*
X55326892Y80217954D01*
X55351753Y80248247D01*
X55382046Y80273108D01*
X55416605Y80291580D01*
X55454101Y80302955D01*
X55499238Y80307400D01*
X56237962Y80307400D01*
X56283099Y80302955D01*
X56283099Y80302955D01*
G37*
G36*
X6596700Y79672100D02*
G01*
X1494700Y79672100D01*
X1494700Y86774100D01*
X6596700Y86774100D01*
X6596700Y79672100D01*
X6596700Y79672100D01*
G37*
G36*
X18596700Y79722900D02*
G01*
X13494700Y79722900D01*
X13494700Y86824900D01*
X18596700Y86824900D01*
X18596700Y79722900D01*
X18596700Y79722900D01*
G37*
G36*
X24186200Y79824500D02*
G01*
X19084200Y79824500D01*
X19084200Y86926500D01*
X24186200Y86926500D01*
X24186200Y79824500D01*
X24186200Y79824500D01*
G37*
G36*
X36186200Y79875300D02*
G01*
X31084200Y79875300D01*
X31084200Y86977300D01*
X36186200Y86977300D01*
X36186200Y79875300D01*
X36186200Y79875300D01*
G37*
G36*
X40037199Y81496755D02*
G01*
X40074695Y81485380D01*
X40109254Y81466908D01*
X40139547Y81442047D01*
X40164408Y81411754D01*
X40182880Y81377195D01*
X40194255Y81339699D01*
X40198700Y81294562D01*
X40198700Y80655838D01*
X40194255Y80610701D01*
X40182880Y80573205D01*
X40164408Y80538646D01*
X40139547Y80508353D01*
X40109254Y80483492D01*
X40074695Y80465020D01*
X40037199Y80453645D01*
X39992062Y80449200D01*
X39253338Y80449200D01*
X39208201Y80453645D01*
X39170705Y80465020D01*
X39136146Y80483492D01*
X39105853Y80508353D01*
X39080992Y80538646D01*
X39062520Y80573205D01*
X39051145Y80610701D01*
X39046700Y80655838D01*
X39046700Y81294562D01*
X39051145Y81339699D01*
X39062520Y81377195D01*
X39080992Y81411754D01*
X39105853Y81442047D01*
X39136146Y81466908D01*
X39170705Y81485380D01*
X39208201Y81496755D01*
X39253338Y81501200D01*
X39992062Y81501200D01*
X40037199Y81496755D01*
X40037199Y81496755D01*
G37*
G36*
X38287199Y81496755D02*
G01*
X38324695Y81485380D01*
X38359254Y81466908D01*
X38389547Y81442047D01*
X38414408Y81411754D01*
X38432880Y81377195D01*
X38444255Y81339699D01*
X38448700Y81294562D01*
X38448700Y80655838D01*
X38444255Y80610701D01*
X38432880Y80573205D01*
X38414408Y80538646D01*
X38389547Y80508353D01*
X38359254Y80483492D01*
X38324695Y80465020D01*
X38287199Y80453645D01*
X38242062Y80449200D01*
X37503338Y80449200D01*
X37458201Y80453645D01*
X37420705Y80465020D01*
X37386146Y80483492D01*
X37355853Y80508353D01*
X37330992Y80538646D01*
X37312520Y80573205D01*
X37301145Y80610701D01*
X37296700Y80655838D01*
X37296700Y81294562D01*
X37301145Y81339699D01*
X37312520Y81377195D01*
X37330992Y81411754D01*
X37355853Y81442047D01*
X37386146Y81466908D01*
X37420705Y81485380D01*
X37458201Y81496755D01*
X37503338Y81501200D01*
X38242062Y81501200D01*
X38287199Y81496755D01*
X38287199Y81496755D01*
G37*
G36*
X63671206Y87983838D02*
G01*
X64190055Y87768924D01*
X64657007Y87456916D01*
X65054116Y87059807D01*
X65366124Y86592855D01*
X65581038Y86074006D01*
X65581038Y86074005D01*
X65690600Y85523200D01*
X65690600Y84961600D01*
X65644411Y84729391D01*
X65581038Y84410794D01*
X65366124Y83891945D01*
X65054116Y83424993D01*
X64657007Y83027884D01*
X64190055Y82715876D01*
X63671206Y82500962D01*
X63120400Y82391400D01*
X62558800Y82391400D01*
X62007994Y82500962D01*
X61489145Y82715876D01*
X61022193Y83027884D01*
X60625084Y83424993D01*
X60313076Y83891945D01*
X60098162Y84410794D01*
X60034789Y84729391D01*
X59988600Y84961600D01*
X59988600Y85523200D01*
X60098162Y86074005D01*
X60098162Y86074006D01*
X60313076Y86592855D01*
X60625084Y87059807D01*
X61022193Y87456916D01*
X61489145Y87768924D01*
X62007994Y87983838D01*
X62558800Y88093400D01*
X63120400Y88093400D01*
X63671206Y87983838D01*
X63671206Y87983838D01*
G37*
G36*
X40105900Y83274600D02*
G01*
X38303900Y83274600D01*
X38303900Y85076600D01*
X40105900Y85076600D01*
X40105900Y83274600D01*
X40105900Y83274600D01*
G37*
G36*
X41855342Y85070082D02*
G01*
X41921527Y85063563D01*
X42091366Y85012043D01*
X42247891Y84928378D01*
X42283629Y84899048D01*
X42385086Y84815786D01*
X42455987Y84729391D01*
X42497678Y84678591D01*
X42581343Y84522066D01*
X42632863Y84352227D01*
X42650259Y84175600D01*
X42632863Y83998973D01*
X42581343Y83829134D01*
X42497678Y83672609D01*
X42468348Y83636871D01*
X42385086Y83535414D01*
X42283629Y83452152D01*
X42247891Y83422822D01*
X42091366Y83339157D01*
X41921527Y83287637D01*
X41855343Y83281119D01*
X41789160Y83274600D01*
X41700640Y83274600D01*
X41634457Y83281119D01*
X41568273Y83287637D01*
X41398434Y83339157D01*
X41241909Y83422822D01*
X41206171Y83452152D01*
X41104714Y83535414D01*
X41021452Y83636871D01*
X40992122Y83672609D01*
X40908457Y83829134D01*
X40856937Y83998973D01*
X40839541Y84175600D01*
X40856937Y84352227D01*
X40908457Y84522066D01*
X40992122Y84678591D01*
X41033813Y84729391D01*
X41104714Y84815786D01*
X41206171Y84899048D01*
X41241909Y84928378D01*
X41398434Y85012043D01*
X41568273Y85063563D01*
X41634458Y85070082D01*
X41700640Y85076600D01*
X41789160Y85076600D01*
X41855342Y85070082D01*
X41855342Y85070082D01*
G37*
G36*
X44395342Y85070082D02*
G01*
X44461527Y85063563D01*
X44631366Y85012043D01*
X44787891Y84928378D01*
X44823629Y84899048D01*
X44925086Y84815786D01*
X44995987Y84729391D01*
X45037678Y84678591D01*
X45121343Y84522066D01*
X45172863Y84352227D01*
X45190259Y84175600D01*
X45172863Y83998973D01*
X45121343Y83829134D01*
X45037678Y83672609D01*
X45008348Y83636871D01*
X44925086Y83535414D01*
X44823629Y83452152D01*
X44787891Y83422822D01*
X44631366Y83339157D01*
X44461527Y83287637D01*
X44395343Y83281119D01*
X44329160Y83274600D01*
X44240640Y83274600D01*
X44174457Y83281119D01*
X44108273Y83287637D01*
X43938434Y83339157D01*
X43781909Y83422822D01*
X43746171Y83452152D01*
X43644714Y83535414D01*
X43561452Y83636871D01*
X43532122Y83672609D01*
X43448457Y83829134D01*
X43396937Y83998973D01*
X43379541Y84175600D01*
X43396937Y84352227D01*
X43448457Y84522066D01*
X43532122Y84678591D01*
X43573813Y84729391D01*
X43644714Y84815786D01*
X43746171Y84899048D01*
X43781909Y84928378D01*
X43938434Y85012043D01*
X44108273Y85063563D01*
X44174458Y85070082D01*
X44240640Y85076600D01*
X44329160Y85076600D01*
X44395342Y85070082D01*
X44395342Y85070082D01*
G37*
G36*
X46935342Y85070082D02*
G01*
X47001527Y85063563D01*
X47171366Y85012043D01*
X47327891Y84928378D01*
X47363629Y84899048D01*
X47465086Y84815786D01*
X47535987Y84729391D01*
X47577678Y84678591D01*
X47661343Y84522066D01*
X47712863Y84352227D01*
X47730259Y84175600D01*
X47712863Y83998973D01*
X47661343Y83829134D01*
X47577678Y83672609D01*
X47548348Y83636871D01*
X47465086Y83535414D01*
X47363629Y83452152D01*
X47327891Y83422822D01*
X47171366Y83339157D01*
X47001527Y83287637D01*
X46935343Y83281119D01*
X46869160Y83274600D01*
X46780640Y83274600D01*
X46714457Y83281119D01*
X46648273Y83287637D01*
X46478434Y83339157D01*
X46321909Y83422822D01*
X46286171Y83452152D01*
X46184714Y83535414D01*
X46101452Y83636871D01*
X46072122Y83672609D01*
X45988457Y83829134D01*
X45936937Y83998973D01*
X45919541Y84175600D01*
X45936937Y84352227D01*
X45988457Y84522066D01*
X46072122Y84678591D01*
X46113813Y84729391D01*
X46184714Y84815786D01*
X46286171Y84899048D01*
X46321909Y84928378D01*
X46478434Y85012043D01*
X46648273Y85063563D01*
X46714458Y85070082D01*
X46780640Y85076600D01*
X46869160Y85076600D01*
X46935342Y85070082D01*
X46935342Y85070082D01*
G37*
G36*
X53199600Y83325400D02*
G01*
X51397600Y83325400D01*
X51397600Y85127400D01*
X53199600Y85127400D01*
X53199600Y83325400D01*
X53199600Y83325400D01*
G37*
G36*
X54949043Y85120881D02*
G01*
X55015227Y85114363D01*
X55185066Y85062843D01*
X55341591Y84979178D01*
X55377329Y84949848D01*
X55478786Y84866586D01*
X55562048Y84765129D01*
X55591378Y84729391D01*
X55675043Y84572866D01*
X55726563Y84403027D01*
X55743959Y84226400D01*
X55726563Y84049773D01*
X55675043Y83879934D01*
X55591378Y83723409D01*
X55562048Y83687671D01*
X55478786Y83586214D01*
X55377329Y83502952D01*
X55341591Y83473622D01*
X55185066Y83389957D01*
X55015227Y83338437D01*
X54949043Y83331919D01*
X54882860Y83325400D01*
X54794340Y83325400D01*
X54728157Y83331919D01*
X54661973Y83338437D01*
X54492134Y83389957D01*
X54335609Y83473622D01*
X54299871Y83502952D01*
X54198414Y83586214D01*
X54115152Y83687671D01*
X54085822Y83723409D01*
X54002157Y83879934D01*
X53950637Y84049773D01*
X53933241Y84226400D01*
X53950637Y84403027D01*
X54002157Y84572866D01*
X54085822Y84729391D01*
X54115152Y84765129D01*
X54198414Y84866586D01*
X54299871Y84949848D01*
X54335609Y84979178D01*
X54492134Y85062843D01*
X54661973Y85114363D01*
X54728157Y85120881D01*
X54794340Y85127400D01*
X54882860Y85127400D01*
X54949043Y85120881D01*
X54949043Y85120881D01*
G37*
G36*
X57489043Y85120881D02*
G01*
X57555227Y85114363D01*
X57725066Y85062843D01*
X57881591Y84979178D01*
X57917329Y84949848D01*
X58018786Y84866586D01*
X58102048Y84765129D01*
X58131378Y84729391D01*
X58215043Y84572866D01*
X58266563Y84403027D01*
X58283959Y84226400D01*
X58266563Y84049773D01*
X58215043Y83879934D01*
X58131378Y83723409D01*
X58102048Y83687671D01*
X58018786Y83586214D01*
X57917329Y83502952D01*
X57881591Y83473622D01*
X57725066Y83389957D01*
X57555227Y83338437D01*
X57489043Y83331919D01*
X57422860Y83325400D01*
X57334340Y83325400D01*
X57268157Y83331919D01*
X57201973Y83338437D01*
X57032134Y83389957D01*
X56875609Y83473622D01*
X56839871Y83502952D01*
X56738414Y83586214D01*
X56655152Y83687671D01*
X56625822Y83723409D01*
X56542157Y83879934D01*
X56490637Y84049773D01*
X56473241Y84226400D01*
X56490637Y84403027D01*
X56542157Y84572866D01*
X56625822Y84729391D01*
X56655152Y84765129D01*
X56738414Y84866586D01*
X56839871Y84949848D01*
X56875609Y84979178D01*
X57032134Y85062843D01*
X57201973Y85114363D01*
X57268157Y85120881D01*
X57334340Y85127400D01*
X57422860Y85127400D01*
X57489043Y85120881D01*
X57489043Y85120881D01*
G37*
M02*
