M48
; DRILL file {KiCad 5.1.1} date Di 21 Mai 2019 09:35:10 CEST
; FORMAT={-:-/ absolute / inch / decimal}
; #@! TF.CreationDate,2019-05-21T09:35:10+02:00
; #@! TF.GenerationSoftware,Kicad,Pcbnew,5.1.1
; #@! TF.FileFunction,Plated,1,2,PTH
FMAT,2
INCH
T1C0.0157
T2C0.0394
T3C0.0472
T4C0.0630
T5C0.1260
T6C0.1969
%
G90
G05
T1
X0.285Y0.9975
X0.291Y1.048
X0.375Y3.14
X0.3755Y2.996
X0.3905Y1.136
X0.3985Y3.357
X0.4295Y1.1035
X0.4855Y2.886
X0.8145Y1.198
X0.815Y0.97
X0.89Y0.825
X0.9405Y2.9345
X1.1005Y3.17
X1.195Y0.365
X1.239Y1.066
X1.246Y2.781
X1.255Y2.6285
X1.257Y2.9095
X1.289Y2.797
X1.2895Y2.673
X1.3115Y1.788
X1.3155Y1.513
X1.3185Y2.83
X1.3195Y2.6425
X1.348Y2.6765
X1.358Y1.7125
X1.3605Y1.553
X1.4015Y1.2155
X1.405Y0.785
X1.41Y1.745
X1.41Y1.61
X1.435Y2.3985
X1.4355Y2.7995
X1.4355Y2.6695
X1.436Y2.0965
X1.465Y0.375
X1.475Y1.005
X1.534Y2.0965
X1.685Y0.8
X1.685Y0.535
X1.705Y0.375
X1.775Y1.065
X1.8425Y0.1575
X1.8425Y0.109
X1.85Y1.72
X1.854Y3.102
X1.9515Y0.341
X1.961Y2.995
X1.961Y2.6745
X1.99Y2.56
X2.01Y2.89
X2.02Y1.895
X2.02Y0.1515
X2.0485Y0.3185
X2.065Y0.2555
X2.1035Y0.1495
X2.357Y1.29
X2.43Y1.01
T2
X2.035Y0.84
X2.135Y0.84
X2.235Y0.84
X2.059Y3.316
X2.159Y3.316
X2.259Y3.316
X2.035Y0.665
X2.135Y0.665
X2.235Y0.665
X2.455Y3.15
X2.455Y3.05
X2.455Y2.95
X1.885Y1.61
X1.885Y1.51
X1.885Y1.41
X1.885Y1.31
X1.985Y1.61
X1.985Y1.51
X1.985Y1.41
X1.985Y1.31
X2.455Y1.71
X2.455Y1.61
X2.455Y1.51
X2.455Y1.41
X2.455Y1.31
X2.455Y1.21
X2.45Y0.52
X2.45Y0.42
X2.45Y0.32
X2.45Y0.22
X1.5435Y3.314
X1.6435Y3.314
X1.7435Y3.314
X1.8435Y3.314
X2.455Y2.77
X2.455Y2.67
X2.455Y2.57
X2.455Y2.47
X2.455Y2.37
X2.455Y2.27
T3
X0.735Y0.725
X0.735Y0.225
T4
X0.2219Y2.9261
X0.2219Y2.7687
X0.2219Y2.6112
X0.2219Y2.4537
X0.2219Y2.2962
X0.2219Y2.1387
X0.2219Y1.9813
X0.2219Y1.8238
X0.2219Y1.6663
X0.2219Y1.5088
X0.2219Y1.3513
X0.2219Y1.1939
X1.0881Y2.9261
X1.0881Y2.7687
X1.0881Y2.6112
X1.0881Y2.4537
X1.0881Y2.2962
X1.0881Y2.1387
X1.0881Y1.9813
X1.0881Y1.8238
X1.0881Y1.6663
X1.0881Y1.5088
X1.0881Y1.3513
X1.0881Y1.1939
T5
X2.474Y3.356
X2.4145Y1.9675
X0.643Y1.6663
X0.655Y2.4537
X0.151Y0.155
X2.2515Y0.137
T6
X0.655Y2.06
T0
M30
